G04 #@! TF.FileFunction,Copper,L2,Bot,Signal*
%FSLAX46Y46*%
G04 Gerber Fmt 4.6, Leading zero omitted, Abs format (unit mm)*
G04 Created by KiCad (PCBNEW 4.0.6) date 08/25/20 17:01:17*
%MOMM*%
%LPD*%
G01*
G04 APERTURE LIST*
%ADD10C,0.100000*%
%ADD11C,1.750000*%
%ADD12R,1.700000X1.700000*%
%ADD13R,2.200000X2.200000*%
%ADD14O,2.200000X2.200000*%
%ADD15C,1.600000*%
%ADD16O,1.700000X1.700000*%
%ADD17C,1.520000*%
%ADD18C,2.700000*%
%ADD19R,3.500000X3.500000*%
%ADD20O,1.727200X2.032000*%
%ADD21C,4.064000*%
%ADD22C,2.000000*%
%ADD23R,1.800000X1.800000*%
%ADD24O,1.800000X1.800000*%
%ADD25R,1.600000X1.600000*%
%ADD26O,1.600000X1.600000*%
%ADD27C,1.700000*%
%ADD28C,1.800000*%
%ADD29R,1.750000X1.750000*%
%ADD30C,1.400000*%
%ADD31O,1.400000X1.400000*%
%ADD32C,0.600000*%
%ADD33C,0.406400*%
%ADD34C,0.609600*%
%ADD35C,0.304800*%
%ADD36C,0.200000*%
G04 APERTURE END LIST*
D10*
D11*
X144018000Y-98425000D03*
X144018000Y-95885000D03*
D12*
X144018000Y-93345000D03*
D13*
X135763000Y-118110000D03*
D14*
X125603000Y-118110000D03*
D15*
X138938000Y-90170000D03*
X143938000Y-90170000D03*
X170688000Y-99060000D03*
X170688000Y-94060000D03*
X139573000Y-98425000D03*
X139573000Y-93425000D03*
D12*
X174498000Y-95885000D03*
D16*
X177038000Y-95885000D03*
X174498000Y-98425000D03*
X177038000Y-98425000D03*
X174498000Y-100965000D03*
X177038000Y-100965000D03*
D15*
X140843000Y-102870000D03*
X145843000Y-102870000D03*
D17*
X118618000Y-86995000D03*
X118618000Y-89535000D03*
X116618000Y-89535000D03*
X116618000Y-86995000D03*
D18*
X113918000Y-82265000D03*
X113918000Y-94265000D03*
D19*
X121158000Y-118745000D03*
X115158000Y-118745000D03*
X118158000Y-123445000D03*
D12*
X119253000Y-99060000D03*
D16*
X116713000Y-99060000D03*
X114173000Y-99060000D03*
D20*
X138938000Y-123825000D03*
X141478000Y-123825000D03*
X144018000Y-123825000D03*
X146558000Y-123825000D03*
X149098000Y-123825000D03*
X151638000Y-123825000D03*
X154178000Y-123825000D03*
X156718000Y-123825000D03*
X161798000Y-123825000D03*
X164338000Y-123825000D03*
X166878000Y-123825000D03*
X169418000Y-123825000D03*
X171958000Y-123825000D03*
X174498000Y-123825000D03*
X129794000Y-75565000D03*
X132334000Y-75565000D03*
X134874000Y-75565000D03*
X137414000Y-75565000D03*
X139954000Y-75565000D03*
X142494000Y-75565000D03*
X145034000Y-75565000D03*
X147574000Y-75565000D03*
X150114000Y-75565000D03*
X152654000Y-75565000D03*
X156718000Y-75565000D03*
X159258000Y-75565000D03*
X161798000Y-75565000D03*
X164338000Y-75565000D03*
X166878000Y-75565000D03*
X169418000Y-75565000D03*
X171958000Y-75565000D03*
X174498000Y-75565000D03*
D21*
X124968000Y-123825000D03*
X177038000Y-118745000D03*
X126238000Y-75565000D03*
X177038000Y-90805000D03*
D22*
X119888000Y-74875000D03*
X119888000Y-79375000D03*
X113388000Y-74875000D03*
X113388000Y-79375000D03*
D23*
X131318000Y-109601000D03*
D24*
X131318000Y-107061000D03*
X131318000Y-104521000D03*
D25*
X147193000Y-88900000D03*
D26*
X170053000Y-81280000D03*
X149733000Y-88900000D03*
X167513000Y-81280000D03*
X152273000Y-88900000D03*
X164973000Y-81280000D03*
X154813000Y-88900000D03*
X162433000Y-81280000D03*
X157353000Y-88900000D03*
X159893000Y-81280000D03*
X159893000Y-88900000D03*
X157353000Y-81280000D03*
X162433000Y-88900000D03*
X154813000Y-81280000D03*
X164973000Y-88900000D03*
X152273000Y-81280000D03*
X167513000Y-88900000D03*
X149733000Y-81280000D03*
X170053000Y-88900000D03*
X147193000Y-81280000D03*
D25*
X164973000Y-92075000D03*
D26*
X149733000Y-99695000D03*
X162433000Y-92075000D03*
X152273000Y-99695000D03*
X159893000Y-92075000D03*
X154813000Y-99695000D03*
X157353000Y-92075000D03*
X157353000Y-99695000D03*
X154813000Y-92075000D03*
X159893000Y-99695000D03*
X152273000Y-92075000D03*
X162433000Y-99695000D03*
X149733000Y-92075000D03*
X164973000Y-99695000D03*
D25*
X175133000Y-106680000D03*
D26*
X142113000Y-114300000D03*
X172593000Y-106680000D03*
X144653000Y-114300000D03*
X170053000Y-106680000D03*
X147193000Y-114300000D03*
X167513000Y-106680000D03*
X149733000Y-114300000D03*
X164973000Y-106680000D03*
X152273000Y-114300000D03*
X162433000Y-106680000D03*
X154813000Y-114300000D03*
X159893000Y-106680000D03*
X157353000Y-114300000D03*
X157353000Y-106680000D03*
X159893000Y-114300000D03*
X154813000Y-106680000D03*
X162433000Y-114300000D03*
X152273000Y-106680000D03*
X164973000Y-114300000D03*
X149733000Y-106680000D03*
X167513000Y-114300000D03*
X147193000Y-106680000D03*
X170053000Y-114300000D03*
X144653000Y-106680000D03*
X172593000Y-114300000D03*
X142113000Y-106680000D03*
X175133000Y-114300000D03*
D27*
X149733000Y-103505000D03*
X152233000Y-103505000D03*
X154733000Y-103505000D03*
D23*
X136398000Y-98425000D03*
D28*
X133858000Y-98425000D03*
D23*
X136398000Y-83185000D03*
D28*
X133858000Y-83185000D03*
D23*
X136398000Y-88265000D03*
D28*
X133858000Y-88265000D03*
D23*
X136398000Y-93345000D03*
D28*
X133858000Y-93345000D03*
D15*
X160528000Y-103505000D03*
X158028000Y-103505000D03*
X137668000Y-114300000D03*
X135168000Y-114300000D03*
X140843000Y-81915000D03*
X143343000Y-81915000D03*
X143256000Y-85725000D03*
X140756000Y-85725000D03*
D29*
X132969000Y-123317000D03*
D11*
X130469000Y-123317000D03*
D30*
X122813000Y-97155000D03*
D31*
X131063000Y-97155000D03*
D30*
X168248000Y-100365000D03*
D31*
X168248000Y-92115000D03*
D30*
X171319000Y-103505000D03*
D31*
X163069000Y-103505000D03*
D30*
X122813000Y-92075000D03*
D31*
X131063000Y-92075000D03*
D30*
X130933000Y-89535000D03*
D31*
X122683000Y-89535000D03*
D30*
X130933000Y-86995000D03*
D31*
X122683000Y-86995000D03*
D30*
X122813000Y-99695000D03*
D31*
X131063000Y-99695000D03*
D30*
X122813000Y-94615000D03*
D31*
X131063000Y-94615000D03*
D30*
X130933000Y-84455000D03*
D31*
X122683000Y-84455000D03*
D30*
X130933000Y-81915000D03*
D31*
X122683000Y-81915000D03*
D32*
X134239000Y-120777000D03*
X121158000Y-111125000D03*
X118618000Y-106045000D03*
X118618000Y-108585000D03*
X116078000Y-111125000D03*
X113538000Y-111125000D03*
X118618000Y-111125000D03*
X121158000Y-108585000D03*
X123698000Y-108585000D03*
X126238000Y-108585000D03*
X126238000Y-111125000D03*
X123698000Y-111125000D03*
X118618000Y-103505000D03*
X121158000Y-103505000D03*
X121158000Y-106045000D03*
X123698000Y-106045000D03*
X126238000Y-106045000D03*
X116078000Y-103505000D03*
X113538000Y-103505000D03*
X139827000Y-119888000D03*
X175260000Y-77724000D03*
X175133000Y-93853000D03*
X178181000Y-94234000D03*
X153543000Y-111252000D03*
X154686000Y-110617000D03*
X160655000Y-96393000D03*
X147574000Y-96393000D03*
X149352000Y-94361000D03*
X165100000Y-94869000D03*
X152019000Y-95631000D03*
X165354000Y-95758000D03*
X151003000Y-109601000D03*
X170942000Y-110109000D03*
X160020000Y-108712000D03*
X138176000Y-86487000D03*
X154940000Y-84963000D03*
X161925000Y-96774000D03*
X149479000Y-96774000D03*
X177800000Y-103251000D03*
X153670000Y-112522000D03*
X158750000Y-112522000D03*
D33*
X170688000Y-99060000D02*
X170688000Y-102874000D01*
X170688000Y-102874000D02*
X171319000Y-103505000D01*
X113388000Y-74875000D02*
X113339000Y-74875000D01*
X113339000Y-74875000D02*
X111760000Y-76454000D01*
X111760000Y-76454000D02*
X111760000Y-113157000D01*
X174498000Y-100965000D02*
X174498000Y-103759000D01*
X174498000Y-103759000D02*
X175133000Y-104394000D01*
X128143000Y-114681000D02*
X134239000Y-120777000D01*
X113284000Y-114681000D02*
X128143000Y-114681000D01*
X111760000Y-113157000D02*
X113284000Y-114681000D01*
X175133000Y-104394000D02*
X175133000Y-106680000D01*
D34*
X132969000Y-125730000D02*
X133858000Y-125730000D01*
X136398000Y-114935000D02*
X135763000Y-114300000D01*
X137668000Y-121285000D02*
X137668000Y-116205000D01*
X137668000Y-116205000D02*
X136398000Y-114935000D01*
X137668000Y-121920000D02*
X137668000Y-121285000D01*
X133858000Y-125730000D02*
X137668000Y-121920000D01*
X130469000Y-123317000D02*
X130469000Y-123738000D01*
X130469000Y-123738000D02*
X132461000Y-125730000D01*
X132461000Y-125730000D02*
X132969000Y-125730000D01*
X132969000Y-125730000D02*
X134493000Y-125730000D01*
X128778000Y-120650000D02*
X129667000Y-120650000D01*
X130469000Y-121452000D02*
X130469000Y-123317000D01*
X129667000Y-120650000D02*
X130469000Y-121452000D01*
X143938000Y-90090000D02*
X140756000Y-86908000D01*
X140756000Y-86908000D02*
X140756000Y-85725000D01*
D35*
X118618000Y-108585000D02*
X116078000Y-111125000D01*
X113538000Y-111125000D02*
X118618000Y-111125000D01*
X116078000Y-103505000D02*
X118618000Y-106045000D01*
X123698000Y-108585000D02*
X121158000Y-108585000D01*
X126238000Y-111125000D02*
X126238000Y-108585000D01*
X121158000Y-111125000D02*
X123698000Y-111125000D01*
X118618000Y-103505000D02*
X116078000Y-103505000D01*
X121158000Y-106045000D02*
X121158000Y-103505000D01*
X126238000Y-106045000D02*
X123698000Y-106045000D01*
X113538000Y-103505000D02*
X116078000Y-103505000D01*
D34*
X140756000Y-85725000D02*
X140756000Y-84502000D01*
X140756000Y-84502000D02*
X143343000Y-81915000D01*
X157353000Y-92075000D02*
X157924500Y-92075000D01*
X157924500Y-92075000D02*
X159893000Y-90106500D01*
X159893000Y-90106500D02*
X159893000Y-88900000D01*
X157353000Y-81280000D02*
X157353000Y-83820000D01*
X159893000Y-86360000D02*
X159893000Y-88900000D01*
X157353000Y-83820000D02*
X159893000Y-86360000D01*
X143938000Y-90170000D02*
X143938000Y-90090000D01*
X144018000Y-93345000D02*
X144018000Y-90250000D01*
X144018000Y-90250000D02*
X143938000Y-90170000D01*
X136398000Y-98425000D02*
X136398000Y-93345000D01*
X113918000Y-82265000D02*
X113918000Y-86835000D01*
X113918000Y-86835000D02*
X116618000Y-89535000D01*
X113388000Y-79375000D02*
X113388000Y-81735000D01*
X113388000Y-81735000D02*
X113918000Y-82265000D01*
X157353000Y-106680000D02*
X157353000Y-105410000D01*
X158028000Y-104735000D02*
X158028000Y-103505000D01*
X157353000Y-105410000D02*
X158028000Y-104735000D01*
X152233000Y-103505000D02*
X152233000Y-102910000D01*
X158028000Y-102910000D02*
X158028000Y-103505000D01*
X159893000Y-114300000D02*
X159893000Y-110490000D01*
X157353000Y-107950000D02*
X157353000Y-106680000D01*
X159893000Y-110490000D02*
X157353000Y-107950000D01*
X151638000Y-123825000D02*
X151638000Y-124460000D01*
X151638000Y-124460000D02*
X150368000Y-125730000D01*
X150368000Y-125730000D02*
X134493000Y-125730000D01*
X159893000Y-114300000D02*
X159893000Y-115570000D01*
X154178000Y-121285000D02*
X154178000Y-123825000D01*
X159893000Y-115570000D02*
X154178000Y-121285000D01*
X151638000Y-123825000D02*
X154178000Y-123825000D01*
X113918000Y-94265000D02*
X114523000Y-94265000D01*
X114523000Y-94265000D02*
X116618000Y-92170000D01*
X116618000Y-92170000D02*
X116618000Y-89535000D01*
X135168000Y-114300000D02*
X135168000Y-109895000D01*
X132334000Y-107061000D02*
X131318000Y-107061000D01*
X135168000Y-109895000D02*
X132334000Y-107061000D01*
X135763000Y-114300000D02*
X135168000Y-114300000D01*
X118158000Y-123445000D02*
X120903000Y-123445000D01*
X120903000Y-123445000D02*
X123698000Y-120650000D01*
X123698000Y-120650000D02*
X128778000Y-120650000D01*
X128778000Y-120650000D02*
X128802000Y-120650000D01*
X118158000Y-123445000D02*
X118158000Y-121745000D01*
X118158000Y-121745000D02*
X115158000Y-118745000D01*
X132969000Y-123317000D02*
X133731000Y-123317000D01*
X135763000Y-121285000D02*
X135763000Y-118110000D01*
X133731000Y-123317000D02*
X135763000Y-121285000D01*
X135763000Y-118110000D02*
X134493000Y-118110000D01*
X131318000Y-114935000D02*
X131318000Y-109601000D01*
X134493000Y-118110000D02*
X131318000Y-114935000D01*
D33*
X162433000Y-114300000D02*
X162433000Y-121920000D01*
X161798000Y-122555000D02*
X161798000Y-123825000D01*
X162433000Y-121920000D02*
X161798000Y-122555000D01*
X164973000Y-114300000D02*
X164973000Y-120650000D01*
X164338000Y-121285000D02*
X164338000Y-123825000D01*
X164973000Y-120650000D02*
X164338000Y-121285000D01*
X167513000Y-114300000D02*
X167513000Y-119380000D01*
X166878000Y-120015000D02*
X166878000Y-123825000D01*
X167513000Y-119380000D02*
X166878000Y-120015000D01*
X170053000Y-114300000D02*
X170053000Y-118110000D01*
X169418000Y-118745000D02*
X169418000Y-123825000D01*
X170053000Y-118110000D02*
X169418000Y-118745000D01*
X127127000Y-102362000D02*
X127889000Y-103124000D01*
X138938000Y-118999000D02*
X139827000Y-119888000D01*
X138938000Y-109488734D02*
X138938000Y-118999000D01*
X132573266Y-103124000D02*
X138938000Y-109488734D01*
X128143000Y-103124000D02*
X132573266Y-103124000D01*
X124714000Y-99949000D02*
X127127000Y-102362000D01*
X124714000Y-97536000D02*
X124714000Y-99949000D01*
X124714000Y-80772000D02*
X124714000Y-97536000D01*
X128397000Y-77089000D02*
X124714000Y-80772000D01*
X134112000Y-77089000D02*
X128397000Y-77089000D01*
X134112000Y-77089000D02*
X134874000Y-76327000D01*
X127889000Y-103124000D02*
X128143000Y-103124000D01*
X134874000Y-75565000D02*
X134874000Y-76327000D01*
X172593000Y-114300000D02*
X172593000Y-113665000D01*
X172593000Y-113665000D02*
X177038000Y-109220000D01*
X134112000Y-73787000D02*
X132334000Y-75565000D01*
X174879000Y-73787000D02*
X134112000Y-73787000D01*
X176022000Y-74930000D02*
X174879000Y-73787000D01*
X176022000Y-76962000D02*
X176022000Y-74930000D01*
X175260000Y-77724000D02*
X176022000Y-76962000D01*
X175768000Y-94488000D02*
X175133000Y-93853000D01*
X175768000Y-103251000D02*
X175768000Y-94488000D01*
X177038000Y-104521000D02*
X175768000Y-103251000D01*
X177038000Y-109220000D02*
X177038000Y-104521000D01*
X172593000Y-114300000D02*
X172593000Y-116840000D01*
X171958000Y-117475000D02*
X171958000Y-123825000D01*
X172593000Y-116840000D02*
X171958000Y-117475000D01*
X175133000Y-114300000D02*
X175133000Y-114046000D01*
X175133000Y-114046000D02*
X178943000Y-110236000D01*
X178943000Y-94996000D02*
X178181000Y-94234000D01*
X178943000Y-110236000D02*
X178943000Y-94996000D01*
X175133000Y-114300000D02*
X175133000Y-115570000D01*
X174498000Y-116205000D02*
X174498000Y-123825000D01*
X175133000Y-115570000D02*
X174498000Y-116205000D01*
X175133000Y-114300000D02*
X175133000Y-114935000D01*
D35*
X150114000Y-75565000D02*
X150114000Y-76073000D01*
X150114000Y-76073000D02*
X146523190Y-79663810D01*
X146523190Y-79663810D02*
X129463522Y-79663810D01*
X129463522Y-79663810D02*
X127368208Y-81759124D01*
X127368208Y-81759124D02*
X127368208Y-97015208D01*
X127368208Y-97015208D02*
X128778000Y-98425000D01*
X128778000Y-98425000D02*
X131699000Y-98425000D01*
X131699000Y-98425000D02*
X145923000Y-112649000D01*
X145923000Y-112649000D02*
X145923000Y-116341594D01*
X145923000Y-116341594D02*
X145161000Y-117103594D01*
X145161000Y-117103594D02*
X142757594Y-117103594D01*
X142757594Y-117103594D02*
X142113000Y-116459000D01*
X142113000Y-116459000D02*
X142113000Y-114300000D01*
X153479500Y-107378500D02*
X153479500Y-111188500D01*
X153543000Y-102171500D02*
X153479500Y-102235000D01*
X153479500Y-102235000D02*
X153479500Y-107378500D01*
X153543000Y-102171500D02*
X153543000Y-101981000D01*
X153479500Y-111188500D02*
X153543000Y-111252000D01*
X153543000Y-79502000D02*
X153543000Y-101981000D01*
X152654000Y-75565000D02*
X152654000Y-78613000D01*
X153543000Y-101981000D02*
X153543000Y-101727000D01*
X152654000Y-78613000D02*
X153543000Y-79502000D01*
D33*
X156083000Y-105664000D02*
X156083000Y-109220000D01*
X156083000Y-91440000D02*
X157226000Y-90297000D01*
X157226000Y-90297000D02*
X157988000Y-90297000D01*
X157988000Y-90297000D02*
X158623000Y-89662000D01*
X158623000Y-89662000D02*
X158623000Y-86614000D01*
X158623000Y-86614000D02*
X156083000Y-84074000D01*
X156083000Y-84074000D02*
X156083000Y-83693000D01*
X156083000Y-101727000D02*
X156083000Y-102108000D01*
X156718000Y-75565000D02*
X156718000Y-79121000D01*
X156083000Y-92583000D02*
X156083000Y-101727000D01*
X156083000Y-79756000D02*
X156083000Y-83693000D01*
X156718000Y-79121000D02*
X156083000Y-79756000D01*
X156718000Y-105029000D02*
X156083000Y-105664000D01*
X156718000Y-102743000D02*
X156718000Y-105029000D01*
X156083000Y-102108000D02*
X156718000Y-102743000D01*
X156083000Y-92583000D02*
X156083000Y-91440000D01*
X156083000Y-109220000D02*
X154686000Y-110617000D01*
X159258000Y-78613000D02*
X158623000Y-79248000D01*
X158623000Y-79248000D02*
X158623000Y-83820000D01*
X158623000Y-83820000D02*
X161163000Y-86360000D01*
X161163000Y-86360000D02*
X161163000Y-95885000D01*
X161163000Y-95885000D02*
X160655000Y-96393000D01*
X147574000Y-96393000D02*
X147729598Y-96548598D01*
X147729598Y-96548598D02*
X147729598Y-105127402D01*
X147729598Y-105127402D02*
X147193000Y-105664000D01*
X147193000Y-106680000D02*
X147193000Y-105664000D01*
X159258000Y-78613000D02*
X159258000Y-75565000D01*
X161798000Y-75565000D02*
X161798000Y-77343000D01*
X148336000Y-105283000D02*
X149733000Y-106680000D01*
X148336000Y-95377000D02*
X148336000Y-105283000D01*
X149352000Y-94361000D02*
X148336000Y-95377000D01*
X166497000Y-93472000D02*
X165100000Y-94869000D01*
X166497000Y-92075000D02*
X166497000Y-93472000D01*
X168021000Y-90551000D02*
X166497000Y-92075000D01*
X170623836Y-90551000D02*
X168021000Y-90551000D01*
X171437392Y-89737444D02*
X170623836Y-90551000D01*
X171437392Y-80378392D02*
X171437392Y-89737444D01*
X170561000Y-79502000D02*
X171437392Y-80378392D01*
X163957000Y-79502000D02*
X170561000Y-79502000D01*
X161798000Y-77343000D02*
X163957000Y-79502000D01*
X164338000Y-75565000D02*
X164338000Y-76962000D01*
X166243000Y-102870000D02*
X162433000Y-106680000D01*
X166243000Y-95789418D02*
X166243000Y-102870000D01*
X172043794Y-89988624D02*
X166243000Y-95789418D01*
X172043794Y-79248000D02*
X172043794Y-89988624D01*
X171507196Y-78711402D02*
X172043794Y-79248000D01*
X166087402Y-78711402D02*
X171507196Y-78711402D01*
X164338000Y-76962000D02*
X166087402Y-78711402D01*
X166878000Y-75565000D02*
X166878000Y-76835000D01*
X166878000Y-104775000D02*
X164973000Y-106680000D01*
X166878000Y-96012000D02*
X166878000Y-104775000D01*
X172650196Y-90239804D02*
X166878000Y-96012000D01*
X172650196Y-78613000D02*
X172650196Y-90239804D01*
X172142196Y-78105000D02*
X172650196Y-78613000D01*
X168148000Y-78105000D02*
X172142196Y-78105000D01*
X166878000Y-76835000D02*
X168148000Y-78105000D01*
X171958000Y-94615000D02*
X169418000Y-97155000D01*
X169418000Y-75565000D02*
X169418000Y-76835000D01*
X169418000Y-104775000D02*
X167513000Y-106680000D01*
X169418000Y-97155000D02*
X169418000Y-104775000D01*
X171958000Y-93345000D02*
X171958000Y-94615000D01*
X173256598Y-92046402D02*
X171958000Y-93345000D01*
X173256598Y-78133598D02*
X173256598Y-92046402D01*
X172593000Y-77470000D02*
X173256598Y-78133598D01*
X170053000Y-77470000D02*
X172593000Y-77470000D01*
X169418000Y-76835000D02*
X170053000Y-77470000D01*
X152019000Y-95631000D02*
X152019000Y-95504000D01*
X168148000Y-92075000D02*
X168148000Y-92964000D01*
X152273000Y-95885000D02*
X152273000Y-99695000D01*
X152019000Y-95631000D02*
X152273000Y-95885000D01*
X168148000Y-92964000D02*
X165354000Y-95758000D01*
D35*
X151003000Y-109601000D02*
X151003000Y-113030000D01*
X139954000Y-75565000D02*
X139954000Y-76073000D01*
X139954000Y-76073000D02*
X138382398Y-77644602D01*
X138382398Y-77644602D02*
X128627138Y-77644602D01*
X128627138Y-77644602D02*
X125349000Y-80922740D01*
X125349000Y-80922740D02*
X125349000Y-99695000D01*
X125349000Y-99695000D02*
X128143000Y-102489000D01*
X128143000Y-102489000D02*
X132724006Y-102489000D01*
X132724006Y-102489000D02*
X139573000Y-109337994D01*
X139573000Y-109337994D02*
X139573000Y-117983000D01*
X139573000Y-117983000D02*
X140208000Y-118618000D01*
X140208000Y-118618000D02*
X151257000Y-118618000D01*
X151257000Y-118618000D02*
X152273000Y-117602000D01*
X151003000Y-113030000D02*
X152273000Y-114300000D01*
X152273000Y-117602000D02*
X152273000Y-114300000D01*
D33*
X143256000Y-85725000D02*
X143256000Y-87376000D01*
X145669000Y-96774000D02*
X144018000Y-98425000D01*
X145669000Y-89789000D02*
X145669000Y-96774000D01*
X143256000Y-87376000D02*
X145669000Y-89789000D01*
X145923000Y-107823000D02*
X145923000Y-105664000D01*
X145923000Y-107823000D02*
X146685000Y-108585000D01*
X146685000Y-108585000D02*
X151130000Y-108585000D01*
X151130000Y-108585000D02*
X152527000Y-109982000D01*
X152527000Y-109982000D02*
X152527000Y-112649000D01*
X152527000Y-112649000D02*
X153543000Y-113665000D01*
X153543000Y-113665000D02*
X153543000Y-117348000D01*
X153543000Y-117348000D02*
X151511000Y-119380000D01*
X151511000Y-119380000D02*
X147955000Y-119380000D01*
X147955000Y-119380000D02*
X146558000Y-120777000D01*
X146558000Y-123825000D02*
X146558000Y-120777000D01*
X144018000Y-103759000D02*
X144018000Y-98425000D01*
X145923000Y-105664000D02*
X144018000Y-103759000D01*
X138938000Y-90170000D02*
X138938000Y-90424000D01*
X133858000Y-83185000D02*
X133858000Y-88265000D01*
X174498000Y-95885000D02*
X174498000Y-96012000D01*
X174498000Y-96012000D02*
X173228000Y-97282000D01*
X173228000Y-97282000D02*
X173228000Y-101727000D01*
X173228000Y-101727000D02*
X173834402Y-102333402D01*
X173834402Y-102333402D02*
X173834402Y-109756598D01*
X173834402Y-109756598D02*
X173482000Y-110109000D01*
X173482000Y-110109000D02*
X170942000Y-110109000D01*
D35*
X149733000Y-117475000D02*
X149733000Y-114300000D01*
X149094802Y-118113198D02*
X149733000Y-117475000D01*
X140846198Y-118113198D02*
X149094802Y-118113198D01*
X140077802Y-117344802D02*
X140846198Y-118113198D01*
X140077802Y-109128898D02*
X140077802Y-117344802D01*
X132806102Y-101857198D02*
X140077802Y-109128898D01*
X128225096Y-101857198D02*
X132806102Y-101857198D01*
X125853802Y-99485904D02*
X128225096Y-101857198D01*
X125853802Y-81131836D02*
X125853802Y-99485904D01*
X128836234Y-78149404D02*
X125853802Y-81131836D01*
X140925596Y-78149404D02*
X128836234Y-78149404D01*
X142494000Y-76581000D02*
X140925596Y-78149404D01*
X142494000Y-75565000D02*
X142494000Y-76581000D01*
D34*
X137668000Y-114300000D02*
X137668000Y-109220000D01*
X132969000Y-104521000D02*
X131318000Y-104521000D01*
X137668000Y-109220000D02*
X132969000Y-104521000D01*
X163069000Y-103505000D02*
X163069000Y-103250000D01*
X163069000Y-103250000D02*
X164973000Y-101346000D01*
X164973000Y-101346000D02*
X164973000Y-99695000D01*
X160528000Y-103505000D02*
X163069000Y-103505000D01*
X139573000Y-98425000D02*
X139573000Y-97409000D01*
X141097000Y-95885000D02*
X144018000Y-95885000D01*
X139573000Y-97409000D02*
X141097000Y-95885000D01*
D33*
X159893000Y-81280000D02*
X159893000Y-83693000D01*
X159893000Y-83693000D02*
X163703000Y-87503000D01*
X163703000Y-87503000D02*
X163703000Y-93726000D01*
X163703000Y-93726000D02*
X163449000Y-93980000D01*
X163449000Y-93980000D02*
X163449000Y-98171000D01*
X163449000Y-98171000D02*
X164973000Y-99695000D01*
D34*
X159893000Y-106680000D02*
X159893000Y-105410000D01*
X159893000Y-105410000D02*
X160528000Y-104775000D01*
X160528000Y-104775000D02*
X160528000Y-103505000D01*
X149098000Y-123825000D02*
X149098000Y-123063000D01*
X154813000Y-117348000D02*
X154813000Y-114300000D01*
X149098000Y-123063000D02*
X154813000Y-117348000D01*
X121158000Y-118745000D02*
X124968000Y-118745000D01*
X124968000Y-118745000D02*
X125603000Y-118110000D01*
D33*
X130683000Y-97155000D02*
X130937000Y-97155000D01*
X130937000Y-97155000D02*
X132461000Y-95631000D01*
X132461000Y-95631000D02*
X132461000Y-94742000D01*
X132461000Y-94742000D02*
X133858000Y-93345000D01*
D34*
X118618000Y-89535000D02*
X118618000Y-92075000D01*
X121158000Y-94615000D02*
X123063000Y-94615000D01*
X118618000Y-92075000D02*
X121158000Y-94615000D01*
D33*
X170053000Y-106680000D02*
X172466000Y-104267000D01*
X172621598Y-94840402D02*
X171958000Y-95504000D01*
X171958000Y-95504000D02*
X171958000Y-102489000D01*
X171958000Y-102489000D02*
X172466000Y-102997000D01*
X172466000Y-102997000D02*
X172466000Y-104267000D01*
X173863000Y-77470000D02*
X171958000Y-75565000D01*
X173863000Y-92487418D02*
X172621598Y-93728820D01*
X173863000Y-77470000D02*
X173863000Y-92487418D01*
X172621598Y-93728820D02*
X172621598Y-94840402D01*
X173228000Y-93980000D02*
X173228000Y-95091582D01*
X173228000Y-93980000D02*
X174498000Y-92710000D01*
X174498000Y-75565000D02*
X174498000Y-92710000D01*
X173228000Y-105410000D02*
X172593000Y-106045000D01*
X173228000Y-102901418D02*
X173228000Y-105410000D01*
X172564402Y-102237820D02*
X173228000Y-102901418D01*
X172564402Y-95755180D02*
X172564402Y-102237820D01*
X173228000Y-95091582D02*
X172564402Y-95755180D01*
X159893000Y-92075000D02*
X159893000Y-95250000D01*
X159639000Y-108712000D02*
X160020000Y-108712000D01*
X158623000Y-107696000D02*
X159639000Y-108712000D01*
X158623000Y-105410000D02*
X158623000Y-107696000D01*
X159258000Y-104775000D02*
X158623000Y-105410000D01*
X159258000Y-102108000D02*
X159258000Y-104775000D01*
X158623000Y-101473000D02*
X159258000Y-102108000D01*
X158623000Y-96520000D02*
X158623000Y-101473000D01*
X159893000Y-95250000D02*
X158623000Y-96520000D01*
X172593000Y-106680000D02*
X172593000Y-106045000D01*
X131572000Y-91186000D02*
X130683000Y-92075000D01*
X136017000Y-91186000D02*
X131572000Y-91186000D01*
X137922000Y-89281000D02*
X136017000Y-91186000D01*
X137922000Y-86741000D02*
X137922000Y-89281000D01*
X138176000Y-86487000D02*
X137922000Y-86741000D01*
X130683000Y-94615000D02*
X130683000Y-92075000D01*
X154813000Y-92075000D02*
X154813000Y-91440000D01*
X154813000Y-91440000D02*
X156083000Y-90170000D01*
X156083000Y-90170000D02*
X156083000Y-86106000D01*
X156083000Y-86106000D02*
X154940000Y-84963000D01*
D35*
X149733000Y-93599000D02*
X148844000Y-93599000D01*
X149733000Y-93599000D02*
X150622000Y-94488000D01*
X150622000Y-94488000D02*
X150622000Y-95631000D01*
X149479000Y-96774000D02*
X150622000Y-95631000D01*
X148463000Y-82550000D02*
X147193000Y-81280000D01*
X148463000Y-93218000D02*
X148463000Y-82550000D01*
X148844000Y-93599000D02*
X148463000Y-93218000D01*
D33*
X149479000Y-96774000D02*
X149606000Y-96774000D01*
X162433000Y-96266000D02*
X161925000Y-96774000D01*
X162433000Y-92075000D02*
X162433000Y-96266000D01*
X154733000Y-103505000D02*
X154733000Y-106600000D01*
X154733000Y-106600000D02*
X154813000Y-106680000D01*
X149733000Y-103505000D02*
X149733000Y-104140000D01*
X149733000Y-104140000D02*
X152273000Y-106680000D01*
D35*
X178387398Y-99822000D02*
X177038000Y-98472602D01*
X178387398Y-102663602D02*
X177800000Y-103251000D01*
X178387398Y-99822000D02*
X178387398Y-102663602D01*
X177038000Y-98425000D02*
X177038000Y-98472602D01*
X145034000Y-75565000D02*
X145034000Y-76708000D01*
X145034000Y-76708000D02*
X143087794Y-78654206D01*
X143087794Y-78654206D02*
X129045330Y-78654206D01*
X147193000Y-116840000D02*
X147193000Y-114300000D01*
X146424604Y-117608396D02*
X147193000Y-116840000D01*
X141103396Y-117608396D02*
X146424604Y-117608396D01*
X140582604Y-117087604D02*
X141103396Y-117608396D01*
X140582604Y-108919802D02*
X140582604Y-117087604D01*
X133015198Y-101352396D02*
X140582604Y-108919802D01*
X128434192Y-101352396D02*
X133015198Y-101352396D01*
X126358604Y-99276808D02*
X128434192Y-101352396D01*
X126358604Y-81340932D02*
X126358604Y-99276808D01*
X129045330Y-78654206D02*
X126358604Y-81340932D01*
D33*
X153670000Y-112522000D02*
X158750000Y-112522000D01*
D35*
X141087406Y-108710706D02*
X141087406Y-110734406D01*
X144653000Y-114300000D02*
X141087406Y-110734406D01*
X129254426Y-79159008D02*
X126863406Y-81550028D01*
X144868992Y-79159008D02*
X129254426Y-79159008D01*
X144868992Y-79159008D02*
X147574000Y-76454000D01*
X126863406Y-81550028D02*
X126863406Y-99060000D01*
X128651000Y-100847594D02*
X133224294Y-100847594D01*
X126863406Y-99060000D02*
X128651000Y-100847594D01*
X133224294Y-100847594D02*
X141087406Y-108710706D01*
X147574000Y-75565000D02*
X147574000Y-76454000D01*
D36*
G36*
X119067714Y-73645033D02*
X118659467Y-74052569D01*
X118438252Y-74585312D01*
X118437749Y-75162157D01*
X118658033Y-75695286D01*
X119065569Y-76103533D01*
X119598312Y-76324748D01*
X120175157Y-76325251D01*
X120708286Y-76104967D01*
X121116533Y-75697431D01*
X121337748Y-75164688D01*
X121338251Y-74587843D01*
X121117967Y-74054714D01*
X120710431Y-73646467D01*
X120478113Y-73550000D01*
X124743375Y-73550000D01*
X124135090Y-74157224D01*
X123756432Y-75069134D01*
X123755570Y-76056534D01*
X124132636Y-76969103D01*
X124830224Y-77667910D01*
X125742134Y-78046568D01*
X126514993Y-78047243D01*
X124252118Y-80310118D01*
X124110522Y-80522031D01*
X124060800Y-80772000D01*
X124060800Y-91627540D01*
X123975227Y-91420947D01*
X123750303Y-91355486D01*
X123030789Y-92075000D01*
X123750303Y-92794514D01*
X123975227Y-92729053D01*
X124060800Y-92467534D01*
X124060800Y-99949000D01*
X124110522Y-100198969D01*
X124252118Y-100410882D01*
X127427118Y-103585882D01*
X127639031Y-103727478D01*
X127889000Y-103777200D01*
X130204886Y-103777200D01*
X130070763Y-103977929D01*
X129968000Y-104494552D01*
X129968000Y-104547448D01*
X130070763Y-105064071D01*
X130363406Y-105502042D01*
X130674376Y-105709826D01*
X130560836Y-105756852D01*
X130119396Y-106145878D01*
X129860432Y-106674224D01*
X129969872Y-106907000D01*
X131164000Y-106907000D01*
X131164000Y-106887000D01*
X131472000Y-106887000D01*
X131472000Y-106907000D01*
X132666128Y-106907000D01*
X132775568Y-106674224D01*
X132516604Y-106145878D01*
X132075164Y-105756852D01*
X131961624Y-105709826D01*
X132272594Y-105502042D01*
X132423764Y-105275800D01*
X132656352Y-105275800D01*
X136913200Y-109532649D01*
X136913200Y-113287258D01*
X136608919Y-113591007D01*
X136512066Y-113824256D01*
X136413229Y-113585643D01*
X136177969Y-113507820D01*
X135385789Y-114300000D01*
X136177969Y-115092180D01*
X136413229Y-115014357D01*
X136501831Y-114750960D01*
X136607684Y-115007143D01*
X136959007Y-115359081D01*
X137418269Y-115549783D01*
X137915550Y-115550217D01*
X138284800Y-115397645D01*
X138284800Y-118999000D01*
X138334522Y-119248969D01*
X138476118Y-119460882D01*
X139094547Y-120079311D01*
X139190811Y-120312286D01*
X139401605Y-120523448D01*
X139677161Y-120637869D01*
X139975530Y-120638130D01*
X140251286Y-120524189D01*
X140462448Y-120313395D01*
X140576869Y-120037839D01*
X140577130Y-119739470D01*
X140463189Y-119463714D01*
X140252395Y-119252552D01*
X140144588Y-119207787D01*
X140208000Y-119220400D01*
X147190836Y-119220400D01*
X146096118Y-120315118D01*
X145954522Y-120527031D01*
X145904800Y-120777000D01*
X145904800Y-122530837D01*
X145629145Y-122715024D01*
X145344392Y-123141186D01*
X145288000Y-123424687D01*
X145231608Y-123141186D01*
X144946855Y-122715024D01*
X144520693Y-122430271D01*
X144018000Y-122330279D01*
X143515307Y-122430271D01*
X143089145Y-122715024D01*
X142804392Y-123141186D01*
X142748000Y-123424687D01*
X142691608Y-123141186D01*
X142406855Y-122715024D01*
X141980693Y-122430271D01*
X141478000Y-122330279D01*
X140975307Y-122430271D01*
X140549145Y-122715024D01*
X140264392Y-123141186D01*
X140208000Y-123424687D01*
X140151608Y-123141186D01*
X139866855Y-122715024D01*
X139440693Y-122430271D01*
X138938000Y-122330279D01*
X138435307Y-122430271D01*
X138009145Y-122715024D01*
X137724392Y-123141186D01*
X137624400Y-123643879D01*
X137624400Y-124006121D01*
X137724392Y-124508814D01*
X138009145Y-124934976D01*
X138435307Y-125219729D01*
X138938000Y-125319721D01*
X139440693Y-125219729D01*
X139866855Y-124934976D01*
X140151608Y-124508814D01*
X140208000Y-124225313D01*
X140264392Y-124508814D01*
X140549145Y-124934976D01*
X140975307Y-125219729D01*
X141478000Y-125319721D01*
X141980693Y-125219729D01*
X142406855Y-124934976D01*
X142691608Y-124508814D01*
X142748000Y-124225313D01*
X142804392Y-124508814D01*
X143089145Y-124934976D01*
X143515307Y-125219729D01*
X144018000Y-125319721D01*
X144520693Y-125219729D01*
X144946855Y-124934976D01*
X145231608Y-124508814D01*
X145288000Y-124225313D01*
X145344392Y-124508814D01*
X145629145Y-124934976D01*
X146055307Y-125219729D01*
X146558000Y-125319721D01*
X147060693Y-125219729D01*
X147486855Y-124934976D01*
X147771608Y-124508814D01*
X147828000Y-124225313D01*
X147884392Y-124508814D01*
X148169145Y-124934976D01*
X148595307Y-125219729D01*
X149098000Y-125319721D01*
X149600693Y-125219729D01*
X150026855Y-124934976D01*
X150301412Y-124524074D01*
X150384162Y-124747629D01*
X150774359Y-125168822D01*
X151256951Y-125398811D01*
X151484000Y-125287983D01*
X151484000Y-123979000D01*
X151792000Y-123979000D01*
X151792000Y-125287983D01*
X152019049Y-125398811D01*
X152501641Y-125168822D01*
X152891838Y-124747629D01*
X152908000Y-124703966D01*
X152924162Y-124747629D01*
X153314359Y-125168822D01*
X153796951Y-125398811D01*
X154024000Y-125287983D01*
X154024000Y-123979000D01*
X151792000Y-123979000D01*
X151484000Y-123979000D01*
X151464000Y-123979000D01*
X151464000Y-123671000D01*
X151484000Y-123671000D01*
X151484000Y-122362017D01*
X151792000Y-122362017D01*
X151792000Y-123671000D01*
X154024000Y-123671000D01*
X154024000Y-122362017D01*
X154332000Y-122362017D01*
X154332000Y-123671000D01*
X154352000Y-123671000D01*
X154352000Y-123979000D01*
X154332000Y-123979000D01*
X154332000Y-125287983D01*
X154559049Y-125398811D01*
X155041641Y-125168822D01*
X155431838Y-124747629D01*
X155514588Y-124524074D01*
X155789145Y-124934976D01*
X156215307Y-125219729D01*
X156718000Y-125319721D01*
X157220693Y-125219729D01*
X157646855Y-124934976D01*
X157931608Y-124508814D01*
X158031600Y-124006121D01*
X158031600Y-123643879D01*
X157931608Y-123141186D01*
X157646855Y-122715024D01*
X157220693Y-122430271D01*
X156718000Y-122330279D01*
X156215307Y-122430271D01*
X155789145Y-122715024D01*
X155514588Y-123125926D01*
X155431838Y-122902371D01*
X155041641Y-122481178D01*
X154559049Y-122251189D01*
X154332000Y-122362017D01*
X154024000Y-122362017D01*
X153796951Y-122251189D01*
X153314359Y-122481178D01*
X152924162Y-122902371D01*
X152908000Y-122946034D01*
X152891838Y-122902371D01*
X152501641Y-122481178D01*
X152019049Y-122251189D01*
X151792000Y-122362017D01*
X151484000Y-122362017D01*
X151256951Y-122251189D01*
X150774359Y-122481178D01*
X150384162Y-122902371D01*
X150301412Y-123125926D01*
X150221748Y-123006701D01*
X155346725Y-117881724D01*
X155510344Y-117636849D01*
X155567800Y-117348000D01*
X155567800Y-115294623D01*
X155696883Y-115208372D01*
X155967849Y-114802843D01*
X156063000Y-114324489D01*
X156063000Y-114275511D01*
X155967849Y-113797157D01*
X155696883Y-113391628D01*
X155372976Y-113175200D01*
X156793024Y-113175200D01*
X156469117Y-113391628D01*
X156198151Y-113797157D01*
X156103000Y-114275511D01*
X156103000Y-114324489D01*
X156198151Y-114802843D01*
X156469117Y-115208372D01*
X156874646Y-115479338D01*
X157353000Y-115574489D01*
X157831354Y-115479338D01*
X158236883Y-115208372D01*
X158507849Y-114802843D01*
X158577238Y-114454002D01*
X158645434Y-114454002D01*
X158534757Y-114671044D01*
X158780139Y-115162577D01*
X159194944Y-115522791D01*
X159521958Y-115658231D01*
X159739000Y-115546523D01*
X159739000Y-114454000D01*
X159719000Y-114454000D01*
X159719000Y-114146000D01*
X159739000Y-114146000D01*
X159739000Y-113053477D01*
X159521958Y-112941769D01*
X159298282Y-113034409D01*
X159385448Y-112947395D01*
X159499869Y-112671839D01*
X159500130Y-112373470D01*
X159386189Y-112097714D01*
X159175395Y-111886552D01*
X158899839Y-111772131D01*
X158601470Y-111771870D01*
X158366883Y-111868800D01*
X154052643Y-111868800D01*
X154006078Y-111849464D01*
X154178448Y-111677395D01*
X154292869Y-111401839D01*
X154292988Y-111265895D01*
X154536161Y-111366869D01*
X154834530Y-111367130D01*
X155110286Y-111253189D01*
X155321448Y-111042395D01*
X155418787Y-110807977D01*
X156544882Y-109681882D01*
X156686478Y-109469969D01*
X156736200Y-109220000D01*
X156736200Y-107936445D01*
X156981958Y-108038231D01*
X157199000Y-107926523D01*
X157199000Y-106834000D01*
X157179000Y-106834000D01*
X157179000Y-106526000D01*
X157199000Y-106526000D01*
X157199000Y-105462270D01*
X157226453Y-105421184D01*
X157321478Y-105278969D01*
X157371200Y-105029000D01*
X157371200Y-104769590D01*
X157844548Y-104928815D01*
X158205049Y-104904187D01*
X158161118Y-104948118D01*
X158019522Y-105160031D01*
X157969800Y-105410000D01*
X157969800Y-105423555D01*
X157724042Y-105321769D01*
X157507000Y-105433477D01*
X157507000Y-106526000D01*
X157527000Y-106526000D01*
X157527000Y-106834000D01*
X157507000Y-106834000D01*
X157507000Y-107926523D01*
X157724042Y-108038231D01*
X158013987Y-107918144D01*
X158019522Y-107945969D01*
X158161118Y-108157882D01*
X159177118Y-109173882D01*
X159389031Y-109315478D01*
X159635845Y-109364572D01*
X159870161Y-109461869D01*
X160168530Y-109462130D01*
X160444286Y-109348189D01*
X160655448Y-109137395D01*
X160769869Y-108861839D01*
X160770130Y-108563470D01*
X160656189Y-108287714D01*
X160445395Y-108076552D01*
X160169839Y-107962131D01*
X159871470Y-107961870D01*
X159829837Y-107979073D01*
X159783465Y-107932701D01*
X159893000Y-107954489D01*
X160371354Y-107859338D01*
X160776883Y-107588372D01*
X161047849Y-107182843D01*
X161143000Y-106704489D01*
X161143000Y-106655511D01*
X161047849Y-106177157D01*
X160776883Y-105771628D01*
X160670142Y-105700306D01*
X161061724Y-105308724D01*
X161225344Y-105063849D01*
X161282800Y-104775000D01*
X161282800Y-104517742D01*
X161541194Y-104259800D01*
X162194294Y-104259800D01*
X162233297Y-104318173D01*
X162606384Y-104567461D01*
X163046470Y-104655000D01*
X163091530Y-104655000D01*
X163531616Y-104567461D01*
X163803324Y-104385912D01*
X162725536Y-105463700D01*
X162433000Y-105405511D01*
X161954646Y-105500662D01*
X161549117Y-105771628D01*
X161278151Y-106177157D01*
X161183000Y-106655511D01*
X161183000Y-106704489D01*
X161278151Y-107182843D01*
X161549117Y-107588372D01*
X161954646Y-107859338D01*
X162433000Y-107954489D01*
X162911354Y-107859338D01*
X163316883Y-107588372D01*
X163587849Y-107182843D01*
X163683000Y-106704489D01*
X163683000Y-106655511D01*
X163632937Y-106403827D01*
X163807857Y-106228907D01*
X163723000Y-106655511D01*
X163723000Y-106704489D01*
X163818151Y-107182843D01*
X164089117Y-107588372D01*
X164494646Y-107859338D01*
X164973000Y-107954489D01*
X165451354Y-107859338D01*
X165856883Y-107588372D01*
X166127849Y-107182843D01*
X166223000Y-106704489D01*
X166223000Y-106655511D01*
X166172937Y-106403827D01*
X166347857Y-106228907D01*
X166263000Y-106655511D01*
X166263000Y-106704489D01*
X166358151Y-107182843D01*
X166629117Y-107588372D01*
X167034646Y-107859338D01*
X167513000Y-107954489D01*
X167991354Y-107859338D01*
X168396883Y-107588372D01*
X168667849Y-107182843D01*
X168763000Y-106704489D01*
X168763000Y-106655511D01*
X168712937Y-106403827D01*
X168887857Y-106228907D01*
X168803000Y-106655511D01*
X168803000Y-106704489D01*
X168898151Y-107182843D01*
X169169117Y-107588372D01*
X169574646Y-107859338D01*
X170053000Y-107954489D01*
X170531354Y-107859338D01*
X170936883Y-107588372D01*
X171207849Y-107182843D01*
X171303000Y-106704489D01*
X171303000Y-106655511D01*
X171252937Y-106403827D01*
X171427857Y-106228907D01*
X171343000Y-106655511D01*
X171343000Y-106704489D01*
X171438151Y-107182843D01*
X171709117Y-107588372D01*
X172114646Y-107859338D01*
X172593000Y-107954489D01*
X173071354Y-107859338D01*
X173181202Y-107785940D01*
X173181202Y-109455800D01*
X171324643Y-109455800D01*
X171091839Y-109359131D01*
X170793470Y-109358870D01*
X170517714Y-109472811D01*
X170306552Y-109683605D01*
X170192131Y-109959161D01*
X170191870Y-110257530D01*
X170305811Y-110533286D01*
X170516605Y-110744448D01*
X170792161Y-110858869D01*
X171090530Y-110859130D01*
X171325117Y-110762200D01*
X173482000Y-110762200D01*
X173731969Y-110712478D01*
X173943882Y-110570882D01*
X174296284Y-110218480D01*
X174369436Y-110109000D01*
X174437880Y-110006567D01*
X174487602Y-109756598D01*
X174487602Y-107938816D01*
X175933000Y-107938816D01*
X176099760Y-107907438D01*
X176252919Y-107808883D01*
X176355668Y-107658505D01*
X176384800Y-107514646D01*
X176384800Y-108949436D01*
X172238138Y-113096098D01*
X172114646Y-113120662D01*
X171709117Y-113391628D01*
X171438151Y-113797157D01*
X171343000Y-114275511D01*
X171343000Y-114324489D01*
X171438151Y-114802843D01*
X171709117Y-115208372D01*
X171939800Y-115362510D01*
X171939800Y-116569436D01*
X171496118Y-117013118D01*
X171354522Y-117225031D01*
X171304800Y-117475000D01*
X171304800Y-122530837D01*
X171029145Y-122715024D01*
X170744392Y-123141186D01*
X170688000Y-123424687D01*
X170631608Y-123141186D01*
X170346855Y-122715024D01*
X170071200Y-122530837D01*
X170071200Y-119015564D01*
X170514882Y-118571882D01*
X170536747Y-118539159D01*
X170656478Y-118359969D01*
X170706200Y-118110000D01*
X170706200Y-115362510D01*
X170936883Y-115208372D01*
X171207849Y-114802843D01*
X171303000Y-114324489D01*
X171303000Y-114275511D01*
X171207849Y-113797157D01*
X170936883Y-113391628D01*
X170531354Y-113120662D01*
X170053000Y-113025511D01*
X169574646Y-113120662D01*
X169169117Y-113391628D01*
X168898151Y-113797157D01*
X168803000Y-114275511D01*
X168803000Y-114324489D01*
X168898151Y-114802843D01*
X169169117Y-115208372D01*
X169399800Y-115362510D01*
X169399800Y-117839436D01*
X168956118Y-118283118D01*
X168814522Y-118495031D01*
X168764800Y-118745000D01*
X168764800Y-122530837D01*
X168489145Y-122715024D01*
X168204392Y-123141186D01*
X168148000Y-123424687D01*
X168091608Y-123141186D01*
X167806855Y-122715024D01*
X167531200Y-122530837D01*
X167531200Y-120285564D01*
X167974882Y-119841882D01*
X168026232Y-119765031D01*
X168116478Y-119629969D01*
X168166200Y-119380000D01*
X168166200Y-115362510D01*
X168396883Y-115208372D01*
X168667849Y-114802843D01*
X168763000Y-114324489D01*
X168763000Y-114275511D01*
X168667849Y-113797157D01*
X168396883Y-113391628D01*
X167991354Y-113120662D01*
X167513000Y-113025511D01*
X167034646Y-113120662D01*
X166629117Y-113391628D01*
X166358151Y-113797157D01*
X166263000Y-114275511D01*
X166263000Y-114324489D01*
X166358151Y-114802843D01*
X166629117Y-115208372D01*
X166859800Y-115362510D01*
X166859800Y-119109436D01*
X166416118Y-119553118D01*
X166274522Y-119765031D01*
X166224800Y-120015000D01*
X166224800Y-122530837D01*
X165949145Y-122715024D01*
X165664392Y-123141186D01*
X165608000Y-123424687D01*
X165551608Y-123141186D01*
X165266855Y-122715024D01*
X164991200Y-122530837D01*
X164991200Y-121555564D01*
X165434882Y-121111882D01*
X165491619Y-121026969D01*
X165576478Y-120899969D01*
X165626200Y-120650000D01*
X165626200Y-115362510D01*
X165856883Y-115208372D01*
X166127849Y-114802843D01*
X166223000Y-114324489D01*
X166223000Y-114275511D01*
X166127849Y-113797157D01*
X165856883Y-113391628D01*
X165451354Y-113120662D01*
X164973000Y-113025511D01*
X164494646Y-113120662D01*
X164089117Y-113391628D01*
X163818151Y-113797157D01*
X163723000Y-114275511D01*
X163723000Y-114324489D01*
X163818151Y-114802843D01*
X164089117Y-115208372D01*
X164319800Y-115362510D01*
X164319800Y-120379436D01*
X163876118Y-120823118D01*
X163734522Y-121035031D01*
X163684800Y-121285000D01*
X163684800Y-122530837D01*
X163409145Y-122715024D01*
X163124392Y-123141186D01*
X163068000Y-123424687D01*
X163011608Y-123141186D01*
X162726855Y-122715024D01*
X162627876Y-122648888D01*
X162894882Y-122381882D01*
X162966138Y-122275240D01*
X163036478Y-122169969D01*
X163086200Y-121920000D01*
X163086200Y-115362510D01*
X163316883Y-115208372D01*
X163587849Y-114802843D01*
X163683000Y-114324489D01*
X163683000Y-114275511D01*
X163587849Y-113797157D01*
X163316883Y-113391628D01*
X162911354Y-113120662D01*
X162433000Y-113025511D01*
X161954646Y-113120662D01*
X161549117Y-113391628D01*
X161278151Y-113797157D01*
X161208762Y-114145998D01*
X161140566Y-114145998D01*
X161251243Y-113928956D01*
X161005861Y-113437423D01*
X160591056Y-113077209D01*
X160264042Y-112941769D01*
X160047000Y-113053477D01*
X160047000Y-114146000D01*
X160067000Y-114146000D01*
X160067000Y-114454000D01*
X160047000Y-114454000D01*
X160047000Y-115546523D01*
X160264042Y-115658231D01*
X160591056Y-115522791D01*
X161005861Y-115162577D01*
X161251243Y-114671044D01*
X161140566Y-114454002D01*
X161208762Y-114454002D01*
X161278151Y-114802843D01*
X161549117Y-115208372D01*
X161779800Y-115362510D01*
X161779800Y-121649436D01*
X161336118Y-122093118D01*
X161194522Y-122305031D01*
X161150343Y-122527133D01*
X160869145Y-122715024D01*
X160584392Y-123141186D01*
X160484400Y-123643879D01*
X160484400Y-124006121D01*
X160584392Y-124508814D01*
X160869145Y-124934976D01*
X161295307Y-125219729D01*
X161798000Y-125319721D01*
X162300693Y-125219729D01*
X162726855Y-124934976D01*
X163011608Y-124508814D01*
X163068000Y-124225313D01*
X163124392Y-124508814D01*
X163409145Y-124934976D01*
X163835307Y-125219729D01*
X164338000Y-125319721D01*
X164840693Y-125219729D01*
X165266855Y-124934976D01*
X165551608Y-124508814D01*
X165608000Y-124225313D01*
X165664392Y-124508814D01*
X165949145Y-124934976D01*
X166375307Y-125219729D01*
X166878000Y-125319721D01*
X167380693Y-125219729D01*
X167806855Y-124934976D01*
X168091608Y-124508814D01*
X168148000Y-124225313D01*
X168204392Y-124508814D01*
X168489145Y-124934976D01*
X168915307Y-125219729D01*
X169418000Y-125319721D01*
X169920693Y-125219729D01*
X170346855Y-124934976D01*
X170631608Y-124508814D01*
X170688000Y-124225313D01*
X170744392Y-124508814D01*
X171029145Y-124934976D01*
X171455307Y-125219729D01*
X171958000Y-125319721D01*
X172460693Y-125219729D01*
X172886855Y-124934976D01*
X173171608Y-124508814D01*
X173228000Y-124225313D01*
X173284392Y-124508814D01*
X173569145Y-124934976D01*
X173995307Y-125219729D01*
X174498000Y-125319721D01*
X175000693Y-125219729D01*
X175426855Y-124934976D01*
X175711608Y-124508814D01*
X175811600Y-124006121D01*
X175811600Y-123643879D01*
X175711608Y-123141186D01*
X175426855Y-122715024D01*
X175151200Y-122530837D01*
X175151200Y-120368049D01*
X175630224Y-120847910D01*
X176542134Y-121226568D01*
X177529534Y-121227430D01*
X178442103Y-120850364D01*
X179053000Y-120240533D01*
X179053000Y-121067538D01*
X176666769Y-123453769D01*
X176552963Y-123624091D01*
X176513000Y-123825000D01*
X176513000Y-125840000D01*
X126462625Y-125840000D01*
X127070910Y-125232776D01*
X127424426Y-124381413D01*
X129622376Y-124381413D01*
X129709447Y-124624435D01*
X130267598Y-124815581D01*
X130856411Y-124778581D01*
X131228553Y-124624435D01*
X131315624Y-124381413D01*
X130469000Y-123534789D01*
X129622376Y-124381413D01*
X127424426Y-124381413D01*
X127449568Y-124320866D01*
X127450430Y-123333466D01*
X127360409Y-123115598D01*
X128970419Y-123115598D01*
X129007419Y-123704411D01*
X129161565Y-124076553D01*
X129404587Y-124163624D01*
X130251211Y-123317000D01*
X129404587Y-122470376D01*
X129161565Y-122557447D01*
X128970419Y-123115598D01*
X127360409Y-123115598D01*
X127073364Y-122420897D01*
X126905348Y-122252587D01*
X129622376Y-122252587D01*
X130469000Y-123099211D01*
X131315624Y-122252587D01*
X131228553Y-122009565D01*
X130670402Y-121818419D01*
X130081589Y-121855419D01*
X129709447Y-122009565D01*
X129622376Y-122252587D01*
X126905348Y-122252587D01*
X126375776Y-121722090D01*
X125463866Y-121343432D01*
X124476466Y-121342570D01*
X123563897Y-121719636D01*
X122865090Y-122417224D01*
X122486432Y-123329134D01*
X122485570Y-124316534D01*
X122862636Y-125229103D01*
X123472467Y-125840000D01*
X111523000Y-125840000D01*
X111523000Y-123751000D01*
X115800000Y-123751000D01*
X115800000Y-125315938D01*
X115892562Y-125539404D01*
X116063595Y-125710437D01*
X116287061Y-125803000D01*
X117852000Y-125803000D01*
X118004000Y-125651000D01*
X118004000Y-123599000D01*
X118312000Y-123599000D01*
X118312000Y-125651000D01*
X118464000Y-125803000D01*
X120028939Y-125803000D01*
X120252405Y-125710437D01*
X120423438Y-125539404D01*
X120516000Y-125315938D01*
X120516000Y-123751000D01*
X120364000Y-123599000D01*
X118312000Y-123599000D01*
X118004000Y-123599000D01*
X115952000Y-123599000D01*
X115800000Y-123751000D01*
X111523000Y-123751000D01*
X111523000Y-119051000D01*
X112800000Y-119051000D01*
X112800000Y-120615938D01*
X112892562Y-120839404D01*
X113063595Y-121010437D01*
X113287061Y-121103000D01*
X114852000Y-121103000D01*
X115004000Y-120951000D01*
X115004000Y-118899000D01*
X115312000Y-118899000D01*
X115312000Y-120951000D01*
X115464000Y-121103000D01*
X116248434Y-121103000D01*
X116063595Y-121179563D01*
X115892562Y-121350596D01*
X115800000Y-121574062D01*
X115800000Y-123139000D01*
X115952000Y-123291000D01*
X118004000Y-123291000D01*
X118004000Y-121239000D01*
X118312000Y-121239000D01*
X118312000Y-123291000D01*
X120364000Y-123291000D01*
X120516000Y-123139000D01*
X120516000Y-121574062D01*
X120423438Y-121350596D01*
X120252405Y-121179563D01*
X120028939Y-121087000D01*
X118464000Y-121087000D01*
X118312000Y-121239000D01*
X118004000Y-121239000D01*
X117852000Y-121087000D01*
X117067566Y-121087000D01*
X117252405Y-121010437D01*
X117423438Y-120839404D01*
X117516000Y-120615938D01*
X117516000Y-119051000D01*
X117364000Y-118899000D01*
X115312000Y-118899000D01*
X115004000Y-118899000D01*
X112952000Y-118899000D01*
X112800000Y-119051000D01*
X111523000Y-119051000D01*
X111523000Y-116874062D01*
X112800000Y-116874062D01*
X112800000Y-118439000D01*
X112952000Y-118591000D01*
X115004000Y-118591000D01*
X115004000Y-116539000D01*
X115312000Y-116539000D01*
X115312000Y-118591000D01*
X117364000Y-118591000D01*
X117516000Y-118439000D01*
X117516000Y-116995000D01*
X118949184Y-116995000D01*
X118949184Y-120495000D01*
X118980562Y-120661760D01*
X119079117Y-120814919D01*
X119229495Y-120917668D01*
X119408000Y-120953816D01*
X122908000Y-120953816D01*
X123074760Y-120922438D01*
X123227919Y-120823883D01*
X123330668Y-120673505D01*
X123366816Y-120495000D01*
X123366816Y-119499800D01*
X124916299Y-119499800D01*
X124979475Y-119542013D01*
X125572634Y-119660000D01*
X125633366Y-119660000D01*
X126226525Y-119542013D01*
X126729382Y-119206016D01*
X127065379Y-118703159D01*
X127183366Y-118110000D01*
X127065379Y-117516841D01*
X126729382Y-117013984D01*
X126226525Y-116677987D01*
X125633366Y-116560000D01*
X125572634Y-116560000D01*
X124979475Y-116677987D01*
X124476618Y-117013984D01*
X124140621Y-117516841D01*
X124046464Y-117990200D01*
X123366816Y-117990200D01*
X123366816Y-116995000D01*
X123335438Y-116828240D01*
X123236883Y-116675081D01*
X123086505Y-116572332D01*
X122908000Y-116536184D01*
X119408000Y-116536184D01*
X119241240Y-116567562D01*
X119088081Y-116666117D01*
X118985332Y-116816495D01*
X118949184Y-116995000D01*
X117516000Y-116995000D01*
X117516000Y-116874062D01*
X117423438Y-116650596D01*
X117252405Y-116479563D01*
X117028939Y-116387000D01*
X115464000Y-116387000D01*
X115312000Y-116539000D01*
X115004000Y-116539000D01*
X114852000Y-116387000D01*
X113287061Y-116387000D01*
X113063595Y-116479563D01*
X112892562Y-116650596D01*
X112800000Y-116874062D01*
X111523000Y-116874062D01*
X111523000Y-113843764D01*
X112822118Y-115142882D01*
X113034031Y-115284478D01*
X113284000Y-115334200D01*
X127872436Y-115334200D01*
X133506547Y-120968311D01*
X133602811Y-121201286D01*
X133813605Y-121412448D01*
X134089161Y-121526869D01*
X134387530Y-121527130D01*
X134499819Y-121480733D01*
X133971541Y-122009011D01*
X133844000Y-121983184D01*
X132094000Y-121983184D01*
X131927240Y-122014562D01*
X131774081Y-122113117D01*
X131671332Y-122263495D01*
X131635184Y-122442000D01*
X131635184Y-122506839D01*
X131533413Y-122470376D01*
X130686789Y-123317000D01*
X131533413Y-124163624D01*
X131635184Y-124127161D01*
X131635184Y-124192000D01*
X131666562Y-124358760D01*
X131765117Y-124511919D01*
X131915495Y-124614668D01*
X132094000Y-124650816D01*
X133844000Y-124650816D01*
X134010760Y-124619438D01*
X134163919Y-124520883D01*
X134266668Y-124370505D01*
X134302816Y-124192000D01*
X134302816Y-123812632D01*
X136296724Y-121818724D01*
X136460344Y-121573850D01*
X136517800Y-121285000D01*
X136517800Y-119668816D01*
X136863000Y-119668816D01*
X137029760Y-119637438D01*
X137182919Y-119538883D01*
X137285668Y-119388505D01*
X137321816Y-119210000D01*
X137321816Y-117010000D01*
X137290438Y-116843240D01*
X137191883Y-116690081D01*
X137041505Y-116587332D01*
X136863000Y-116551184D01*
X134663000Y-116551184D01*
X134496240Y-116582562D01*
X134343081Y-116681117D01*
X134257223Y-116806775D01*
X132760417Y-115309969D01*
X134375820Y-115309969D01*
X134453643Y-115545229D01*
X134984548Y-115723815D01*
X135543382Y-115685637D01*
X135882357Y-115545229D01*
X135960180Y-115309969D01*
X135168000Y-114517789D01*
X134375820Y-115309969D01*
X132760417Y-115309969D01*
X132072800Y-114622352D01*
X132072800Y-114116548D01*
X133744185Y-114116548D01*
X133782363Y-114675382D01*
X133922771Y-115014357D01*
X134158031Y-115092180D01*
X134950211Y-114300000D01*
X134158031Y-113507820D01*
X133922771Y-113585643D01*
X133744185Y-114116548D01*
X132072800Y-114116548D01*
X132072800Y-113290031D01*
X134375820Y-113290031D01*
X135168000Y-114082211D01*
X135960180Y-113290031D01*
X135882357Y-113054771D01*
X135351452Y-112876185D01*
X134792618Y-112914363D01*
X134453643Y-113054771D01*
X134375820Y-113290031D01*
X132072800Y-113290031D01*
X132072800Y-110959816D01*
X132218000Y-110959816D01*
X132384760Y-110928438D01*
X132537919Y-110829883D01*
X132640668Y-110679505D01*
X132676816Y-110501000D01*
X132676816Y-108701000D01*
X132645438Y-108534240D01*
X132546883Y-108381081D01*
X132396505Y-108278332D01*
X132218000Y-108242184D01*
X132214695Y-108242184D01*
X132516604Y-107976122D01*
X132775568Y-107447776D01*
X132666128Y-107215000D01*
X131472000Y-107215000D01*
X131472000Y-107235000D01*
X131164000Y-107235000D01*
X131164000Y-107215000D01*
X129969872Y-107215000D01*
X129860432Y-107447776D01*
X130119396Y-107976122D01*
X130421305Y-108242184D01*
X130418000Y-108242184D01*
X130251240Y-108273562D01*
X130098081Y-108372117D01*
X129995332Y-108522495D01*
X129959184Y-108701000D01*
X129959184Y-110501000D01*
X129990562Y-110667760D01*
X130089117Y-110820919D01*
X130239495Y-110923668D01*
X130418000Y-110959816D01*
X130563200Y-110959816D01*
X130563200Y-114935000D01*
X130620656Y-115223850D01*
X130784276Y-115468724D01*
X133959276Y-118643724D01*
X134204150Y-118807344D01*
X134204184Y-118807351D01*
X134204184Y-119210000D01*
X134235562Y-119376760D01*
X134334117Y-119529919D01*
X134484495Y-119632668D01*
X134663000Y-119668816D01*
X135008200Y-119668816D01*
X135008200Y-120972352D01*
X134942824Y-121037728D01*
X134988869Y-120926839D01*
X134989130Y-120628470D01*
X134875189Y-120352714D01*
X134664395Y-120141552D01*
X134429977Y-120044213D01*
X128604882Y-114219118D01*
X128392969Y-114077522D01*
X128143000Y-114027800D01*
X113554564Y-114027800D01*
X112413200Y-112886436D01*
X112413200Y-107017899D01*
X112458000Y-107017899D01*
X112458000Y-107104101D01*
X112625465Y-107946005D01*
X113102365Y-108659736D01*
X113816096Y-109136636D01*
X114658000Y-109304101D01*
X115499904Y-109136636D01*
X116213635Y-108659736D01*
X116690535Y-107946005D01*
X116858000Y-107104101D01*
X116858000Y-107017899D01*
X116690535Y-106175995D01*
X116213635Y-105462264D01*
X115499904Y-104985364D01*
X114658000Y-104817899D01*
X113816096Y-104985364D01*
X113102365Y-105462264D01*
X112625465Y-106175995D01*
X112458000Y-107017899D01*
X112413200Y-107017899D01*
X112413200Y-99034531D01*
X112873000Y-99034531D01*
X112873000Y-99085469D01*
X112971957Y-99582957D01*
X113253761Y-100004708D01*
X113675512Y-100286512D01*
X114173000Y-100385469D01*
X114670488Y-100286512D01*
X115092239Y-100004708D01*
X115374043Y-99582957D01*
X115443000Y-99236288D01*
X115511957Y-99582957D01*
X115793761Y-100004708D01*
X116215512Y-100286512D01*
X116713000Y-100385469D01*
X117210488Y-100286512D01*
X117632239Y-100004708D01*
X117914043Y-99582957D01*
X117944184Y-99431429D01*
X117944184Y-99910000D01*
X117975562Y-100076760D01*
X118074117Y-100229919D01*
X118224495Y-100332668D01*
X118403000Y-100368816D01*
X120103000Y-100368816D01*
X120269760Y-100337438D01*
X120422919Y-100238883D01*
X120525668Y-100088505D01*
X120559234Y-99922746D01*
X121662801Y-99922746D01*
X121837509Y-100345572D01*
X122160727Y-100669354D01*
X122583247Y-100844800D01*
X123040746Y-100845199D01*
X123463572Y-100670491D01*
X123787354Y-100347273D01*
X123962800Y-99924753D01*
X123963199Y-99467254D01*
X123788491Y-99044428D01*
X123465273Y-98720646D01*
X123042753Y-98545200D01*
X122585254Y-98544801D01*
X122162428Y-98719509D01*
X121838646Y-99042727D01*
X121663200Y-99465247D01*
X121662801Y-99922746D01*
X120559234Y-99922746D01*
X120561816Y-99910000D01*
X120561816Y-98210000D01*
X120530438Y-98043240D01*
X120431883Y-97890081D01*
X120281505Y-97787332D01*
X120103000Y-97751184D01*
X118403000Y-97751184D01*
X118236240Y-97782562D01*
X118083081Y-97881117D01*
X117980332Y-98031495D01*
X117944184Y-98210000D01*
X117944184Y-98688571D01*
X117914043Y-98537043D01*
X117632239Y-98115292D01*
X117210488Y-97833488D01*
X116713000Y-97734531D01*
X116215512Y-97833488D01*
X115793761Y-98115292D01*
X115511957Y-98537043D01*
X115443000Y-98883712D01*
X115374043Y-98537043D01*
X115092239Y-98115292D01*
X114670488Y-97833488D01*
X114173000Y-97734531D01*
X113675512Y-97833488D01*
X113253761Y-98115292D01*
X112971957Y-98537043D01*
X112873000Y-99034531D01*
X112413200Y-99034531D01*
X112413200Y-97382746D01*
X121662801Y-97382746D01*
X121837509Y-97805572D01*
X122160727Y-98129354D01*
X122583247Y-98304800D01*
X123040746Y-98305199D01*
X123463572Y-98130491D01*
X123787354Y-97807273D01*
X123962800Y-97384753D01*
X123963199Y-96927254D01*
X123788491Y-96504428D01*
X123465273Y-96180646D01*
X123042753Y-96005200D01*
X122585254Y-96004801D01*
X122162428Y-96179509D01*
X121838646Y-96502727D01*
X121663200Y-96925247D01*
X121662801Y-97382746D01*
X112413200Y-97382746D01*
X112413200Y-95673499D01*
X112727290Y-95673499D01*
X112872655Y-95965795D01*
X113603093Y-96236366D01*
X114381473Y-96206814D01*
X114963345Y-95965795D01*
X115108710Y-95673499D01*
X113918000Y-94482789D01*
X112727290Y-95673499D01*
X112413200Y-95673499D01*
X112413200Y-95407817D01*
X112509501Y-95455710D01*
X113700211Y-94265000D01*
X114135789Y-94265000D01*
X115326499Y-95455710D01*
X115618795Y-95310345D01*
X115889366Y-94579907D01*
X115859814Y-93801527D01*
X115618795Y-93219655D01*
X115326499Y-93074290D01*
X114135789Y-94265000D01*
X113700211Y-94265000D01*
X112509501Y-93074290D01*
X112413200Y-93122183D01*
X112413200Y-92856501D01*
X112727290Y-92856501D01*
X113918000Y-94047211D01*
X115108710Y-92856501D01*
X114963345Y-92564205D01*
X114232907Y-92293634D01*
X113454527Y-92323186D01*
X112872655Y-92564205D01*
X112727290Y-92856501D01*
X112413200Y-92856501D01*
X112413200Y-90515915D01*
X115854874Y-90515915D01*
X115927758Y-90747038D01*
X116444126Y-90918920D01*
X116986965Y-90880114D01*
X117308242Y-90747038D01*
X117381126Y-90515915D01*
X116618000Y-89752789D01*
X115854874Y-90515915D01*
X112413200Y-90515915D01*
X112413200Y-89361126D01*
X115234080Y-89361126D01*
X115272886Y-89903965D01*
X115405962Y-90225242D01*
X115637085Y-90298126D01*
X116400211Y-89535000D01*
X116835789Y-89535000D01*
X117598915Y-90298126D01*
X117653048Y-90281055D01*
X117863200Y-90491575D01*
X117863200Y-92075000D01*
X117920656Y-92363850D01*
X118084276Y-92608724D01*
X120624275Y-95148724D01*
X120769814Y-95245969D01*
X120869151Y-95312344D01*
X121158000Y-95369800D01*
X121941555Y-95369800D01*
X122160727Y-95589354D01*
X122583247Y-95764800D01*
X123040746Y-95765199D01*
X123463572Y-95590491D01*
X123787354Y-95267273D01*
X123962800Y-94844753D01*
X123963199Y-94387254D01*
X123788491Y-93964428D01*
X123465273Y-93640646D01*
X123042753Y-93465200D01*
X122585254Y-93464801D01*
X122162428Y-93639509D01*
X121941352Y-93860200D01*
X121470649Y-93860200D01*
X120622752Y-93012303D01*
X122093486Y-93012303D01*
X122158947Y-93237227D01*
X122653499Y-93399052D01*
X123172333Y-93359303D01*
X123467053Y-93237227D01*
X123532514Y-93012303D01*
X122813000Y-92292789D01*
X122093486Y-93012303D01*
X120622752Y-93012303D01*
X119525948Y-91915499D01*
X121488948Y-91915499D01*
X121528697Y-92434333D01*
X121650773Y-92729053D01*
X121875697Y-92794514D01*
X122595211Y-92075000D01*
X121875697Y-91355486D01*
X121650773Y-91420947D01*
X121488948Y-91915499D01*
X119525948Y-91915499D01*
X119372800Y-91762352D01*
X119372800Y-91137697D01*
X122093486Y-91137697D01*
X122813000Y-91857211D01*
X123532514Y-91137697D01*
X123467053Y-90912773D01*
X122972501Y-90750948D01*
X122453667Y-90790697D01*
X122158947Y-90912773D01*
X122093486Y-91137697D01*
X119372800Y-91137697D01*
X119372800Y-90491223D01*
X119643190Y-90221305D01*
X119827789Y-89776740D01*
X119827999Y-89535000D01*
X121510470Y-89535000D01*
X121598009Y-89975086D01*
X121847297Y-90348173D01*
X122220384Y-90597461D01*
X122660470Y-90685000D01*
X122705530Y-90685000D01*
X123145616Y-90597461D01*
X123518703Y-90348173D01*
X123767991Y-89975086D01*
X123855530Y-89535000D01*
X123767991Y-89094914D01*
X123518703Y-88721827D01*
X123145616Y-88472539D01*
X122705530Y-88385000D01*
X122660470Y-88385000D01*
X122220384Y-88472539D01*
X121847297Y-88721827D01*
X121598009Y-89094914D01*
X121510470Y-89535000D01*
X119827999Y-89535000D01*
X119828209Y-89295372D01*
X119644386Y-88850486D01*
X119304305Y-88509810D01*
X118859740Y-88325211D01*
X118378372Y-88324791D01*
X117933486Y-88508614D01*
X117652757Y-88788853D01*
X117598915Y-88771874D01*
X116835789Y-89535000D01*
X116400211Y-89535000D01*
X115637085Y-88771874D01*
X115405962Y-88844758D01*
X115234080Y-89361126D01*
X112413200Y-89361126D01*
X112413200Y-87234628D01*
X115407791Y-87234628D01*
X115591614Y-87679514D01*
X115931695Y-88020190D01*
X116326955Y-88184316D01*
X116249035Y-88189886D01*
X115927758Y-88322962D01*
X115854874Y-88554085D01*
X116618000Y-89317211D01*
X117381126Y-88554085D01*
X117308242Y-88322962D01*
X116900844Y-88187353D01*
X117302514Y-88021386D01*
X117618252Y-87706199D01*
X117931695Y-88020190D01*
X118376260Y-88204789D01*
X118857628Y-88205209D01*
X119302514Y-88021386D01*
X119643190Y-87681305D01*
X119827789Y-87236740D01*
X119827999Y-86995000D01*
X121510470Y-86995000D01*
X121598009Y-87435086D01*
X121847297Y-87808173D01*
X122220384Y-88057461D01*
X122660470Y-88145000D01*
X122705530Y-88145000D01*
X123145616Y-88057461D01*
X123518703Y-87808173D01*
X123767991Y-87435086D01*
X123855530Y-86995000D01*
X123767991Y-86554914D01*
X123518703Y-86181827D01*
X123145616Y-85932539D01*
X122705530Y-85845000D01*
X122660470Y-85845000D01*
X122220384Y-85932539D01*
X121847297Y-86181827D01*
X121598009Y-86554914D01*
X121510470Y-86995000D01*
X119827999Y-86995000D01*
X119828209Y-86755372D01*
X119644386Y-86310486D01*
X119304305Y-85969810D01*
X118859740Y-85785211D01*
X118378372Y-85784791D01*
X117933486Y-85968614D01*
X117617748Y-86283801D01*
X117304305Y-85969810D01*
X116859740Y-85785211D01*
X116378372Y-85784791D01*
X115933486Y-85968614D01*
X115592810Y-86308695D01*
X115408211Y-86753260D01*
X115407791Y-87234628D01*
X112413200Y-87234628D01*
X112413200Y-84455000D01*
X121510470Y-84455000D01*
X121598009Y-84895086D01*
X121847297Y-85268173D01*
X122220384Y-85517461D01*
X122660470Y-85605000D01*
X122705530Y-85605000D01*
X123145616Y-85517461D01*
X123518703Y-85268173D01*
X123767991Y-84895086D01*
X123855530Y-84455000D01*
X123767991Y-84014914D01*
X123518703Y-83641827D01*
X123145616Y-83392539D01*
X122705530Y-83305000D01*
X122660470Y-83305000D01*
X122220384Y-83392539D01*
X121847297Y-83641827D01*
X121598009Y-84014914D01*
X121510470Y-84455000D01*
X112413200Y-84455000D01*
X112413200Y-83673499D01*
X112727290Y-83673499D01*
X112872655Y-83965795D01*
X113603093Y-84236366D01*
X114381473Y-84206814D01*
X114963345Y-83965795D01*
X115108710Y-83673499D01*
X113918000Y-82482789D01*
X112727290Y-83673499D01*
X112413200Y-83673499D01*
X112413200Y-83407817D01*
X112509501Y-83455710D01*
X113700211Y-82265000D01*
X114135789Y-82265000D01*
X115326499Y-83455710D01*
X115618795Y-83310345D01*
X115889366Y-82579907D01*
X115864123Y-81915000D01*
X121510470Y-81915000D01*
X121598009Y-82355086D01*
X121847297Y-82728173D01*
X122220384Y-82977461D01*
X122660470Y-83065000D01*
X122705530Y-83065000D01*
X123145616Y-82977461D01*
X123518703Y-82728173D01*
X123767991Y-82355086D01*
X123855530Y-81915000D01*
X123767991Y-81474914D01*
X123518703Y-81101827D01*
X123145616Y-80852539D01*
X122705530Y-80765000D01*
X122660470Y-80765000D01*
X122220384Y-80852539D01*
X121847297Y-81101827D01*
X121598009Y-81474914D01*
X121510470Y-81915000D01*
X115864123Y-81915000D01*
X115859814Y-81801527D01*
X115618795Y-81219655D01*
X115326499Y-81074290D01*
X114135789Y-82265000D01*
X113700211Y-82265000D01*
X112509501Y-81074290D01*
X112413200Y-81122183D01*
X112413200Y-80567592D01*
X112450724Y-80530068D01*
X112553174Y-80786040D01*
X112731219Y-80848601D01*
X112727290Y-80856501D01*
X113918000Y-82047211D01*
X115108710Y-80856501D01*
X114963345Y-80564205D01*
X114871184Y-80530066D01*
X118950723Y-80530066D01*
X119053174Y-80786040D01*
X119656703Y-80998105D01*
X120295445Y-80963067D01*
X120722826Y-80786040D01*
X120825277Y-80530066D01*
X119888000Y-79592789D01*
X118950723Y-80530066D01*
X114871184Y-80530066D01*
X114635918Y-80442918D01*
X114654814Y-80424022D01*
X114543068Y-80312276D01*
X114799040Y-80209826D01*
X115011105Y-79606297D01*
X114985730Y-79143703D01*
X118264895Y-79143703D01*
X118299933Y-79782445D01*
X118476960Y-80209826D01*
X118732934Y-80312277D01*
X119670211Y-79375000D01*
X120105789Y-79375000D01*
X121043066Y-80312277D01*
X121299040Y-80209826D01*
X121511105Y-79606297D01*
X121476067Y-78967555D01*
X121299040Y-78540174D01*
X121043066Y-78437723D01*
X120105789Y-79375000D01*
X119670211Y-79375000D01*
X118732934Y-78437723D01*
X118476960Y-78540174D01*
X118264895Y-79143703D01*
X114985730Y-79143703D01*
X114976067Y-78967555D01*
X114799040Y-78540174D01*
X114543066Y-78437723D01*
X113605789Y-79375000D01*
X113619931Y-79389142D01*
X113402142Y-79606931D01*
X113388000Y-79592789D01*
X113373858Y-79606931D01*
X113156069Y-79389142D01*
X113170211Y-79375000D01*
X113156069Y-79360858D01*
X113373858Y-79143069D01*
X113388000Y-79157211D01*
X114325277Y-78219934D01*
X118950723Y-78219934D01*
X119888000Y-79157211D01*
X120825277Y-78219934D01*
X120722826Y-77963960D01*
X120119297Y-77751895D01*
X119480555Y-77786933D01*
X119053174Y-77963960D01*
X118950723Y-78219934D01*
X114325277Y-78219934D01*
X114222826Y-77963960D01*
X113619297Y-77751895D01*
X112980555Y-77786933D01*
X112553174Y-77963960D01*
X112450724Y-78219932D01*
X112413200Y-78182408D01*
X112413200Y-76724564D01*
X112896723Y-76241041D01*
X113098312Y-76324748D01*
X113675157Y-76325251D01*
X114208286Y-76104967D01*
X114616533Y-75697431D01*
X114837748Y-75164688D01*
X114838251Y-74587843D01*
X114617967Y-74054714D01*
X114210431Y-73646467D01*
X113978113Y-73550000D01*
X119297712Y-73550000D01*
X119067714Y-73645033D01*
X119067714Y-73645033D01*
G37*
X119067714Y-73645033D02*
X118659467Y-74052569D01*
X118438252Y-74585312D01*
X118437749Y-75162157D01*
X118658033Y-75695286D01*
X119065569Y-76103533D01*
X119598312Y-76324748D01*
X120175157Y-76325251D01*
X120708286Y-76104967D01*
X121116533Y-75697431D01*
X121337748Y-75164688D01*
X121338251Y-74587843D01*
X121117967Y-74054714D01*
X120710431Y-73646467D01*
X120478113Y-73550000D01*
X124743375Y-73550000D01*
X124135090Y-74157224D01*
X123756432Y-75069134D01*
X123755570Y-76056534D01*
X124132636Y-76969103D01*
X124830224Y-77667910D01*
X125742134Y-78046568D01*
X126514993Y-78047243D01*
X124252118Y-80310118D01*
X124110522Y-80522031D01*
X124060800Y-80772000D01*
X124060800Y-91627540D01*
X123975227Y-91420947D01*
X123750303Y-91355486D01*
X123030789Y-92075000D01*
X123750303Y-92794514D01*
X123975227Y-92729053D01*
X124060800Y-92467534D01*
X124060800Y-99949000D01*
X124110522Y-100198969D01*
X124252118Y-100410882D01*
X127427118Y-103585882D01*
X127639031Y-103727478D01*
X127889000Y-103777200D01*
X130204886Y-103777200D01*
X130070763Y-103977929D01*
X129968000Y-104494552D01*
X129968000Y-104547448D01*
X130070763Y-105064071D01*
X130363406Y-105502042D01*
X130674376Y-105709826D01*
X130560836Y-105756852D01*
X130119396Y-106145878D01*
X129860432Y-106674224D01*
X129969872Y-106907000D01*
X131164000Y-106907000D01*
X131164000Y-106887000D01*
X131472000Y-106887000D01*
X131472000Y-106907000D01*
X132666128Y-106907000D01*
X132775568Y-106674224D01*
X132516604Y-106145878D01*
X132075164Y-105756852D01*
X131961624Y-105709826D01*
X132272594Y-105502042D01*
X132423764Y-105275800D01*
X132656352Y-105275800D01*
X136913200Y-109532649D01*
X136913200Y-113287258D01*
X136608919Y-113591007D01*
X136512066Y-113824256D01*
X136413229Y-113585643D01*
X136177969Y-113507820D01*
X135385789Y-114300000D01*
X136177969Y-115092180D01*
X136413229Y-115014357D01*
X136501831Y-114750960D01*
X136607684Y-115007143D01*
X136959007Y-115359081D01*
X137418269Y-115549783D01*
X137915550Y-115550217D01*
X138284800Y-115397645D01*
X138284800Y-118999000D01*
X138334522Y-119248969D01*
X138476118Y-119460882D01*
X139094547Y-120079311D01*
X139190811Y-120312286D01*
X139401605Y-120523448D01*
X139677161Y-120637869D01*
X139975530Y-120638130D01*
X140251286Y-120524189D01*
X140462448Y-120313395D01*
X140576869Y-120037839D01*
X140577130Y-119739470D01*
X140463189Y-119463714D01*
X140252395Y-119252552D01*
X140144588Y-119207787D01*
X140208000Y-119220400D01*
X147190836Y-119220400D01*
X146096118Y-120315118D01*
X145954522Y-120527031D01*
X145904800Y-120777000D01*
X145904800Y-122530837D01*
X145629145Y-122715024D01*
X145344392Y-123141186D01*
X145288000Y-123424687D01*
X145231608Y-123141186D01*
X144946855Y-122715024D01*
X144520693Y-122430271D01*
X144018000Y-122330279D01*
X143515307Y-122430271D01*
X143089145Y-122715024D01*
X142804392Y-123141186D01*
X142748000Y-123424687D01*
X142691608Y-123141186D01*
X142406855Y-122715024D01*
X141980693Y-122430271D01*
X141478000Y-122330279D01*
X140975307Y-122430271D01*
X140549145Y-122715024D01*
X140264392Y-123141186D01*
X140208000Y-123424687D01*
X140151608Y-123141186D01*
X139866855Y-122715024D01*
X139440693Y-122430271D01*
X138938000Y-122330279D01*
X138435307Y-122430271D01*
X138009145Y-122715024D01*
X137724392Y-123141186D01*
X137624400Y-123643879D01*
X137624400Y-124006121D01*
X137724392Y-124508814D01*
X138009145Y-124934976D01*
X138435307Y-125219729D01*
X138938000Y-125319721D01*
X139440693Y-125219729D01*
X139866855Y-124934976D01*
X140151608Y-124508814D01*
X140208000Y-124225313D01*
X140264392Y-124508814D01*
X140549145Y-124934976D01*
X140975307Y-125219729D01*
X141478000Y-125319721D01*
X141980693Y-125219729D01*
X142406855Y-124934976D01*
X142691608Y-124508814D01*
X142748000Y-124225313D01*
X142804392Y-124508814D01*
X143089145Y-124934976D01*
X143515307Y-125219729D01*
X144018000Y-125319721D01*
X144520693Y-125219729D01*
X144946855Y-124934976D01*
X145231608Y-124508814D01*
X145288000Y-124225313D01*
X145344392Y-124508814D01*
X145629145Y-124934976D01*
X146055307Y-125219729D01*
X146558000Y-125319721D01*
X147060693Y-125219729D01*
X147486855Y-124934976D01*
X147771608Y-124508814D01*
X147828000Y-124225313D01*
X147884392Y-124508814D01*
X148169145Y-124934976D01*
X148595307Y-125219729D01*
X149098000Y-125319721D01*
X149600693Y-125219729D01*
X150026855Y-124934976D01*
X150301412Y-124524074D01*
X150384162Y-124747629D01*
X150774359Y-125168822D01*
X151256951Y-125398811D01*
X151484000Y-125287983D01*
X151484000Y-123979000D01*
X151792000Y-123979000D01*
X151792000Y-125287983D01*
X152019049Y-125398811D01*
X152501641Y-125168822D01*
X152891838Y-124747629D01*
X152908000Y-124703966D01*
X152924162Y-124747629D01*
X153314359Y-125168822D01*
X153796951Y-125398811D01*
X154024000Y-125287983D01*
X154024000Y-123979000D01*
X151792000Y-123979000D01*
X151484000Y-123979000D01*
X151464000Y-123979000D01*
X151464000Y-123671000D01*
X151484000Y-123671000D01*
X151484000Y-122362017D01*
X151792000Y-122362017D01*
X151792000Y-123671000D01*
X154024000Y-123671000D01*
X154024000Y-122362017D01*
X154332000Y-122362017D01*
X154332000Y-123671000D01*
X154352000Y-123671000D01*
X154352000Y-123979000D01*
X154332000Y-123979000D01*
X154332000Y-125287983D01*
X154559049Y-125398811D01*
X155041641Y-125168822D01*
X155431838Y-124747629D01*
X155514588Y-124524074D01*
X155789145Y-124934976D01*
X156215307Y-125219729D01*
X156718000Y-125319721D01*
X157220693Y-125219729D01*
X157646855Y-124934976D01*
X157931608Y-124508814D01*
X158031600Y-124006121D01*
X158031600Y-123643879D01*
X157931608Y-123141186D01*
X157646855Y-122715024D01*
X157220693Y-122430271D01*
X156718000Y-122330279D01*
X156215307Y-122430271D01*
X155789145Y-122715024D01*
X155514588Y-123125926D01*
X155431838Y-122902371D01*
X155041641Y-122481178D01*
X154559049Y-122251189D01*
X154332000Y-122362017D01*
X154024000Y-122362017D01*
X153796951Y-122251189D01*
X153314359Y-122481178D01*
X152924162Y-122902371D01*
X152908000Y-122946034D01*
X152891838Y-122902371D01*
X152501641Y-122481178D01*
X152019049Y-122251189D01*
X151792000Y-122362017D01*
X151484000Y-122362017D01*
X151256951Y-122251189D01*
X150774359Y-122481178D01*
X150384162Y-122902371D01*
X150301412Y-123125926D01*
X150221748Y-123006701D01*
X155346725Y-117881724D01*
X155510344Y-117636849D01*
X155567800Y-117348000D01*
X155567800Y-115294623D01*
X155696883Y-115208372D01*
X155967849Y-114802843D01*
X156063000Y-114324489D01*
X156063000Y-114275511D01*
X155967849Y-113797157D01*
X155696883Y-113391628D01*
X155372976Y-113175200D01*
X156793024Y-113175200D01*
X156469117Y-113391628D01*
X156198151Y-113797157D01*
X156103000Y-114275511D01*
X156103000Y-114324489D01*
X156198151Y-114802843D01*
X156469117Y-115208372D01*
X156874646Y-115479338D01*
X157353000Y-115574489D01*
X157831354Y-115479338D01*
X158236883Y-115208372D01*
X158507849Y-114802843D01*
X158577238Y-114454002D01*
X158645434Y-114454002D01*
X158534757Y-114671044D01*
X158780139Y-115162577D01*
X159194944Y-115522791D01*
X159521958Y-115658231D01*
X159739000Y-115546523D01*
X159739000Y-114454000D01*
X159719000Y-114454000D01*
X159719000Y-114146000D01*
X159739000Y-114146000D01*
X159739000Y-113053477D01*
X159521958Y-112941769D01*
X159298282Y-113034409D01*
X159385448Y-112947395D01*
X159499869Y-112671839D01*
X159500130Y-112373470D01*
X159386189Y-112097714D01*
X159175395Y-111886552D01*
X158899839Y-111772131D01*
X158601470Y-111771870D01*
X158366883Y-111868800D01*
X154052643Y-111868800D01*
X154006078Y-111849464D01*
X154178448Y-111677395D01*
X154292869Y-111401839D01*
X154292988Y-111265895D01*
X154536161Y-111366869D01*
X154834530Y-111367130D01*
X155110286Y-111253189D01*
X155321448Y-111042395D01*
X155418787Y-110807977D01*
X156544882Y-109681882D01*
X156686478Y-109469969D01*
X156736200Y-109220000D01*
X156736200Y-107936445D01*
X156981958Y-108038231D01*
X157199000Y-107926523D01*
X157199000Y-106834000D01*
X157179000Y-106834000D01*
X157179000Y-106526000D01*
X157199000Y-106526000D01*
X157199000Y-105462270D01*
X157226453Y-105421184D01*
X157321478Y-105278969D01*
X157371200Y-105029000D01*
X157371200Y-104769590D01*
X157844548Y-104928815D01*
X158205049Y-104904187D01*
X158161118Y-104948118D01*
X158019522Y-105160031D01*
X157969800Y-105410000D01*
X157969800Y-105423555D01*
X157724042Y-105321769D01*
X157507000Y-105433477D01*
X157507000Y-106526000D01*
X157527000Y-106526000D01*
X157527000Y-106834000D01*
X157507000Y-106834000D01*
X157507000Y-107926523D01*
X157724042Y-108038231D01*
X158013987Y-107918144D01*
X158019522Y-107945969D01*
X158161118Y-108157882D01*
X159177118Y-109173882D01*
X159389031Y-109315478D01*
X159635845Y-109364572D01*
X159870161Y-109461869D01*
X160168530Y-109462130D01*
X160444286Y-109348189D01*
X160655448Y-109137395D01*
X160769869Y-108861839D01*
X160770130Y-108563470D01*
X160656189Y-108287714D01*
X160445395Y-108076552D01*
X160169839Y-107962131D01*
X159871470Y-107961870D01*
X159829837Y-107979073D01*
X159783465Y-107932701D01*
X159893000Y-107954489D01*
X160371354Y-107859338D01*
X160776883Y-107588372D01*
X161047849Y-107182843D01*
X161143000Y-106704489D01*
X161143000Y-106655511D01*
X161047849Y-106177157D01*
X160776883Y-105771628D01*
X160670142Y-105700306D01*
X161061724Y-105308724D01*
X161225344Y-105063849D01*
X161282800Y-104775000D01*
X161282800Y-104517742D01*
X161541194Y-104259800D01*
X162194294Y-104259800D01*
X162233297Y-104318173D01*
X162606384Y-104567461D01*
X163046470Y-104655000D01*
X163091530Y-104655000D01*
X163531616Y-104567461D01*
X163803324Y-104385912D01*
X162725536Y-105463700D01*
X162433000Y-105405511D01*
X161954646Y-105500662D01*
X161549117Y-105771628D01*
X161278151Y-106177157D01*
X161183000Y-106655511D01*
X161183000Y-106704489D01*
X161278151Y-107182843D01*
X161549117Y-107588372D01*
X161954646Y-107859338D01*
X162433000Y-107954489D01*
X162911354Y-107859338D01*
X163316883Y-107588372D01*
X163587849Y-107182843D01*
X163683000Y-106704489D01*
X163683000Y-106655511D01*
X163632937Y-106403827D01*
X163807857Y-106228907D01*
X163723000Y-106655511D01*
X163723000Y-106704489D01*
X163818151Y-107182843D01*
X164089117Y-107588372D01*
X164494646Y-107859338D01*
X164973000Y-107954489D01*
X165451354Y-107859338D01*
X165856883Y-107588372D01*
X166127849Y-107182843D01*
X166223000Y-106704489D01*
X166223000Y-106655511D01*
X166172937Y-106403827D01*
X166347857Y-106228907D01*
X166263000Y-106655511D01*
X166263000Y-106704489D01*
X166358151Y-107182843D01*
X166629117Y-107588372D01*
X167034646Y-107859338D01*
X167513000Y-107954489D01*
X167991354Y-107859338D01*
X168396883Y-107588372D01*
X168667849Y-107182843D01*
X168763000Y-106704489D01*
X168763000Y-106655511D01*
X168712937Y-106403827D01*
X168887857Y-106228907D01*
X168803000Y-106655511D01*
X168803000Y-106704489D01*
X168898151Y-107182843D01*
X169169117Y-107588372D01*
X169574646Y-107859338D01*
X170053000Y-107954489D01*
X170531354Y-107859338D01*
X170936883Y-107588372D01*
X171207849Y-107182843D01*
X171303000Y-106704489D01*
X171303000Y-106655511D01*
X171252937Y-106403827D01*
X171427857Y-106228907D01*
X171343000Y-106655511D01*
X171343000Y-106704489D01*
X171438151Y-107182843D01*
X171709117Y-107588372D01*
X172114646Y-107859338D01*
X172593000Y-107954489D01*
X173071354Y-107859338D01*
X173181202Y-107785940D01*
X173181202Y-109455800D01*
X171324643Y-109455800D01*
X171091839Y-109359131D01*
X170793470Y-109358870D01*
X170517714Y-109472811D01*
X170306552Y-109683605D01*
X170192131Y-109959161D01*
X170191870Y-110257530D01*
X170305811Y-110533286D01*
X170516605Y-110744448D01*
X170792161Y-110858869D01*
X171090530Y-110859130D01*
X171325117Y-110762200D01*
X173482000Y-110762200D01*
X173731969Y-110712478D01*
X173943882Y-110570882D01*
X174296284Y-110218480D01*
X174369436Y-110109000D01*
X174437880Y-110006567D01*
X174487602Y-109756598D01*
X174487602Y-107938816D01*
X175933000Y-107938816D01*
X176099760Y-107907438D01*
X176252919Y-107808883D01*
X176355668Y-107658505D01*
X176384800Y-107514646D01*
X176384800Y-108949436D01*
X172238138Y-113096098D01*
X172114646Y-113120662D01*
X171709117Y-113391628D01*
X171438151Y-113797157D01*
X171343000Y-114275511D01*
X171343000Y-114324489D01*
X171438151Y-114802843D01*
X171709117Y-115208372D01*
X171939800Y-115362510D01*
X171939800Y-116569436D01*
X171496118Y-117013118D01*
X171354522Y-117225031D01*
X171304800Y-117475000D01*
X171304800Y-122530837D01*
X171029145Y-122715024D01*
X170744392Y-123141186D01*
X170688000Y-123424687D01*
X170631608Y-123141186D01*
X170346855Y-122715024D01*
X170071200Y-122530837D01*
X170071200Y-119015564D01*
X170514882Y-118571882D01*
X170536747Y-118539159D01*
X170656478Y-118359969D01*
X170706200Y-118110000D01*
X170706200Y-115362510D01*
X170936883Y-115208372D01*
X171207849Y-114802843D01*
X171303000Y-114324489D01*
X171303000Y-114275511D01*
X171207849Y-113797157D01*
X170936883Y-113391628D01*
X170531354Y-113120662D01*
X170053000Y-113025511D01*
X169574646Y-113120662D01*
X169169117Y-113391628D01*
X168898151Y-113797157D01*
X168803000Y-114275511D01*
X168803000Y-114324489D01*
X168898151Y-114802843D01*
X169169117Y-115208372D01*
X169399800Y-115362510D01*
X169399800Y-117839436D01*
X168956118Y-118283118D01*
X168814522Y-118495031D01*
X168764800Y-118745000D01*
X168764800Y-122530837D01*
X168489145Y-122715024D01*
X168204392Y-123141186D01*
X168148000Y-123424687D01*
X168091608Y-123141186D01*
X167806855Y-122715024D01*
X167531200Y-122530837D01*
X167531200Y-120285564D01*
X167974882Y-119841882D01*
X168026232Y-119765031D01*
X168116478Y-119629969D01*
X168166200Y-119380000D01*
X168166200Y-115362510D01*
X168396883Y-115208372D01*
X168667849Y-114802843D01*
X168763000Y-114324489D01*
X168763000Y-114275511D01*
X168667849Y-113797157D01*
X168396883Y-113391628D01*
X167991354Y-113120662D01*
X167513000Y-113025511D01*
X167034646Y-113120662D01*
X166629117Y-113391628D01*
X166358151Y-113797157D01*
X166263000Y-114275511D01*
X166263000Y-114324489D01*
X166358151Y-114802843D01*
X166629117Y-115208372D01*
X166859800Y-115362510D01*
X166859800Y-119109436D01*
X166416118Y-119553118D01*
X166274522Y-119765031D01*
X166224800Y-120015000D01*
X166224800Y-122530837D01*
X165949145Y-122715024D01*
X165664392Y-123141186D01*
X165608000Y-123424687D01*
X165551608Y-123141186D01*
X165266855Y-122715024D01*
X164991200Y-122530837D01*
X164991200Y-121555564D01*
X165434882Y-121111882D01*
X165491619Y-121026969D01*
X165576478Y-120899969D01*
X165626200Y-120650000D01*
X165626200Y-115362510D01*
X165856883Y-115208372D01*
X166127849Y-114802843D01*
X166223000Y-114324489D01*
X166223000Y-114275511D01*
X166127849Y-113797157D01*
X165856883Y-113391628D01*
X165451354Y-113120662D01*
X164973000Y-113025511D01*
X164494646Y-113120662D01*
X164089117Y-113391628D01*
X163818151Y-113797157D01*
X163723000Y-114275511D01*
X163723000Y-114324489D01*
X163818151Y-114802843D01*
X164089117Y-115208372D01*
X164319800Y-115362510D01*
X164319800Y-120379436D01*
X163876118Y-120823118D01*
X163734522Y-121035031D01*
X163684800Y-121285000D01*
X163684800Y-122530837D01*
X163409145Y-122715024D01*
X163124392Y-123141186D01*
X163068000Y-123424687D01*
X163011608Y-123141186D01*
X162726855Y-122715024D01*
X162627876Y-122648888D01*
X162894882Y-122381882D01*
X162966138Y-122275240D01*
X163036478Y-122169969D01*
X163086200Y-121920000D01*
X163086200Y-115362510D01*
X163316883Y-115208372D01*
X163587849Y-114802843D01*
X163683000Y-114324489D01*
X163683000Y-114275511D01*
X163587849Y-113797157D01*
X163316883Y-113391628D01*
X162911354Y-113120662D01*
X162433000Y-113025511D01*
X161954646Y-113120662D01*
X161549117Y-113391628D01*
X161278151Y-113797157D01*
X161208762Y-114145998D01*
X161140566Y-114145998D01*
X161251243Y-113928956D01*
X161005861Y-113437423D01*
X160591056Y-113077209D01*
X160264042Y-112941769D01*
X160047000Y-113053477D01*
X160047000Y-114146000D01*
X160067000Y-114146000D01*
X160067000Y-114454000D01*
X160047000Y-114454000D01*
X160047000Y-115546523D01*
X160264042Y-115658231D01*
X160591056Y-115522791D01*
X161005861Y-115162577D01*
X161251243Y-114671044D01*
X161140566Y-114454002D01*
X161208762Y-114454002D01*
X161278151Y-114802843D01*
X161549117Y-115208372D01*
X161779800Y-115362510D01*
X161779800Y-121649436D01*
X161336118Y-122093118D01*
X161194522Y-122305031D01*
X161150343Y-122527133D01*
X160869145Y-122715024D01*
X160584392Y-123141186D01*
X160484400Y-123643879D01*
X160484400Y-124006121D01*
X160584392Y-124508814D01*
X160869145Y-124934976D01*
X161295307Y-125219729D01*
X161798000Y-125319721D01*
X162300693Y-125219729D01*
X162726855Y-124934976D01*
X163011608Y-124508814D01*
X163068000Y-124225313D01*
X163124392Y-124508814D01*
X163409145Y-124934976D01*
X163835307Y-125219729D01*
X164338000Y-125319721D01*
X164840693Y-125219729D01*
X165266855Y-124934976D01*
X165551608Y-124508814D01*
X165608000Y-124225313D01*
X165664392Y-124508814D01*
X165949145Y-124934976D01*
X166375307Y-125219729D01*
X166878000Y-125319721D01*
X167380693Y-125219729D01*
X167806855Y-124934976D01*
X168091608Y-124508814D01*
X168148000Y-124225313D01*
X168204392Y-124508814D01*
X168489145Y-124934976D01*
X168915307Y-125219729D01*
X169418000Y-125319721D01*
X169920693Y-125219729D01*
X170346855Y-124934976D01*
X170631608Y-124508814D01*
X170688000Y-124225313D01*
X170744392Y-124508814D01*
X171029145Y-124934976D01*
X171455307Y-125219729D01*
X171958000Y-125319721D01*
X172460693Y-125219729D01*
X172886855Y-124934976D01*
X173171608Y-124508814D01*
X173228000Y-124225313D01*
X173284392Y-124508814D01*
X173569145Y-124934976D01*
X173995307Y-125219729D01*
X174498000Y-125319721D01*
X175000693Y-125219729D01*
X175426855Y-124934976D01*
X175711608Y-124508814D01*
X175811600Y-124006121D01*
X175811600Y-123643879D01*
X175711608Y-123141186D01*
X175426855Y-122715024D01*
X175151200Y-122530837D01*
X175151200Y-120368049D01*
X175630224Y-120847910D01*
X176542134Y-121226568D01*
X177529534Y-121227430D01*
X178442103Y-120850364D01*
X179053000Y-120240533D01*
X179053000Y-121067538D01*
X176666769Y-123453769D01*
X176552963Y-123624091D01*
X176513000Y-123825000D01*
X176513000Y-125840000D01*
X126462625Y-125840000D01*
X127070910Y-125232776D01*
X127424426Y-124381413D01*
X129622376Y-124381413D01*
X129709447Y-124624435D01*
X130267598Y-124815581D01*
X130856411Y-124778581D01*
X131228553Y-124624435D01*
X131315624Y-124381413D01*
X130469000Y-123534789D01*
X129622376Y-124381413D01*
X127424426Y-124381413D01*
X127449568Y-124320866D01*
X127450430Y-123333466D01*
X127360409Y-123115598D01*
X128970419Y-123115598D01*
X129007419Y-123704411D01*
X129161565Y-124076553D01*
X129404587Y-124163624D01*
X130251211Y-123317000D01*
X129404587Y-122470376D01*
X129161565Y-122557447D01*
X128970419Y-123115598D01*
X127360409Y-123115598D01*
X127073364Y-122420897D01*
X126905348Y-122252587D01*
X129622376Y-122252587D01*
X130469000Y-123099211D01*
X131315624Y-122252587D01*
X131228553Y-122009565D01*
X130670402Y-121818419D01*
X130081589Y-121855419D01*
X129709447Y-122009565D01*
X129622376Y-122252587D01*
X126905348Y-122252587D01*
X126375776Y-121722090D01*
X125463866Y-121343432D01*
X124476466Y-121342570D01*
X123563897Y-121719636D01*
X122865090Y-122417224D01*
X122486432Y-123329134D01*
X122485570Y-124316534D01*
X122862636Y-125229103D01*
X123472467Y-125840000D01*
X111523000Y-125840000D01*
X111523000Y-123751000D01*
X115800000Y-123751000D01*
X115800000Y-125315938D01*
X115892562Y-125539404D01*
X116063595Y-125710437D01*
X116287061Y-125803000D01*
X117852000Y-125803000D01*
X118004000Y-125651000D01*
X118004000Y-123599000D01*
X118312000Y-123599000D01*
X118312000Y-125651000D01*
X118464000Y-125803000D01*
X120028939Y-125803000D01*
X120252405Y-125710437D01*
X120423438Y-125539404D01*
X120516000Y-125315938D01*
X120516000Y-123751000D01*
X120364000Y-123599000D01*
X118312000Y-123599000D01*
X118004000Y-123599000D01*
X115952000Y-123599000D01*
X115800000Y-123751000D01*
X111523000Y-123751000D01*
X111523000Y-119051000D01*
X112800000Y-119051000D01*
X112800000Y-120615938D01*
X112892562Y-120839404D01*
X113063595Y-121010437D01*
X113287061Y-121103000D01*
X114852000Y-121103000D01*
X115004000Y-120951000D01*
X115004000Y-118899000D01*
X115312000Y-118899000D01*
X115312000Y-120951000D01*
X115464000Y-121103000D01*
X116248434Y-121103000D01*
X116063595Y-121179563D01*
X115892562Y-121350596D01*
X115800000Y-121574062D01*
X115800000Y-123139000D01*
X115952000Y-123291000D01*
X118004000Y-123291000D01*
X118004000Y-121239000D01*
X118312000Y-121239000D01*
X118312000Y-123291000D01*
X120364000Y-123291000D01*
X120516000Y-123139000D01*
X120516000Y-121574062D01*
X120423438Y-121350596D01*
X120252405Y-121179563D01*
X120028939Y-121087000D01*
X118464000Y-121087000D01*
X118312000Y-121239000D01*
X118004000Y-121239000D01*
X117852000Y-121087000D01*
X117067566Y-121087000D01*
X117252405Y-121010437D01*
X117423438Y-120839404D01*
X117516000Y-120615938D01*
X117516000Y-119051000D01*
X117364000Y-118899000D01*
X115312000Y-118899000D01*
X115004000Y-118899000D01*
X112952000Y-118899000D01*
X112800000Y-119051000D01*
X111523000Y-119051000D01*
X111523000Y-116874062D01*
X112800000Y-116874062D01*
X112800000Y-118439000D01*
X112952000Y-118591000D01*
X115004000Y-118591000D01*
X115004000Y-116539000D01*
X115312000Y-116539000D01*
X115312000Y-118591000D01*
X117364000Y-118591000D01*
X117516000Y-118439000D01*
X117516000Y-116995000D01*
X118949184Y-116995000D01*
X118949184Y-120495000D01*
X118980562Y-120661760D01*
X119079117Y-120814919D01*
X119229495Y-120917668D01*
X119408000Y-120953816D01*
X122908000Y-120953816D01*
X123074760Y-120922438D01*
X123227919Y-120823883D01*
X123330668Y-120673505D01*
X123366816Y-120495000D01*
X123366816Y-119499800D01*
X124916299Y-119499800D01*
X124979475Y-119542013D01*
X125572634Y-119660000D01*
X125633366Y-119660000D01*
X126226525Y-119542013D01*
X126729382Y-119206016D01*
X127065379Y-118703159D01*
X127183366Y-118110000D01*
X127065379Y-117516841D01*
X126729382Y-117013984D01*
X126226525Y-116677987D01*
X125633366Y-116560000D01*
X125572634Y-116560000D01*
X124979475Y-116677987D01*
X124476618Y-117013984D01*
X124140621Y-117516841D01*
X124046464Y-117990200D01*
X123366816Y-117990200D01*
X123366816Y-116995000D01*
X123335438Y-116828240D01*
X123236883Y-116675081D01*
X123086505Y-116572332D01*
X122908000Y-116536184D01*
X119408000Y-116536184D01*
X119241240Y-116567562D01*
X119088081Y-116666117D01*
X118985332Y-116816495D01*
X118949184Y-116995000D01*
X117516000Y-116995000D01*
X117516000Y-116874062D01*
X117423438Y-116650596D01*
X117252405Y-116479563D01*
X117028939Y-116387000D01*
X115464000Y-116387000D01*
X115312000Y-116539000D01*
X115004000Y-116539000D01*
X114852000Y-116387000D01*
X113287061Y-116387000D01*
X113063595Y-116479563D01*
X112892562Y-116650596D01*
X112800000Y-116874062D01*
X111523000Y-116874062D01*
X111523000Y-113843764D01*
X112822118Y-115142882D01*
X113034031Y-115284478D01*
X113284000Y-115334200D01*
X127872436Y-115334200D01*
X133506547Y-120968311D01*
X133602811Y-121201286D01*
X133813605Y-121412448D01*
X134089161Y-121526869D01*
X134387530Y-121527130D01*
X134499819Y-121480733D01*
X133971541Y-122009011D01*
X133844000Y-121983184D01*
X132094000Y-121983184D01*
X131927240Y-122014562D01*
X131774081Y-122113117D01*
X131671332Y-122263495D01*
X131635184Y-122442000D01*
X131635184Y-122506839D01*
X131533413Y-122470376D01*
X130686789Y-123317000D01*
X131533413Y-124163624D01*
X131635184Y-124127161D01*
X131635184Y-124192000D01*
X131666562Y-124358760D01*
X131765117Y-124511919D01*
X131915495Y-124614668D01*
X132094000Y-124650816D01*
X133844000Y-124650816D01*
X134010760Y-124619438D01*
X134163919Y-124520883D01*
X134266668Y-124370505D01*
X134302816Y-124192000D01*
X134302816Y-123812632D01*
X136296724Y-121818724D01*
X136460344Y-121573850D01*
X136517800Y-121285000D01*
X136517800Y-119668816D01*
X136863000Y-119668816D01*
X137029760Y-119637438D01*
X137182919Y-119538883D01*
X137285668Y-119388505D01*
X137321816Y-119210000D01*
X137321816Y-117010000D01*
X137290438Y-116843240D01*
X137191883Y-116690081D01*
X137041505Y-116587332D01*
X136863000Y-116551184D01*
X134663000Y-116551184D01*
X134496240Y-116582562D01*
X134343081Y-116681117D01*
X134257223Y-116806775D01*
X132760417Y-115309969D01*
X134375820Y-115309969D01*
X134453643Y-115545229D01*
X134984548Y-115723815D01*
X135543382Y-115685637D01*
X135882357Y-115545229D01*
X135960180Y-115309969D01*
X135168000Y-114517789D01*
X134375820Y-115309969D01*
X132760417Y-115309969D01*
X132072800Y-114622352D01*
X132072800Y-114116548D01*
X133744185Y-114116548D01*
X133782363Y-114675382D01*
X133922771Y-115014357D01*
X134158031Y-115092180D01*
X134950211Y-114300000D01*
X134158031Y-113507820D01*
X133922771Y-113585643D01*
X133744185Y-114116548D01*
X132072800Y-114116548D01*
X132072800Y-113290031D01*
X134375820Y-113290031D01*
X135168000Y-114082211D01*
X135960180Y-113290031D01*
X135882357Y-113054771D01*
X135351452Y-112876185D01*
X134792618Y-112914363D01*
X134453643Y-113054771D01*
X134375820Y-113290031D01*
X132072800Y-113290031D01*
X132072800Y-110959816D01*
X132218000Y-110959816D01*
X132384760Y-110928438D01*
X132537919Y-110829883D01*
X132640668Y-110679505D01*
X132676816Y-110501000D01*
X132676816Y-108701000D01*
X132645438Y-108534240D01*
X132546883Y-108381081D01*
X132396505Y-108278332D01*
X132218000Y-108242184D01*
X132214695Y-108242184D01*
X132516604Y-107976122D01*
X132775568Y-107447776D01*
X132666128Y-107215000D01*
X131472000Y-107215000D01*
X131472000Y-107235000D01*
X131164000Y-107235000D01*
X131164000Y-107215000D01*
X129969872Y-107215000D01*
X129860432Y-107447776D01*
X130119396Y-107976122D01*
X130421305Y-108242184D01*
X130418000Y-108242184D01*
X130251240Y-108273562D01*
X130098081Y-108372117D01*
X129995332Y-108522495D01*
X129959184Y-108701000D01*
X129959184Y-110501000D01*
X129990562Y-110667760D01*
X130089117Y-110820919D01*
X130239495Y-110923668D01*
X130418000Y-110959816D01*
X130563200Y-110959816D01*
X130563200Y-114935000D01*
X130620656Y-115223850D01*
X130784276Y-115468724D01*
X133959276Y-118643724D01*
X134204150Y-118807344D01*
X134204184Y-118807351D01*
X134204184Y-119210000D01*
X134235562Y-119376760D01*
X134334117Y-119529919D01*
X134484495Y-119632668D01*
X134663000Y-119668816D01*
X135008200Y-119668816D01*
X135008200Y-120972352D01*
X134942824Y-121037728D01*
X134988869Y-120926839D01*
X134989130Y-120628470D01*
X134875189Y-120352714D01*
X134664395Y-120141552D01*
X134429977Y-120044213D01*
X128604882Y-114219118D01*
X128392969Y-114077522D01*
X128143000Y-114027800D01*
X113554564Y-114027800D01*
X112413200Y-112886436D01*
X112413200Y-107017899D01*
X112458000Y-107017899D01*
X112458000Y-107104101D01*
X112625465Y-107946005D01*
X113102365Y-108659736D01*
X113816096Y-109136636D01*
X114658000Y-109304101D01*
X115499904Y-109136636D01*
X116213635Y-108659736D01*
X116690535Y-107946005D01*
X116858000Y-107104101D01*
X116858000Y-107017899D01*
X116690535Y-106175995D01*
X116213635Y-105462264D01*
X115499904Y-104985364D01*
X114658000Y-104817899D01*
X113816096Y-104985364D01*
X113102365Y-105462264D01*
X112625465Y-106175995D01*
X112458000Y-107017899D01*
X112413200Y-107017899D01*
X112413200Y-99034531D01*
X112873000Y-99034531D01*
X112873000Y-99085469D01*
X112971957Y-99582957D01*
X113253761Y-100004708D01*
X113675512Y-100286512D01*
X114173000Y-100385469D01*
X114670488Y-100286512D01*
X115092239Y-100004708D01*
X115374043Y-99582957D01*
X115443000Y-99236288D01*
X115511957Y-99582957D01*
X115793761Y-100004708D01*
X116215512Y-100286512D01*
X116713000Y-100385469D01*
X117210488Y-100286512D01*
X117632239Y-100004708D01*
X117914043Y-99582957D01*
X117944184Y-99431429D01*
X117944184Y-99910000D01*
X117975562Y-100076760D01*
X118074117Y-100229919D01*
X118224495Y-100332668D01*
X118403000Y-100368816D01*
X120103000Y-100368816D01*
X120269760Y-100337438D01*
X120422919Y-100238883D01*
X120525668Y-100088505D01*
X120559234Y-99922746D01*
X121662801Y-99922746D01*
X121837509Y-100345572D01*
X122160727Y-100669354D01*
X122583247Y-100844800D01*
X123040746Y-100845199D01*
X123463572Y-100670491D01*
X123787354Y-100347273D01*
X123962800Y-99924753D01*
X123963199Y-99467254D01*
X123788491Y-99044428D01*
X123465273Y-98720646D01*
X123042753Y-98545200D01*
X122585254Y-98544801D01*
X122162428Y-98719509D01*
X121838646Y-99042727D01*
X121663200Y-99465247D01*
X121662801Y-99922746D01*
X120559234Y-99922746D01*
X120561816Y-99910000D01*
X120561816Y-98210000D01*
X120530438Y-98043240D01*
X120431883Y-97890081D01*
X120281505Y-97787332D01*
X120103000Y-97751184D01*
X118403000Y-97751184D01*
X118236240Y-97782562D01*
X118083081Y-97881117D01*
X117980332Y-98031495D01*
X117944184Y-98210000D01*
X117944184Y-98688571D01*
X117914043Y-98537043D01*
X117632239Y-98115292D01*
X117210488Y-97833488D01*
X116713000Y-97734531D01*
X116215512Y-97833488D01*
X115793761Y-98115292D01*
X115511957Y-98537043D01*
X115443000Y-98883712D01*
X115374043Y-98537043D01*
X115092239Y-98115292D01*
X114670488Y-97833488D01*
X114173000Y-97734531D01*
X113675512Y-97833488D01*
X113253761Y-98115292D01*
X112971957Y-98537043D01*
X112873000Y-99034531D01*
X112413200Y-99034531D01*
X112413200Y-97382746D01*
X121662801Y-97382746D01*
X121837509Y-97805572D01*
X122160727Y-98129354D01*
X122583247Y-98304800D01*
X123040746Y-98305199D01*
X123463572Y-98130491D01*
X123787354Y-97807273D01*
X123962800Y-97384753D01*
X123963199Y-96927254D01*
X123788491Y-96504428D01*
X123465273Y-96180646D01*
X123042753Y-96005200D01*
X122585254Y-96004801D01*
X122162428Y-96179509D01*
X121838646Y-96502727D01*
X121663200Y-96925247D01*
X121662801Y-97382746D01*
X112413200Y-97382746D01*
X112413200Y-95673499D01*
X112727290Y-95673499D01*
X112872655Y-95965795D01*
X113603093Y-96236366D01*
X114381473Y-96206814D01*
X114963345Y-95965795D01*
X115108710Y-95673499D01*
X113918000Y-94482789D01*
X112727290Y-95673499D01*
X112413200Y-95673499D01*
X112413200Y-95407817D01*
X112509501Y-95455710D01*
X113700211Y-94265000D01*
X114135789Y-94265000D01*
X115326499Y-95455710D01*
X115618795Y-95310345D01*
X115889366Y-94579907D01*
X115859814Y-93801527D01*
X115618795Y-93219655D01*
X115326499Y-93074290D01*
X114135789Y-94265000D01*
X113700211Y-94265000D01*
X112509501Y-93074290D01*
X112413200Y-93122183D01*
X112413200Y-92856501D01*
X112727290Y-92856501D01*
X113918000Y-94047211D01*
X115108710Y-92856501D01*
X114963345Y-92564205D01*
X114232907Y-92293634D01*
X113454527Y-92323186D01*
X112872655Y-92564205D01*
X112727290Y-92856501D01*
X112413200Y-92856501D01*
X112413200Y-90515915D01*
X115854874Y-90515915D01*
X115927758Y-90747038D01*
X116444126Y-90918920D01*
X116986965Y-90880114D01*
X117308242Y-90747038D01*
X117381126Y-90515915D01*
X116618000Y-89752789D01*
X115854874Y-90515915D01*
X112413200Y-90515915D01*
X112413200Y-89361126D01*
X115234080Y-89361126D01*
X115272886Y-89903965D01*
X115405962Y-90225242D01*
X115637085Y-90298126D01*
X116400211Y-89535000D01*
X116835789Y-89535000D01*
X117598915Y-90298126D01*
X117653048Y-90281055D01*
X117863200Y-90491575D01*
X117863200Y-92075000D01*
X117920656Y-92363850D01*
X118084276Y-92608724D01*
X120624275Y-95148724D01*
X120769814Y-95245969D01*
X120869151Y-95312344D01*
X121158000Y-95369800D01*
X121941555Y-95369800D01*
X122160727Y-95589354D01*
X122583247Y-95764800D01*
X123040746Y-95765199D01*
X123463572Y-95590491D01*
X123787354Y-95267273D01*
X123962800Y-94844753D01*
X123963199Y-94387254D01*
X123788491Y-93964428D01*
X123465273Y-93640646D01*
X123042753Y-93465200D01*
X122585254Y-93464801D01*
X122162428Y-93639509D01*
X121941352Y-93860200D01*
X121470649Y-93860200D01*
X120622752Y-93012303D01*
X122093486Y-93012303D01*
X122158947Y-93237227D01*
X122653499Y-93399052D01*
X123172333Y-93359303D01*
X123467053Y-93237227D01*
X123532514Y-93012303D01*
X122813000Y-92292789D01*
X122093486Y-93012303D01*
X120622752Y-93012303D01*
X119525948Y-91915499D01*
X121488948Y-91915499D01*
X121528697Y-92434333D01*
X121650773Y-92729053D01*
X121875697Y-92794514D01*
X122595211Y-92075000D01*
X121875697Y-91355486D01*
X121650773Y-91420947D01*
X121488948Y-91915499D01*
X119525948Y-91915499D01*
X119372800Y-91762352D01*
X119372800Y-91137697D01*
X122093486Y-91137697D01*
X122813000Y-91857211D01*
X123532514Y-91137697D01*
X123467053Y-90912773D01*
X122972501Y-90750948D01*
X122453667Y-90790697D01*
X122158947Y-90912773D01*
X122093486Y-91137697D01*
X119372800Y-91137697D01*
X119372800Y-90491223D01*
X119643190Y-90221305D01*
X119827789Y-89776740D01*
X119827999Y-89535000D01*
X121510470Y-89535000D01*
X121598009Y-89975086D01*
X121847297Y-90348173D01*
X122220384Y-90597461D01*
X122660470Y-90685000D01*
X122705530Y-90685000D01*
X123145616Y-90597461D01*
X123518703Y-90348173D01*
X123767991Y-89975086D01*
X123855530Y-89535000D01*
X123767991Y-89094914D01*
X123518703Y-88721827D01*
X123145616Y-88472539D01*
X122705530Y-88385000D01*
X122660470Y-88385000D01*
X122220384Y-88472539D01*
X121847297Y-88721827D01*
X121598009Y-89094914D01*
X121510470Y-89535000D01*
X119827999Y-89535000D01*
X119828209Y-89295372D01*
X119644386Y-88850486D01*
X119304305Y-88509810D01*
X118859740Y-88325211D01*
X118378372Y-88324791D01*
X117933486Y-88508614D01*
X117652757Y-88788853D01*
X117598915Y-88771874D01*
X116835789Y-89535000D01*
X116400211Y-89535000D01*
X115637085Y-88771874D01*
X115405962Y-88844758D01*
X115234080Y-89361126D01*
X112413200Y-89361126D01*
X112413200Y-87234628D01*
X115407791Y-87234628D01*
X115591614Y-87679514D01*
X115931695Y-88020190D01*
X116326955Y-88184316D01*
X116249035Y-88189886D01*
X115927758Y-88322962D01*
X115854874Y-88554085D01*
X116618000Y-89317211D01*
X117381126Y-88554085D01*
X117308242Y-88322962D01*
X116900844Y-88187353D01*
X117302514Y-88021386D01*
X117618252Y-87706199D01*
X117931695Y-88020190D01*
X118376260Y-88204789D01*
X118857628Y-88205209D01*
X119302514Y-88021386D01*
X119643190Y-87681305D01*
X119827789Y-87236740D01*
X119827999Y-86995000D01*
X121510470Y-86995000D01*
X121598009Y-87435086D01*
X121847297Y-87808173D01*
X122220384Y-88057461D01*
X122660470Y-88145000D01*
X122705530Y-88145000D01*
X123145616Y-88057461D01*
X123518703Y-87808173D01*
X123767991Y-87435086D01*
X123855530Y-86995000D01*
X123767991Y-86554914D01*
X123518703Y-86181827D01*
X123145616Y-85932539D01*
X122705530Y-85845000D01*
X122660470Y-85845000D01*
X122220384Y-85932539D01*
X121847297Y-86181827D01*
X121598009Y-86554914D01*
X121510470Y-86995000D01*
X119827999Y-86995000D01*
X119828209Y-86755372D01*
X119644386Y-86310486D01*
X119304305Y-85969810D01*
X118859740Y-85785211D01*
X118378372Y-85784791D01*
X117933486Y-85968614D01*
X117617748Y-86283801D01*
X117304305Y-85969810D01*
X116859740Y-85785211D01*
X116378372Y-85784791D01*
X115933486Y-85968614D01*
X115592810Y-86308695D01*
X115408211Y-86753260D01*
X115407791Y-87234628D01*
X112413200Y-87234628D01*
X112413200Y-84455000D01*
X121510470Y-84455000D01*
X121598009Y-84895086D01*
X121847297Y-85268173D01*
X122220384Y-85517461D01*
X122660470Y-85605000D01*
X122705530Y-85605000D01*
X123145616Y-85517461D01*
X123518703Y-85268173D01*
X123767991Y-84895086D01*
X123855530Y-84455000D01*
X123767991Y-84014914D01*
X123518703Y-83641827D01*
X123145616Y-83392539D01*
X122705530Y-83305000D01*
X122660470Y-83305000D01*
X122220384Y-83392539D01*
X121847297Y-83641827D01*
X121598009Y-84014914D01*
X121510470Y-84455000D01*
X112413200Y-84455000D01*
X112413200Y-83673499D01*
X112727290Y-83673499D01*
X112872655Y-83965795D01*
X113603093Y-84236366D01*
X114381473Y-84206814D01*
X114963345Y-83965795D01*
X115108710Y-83673499D01*
X113918000Y-82482789D01*
X112727290Y-83673499D01*
X112413200Y-83673499D01*
X112413200Y-83407817D01*
X112509501Y-83455710D01*
X113700211Y-82265000D01*
X114135789Y-82265000D01*
X115326499Y-83455710D01*
X115618795Y-83310345D01*
X115889366Y-82579907D01*
X115864123Y-81915000D01*
X121510470Y-81915000D01*
X121598009Y-82355086D01*
X121847297Y-82728173D01*
X122220384Y-82977461D01*
X122660470Y-83065000D01*
X122705530Y-83065000D01*
X123145616Y-82977461D01*
X123518703Y-82728173D01*
X123767991Y-82355086D01*
X123855530Y-81915000D01*
X123767991Y-81474914D01*
X123518703Y-81101827D01*
X123145616Y-80852539D01*
X122705530Y-80765000D01*
X122660470Y-80765000D01*
X122220384Y-80852539D01*
X121847297Y-81101827D01*
X121598009Y-81474914D01*
X121510470Y-81915000D01*
X115864123Y-81915000D01*
X115859814Y-81801527D01*
X115618795Y-81219655D01*
X115326499Y-81074290D01*
X114135789Y-82265000D01*
X113700211Y-82265000D01*
X112509501Y-81074290D01*
X112413200Y-81122183D01*
X112413200Y-80567592D01*
X112450724Y-80530068D01*
X112553174Y-80786040D01*
X112731219Y-80848601D01*
X112727290Y-80856501D01*
X113918000Y-82047211D01*
X115108710Y-80856501D01*
X114963345Y-80564205D01*
X114871184Y-80530066D01*
X118950723Y-80530066D01*
X119053174Y-80786040D01*
X119656703Y-80998105D01*
X120295445Y-80963067D01*
X120722826Y-80786040D01*
X120825277Y-80530066D01*
X119888000Y-79592789D01*
X118950723Y-80530066D01*
X114871184Y-80530066D01*
X114635918Y-80442918D01*
X114654814Y-80424022D01*
X114543068Y-80312276D01*
X114799040Y-80209826D01*
X115011105Y-79606297D01*
X114985730Y-79143703D01*
X118264895Y-79143703D01*
X118299933Y-79782445D01*
X118476960Y-80209826D01*
X118732934Y-80312277D01*
X119670211Y-79375000D01*
X120105789Y-79375000D01*
X121043066Y-80312277D01*
X121299040Y-80209826D01*
X121511105Y-79606297D01*
X121476067Y-78967555D01*
X121299040Y-78540174D01*
X121043066Y-78437723D01*
X120105789Y-79375000D01*
X119670211Y-79375000D01*
X118732934Y-78437723D01*
X118476960Y-78540174D01*
X118264895Y-79143703D01*
X114985730Y-79143703D01*
X114976067Y-78967555D01*
X114799040Y-78540174D01*
X114543066Y-78437723D01*
X113605789Y-79375000D01*
X113619931Y-79389142D01*
X113402142Y-79606931D01*
X113388000Y-79592789D01*
X113373858Y-79606931D01*
X113156069Y-79389142D01*
X113170211Y-79375000D01*
X113156069Y-79360858D01*
X113373858Y-79143069D01*
X113388000Y-79157211D01*
X114325277Y-78219934D01*
X118950723Y-78219934D01*
X119888000Y-79157211D01*
X120825277Y-78219934D01*
X120722826Y-77963960D01*
X120119297Y-77751895D01*
X119480555Y-77786933D01*
X119053174Y-77963960D01*
X118950723Y-78219934D01*
X114325277Y-78219934D01*
X114222826Y-77963960D01*
X113619297Y-77751895D01*
X112980555Y-77786933D01*
X112553174Y-77963960D01*
X112450724Y-78219932D01*
X112413200Y-78182408D01*
X112413200Y-76724564D01*
X112896723Y-76241041D01*
X113098312Y-76324748D01*
X113675157Y-76325251D01*
X114208286Y-76104967D01*
X114616533Y-75697431D01*
X114837748Y-75164688D01*
X114838251Y-74587843D01*
X114617967Y-74054714D01*
X114210431Y-73646467D01*
X113978113Y-73550000D01*
X119297712Y-73550000D01*
X119067714Y-73645033D01*
G36*
X177192000Y-100811000D02*
X177212000Y-100811000D01*
X177212000Y-101119000D01*
X177192000Y-101119000D01*
X177192000Y-102262856D01*
X177416911Y-102372915D01*
X177784998Y-102190891D01*
X177784998Y-102414080D01*
X177698167Y-102500911D01*
X177651470Y-102500870D01*
X177375714Y-102614811D01*
X177164552Y-102825605D01*
X177050131Y-103101161D01*
X177049870Y-103399530D01*
X177163811Y-103675286D01*
X177374605Y-103886448D01*
X177650161Y-104000869D01*
X177948530Y-104001130D01*
X178224286Y-103887189D01*
X178289800Y-103821789D01*
X178289800Y-109965436D01*
X175213677Y-113041559D01*
X175133000Y-113025511D01*
X174654646Y-113120662D01*
X174249117Y-113391628D01*
X173978151Y-113797157D01*
X173883000Y-114275511D01*
X173883000Y-114324489D01*
X173978151Y-114802843D01*
X174249117Y-115208372D01*
X174441990Y-115337246D01*
X174036118Y-115743118D01*
X173894522Y-115955031D01*
X173844800Y-116205000D01*
X173844800Y-122530837D01*
X173569145Y-122715024D01*
X173284392Y-123141186D01*
X173228000Y-123424687D01*
X173171608Y-123141186D01*
X172886855Y-122715024D01*
X172611200Y-122530837D01*
X172611200Y-117745564D01*
X173054882Y-117301882D01*
X173134694Y-117182435D01*
X173196478Y-117089969D01*
X173246200Y-116840000D01*
X173246200Y-115362510D01*
X173476883Y-115208372D01*
X173747849Y-114802843D01*
X173843000Y-114324489D01*
X173843000Y-114275511D01*
X173747849Y-113797157D01*
X173602355Y-113579409D01*
X177499882Y-109681882D01*
X177641478Y-109469969D01*
X177691200Y-109220000D01*
X177691200Y-104521000D01*
X177641478Y-104271031D01*
X177499882Y-104059118D01*
X176421200Y-102980436D01*
X176421200Y-102255276D01*
X176659089Y-102372915D01*
X176884000Y-102262856D01*
X176884000Y-101119000D01*
X176864000Y-101119000D01*
X176864000Y-100811000D01*
X176884000Y-100811000D01*
X176884000Y-100791000D01*
X177192000Y-100791000D01*
X177192000Y-100811000D01*
X177192000Y-100811000D01*
G37*
X177192000Y-100811000D02*
X177212000Y-100811000D01*
X177212000Y-101119000D01*
X177192000Y-101119000D01*
X177192000Y-102262856D01*
X177416911Y-102372915D01*
X177784998Y-102190891D01*
X177784998Y-102414080D01*
X177698167Y-102500911D01*
X177651470Y-102500870D01*
X177375714Y-102614811D01*
X177164552Y-102825605D01*
X177050131Y-103101161D01*
X177049870Y-103399530D01*
X177163811Y-103675286D01*
X177374605Y-103886448D01*
X177650161Y-104000869D01*
X177948530Y-104001130D01*
X178224286Y-103887189D01*
X178289800Y-103821789D01*
X178289800Y-109965436D01*
X175213677Y-113041559D01*
X175133000Y-113025511D01*
X174654646Y-113120662D01*
X174249117Y-113391628D01*
X173978151Y-113797157D01*
X173883000Y-114275511D01*
X173883000Y-114324489D01*
X173978151Y-114802843D01*
X174249117Y-115208372D01*
X174441990Y-115337246D01*
X174036118Y-115743118D01*
X173894522Y-115955031D01*
X173844800Y-116205000D01*
X173844800Y-122530837D01*
X173569145Y-122715024D01*
X173284392Y-123141186D01*
X173228000Y-123424687D01*
X173171608Y-123141186D01*
X172886855Y-122715024D01*
X172611200Y-122530837D01*
X172611200Y-117745564D01*
X173054882Y-117301882D01*
X173134694Y-117182435D01*
X173196478Y-117089969D01*
X173246200Y-116840000D01*
X173246200Y-115362510D01*
X173476883Y-115208372D01*
X173747849Y-114802843D01*
X173843000Y-114324489D01*
X173843000Y-114275511D01*
X173747849Y-113797157D01*
X173602355Y-113579409D01*
X177499882Y-109681882D01*
X177641478Y-109469969D01*
X177691200Y-109220000D01*
X177691200Y-104521000D01*
X177641478Y-104271031D01*
X177499882Y-104059118D01*
X176421200Y-102980436D01*
X176421200Y-102255276D01*
X176659089Y-102372915D01*
X176884000Y-102262856D01*
X176884000Y-101119000D01*
X176864000Y-101119000D01*
X176864000Y-100811000D01*
X176884000Y-100811000D01*
X176884000Y-100791000D01*
X177192000Y-100791000D01*
X177192000Y-100811000D01*
G36*
X146309117Y-80371628D02*
X146038151Y-80777157D01*
X145943000Y-81255511D01*
X145943000Y-81304489D01*
X146038151Y-81782843D01*
X146309117Y-82188372D01*
X146714646Y-82459338D01*
X147193000Y-82554489D01*
X147545458Y-82484380D01*
X147860600Y-82799522D01*
X147860600Y-87641184D01*
X146393000Y-87641184D01*
X146226240Y-87672562D01*
X146073081Y-87771117D01*
X145970332Y-87921495D01*
X145934184Y-88100000D01*
X145934184Y-89130420D01*
X143909200Y-87105436D01*
X143909200Y-86807605D01*
X143963143Y-86785316D01*
X144315081Y-86433993D01*
X144505783Y-85974731D01*
X144506217Y-85477450D01*
X144316316Y-85017857D01*
X143964993Y-84665919D01*
X143505731Y-84475217D01*
X143008450Y-84474783D01*
X142548857Y-84664684D01*
X142196919Y-85016007D01*
X142100066Y-85249256D01*
X142001229Y-85010643D01*
X141765969Y-84932820D01*
X140973789Y-85725000D01*
X141765969Y-86517180D01*
X142001229Y-86439357D01*
X142089831Y-86175960D01*
X142195684Y-86432143D01*
X142547007Y-86784081D01*
X142602800Y-86807248D01*
X142602800Y-87376000D01*
X142652522Y-87625969D01*
X142794118Y-87837882D01*
X143729217Y-88772981D01*
X143562618Y-88784363D01*
X143223643Y-88924771D01*
X143145820Y-89160031D01*
X143938000Y-89952211D01*
X143952142Y-89938069D01*
X144169931Y-90155858D01*
X144155789Y-90170000D01*
X144947969Y-90962180D01*
X145015800Y-90939742D01*
X145015800Y-91898126D01*
X144988939Y-91887000D01*
X144324000Y-91887000D01*
X144172000Y-92039000D01*
X144172000Y-93191000D01*
X144192000Y-93191000D01*
X144192000Y-93499000D01*
X144172000Y-93499000D01*
X144172000Y-93519000D01*
X143864000Y-93519000D01*
X143864000Y-93499000D01*
X142712000Y-93499000D01*
X142560000Y-93651000D01*
X142560000Y-94315938D01*
X142652562Y-94539404D01*
X142823595Y-94710437D01*
X143047061Y-94803000D01*
X143226420Y-94803000D01*
X142898649Y-95130200D01*
X141097000Y-95130200D01*
X140808151Y-95187656D01*
X140779629Y-95206714D01*
X140563275Y-95351276D01*
X139039276Y-96875276D01*
X138875656Y-97120150D01*
X138843462Y-97282000D01*
X138818200Y-97409000D01*
X138818200Y-97412258D01*
X138513919Y-97716007D01*
X138323217Y-98175269D01*
X138322783Y-98672550D01*
X138512684Y-99132143D01*
X138864007Y-99484081D01*
X139323269Y-99674783D01*
X139820550Y-99675217D01*
X140280143Y-99485316D01*
X140632081Y-99133993D01*
X140822783Y-98674731D01*
X140823217Y-98177450D01*
X140633316Y-97717857D01*
X140482586Y-97566863D01*
X141409649Y-96639800D01*
X142899284Y-96639800D01*
X143266468Y-97007625D01*
X143621659Y-97155113D01*
X143268428Y-97301065D01*
X142895375Y-97673468D01*
X142693231Y-98160285D01*
X142692771Y-98687402D01*
X142894065Y-99174572D01*
X143266468Y-99547625D01*
X143364800Y-99588456D01*
X143364800Y-103759000D01*
X143414522Y-104008969D01*
X143556118Y-104220882D01*
X144762535Y-105427299D01*
X144653000Y-105405511D01*
X144174646Y-105500662D01*
X143769117Y-105771628D01*
X143498151Y-106177157D01*
X143403000Y-106655511D01*
X143403000Y-106704489D01*
X143498151Y-107182843D01*
X143769117Y-107588372D01*
X144174646Y-107859338D01*
X144653000Y-107954489D01*
X145131354Y-107859338D01*
X145269800Y-107766831D01*
X145269800Y-107823000D01*
X145319522Y-108072969D01*
X145461118Y-108284882D01*
X146223118Y-109046882D01*
X146435031Y-109188478D01*
X146685000Y-109238200D01*
X150341560Y-109238200D01*
X150253131Y-109451161D01*
X150252870Y-109749530D01*
X150366811Y-110025286D01*
X150400600Y-110059134D01*
X150400600Y-113030000D01*
X150446455Y-113260529D01*
X150467245Y-113291643D01*
X150211354Y-113120662D01*
X149733000Y-113025511D01*
X149254646Y-113120662D01*
X148849117Y-113391628D01*
X148578151Y-113797157D01*
X148483000Y-114275511D01*
X148483000Y-114324489D01*
X148578151Y-114802843D01*
X148849117Y-115208372D01*
X149130600Y-115396453D01*
X149130600Y-117225478D01*
X148845280Y-117510798D01*
X147374124Y-117510798D01*
X147618961Y-117265961D01*
X147749545Y-117070529D01*
X147795400Y-116840000D01*
X147795400Y-115396453D01*
X148076883Y-115208372D01*
X148347849Y-114802843D01*
X148443000Y-114324489D01*
X148443000Y-114275511D01*
X148347849Y-113797157D01*
X148076883Y-113391628D01*
X147671354Y-113120662D01*
X147193000Y-113025511D01*
X146714646Y-113120662D01*
X146525400Y-113247112D01*
X146525400Y-112649000D01*
X146479545Y-112418472D01*
X146479545Y-112418471D01*
X146348961Y-112223039D01*
X142072319Y-107946397D01*
X142113000Y-107954489D01*
X142591354Y-107859338D01*
X142996883Y-107588372D01*
X143267849Y-107182843D01*
X143363000Y-106704489D01*
X143363000Y-106655511D01*
X143267849Y-106177157D01*
X142996883Y-105771628D01*
X142591354Y-105500662D01*
X142113000Y-105405511D01*
X141634646Y-105500662D01*
X141229117Y-105771628D01*
X140958151Y-106177157D01*
X140863000Y-106655511D01*
X140863000Y-106704489D01*
X140871092Y-106745170D01*
X137243472Y-103117550D01*
X139592783Y-103117550D01*
X139782684Y-103577143D01*
X140134007Y-103929081D01*
X140593269Y-104119783D01*
X141090550Y-104120217D01*
X141550143Y-103930316D01*
X141902081Y-103578993D01*
X142092783Y-103119731D01*
X142093217Y-102622450D01*
X141903316Y-102162857D01*
X141551993Y-101810919D01*
X141092731Y-101620217D01*
X140595450Y-101619783D01*
X140135857Y-101809684D01*
X139783919Y-102161007D01*
X139593217Y-102620269D01*
X139592783Y-103117550D01*
X137243472Y-103117550D01*
X133900960Y-99775038D01*
X134125353Y-99775234D01*
X134621715Y-99570142D01*
X134890000Y-99302324D01*
X134890000Y-99445938D01*
X134982562Y-99669404D01*
X135153595Y-99840437D01*
X135377061Y-99933000D01*
X136092000Y-99933000D01*
X136244000Y-99781000D01*
X136244000Y-98579000D01*
X136552000Y-98579000D01*
X136552000Y-99781000D01*
X136704000Y-99933000D01*
X137418939Y-99933000D01*
X137642405Y-99840437D01*
X137813438Y-99669404D01*
X137906000Y-99445938D01*
X137906000Y-98731000D01*
X137754000Y-98579000D01*
X136552000Y-98579000D01*
X136244000Y-98579000D01*
X136224000Y-98579000D01*
X136224000Y-98271000D01*
X136244000Y-98271000D01*
X136244000Y-97069000D01*
X136552000Y-97069000D01*
X136552000Y-98271000D01*
X137754000Y-98271000D01*
X137906000Y-98119000D01*
X137906000Y-97404062D01*
X137813438Y-97180596D01*
X137642405Y-97009563D01*
X137418939Y-96917000D01*
X136704000Y-96917000D01*
X136552000Y-97069000D01*
X136244000Y-97069000D01*
X136092000Y-96917000D01*
X135377061Y-96917000D01*
X135153595Y-97009563D01*
X134982562Y-97180596D01*
X134890000Y-97404062D01*
X134890000Y-97547946D01*
X134623712Y-97281193D01*
X134127710Y-97075235D01*
X133590647Y-97074766D01*
X133094285Y-97279858D01*
X132714193Y-97659288D01*
X132508235Y-98155290D01*
X132508037Y-98382115D01*
X132124961Y-97999039D01*
X131954281Y-97884994D01*
X132147991Y-97595086D01*
X132235530Y-97155000D01*
X132173352Y-96842412D01*
X132922882Y-96092882D01*
X133064478Y-95880969D01*
X133069946Y-95853478D01*
X133114200Y-95631000D01*
X133114200Y-95012564D01*
X133477855Y-94648909D01*
X133588290Y-94694765D01*
X134125353Y-94695234D01*
X134621715Y-94490142D01*
X134890000Y-94222324D01*
X134890000Y-94365938D01*
X134982562Y-94589404D01*
X135153595Y-94760437D01*
X135377061Y-94853000D01*
X136092000Y-94853000D01*
X136244000Y-94701000D01*
X136244000Y-93499000D01*
X136552000Y-93499000D01*
X136552000Y-94701000D01*
X136704000Y-94853000D01*
X137418939Y-94853000D01*
X137642405Y-94760437D01*
X137813438Y-94589404D01*
X137877406Y-94434969D01*
X138780820Y-94434969D01*
X138858643Y-94670229D01*
X139389548Y-94848815D01*
X139948382Y-94810637D01*
X140287357Y-94670229D01*
X140365180Y-94434969D01*
X139573000Y-93642789D01*
X138780820Y-94434969D01*
X137877406Y-94434969D01*
X137906000Y-94365938D01*
X137906000Y-93651000D01*
X137754000Y-93499000D01*
X136552000Y-93499000D01*
X136244000Y-93499000D01*
X136224000Y-93499000D01*
X136224000Y-93241548D01*
X138149185Y-93241548D01*
X138187363Y-93800382D01*
X138327771Y-94139357D01*
X138563031Y-94217180D01*
X139355211Y-93425000D01*
X139790789Y-93425000D01*
X140582969Y-94217180D01*
X140818229Y-94139357D01*
X140996815Y-93608452D01*
X140958637Y-93049618D01*
X140818229Y-92710643D01*
X140582969Y-92632820D01*
X139790789Y-93425000D01*
X139355211Y-93425000D01*
X138563031Y-92632820D01*
X138327771Y-92710643D01*
X138149185Y-93241548D01*
X136224000Y-93241548D01*
X136224000Y-93191000D01*
X136244000Y-93191000D01*
X136244000Y-91989000D01*
X136552000Y-91989000D01*
X136552000Y-93191000D01*
X137754000Y-93191000D01*
X137906000Y-93039000D01*
X137906000Y-92415031D01*
X138780820Y-92415031D01*
X139573000Y-93207211D01*
X140365180Y-92415031D01*
X140351628Y-92374062D01*
X142560000Y-92374062D01*
X142560000Y-93039000D01*
X142712000Y-93191000D01*
X143864000Y-93191000D01*
X143864000Y-92039000D01*
X143712000Y-91887000D01*
X143047061Y-91887000D01*
X142823595Y-91979563D01*
X142652562Y-92150596D01*
X142560000Y-92374062D01*
X140351628Y-92374062D01*
X140287357Y-92179771D01*
X139756452Y-92001185D01*
X139197618Y-92039363D01*
X138858643Y-92179771D01*
X138780820Y-92415031D01*
X137906000Y-92415031D01*
X137906000Y-92324062D01*
X137813438Y-92100596D01*
X137642405Y-91929563D01*
X137418939Y-91837000D01*
X136704000Y-91837000D01*
X136552000Y-91989000D01*
X136244000Y-91989000D01*
X136092000Y-91837000D01*
X136028060Y-91837000D01*
X136266969Y-91789478D01*
X136478882Y-91647882D01*
X137694049Y-90432715D01*
X137877684Y-90877143D01*
X138229007Y-91229081D01*
X138688269Y-91419783D01*
X139185550Y-91420217D01*
X139645143Y-91230316D01*
X139695578Y-91179969D01*
X143145820Y-91179969D01*
X143223643Y-91415229D01*
X143754548Y-91593815D01*
X144313382Y-91555637D01*
X144652357Y-91415229D01*
X144730180Y-91179969D01*
X143938000Y-90387789D01*
X143145820Y-91179969D01*
X139695578Y-91179969D01*
X139997081Y-90878993D01*
X140187783Y-90419731D01*
X140188161Y-89986548D01*
X142514185Y-89986548D01*
X142552363Y-90545382D01*
X142692771Y-90884357D01*
X142928031Y-90962180D01*
X143720211Y-90170000D01*
X142928031Y-89377820D01*
X142692771Y-89455643D01*
X142514185Y-89986548D01*
X140188161Y-89986548D01*
X140188217Y-89922450D01*
X139998316Y-89462857D01*
X139646993Y-89110919D01*
X139187731Y-88920217D01*
X138690450Y-88919783D01*
X138575200Y-88967404D01*
X138575200Y-87133554D01*
X138600286Y-87123189D01*
X138811448Y-86912395D01*
X138885121Y-86734969D01*
X139963820Y-86734969D01*
X140041643Y-86970229D01*
X140572548Y-87148815D01*
X141131382Y-87110637D01*
X141470357Y-86970229D01*
X141548180Y-86734969D01*
X140756000Y-85942789D01*
X139963820Y-86734969D01*
X138885121Y-86734969D01*
X138925869Y-86636839D01*
X138926130Y-86338470D01*
X138812189Y-86062714D01*
X138601395Y-85851552D01*
X138325839Y-85737131D01*
X138027470Y-85736870D01*
X137751714Y-85850811D01*
X137540552Y-86061605D01*
X137434004Y-86318200D01*
X137318522Y-86491031D01*
X137268800Y-86741000D01*
X137268800Y-86906184D01*
X135498000Y-86906184D01*
X135331240Y-86937562D01*
X135178081Y-87036117D01*
X135075332Y-87186495D01*
X135039184Y-87365000D01*
X135039184Y-87588514D01*
X135003142Y-87501285D01*
X134623712Y-87121193D01*
X134511200Y-87074474D01*
X134511200Y-85541548D01*
X139332185Y-85541548D01*
X139370363Y-86100382D01*
X139510771Y-86439357D01*
X139746031Y-86517180D01*
X140538211Y-85725000D01*
X139746031Y-84932820D01*
X139510771Y-85010643D01*
X139332185Y-85541548D01*
X134511200Y-85541548D01*
X134511200Y-84715031D01*
X139963820Y-84715031D01*
X140756000Y-85507211D01*
X141548180Y-84715031D01*
X141470357Y-84479771D01*
X140939452Y-84301185D01*
X140380618Y-84339363D01*
X140041643Y-84479771D01*
X139963820Y-84715031D01*
X134511200Y-84715031D01*
X134511200Y-84375806D01*
X134621715Y-84330142D01*
X135001807Y-83950712D01*
X135039184Y-83860698D01*
X135039184Y-84085000D01*
X135070562Y-84251760D01*
X135169117Y-84404919D01*
X135319495Y-84507668D01*
X135498000Y-84543816D01*
X137298000Y-84543816D01*
X137464760Y-84512438D01*
X137617919Y-84413883D01*
X137720668Y-84263505D01*
X137756816Y-84085000D01*
X137756816Y-82285000D01*
X137733776Y-82162550D01*
X139592783Y-82162550D01*
X139782684Y-82622143D01*
X140134007Y-82974081D01*
X140593269Y-83164783D01*
X141090550Y-83165217D01*
X141550143Y-82975316D01*
X141600578Y-82924969D01*
X142550820Y-82924969D01*
X142628643Y-83160229D01*
X143159548Y-83338815D01*
X143718382Y-83300637D01*
X144057357Y-83160229D01*
X144135180Y-82924969D01*
X143343000Y-82132789D01*
X142550820Y-82924969D01*
X141600578Y-82924969D01*
X141902081Y-82623993D01*
X141998934Y-82390744D01*
X142097771Y-82629357D01*
X142333031Y-82707180D01*
X143125211Y-81915000D01*
X143560789Y-81915000D01*
X144352969Y-82707180D01*
X144588229Y-82629357D01*
X144766815Y-82098452D01*
X144728637Y-81539618D01*
X144588229Y-81200643D01*
X144352969Y-81122820D01*
X143560789Y-81915000D01*
X143125211Y-81915000D01*
X142333031Y-81122820D01*
X142097771Y-81200643D01*
X142009169Y-81464040D01*
X141903316Y-81207857D01*
X141601020Y-80905031D01*
X142550820Y-80905031D01*
X143343000Y-81697211D01*
X144135180Y-80905031D01*
X144057357Y-80669771D01*
X143526452Y-80491185D01*
X142967618Y-80529363D01*
X142628643Y-80669771D01*
X142550820Y-80905031D01*
X141601020Y-80905031D01*
X141551993Y-80855919D01*
X141092731Y-80665217D01*
X140595450Y-80664783D01*
X140135857Y-80854684D01*
X139783919Y-81206007D01*
X139593217Y-81665269D01*
X139592783Y-82162550D01*
X137733776Y-82162550D01*
X137725438Y-82118240D01*
X137626883Y-81965081D01*
X137476505Y-81862332D01*
X137298000Y-81826184D01*
X135498000Y-81826184D01*
X135331240Y-81857562D01*
X135178081Y-81956117D01*
X135075332Y-82106495D01*
X135039184Y-82285000D01*
X135039184Y-82508514D01*
X135003142Y-82421285D01*
X134623712Y-82041193D01*
X134127710Y-81835235D01*
X133590647Y-81834766D01*
X133094285Y-82039858D01*
X132714193Y-82419288D01*
X132508235Y-82915290D01*
X132507766Y-83452353D01*
X132712858Y-83948715D01*
X133092288Y-84328807D01*
X133204800Y-84375526D01*
X133204800Y-87074194D01*
X133094285Y-87119858D01*
X132714193Y-87499288D01*
X132508235Y-87995290D01*
X132507766Y-88532353D01*
X132712858Y-89028715D01*
X133092288Y-89408807D01*
X133588290Y-89614765D01*
X134125353Y-89615234D01*
X134621715Y-89410142D01*
X135001807Y-89030712D01*
X135039184Y-88940698D01*
X135039184Y-89165000D01*
X135070562Y-89331760D01*
X135169117Y-89484919D01*
X135319495Y-89587668D01*
X135498000Y-89623816D01*
X136655420Y-89623816D01*
X135746436Y-90532800D01*
X131572000Y-90532800D01*
X131490202Y-90549071D01*
X131583572Y-90510491D01*
X131907354Y-90187273D01*
X132082800Y-89764753D01*
X132083199Y-89307254D01*
X131908491Y-88884428D01*
X131585273Y-88560646D01*
X131162753Y-88385200D01*
X130705254Y-88384801D01*
X130282428Y-88559509D01*
X129958646Y-88882727D01*
X129783200Y-89305247D01*
X129782801Y-89762746D01*
X129957509Y-90185572D01*
X130280727Y-90509354D01*
X130703247Y-90684800D01*
X131160746Y-90685199D01*
X131180709Y-90676950D01*
X131110118Y-90724118D01*
X130876650Y-90957586D01*
X130600384Y-91012539D01*
X130227297Y-91261827D01*
X129978009Y-91634914D01*
X129890470Y-92075000D01*
X129978009Y-92515086D01*
X130029800Y-92592597D01*
X130029800Y-94097403D01*
X129978009Y-94174914D01*
X129890470Y-94615000D01*
X129978009Y-95055086D01*
X130227297Y-95428173D01*
X130600384Y-95677461D01*
X131040470Y-95765000D01*
X131085530Y-95765000D01*
X131482124Y-95686112D01*
X131150344Y-96017892D01*
X131085530Y-96005000D01*
X131040470Y-96005000D01*
X130600384Y-96092539D01*
X130227297Y-96341827D01*
X129978009Y-96714914D01*
X129890470Y-97155000D01*
X129978009Y-97595086D01*
X130130029Y-97822600D01*
X129027522Y-97822600D01*
X127970608Y-96765686D01*
X127970608Y-87222746D01*
X129782801Y-87222746D01*
X129957509Y-87645572D01*
X130280727Y-87969354D01*
X130703247Y-88144800D01*
X131160746Y-88145199D01*
X131583572Y-87970491D01*
X131907354Y-87647273D01*
X132082800Y-87224753D01*
X132083199Y-86767254D01*
X131908491Y-86344428D01*
X131585273Y-86020646D01*
X131162753Y-85845200D01*
X130705254Y-85844801D01*
X130282428Y-86019509D01*
X129958646Y-86342727D01*
X129783200Y-86765247D01*
X129782801Y-87222746D01*
X127970608Y-87222746D01*
X127970608Y-84682746D01*
X129782801Y-84682746D01*
X129957509Y-85105572D01*
X130280727Y-85429354D01*
X130703247Y-85604800D01*
X131160746Y-85605199D01*
X131583572Y-85430491D01*
X131907354Y-85107273D01*
X132082800Y-84684753D01*
X132083199Y-84227254D01*
X131908491Y-83804428D01*
X131585273Y-83480646D01*
X131162753Y-83305200D01*
X130705254Y-83304801D01*
X130282428Y-83479509D01*
X129958646Y-83802727D01*
X129783200Y-84225247D01*
X129782801Y-84682746D01*
X127970608Y-84682746D01*
X127970608Y-82142746D01*
X129782801Y-82142746D01*
X129957509Y-82565572D01*
X130280727Y-82889354D01*
X130703247Y-83064800D01*
X131160746Y-83065199D01*
X131583572Y-82890491D01*
X131907354Y-82567273D01*
X132082800Y-82144753D01*
X132083199Y-81687254D01*
X131908491Y-81264428D01*
X131585273Y-80940646D01*
X131162753Y-80765200D01*
X130705254Y-80764801D01*
X130282428Y-80939509D01*
X129958646Y-81262727D01*
X129783200Y-81685247D01*
X129782801Y-82142746D01*
X127970608Y-82142746D01*
X127970608Y-82008646D01*
X129713044Y-80266210D01*
X146466886Y-80266210D01*
X146309117Y-80371628D01*
X146309117Y-80371628D01*
G37*
X146309117Y-80371628D02*
X146038151Y-80777157D01*
X145943000Y-81255511D01*
X145943000Y-81304489D01*
X146038151Y-81782843D01*
X146309117Y-82188372D01*
X146714646Y-82459338D01*
X147193000Y-82554489D01*
X147545458Y-82484380D01*
X147860600Y-82799522D01*
X147860600Y-87641184D01*
X146393000Y-87641184D01*
X146226240Y-87672562D01*
X146073081Y-87771117D01*
X145970332Y-87921495D01*
X145934184Y-88100000D01*
X145934184Y-89130420D01*
X143909200Y-87105436D01*
X143909200Y-86807605D01*
X143963143Y-86785316D01*
X144315081Y-86433993D01*
X144505783Y-85974731D01*
X144506217Y-85477450D01*
X144316316Y-85017857D01*
X143964993Y-84665919D01*
X143505731Y-84475217D01*
X143008450Y-84474783D01*
X142548857Y-84664684D01*
X142196919Y-85016007D01*
X142100066Y-85249256D01*
X142001229Y-85010643D01*
X141765969Y-84932820D01*
X140973789Y-85725000D01*
X141765969Y-86517180D01*
X142001229Y-86439357D01*
X142089831Y-86175960D01*
X142195684Y-86432143D01*
X142547007Y-86784081D01*
X142602800Y-86807248D01*
X142602800Y-87376000D01*
X142652522Y-87625969D01*
X142794118Y-87837882D01*
X143729217Y-88772981D01*
X143562618Y-88784363D01*
X143223643Y-88924771D01*
X143145820Y-89160031D01*
X143938000Y-89952211D01*
X143952142Y-89938069D01*
X144169931Y-90155858D01*
X144155789Y-90170000D01*
X144947969Y-90962180D01*
X145015800Y-90939742D01*
X145015800Y-91898126D01*
X144988939Y-91887000D01*
X144324000Y-91887000D01*
X144172000Y-92039000D01*
X144172000Y-93191000D01*
X144192000Y-93191000D01*
X144192000Y-93499000D01*
X144172000Y-93499000D01*
X144172000Y-93519000D01*
X143864000Y-93519000D01*
X143864000Y-93499000D01*
X142712000Y-93499000D01*
X142560000Y-93651000D01*
X142560000Y-94315938D01*
X142652562Y-94539404D01*
X142823595Y-94710437D01*
X143047061Y-94803000D01*
X143226420Y-94803000D01*
X142898649Y-95130200D01*
X141097000Y-95130200D01*
X140808151Y-95187656D01*
X140779629Y-95206714D01*
X140563275Y-95351276D01*
X139039276Y-96875276D01*
X138875656Y-97120150D01*
X138843462Y-97282000D01*
X138818200Y-97409000D01*
X138818200Y-97412258D01*
X138513919Y-97716007D01*
X138323217Y-98175269D01*
X138322783Y-98672550D01*
X138512684Y-99132143D01*
X138864007Y-99484081D01*
X139323269Y-99674783D01*
X139820550Y-99675217D01*
X140280143Y-99485316D01*
X140632081Y-99133993D01*
X140822783Y-98674731D01*
X140823217Y-98177450D01*
X140633316Y-97717857D01*
X140482586Y-97566863D01*
X141409649Y-96639800D01*
X142899284Y-96639800D01*
X143266468Y-97007625D01*
X143621659Y-97155113D01*
X143268428Y-97301065D01*
X142895375Y-97673468D01*
X142693231Y-98160285D01*
X142692771Y-98687402D01*
X142894065Y-99174572D01*
X143266468Y-99547625D01*
X143364800Y-99588456D01*
X143364800Y-103759000D01*
X143414522Y-104008969D01*
X143556118Y-104220882D01*
X144762535Y-105427299D01*
X144653000Y-105405511D01*
X144174646Y-105500662D01*
X143769117Y-105771628D01*
X143498151Y-106177157D01*
X143403000Y-106655511D01*
X143403000Y-106704489D01*
X143498151Y-107182843D01*
X143769117Y-107588372D01*
X144174646Y-107859338D01*
X144653000Y-107954489D01*
X145131354Y-107859338D01*
X145269800Y-107766831D01*
X145269800Y-107823000D01*
X145319522Y-108072969D01*
X145461118Y-108284882D01*
X146223118Y-109046882D01*
X146435031Y-109188478D01*
X146685000Y-109238200D01*
X150341560Y-109238200D01*
X150253131Y-109451161D01*
X150252870Y-109749530D01*
X150366811Y-110025286D01*
X150400600Y-110059134D01*
X150400600Y-113030000D01*
X150446455Y-113260529D01*
X150467245Y-113291643D01*
X150211354Y-113120662D01*
X149733000Y-113025511D01*
X149254646Y-113120662D01*
X148849117Y-113391628D01*
X148578151Y-113797157D01*
X148483000Y-114275511D01*
X148483000Y-114324489D01*
X148578151Y-114802843D01*
X148849117Y-115208372D01*
X149130600Y-115396453D01*
X149130600Y-117225478D01*
X148845280Y-117510798D01*
X147374124Y-117510798D01*
X147618961Y-117265961D01*
X147749545Y-117070529D01*
X147795400Y-116840000D01*
X147795400Y-115396453D01*
X148076883Y-115208372D01*
X148347849Y-114802843D01*
X148443000Y-114324489D01*
X148443000Y-114275511D01*
X148347849Y-113797157D01*
X148076883Y-113391628D01*
X147671354Y-113120662D01*
X147193000Y-113025511D01*
X146714646Y-113120662D01*
X146525400Y-113247112D01*
X146525400Y-112649000D01*
X146479545Y-112418472D01*
X146479545Y-112418471D01*
X146348961Y-112223039D01*
X142072319Y-107946397D01*
X142113000Y-107954489D01*
X142591354Y-107859338D01*
X142996883Y-107588372D01*
X143267849Y-107182843D01*
X143363000Y-106704489D01*
X143363000Y-106655511D01*
X143267849Y-106177157D01*
X142996883Y-105771628D01*
X142591354Y-105500662D01*
X142113000Y-105405511D01*
X141634646Y-105500662D01*
X141229117Y-105771628D01*
X140958151Y-106177157D01*
X140863000Y-106655511D01*
X140863000Y-106704489D01*
X140871092Y-106745170D01*
X137243472Y-103117550D01*
X139592783Y-103117550D01*
X139782684Y-103577143D01*
X140134007Y-103929081D01*
X140593269Y-104119783D01*
X141090550Y-104120217D01*
X141550143Y-103930316D01*
X141902081Y-103578993D01*
X142092783Y-103119731D01*
X142093217Y-102622450D01*
X141903316Y-102162857D01*
X141551993Y-101810919D01*
X141092731Y-101620217D01*
X140595450Y-101619783D01*
X140135857Y-101809684D01*
X139783919Y-102161007D01*
X139593217Y-102620269D01*
X139592783Y-103117550D01*
X137243472Y-103117550D01*
X133900960Y-99775038D01*
X134125353Y-99775234D01*
X134621715Y-99570142D01*
X134890000Y-99302324D01*
X134890000Y-99445938D01*
X134982562Y-99669404D01*
X135153595Y-99840437D01*
X135377061Y-99933000D01*
X136092000Y-99933000D01*
X136244000Y-99781000D01*
X136244000Y-98579000D01*
X136552000Y-98579000D01*
X136552000Y-99781000D01*
X136704000Y-99933000D01*
X137418939Y-99933000D01*
X137642405Y-99840437D01*
X137813438Y-99669404D01*
X137906000Y-99445938D01*
X137906000Y-98731000D01*
X137754000Y-98579000D01*
X136552000Y-98579000D01*
X136244000Y-98579000D01*
X136224000Y-98579000D01*
X136224000Y-98271000D01*
X136244000Y-98271000D01*
X136244000Y-97069000D01*
X136552000Y-97069000D01*
X136552000Y-98271000D01*
X137754000Y-98271000D01*
X137906000Y-98119000D01*
X137906000Y-97404062D01*
X137813438Y-97180596D01*
X137642405Y-97009563D01*
X137418939Y-96917000D01*
X136704000Y-96917000D01*
X136552000Y-97069000D01*
X136244000Y-97069000D01*
X136092000Y-96917000D01*
X135377061Y-96917000D01*
X135153595Y-97009563D01*
X134982562Y-97180596D01*
X134890000Y-97404062D01*
X134890000Y-97547946D01*
X134623712Y-97281193D01*
X134127710Y-97075235D01*
X133590647Y-97074766D01*
X133094285Y-97279858D01*
X132714193Y-97659288D01*
X132508235Y-98155290D01*
X132508037Y-98382115D01*
X132124961Y-97999039D01*
X131954281Y-97884994D01*
X132147991Y-97595086D01*
X132235530Y-97155000D01*
X132173352Y-96842412D01*
X132922882Y-96092882D01*
X133064478Y-95880969D01*
X133069946Y-95853478D01*
X133114200Y-95631000D01*
X133114200Y-95012564D01*
X133477855Y-94648909D01*
X133588290Y-94694765D01*
X134125353Y-94695234D01*
X134621715Y-94490142D01*
X134890000Y-94222324D01*
X134890000Y-94365938D01*
X134982562Y-94589404D01*
X135153595Y-94760437D01*
X135377061Y-94853000D01*
X136092000Y-94853000D01*
X136244000Y-94701000D01*
X136244000Y-93499000D01*
X136552000Y-93499000D01*
X136552000Y-94701000D01*
X136704000Y-94853000D01*
X137418939Y-94853000D01*
X137642405Y-94760437D01*
X137813438Y-94589404D01*
X137877406Y-94434969D01*
X138780820Y-94434969D01*
X138858643Y-94670229D01*
X139389548Y-94848815D01*
X139948382Y-94810637D01*
X140287357Y-94670229D01*
X140365180Y-94434969D01*
X139573000Y-93642789D01*
X138780820Y-94434969D01*
X137877406Y-94434969D01*
X137906000Y-94365938D01*
X137906000Y-93651000D01*
X137754000Y-93499000D01*
X136552000Y-93499000D01*
X136244000Y-93499000D01*
X136224000Y-93499000D01*
X136224000Y-93241548D01*
X138149185Y-93241548D01*
X138187363Y-93800382D01*
X138327771Y-94139357D01*
X138563031Y-94217180D01*
X139355211Y-93425000D01*
X139790789Y-93425000D01*
X140582969Y-94217180D01*
X140818229Y-94139357D01*
X140996815Y-93608452D01*
X140958637Y-93049618D01*
X140818229Y-92710643D01*
X140582969Y-92632820D01*
X139790789Y-93425000D01*
X139355211Y-93425000D01*
X138563031Y-92632820D01*
X138327771Y-92710643D01*
X138149185Y-93241548D01*
X136224000Y-93241548D01*
X136224000Y-93191000D01*
X136244000Y-93191000D01*
X136244000Y-91989000D01*
X136552000Y-91989000D01*
X136552000Y-93191000D01*
X137754000Y-93191000D01*
X137906000Y-93039000D01*
X137906000Y-92415031D01*
X138780820Y-92415031D01*
X139573000Y-93207211D01*
X140365180Y-92415031D01*
X140351628Y-92374062D01*
X142560000Y-92374062D01*
X142560000Y-93039000D01*
X142712000Y-93191000D01*
X143864000Y-93191000D01*
X143864000Y-92039000D01*
X143712000Y-91887000D01*
X143047061Y-91887000D01*
X142823595Y-91979563D01*
X142652562Y-92150596D01*
X142560000Y-92374062D01*
X140351628Y-92374062D01*
X140287357Y-92179771D01*
X139756452Y-92001185D01*
X139197618Y-92039363D01*
X138858643Y-92179771D01*
X138780820Y-92415031D01*
X137906000Y-92415031D01*
X137906000Y-92324062D01*
X137813438Y-92100596D01*
X137642405Y-91929563D01*
X137418939Y-91837000D01*
X136704000Y-91837000D01*
X136552000Y-91989000D01*
X136244000Y-91989000D01*
X136092000Y-91837000D01*
X136028060Y-91837000D01*
X136266969Y-91789478D01*
X136478882Y-91647882D01*
X137694049Y-90432715D01*
X137877684Y-90877143D01*
X138229007Y-91229081D01*
X138688269Y-91419783D01*
X139185550Y-91420217D01*
X139645143Y-91230316D01*
X139695578Y-91179969D01*
X143145820Y-91179969D01*
X143223643Y-91415229D01*
X143754548Y-91593815D01*
X144313382Y-91555637D01*
X144652357Y-91415229D01*
X144730180Y-91179969D01*
X143938000Y-90387789D01*
X143145820Y-91179969D01*
X139695578Y-91179969D01*
X139997081Y-90878993D01*
X140187783Y-90419731D01*
X140188161Y-89986548D01*
X142514185Y-89986548D01*
X142552363Y-90545382D01*
X142692771Y-90884357D01*
X142928031Y-90962180D01*
X143720211Y-90170000D01*
X142928031Y-89377820D01*
X142692771Y-89455643D01*
X142514185Y-89986548D01*
X140188161Y-89986548D01*
X140188217Y-89922450D01*
X139998316Y-89462857D01*
X139646993Y-89110919D01*
X139187731Y-88920217D01*
X138690450Y-88919783D01*
X138575200Y-88967404D01*
X138575200Y-87133554D01*
X138600286Y-87123189D01*
X138811448Y-86912395D01*
X138885121Y-86734969D01*
X139963820Y-86734969D01*
X140041643Y-86970229D01*
X140572548Y-87148815D01*
X141131382Y-87110637D01*
X141470357Y-86970229D01*
X141548180Y-86734969D01*
X140756000Y-85942789D01*
X139963820Y-86734969D01*
X138885121Y-86734969D01*
X138925869Y-86636839D01*
X138926130Y-86338470D01*
X138812189Y-86062714D01*
X138601395Y-85851552D01*
X138325839Y-85737131D01*
X138027470Y-85736870D01*
X137751714Y-85850811D01*
X137540552Y-86061605D01*
X137434004Y-86318200D01*
X137318522Y-86491031D01*
X137268800Y-86741000D01*
X137268800Y-86906184D01*
X135498000Y-86906184D01*
X135331240Y-86937562D01*
X135178081Y-87036117D01*
X135075332Y-87186495D01*
X135039184Y-87365000D01*
X135039184Y-87588514D01*
X135003142Y-87501285D01*
X134623712Y-87121193D01*
X134511200Y-87074474D01*
X134511200Y-85541548D01*
X139332185Y-85541548D01*
X139370363Y-86100382D01*
X139510771Y-86439357D01*
X139746031Y-86517180D01*
X140538211Y-85725000D01*
X139746031Y-84932820D01*
X139510771Y-85010643D01*
X139332185Y-85541548D01*
X134511200Y-85541548D01*
X134511200Y-84715031D01*
X139963820Y-84715031D01*
X140756000Y-85507211D01*
X141548180Y-84715031D01*
X141470357Y-84479771D01*
X140939452Y-84301185D01*
X140380618Y-84339363D01*
X140041643Y-84479771D01*
X139963820Y-84715031D01*
X134511200Y-84715031D01*
X134511200Y-84375806D01*
X134621715Y-84330142D01*
X135001807Y-83950712D01*
X135039184Y-83860698D01*
X135039184Y-84085000D01*
X135070562Y-84251760D01*
X135169117Y-84404919D01*
X135319495Y-84507668D01*
X135498000Y-84543816D01*
X137298000Y-84543816D01*
X137464760Y-84512438D01*
X137617919Y-84413883D01*
X137720668Y-84263505D01*
X137756816Y-84085000D01*
X137756816Y-82285000D01*
X137733776Y-82162550D01*
X139592783Y-82162550D01*
X139782684Y-82622143D01*
X140134007Y-82974081D01*
X140593269Y-83164783D01*
X141090550Y-83165217D01*
X141550143Y-82975316D01*
X141600578Y-82924969D01*
X142550820Y-82924969D01*
X142628643Y-83160229D01*
X143159548Y-83338815D01*
X143718382Y-83300637D01*
X144057357Y-83160229D01*
X144135180Y-82924969D01*
X143343000Y-82132789D01*
X142550820Y-82924969D01*
X141600578Y-82924969D01*
X141902081Y-82623993D01*
X141998934Y-82390744D01*
X142097771Y-82629357D01*
X142333031Y-82707180D01*
X143125211Y-81915000D01*
X143560789Y-81915000D01*
X144352969Y-82707180D01*
X144588229Y-82629357D01*
X144766815Y-82098452D01*
X144728637Y-81539618D01*
X144588229Y-81200643D01*
X144352969Y-81122820D01*
X143560789Y-81915000D01*
X143125211Y-81915000D01*
X142333031Y-81122820D01*
X142097771Y-81200643D01*
X142009169Y-81464040D01*
X141903316Y-81207857D01*
X141601020Y-80905031D01*
X142550820Y-80905031D01*
X143343000Y-81697211D01*
X144135180Y-80905031D01*
X144057357Y-80669771D01*
X143526452Y-80491185D01*
X142967618Y-80529363D01*
X142628643Y-80669771D01*
X142550820Y-80905031D01*
X141601020Y-80905031D01*
X141551993Y-80855919D01*
X141092731Y-80665217D01*
X140595450Y-80664783D01*
X140135857Y-80854684D01*
X139783919Y-81206007D01*
X139593217Y-81665269D01*
X139592783Y-82162550D01*
X137733776Y-82162550D01*
X137725438Y-82118240D01*
X137626883Y-81965081D01*
X137476505Y-81862332D01*
X137298000Y-81826184D01*
X135498000Y-81826184D01*
X135331240Y-81857562D01*
X135178081Y-81956117D01*
X135075332Y-82106495D01*
X135039184Y-82285000D01*
X135039184Y-82508514D01*
X135003142Y-82421285D01*
X134623712Y-82041193D01*
X134127710Y-81835235D01*
X133590647Y-81834766D01*
X133094285Y-82039858D01*
X132714193Y-82419288D01*
X132508235Y-82915290D01*
X132507766Y-83452353D01*
X132712858Y-83948715D01*
X133092288Y-84328807D01*
X133204800Y-84375526D01*
X133204800Y-87074194D01*
X133094285Y-87119858D01*
X132714193Y-87499288D01*
X132508235Y-87995290D01*
X132507766Y-88532353D01*
X132712858Y-89028715D01*
X133092288Y-89408807D01*
X133588290Y-89614765D01*
X134125353Y-89615234D01*
X134621715Y-89410142D01*
X135001807Y-89030712D01*
X135039184Y-88940698D01*
X135039184Y-89165000D01*
X135070562Y-89331760D01*
X135169117Y-89484919D01*
X135319495Y-89587668D01*
X135498000Y-89623816D01*
X136655420Y-89623816D01*
X135746436Y-90532800D01*
X131572000Y-90532800D01*
X131490202Y-90549071D01*
X131583572Y-90510491D01*
X131907354Y-90187273D01*
X132082800Y-89764753D01*
X132083199Y-89307254D01*
X131908491Y-88884428D01*
X131585273Y-88560646D01*
X131162753Y-88385200D01*
X130705254Y-88384801D01*
X130282428Y-88559509D01*
X129958646Y-88882727D01*
X129783200Y-89305247D01*
X129782801Y-89762746D01*
X129957509Y-90185572D01*
X130280727Y-90509354D01*
X130703247Y-90684800D01*
X131160746Y-90685199D01*
X131180709Y-90676950D01*
X131110118Y-90724118D01*
X130876650Y-90957586D01*
X130600384Y-91012539D01*
X130227297Y-91261827D01*
X129978009Y-91634914D01*
X129890470Y-92075000D01*
X129978009Y-92515086D01*
X130029800Y-92592597D01*
X130029800Y-94097403D01*
X129978009Y-94174914D01*
X129890470Y-94615000D01*
X129978009Y-95055086D01*
X130227297Y-95428173D01*
X130600384Y-95677461D01*
X131040470Y-95765000D01*
X131085530Y-95765000D01*
X131482124Y-95686112D01*
X131150344Y-96017892D01*
X131085530Y-96005000D01*
X131040470Y-96005000D01*
X130600384Y-96092539D01*
X130227297Y-96341827D01*
X129978009Y-96714914D01*
X129890470Y-97155000D01*
X129978009Y-97595086D01*
X130130029Y-97822600D01*
X129027522Y-97822600D01*
X127970608Y-96765686D01*
X127970608Y-87222746D01*
X129782801Y-87222746D01*
X129957509Y-87645572D01*
X130280727Y-87969354D01*
X130703247Y-88144800D01*
X131160746Y-88145199D01*
X131583572Y-87970491D01*
X131907354Y-87647273D01*
X132082800Y-87224753D01*
X132083199Y-86767254D01*
X131908491Y-86344428D01*
X131585273Y-86020646D01*
X131162753Y-85845200D01*
X130705254Y-85844801D01*
X130282428Y-86019509D01*
X129958646Y-86342727D01*
X129783200Y-86765247D01*
X129782801Y-87222746D01*
X127970608Y-87222746D01*
X127970608Y-84682746D01*
X129782801Y-84682746D01*
X129957509Y-85105572D01*
X130280727Y-85429354D01*
X130703247Y-85604800D01*
X131160746Y-85605199D01*
X131583572Y-85430491D01*
X131907354Y-85107273D01*
X132082800Y-84684753D01*
X132083199Y-84227254D01*
X131908491Y-83804428D01*
X131585273Y-83480646D01*
X131162753Y-83305200D01*
X130705254Y-83304801D01*
X130282428Y-83479509D01*
X129958646Y-83802727D01*
X129783200Y-84225247D01*
X129782801Y-84682746D01*
X127970608Y-84682746D01*
X127970608Y-82142746D01*
X129782801Y-82142746D01*
X129957509Y-82565572D01*
X130280727Y-82889354D01*
X130703247Y-83064800D01*
X131160746Y-83065199D01*
X131583572Y-82890491D01*
X131907354Y-82567273D01*
X132082800Y-82144753D01*
X132083199Y-81687254D01*
X131908491Y-81264428D01*
X131585273Y-80940646D01*
X131162753Y-80765200D01*
X130705254Y-80764801D01*
X130282428Y-80939509D01*
X129958646Y-81262727D01*
X129783200Y-81685247D01*
X129782801Y-82142746D01*
X127970608Y-82142746D01*
X127970608Y-82008646D01*
X129713044Y-80266210D01*
X146466886Y-80266210D01*
X146309117Y-80371628D01*
G36*
X151118151Y-92577843D02*
X151389117Y-92983372D01*
X151794646Y-93254338D01*
X152273000Y-93349489D01*
X152751354Y-93254338D01*
X152940600Y-93127888D01*
X152940600Y-98642112D01*
X152926200Y-98632490D01*
X152926200Y-95885000D01*
X152876478Y-95635031D01*
X152760364Y-95461254D01*
X152655189Y-95206714D01*
X152444395Y-94995552D01*
X152356683Y-94959131D01*
X152268969Y-94900522D01*
X152019000Y-94850800D01*
X151769031Y-94900522D01*
X151681724Y-94958859D01*
X151594714Y-94994811D01*
X151383552Y-95205605D01*
X151269131Y-95481161D01*
X151268870Y-95779530D01*
X151382811Y-96055286D01*
X151593605Y-96266448D01*
X151619800Y-96277325D01*
X151619800Y-98632490D01*
X151389117Y-98786628D01*
X151118151Y-99192157D01*
X151023000Y-99670511D01*
X151023000Y-99719489D01*
X151118151Y-100197843D01*
X151389117Y-100603372D01*
X151794646Y-100874338D01*
X152273000Y-100969489D01*
X152751354Y-100874338D01*
X152940600Y-100747888D01*
X152940600Y-101978063D01*
X152922955Y-102004471D01*
X152898742Y-102126200D01*
X152886580Y-102187341D01*
X152428419Y-102031337D01*
X151849598Y-102068730D01*
X151488510Y-102218296D01*
X151404519Y-102458730D01*
X152233000Y-103287211D01*
X152247142Y-103273069D01*
X152464931Y-103490858D01*
X152450789Y-103505000D01*
X152464931Y-103519142D01*
X152247142Y-103736931D01*
X152233000Y-103722789D01*
X151404519Y-104551270D01*
X151488510Y-104791704D01*
X152037581Y-104978663D01*
X152616402Y-104941270D01*
X152877100Y-104833286D01*
X152877100Y-105584683D01*
X152751354Y-105500662D01*
X152273000Y-105405511D01*
X151980464Y-105463700D01*
X150796748Y-104279984D01*
X150834444Y-104242353D01*
X150888959Y-104111066D01*
X150946296Y-104249490D01*
X151186730Y-104333481D01*
X152015211Y-103505000D01*
X151186730Y-102676519D01*
X150946296Y-102760510D01*
X150894653Y-102912178D01*
X150835729Y-102769571D01*
X150470353Y-102403556D01*
X149992721Y-102205226D01*
X149475548Y-102204774D01*
X148997571Y-102402271D01*
X148989200Y-102410627D01*
X148989200Y-100696973D01*
X149254646Y-100874338D01*
X149733000Y-100969489D01*
X150211354Y-100874338D01*
X150616883Y-100603372D01*
X150887849Y-100197843D01*
X150983000Y-99719489D01*
X150983000Y-99670511D01*
X150887849Y-99192157D01*
X150616883Y-98786628D01*
X150211354Y-98515662D01*
X149733000Y-98420511D01*
X149254646Y-98515662D01*
X148989200Y-98693027D01*
X148989200Y-97344931D01*
X149053605Y-97409448D01*
X149329161Y-97523869D01*
X149627530Y-97524130D01*
X149903286Y-97410189D01*
X150114448Y-97199395D01*
X150150869Y-97111683D01*
X150209478Y-97023969D01*
X150241391Y-96863531D01*
X151047961Y-96056961D01*
X151178545Y-95861529D01*
X151224400Y-95631000D01*
X151224400Y-94488000D01*
X151182486Y-94277286D01*
X151178545Y-94257471D01*
X151047961Y-94062039D01*
X150326866Y-93340944D01*
X150431056Y-93297791D01*
X150845861Y-92937577D01*
X151091243Y-92446044D01*
X150980566Y-92229002D01*
X151048762Y-92229002D01*
X151118151Y-92577843D01*
X151118151Y-92577843D01*
G37*
X151118151Y-92577843D02*
X151389117Y-92983372D01*
X151794646Y-93254338D01*
X152273000Y-93349489D01*
X152751354Y-93254338D01*
X152940600Y-93127888D01*
X152940600Y-98642112D01*
X152926200Y-98632490D01*
X152926200Y-95885000D01*
X152876478Y-95635031D01*
X152760364Y-95461254D01*
X152655189Y-95206714D01*
X152444395Y-94995552D01*
X152356683Y-94959131D01*
X152268969Y-94900522D01*
X152019000Y-94850800D01*
X151769031Y-94900522D01*
X151681724Y-94958859D01*
X151594714Y-94994811D01*
X151383552Y-95205605D01*
X151269131Y-95481161D01*
X151268870Y-95779530D01*
X151382811Y-96055286D01*
X151593605Y-96266448D01*
X151619800Y-96277325D01*
X151619800Y-98632490D01*
X151389117Y-98786628D01*
X151118151Y-99192157D01*
X151023000Y-99670511D01*
X151023000Y-99719489D01*
X151118151Y-100197843D01*
X151389117Y-100603372D01*
X151794646Y-100874338D01*
X152273000Y-100969489D01*
X152751354Y-100874338D01*
X152940600Y-100747888D01*
X152940600Y-101978063D01*
X152922955Y-102004471D01*
X152898742Y-102126200D01*
X152886580Y-102187341D01*
X152428419Y-102031337D01*
X151849598Y-102068730D01*
X151488510Y-102218296D01*
X151404519Y-102458730D01*
X152233000Y-103287211D01*
X152247142Y-103273069D01*
X152464931Y-103490858D01*
X152450789Y-103505000D01*
X152464931Y-103519142D01*
X152247142Y-103736931D01*
X152233000Y-103722789D01*
X151404519Y-104551270D01*
X151488510Y-104791704D01*
X152037581Y-104978663D01*
X152616402Y-104941270D01*
X152877100Y-104833286D01*
X152877100Y-105584683D01*
X152751354Y-105500662D01*
X152273000Y-105405511D01*
X151980464Y-105463700D01*
X150796748Y-104279984D01*
X150834444Y-104242353D01*
X150888959Y-104111066D01*
X150946296Y-104249490D01*
X151186730Y-104333481D01*
X152015211Y-103505000D01*
X151186730Y-102676519D01*
X150946296Y-102760510D01*
X150894653Y-102912178D01*
X150835729Y-102769571D01*
X150470353Y-102403556D01*
X149992721Y-102205226D01*
X149475548Y-102204774D01*
X148997571Y-102402271D01*
X148989200Y-102410627D01*
X148989200Y-100696973D01*
X149254646Y-100874338D01*
X149733000Y-100969489D01*
X150211354Y-100874338D01*
X150616883Y-100603372D01*
X150887849Y-100197843D01*
X150983000Y-99719489D01*
X150983000Y-99670511D01*
X150887849Y-99192157D01*
X150616883Y-98786628D01*
X150211354Y-98515662D01*
X149733000Y-98420511D01*
X149254646Y-98515662D01*
X148989200Y-98693027D01*
X148989200Y-97344931D01*
X149053605Y-97409448D01*
X149329161Y-97523869D01*
X149627530Y-97524130D01*
X149903286Y-97410189D01*
X150114448Y-97199395D01*
X150150869Y-97111683D01*
X150209478Y-97023969D01*
X150241391Y-96863531D01*
X151047961Y-96056961D01*
X151178545Y-95861529D01*
X151224400Y-95631000D01*
X151224400Y-94488000D01*
X151182486Y-94277286D01*
X151178545Y-94257471D01*
X151047961Y-94062039D01*
X150326866Y-93340944D01*
X150431056Y-93297791D01*
X150845861Y-92937577D01*
X151091243Y-92446044D01*
X150980566Y-92229002D01*
X151048762Y-92229002D01*
X151118151Y-92577843D01*
G36*
X158259931Y-103490858D02*
X158245789Y-103505000D01*
X158259931Y-103519142D01*
X158042142Y-103736931D01*
X158028000Y-103722789D01*
X158013858Y-103736931D01*
X157796069Y-103519142D01*
X157810211Y-103505000D01*
X157796069Y-103490858D01*
X158013858Y-103273069D01*
X158028000Y-103287211D01*
X158042142Y-103273069D01*
X158259931Y-103490858D01*
X158259931Y-103490858D01*
G37*
X158259931Y-103490858D02*
X158245789Y-103505000D01*
X158259931Y-103519142D01*
X158042142Y-103736931D01*
X158028000Y-103722789D01*
X158013858Y-103736931D01*
X157796069Y-103519142D01*
X157810211Y-103505000D01*
X157796069Y-103490858D01*
X158013858Y-103273069D01*
X158028000Y-103287211D01*
X158042142Y-103273069D01*
X158259931Y-103490858D01*
G36*
X154334646Y-93254338D02*
X154813000Y-93349489D01*
X155291354Y-93254338D01*
X155429800Y-93161831D01*
X155429800Y-98438555D01*
X155184042Y-98336769D01*
X154967000Y-98448477D01*
X154967000Y-99541000D01*
X154987000Y-99541000D01*
X154987000Y-99849000D01*
X154967000Y-99849000D01*
X154967000Y-100941523D01*
X155184042Y-101053231D01*
X155429800Y-100951445D01*
X155429800Y-102108000D01*
X155479522Y-102357969D01*
X155590205Y-102523618D01*
X155470353Y-102403556D01*
X154992721Y-102205226D01*
X154475548Y-102204774D01*
X154108624Y-102356385D01*
X154145400Y-102171500D01*
X154145400Y-100930405D01*
X154441958Y-101053231D01*
X154659000Y-100941523D01*
X154659000Y-99849000D01*
X154639000Y-99849000D01*
X154639000Y-99541000D01*
X154659000Y-99541000D01*
X154659000Y-98448477D01*
X154441958Y-98336769D01*
X154145400Y-98459595D01*
X154145400Y-93127888D01*
X154334646Y-93254338D01*
X154334646Y-93254338D01*
G37*
X154334646Y-93254338D02*
X154813000Y-93349489D01*
X155291354Y-93254338D01*
X155429800Y-93161831D01*
X155429800Y-98438555D01*
X155184042Y-98336769D01*
X154967000Y-98448477D01*
X154967000Y-99541000D01*
X154987000Y-99541000D01*
X154987000Y-99849000D01*
X154967000Y-99849000D01*
X154967000Y-100941523D01*
X155184042Y-101053231D01*
X155429800Y-100951445D01*
X155429800Y-102108000D01*
X155479522Y-102357969D01*
X155590205Y-102523618D01*
X155470353Y-102403556D01*
X154992721Y-102205226D01*
X154475548Y-102204774D01*
X154108624Y-102356385D01*
X154145400Y-102171500D01*
X154145400Y-100930405D01*
X154441958Y-101053231D01*
X154659000Y-100941523D01*
X154659000Y-99849000D01*
X154639000Y-99849000D01*
X154639000Y-99541000D01*
X154659000Y-99541000D01*
X154659000Y-98448477D01*
X154441958Y-98336769D01*
X154145400Y-98459595D01*
X154145400Y-93127888D01*
X154334646Y-93254338D01*
G36*
X168479931Y-100350858D02*
X168465789Y-100365000D01*
X168479931Y-100379142D01*
X168262142Y-100596931D01*
X168248000Y-100582789D01*
X168233858Y-100596931D01*
X168016069Y-100379142D01*
X168030211Y-100365000D01*
X168016069Y-100350858D01*
X168233858Y-100133069D01*
X168248000Y-100147211D01*
X168262142Y-100133069D01*
X168479931Y-100350858D01*
X168479931Y-100350858D01*
G37*
X168479931Y-100350858D02*
X168465789Y-100365000D01*
X168479931Y-100379142D01*
X168262142Y-100596931D01*
X168248000Y-100582789D01*
X168233858Y-100596931D01*
X168016069Y-100379142D01*
X168030211Y-100365000D01*
X168016069Y-100350858D01*
X168233858Y-100133069D01*
X168248000Y-100147211D01*
X168262142Y-100133069D01*
X168479931Y-100350858D01*
G36*
X157507000Y-91921000D02*
X157527000Y-91921000D01*
X157527000Y-92229000D01*
X157507000Y-92229000D01*
X157507000Y-93321523D01*
X157724042Y-93433231D01*
X158051056Y-93297791D01*
X158465861Y-92937577D01*
X158711243Y-92446044D01*
X158600566Y-92229002D01*
X158668762Y-92229002D01*
X158738151Y-92577843D01*
X159009117Y-92983372D01*
X159239800Y-93137510D01*
X159239800Y-94979436D01*
X158161118Y-96058118D01*
X158019522Y-96270031D01*
X157969800Y-96520000D01*
X157969800Y-98608169D01*
X157831354Y-98515662D01*
X157353000Y-98420511D01*
X156874646Y-98515662D01*
X156736200Y-98608169D01*
X156736200Y-93331445D01*
X156981958Y-93433231D01*
X157199000Y-93321523D01*
X157199000Y-92229000D01*
X157179000Y-92229000D01*
X157179000Y-91921000D01*
X157199000Y-91921000D01*
X157199000Y-91901000D01*
X157507000Y-91901000D01*
X157507000Y-91921000D01*
X157507000Y-91921000D01*
G37*
X157507000Y-91921000D02*
X157527000Y-91921000D01*
X157527000Y-92229000D01*
X157507000Y-92229000D01*
X157507000Y-93321523D01*
X157724042Y-93433231D01*
X158051056Y-93297791D01*
X158465861Y-92937577D01*
X158711243Y-92446044D01*
X158600566Y-92229002D01*
X158668762Y-92229002D01*
X158738151Y-92577843D01*
X159009117Y-92983372D01*
X159239800Y-93137510D01*
X159239800Y-94979436D01*
X158161118Y-96058118D01*
X158019522Y-96270031D01*
X157969800Y-96520000D01*
X157969800Y-98608169D01*
X157831354Y-98515662D01*
X157353000Y-98420511D01*
X156874646Y-98515662D01*
X156736200Y-98608169D01*
X156736200Y-93331445D01*
X156981958Y-93433231D01*
X157199000Y-93321523D01*
X157199000Y-92229000D01*
X157179000Y-92229000D01*
X157179000Y-91921000D01*
X157199000Y-91921000D01*
X157199000Y-91901000D01*
X157507000Y-91901000D01*
X157507000Y-91921000D01*
G36*
X160584392Y-76248814D02*
X160869145Y-76674976D01*
X161144800Y-76859163D01*
X161144800Y-77343000D01*
X161194522Y-77592969D01*
X161336118Y-77804882D01*
X163495118Y-79963882D01*
X163707031Y-80105478D01*
X163957000Y-80155200D01*
X164413024Y-80155200D01*
X164089117Y-80371628D01*
X163818151Y-80777157D01*
X163723000Y-81255511D01*
X163723000Y-81304489D01*
X163818151Y-81782843D01*
X164089117Y-82188372D01*
X164494646Y-82459338D01*
X164973000Y-82554489D01*
X165451354Y-82459338D01*
X165856883Y-82188372D01*
X166127849Y-81782843D01*
X166223000Y-81304489D01*
X166223000Y-81255511D01*
X166127849Y-80777157D01*
X165856883Y-80371628D01*
X165532976Y-80155200D01*
X166953024Y-80155200D01*
X166629117Y-80371628D01*
X166358151Y-80777157D01*
X166263000Y-81255511D01*
X166263000Y-81304489D01*
X166358151Y-81782843D01*
X166629117Y-82188372D01*
X167034646Y-82459338D01*
X167513000Y-82554489D01*
X167991354Y-82459338D01*
X168396883Y-82188372D01*
X168667849Y-81782843D01*
X168763000Y-81304489D01*
X168763000Y-81255511D01*
X168667849Y-80777157D01*
X168396883Y-80371628D01*
X168072976Y-80155200D01*
X169493024Y-80155200D01*
X169169117Y-80371628D01*
X168898151Y-80777157D01*
X168803000Y-81255511D01*
X168803000Y-81304489D01*
X168898151Y-81782843D01*
X169169117Y-82188372D01*
X169574646Y-82459338D01*
X170053000Y-82554489D01*
X170531354Y-82459338D01*
X170784192Y-82290397D01*
X170784192Y-87889603D01*
X170531354Y-87720662D01*
X170053000Y-87625511D01*
X169574646Y-87720662D01*
X169169117Y-87991628D01*
X168898151Y-88397157D01*
X168803000Y-88875511D01*
X168803000Y-88924489D01*
X168898151Y-89402843D01*
X169169117Y-89808372D01*
X169302955Y-89897800D01*
X168263045Y-89897800D01*
X168396883Y-89808372D01*
X168667849Y-89402843D01*
X168763000Y-88924489D01*
X168763000Y-88875511D01*
X168667849Y-88397157D01*
X168396883Y-87991628D01*
X167991354Y-87720662D01*
X167513000Y-87625511D01*
X167034646Y-87720662D01*
X166629117Y-87991628D01*
X166358151Y-88397157D01*
X166263000Y-88875511D01*
X166263000Y-88924489D01*
X166358151Y-89402843D01*
X166629117Y-89808372D01*
X167034646Y-90079338D01*
X167480260Y-90167976D01*
X166381000Y-91267236D01*
X166381000Y-91154061D01*
X166288437Y-90930595D01*
X166117404Y-90759562D01*
X165893938Y-90667000D01*
X165279000Y-90667000D01*
X165127000Y-90819000D01*
X165127000Y-91921000D01*
X165147000Y-91921000D01*
X165147000Y-92229000D01*
X165127000Y-92229000D01*
X165127000Y-93331000D01*
X165279000Y-93483000D01*
X165562236Y-93483000D01*
X164908689Y-94136547D01*
X164675714Y-94232811D01*
X164464552Y-94443605D01*
X164350131Y-94719161D01*
X164349870Y-95017530D01*
X164463811Y-95293286D01*
X164655248Y-95485057D01*
X164604131Y-95608161D01*
X164603870Y-95906530D01*
X164717811Y-96182286D01*
X164928605Y-96393448D01*
X165204161Y-96507869D01*
X165502530Y-96508130D01*
X165589800Y-96472070D01*
X165589800Y-98608169D01*
X165451354Y-98515662D01*
X164973000Y-98420511D01*
X164680464Y-98478700D01*
X164102200Y-97900436D01*
X164102200Y-94250564D01*
X164164882Y-94187882D01*
X164306478Y-93975969D01*
X164356200Y-93726000D01*
X164356200Y-93483000D01*
X164667000Y-93483000D01*
X164819000Y-93331000D01*
X164819000Y-92229000D01*
X164799000Y-92229000D01*
X164799000Y-91921000D01*
X164819000Y-91921000D01*
X164819000Y-90819000D01*
X164667000Y-90667000D01*
X164356200Y-90667000D01*
X164356200Y-89986831D01*
X164494646Y-90079338D01*
X164973000Y-90174489D01*
X165451354Y-90079338D01*
X165856883Y-89808372D01*
X166127849Y-89402843D01*
X166223000Y-88924489D01*
X166223000Y-88875511D01*
X166127849Y-88397157D01*
X165856883Y-87991628D01*
X165451354Y-87720662D01*
X164973000Y-87625511D01*
X164494646Y-87720662D01*
X164356200Y-87813169D01*
X164356200Y-87503000D01*
X164306478Y-87253031D01*
X164164882Y-87041118D01*
X160546200Y-83422436D01*
X160546200Y-82342510D01*
X160776883Y-82188372D01*
X161047849Y-81782843D01*
X161143000Y-81304489D01*
X161143000Y-81255511D01*
X161183000Y-81255511D01*
X161183000Y-81304489D01*
X161278151Y-81782843D01*
X161549117Y-82188372D01*
X161954646Y-82459338D01*
X162433000Y-82554489D01*
X162911354Y-82459338D01*
X163316883Y-82188372D01*
X163587849Y-81782843D01*
X163683000Y-81304489D01*
X163683000Y-81255511D01*
X163587849Y-80777157D01*
X163316883Y-80371628D01*
X162911354Y-80100662D01*
X162433000Y-80005511D01*
X161954646Y-80100662D01*
X161549117Y-80371628D01*
X161278151Y-80777157D01*
X161183000Y-81255511D01*
X161143000Y-81255511D01*
X161047849Y-80777157D01*
X160776883Y-80371628D01*
X160371354Y-80100662D01*
X159893000Y-80005511D01*
X159414646Y-80100662D01*
X159276200Y-80193169D01*
X159276200Y-79518564D01*
X159719882Y-79074882D01*
X159728884Y-79061410D01*
X159861478Y-78862969D01*
X159911200Y-78613000D01*
X159911200Y-76859163D01*
X160186855Y-76674976D01*
X160471608Y-76248814D01*
X160528000Y-75965313D01*
X160584392Y-76248814D01*
X160584392Y-76248814D01*
G37*
X160584392Y-76248814D02*
X160869145Y-76674976D01*
X161144800Y-76859163D01*
X161144800Y-77343000D01*
X161194522Y-77592969D01*
X161336118Y-77804882D01*
X163495118Y-79963882D01*
X163707031Y-80105478D01*
X163957000Y-80155200D01*
X164413024Y-80155200D01*
X164089117Y-80371628D01*
X163818151Y-80777157D01*
X163723000Y-81255511D01*
X163723000Y-81304489D01*
X163818151Y-81782843D01*
X164089117Y-82188372D01*
X164494646Y-82459338D01*
X164973000Y-82554489D01*
X165451354Y-82459338D01*
X165856883Y-82188372D01*
X166127849Y-81782843D01*
X166223000Y-81304489D01*
X166223000Y-81255511D01*
X166127849Y-80777157D01*
X165856883Y-80371628D01*
X165532976Y-80155200D01*
X166953024Y-80155200D01*
X166629117Y-80371628D01*
X166358151Y-80777157D01*
X166263000Y-81255511D01*
X166263000Y-81304489D01*
X166358151Y-81782843D01*
X166629117Y-82188372D01*
X167034646Y-82459338D01*
X167513000Y-82554489D01*
X167991354Y-82459338D01*
X168396883Y-82188372D01*
X168667849Y-81782843D01*
X168763000Y-81304489D01*
X168763000Y-81255511D01*
X168667849Y-80777157D01*
X168396883Y-80371628D01*
X168072976Y-80155200D01*
X169493024Y-80155200D01*
X169169117Y-80371628D01*
X168898151Y-80777157D01*
X168803000Y-81255511D01*
X168803000Y-81304489D01*
X168898151Y-81782843D01*
X169169117Y-82188372D01*
X169574646Y-82459338D01*
X170053000Y-82554489D01*
X170531354Y-82459338D01*
X170784192Y-82290397D01*
X170784192Y-87889603D01*
X170531354Y-87720662D01*
X170053000Y-87625511D01*
X169574646Y-87720662D01*
X169169117Y-87991628D01*
X168898151Y-88397157D01*
X168803000Y-88875511D01*
X168803000Y-88924489D01*
X168898151Y-89402843D01*
X169169117Y-89808372D01*
X169302955Y-89897800D01*
X168263045Y-89897800D01*
X168396883Y-89808372D01*
X168667849Y-89402843D01*
X168763000Y-88924489D01*
X168763000Y-88875511D01*
X168667849Y-88397157D01*
X168396883Y-87991628D01*
X167991354Y-87720662D01*
X167513000Y-87625511D01*
X167034646Y-87720662D01*
X166629117Y-87991628D01*
X166358151Y-88397157D01*
X166263000Y-88875511D01*
X166263000Y-88924489D01*
X166358151Y-89402843D01*
X166629117Y-89808372D01*
X167034646Y-90079338D01*
X167480260Y-90167976D01*
X166381000Y-91267236D01*
X166381000Y-91154061D01*
X166288437Y-90930595D01*
X166117404Y-90759562D01*
X165893938Y-90667000D01*
X165279000Y-90667000D01*
X165127000Y-90819000D01*
X165127000Y-91921000D01*
X165147000Y-91921000D01*
X165147000Y-92229000D01*
X165127000Y-92229000D01*
X165127000Y-93331000D01*
X165279000Y-93483000D01*
X165562236Y-93483000D01*
X164908689Y-94136547D01*
X164675714Y-94232811D01*
X164464552Y-94443605D01*
X164350131Y-94719161D01*
X164349870Y-95017530D01*
X164463811Y-95293286D01*
X164655248Y-95485057D01*
X164604131Y-95608161D01*
X164603870Y-95906530D01*
X164717811Y-96182286D01*
X164928605Y-96393448D01*
X165204161Y-96507869D01*
X165502530Y-96508130D01*
X165589800Y-96472070D01*
X165589800Y-98608169D01*
X165451354Y-98515662D01*
X164973000Y-98420511D01*
X164680464Y-98478700D01*
X164102200Y-97900436D01*
X164102200Y-94250564D01*
X164164882Y-94187882D01*
X164306478Y-93975969D01*
X164356200Y-93726000D01*
X164356200Y-93483000D01*
X164667000Y-93483000D01*
X164819000Y-93331000D01*
X164819000Y-92229000D01*
X164799000Y-92229000D01*
X164799000Y-91921000D01*
X164819000Y-91921000D01*
X164819000Y-90819000D01*
X164667000Y-90667000D01*
X164356200Y-90667000D01*
X164356200Y-89986831D01*
X164494646Y-90079338D01*
X164973000Y-90174489D01*
X165451354Y-90079338D01*
X165856883Y-89808372D01*
X166127849Y-89402843D01*
X166223000Y-88924489D01*
X166223000Y-88875511D01*
X166127849Y-88397157D01*
X165856883Y-87991628D01*
X165451354Y-87720662D01*
X164973000Y-87625511D01*
X164494646Y-87720662D01*
X164356200Y-87813169D01*
X164356200Y-87503000D01*
X164306478Y-87253031D01*
X164164882Y-87041118D01*
X160546200Y-83422436D01*
X160546200Y-82342510D01*
X160776883Y-82188372D01*
X161047849Y-81782843D01*
X161143000Y-81304489D01*
X161143000Y-81255511D01*
X161183000Y-81255511D01*
X161183000Y-81304489D01*
X161278151Y-81782843D01*
X161549117Y-82188372D01*
X161954646Y-82459338D01*
X162433000Y-82554489D01*
X162911354Y-82459338D01*
X163316883Y-82188372D01*
X163587849Y-81782843D01*
X163683000Y-81304489D01*
X163683000Y-81255511D01*
X163587849Y-80777157D01*
X163316883Y-80371628D01*
X162911354Y-80100662D01*
X162433000Y-80005511D01*
X161954646Y-80100662D01*
X161549117Y-80371628D01*
X161278151Y-80777157D01*
X161183000Y-81255511D01*
X161143000Y-81255511D01*
X161047849Y-80777157D01*
X160776883Y-80371628D01*
X160371354Y-80100662D01*
X159893000Y-80005511D01*
X159414646Y-80100662D01*
X159276200Y-80193169D01*
X159276200Y-79518564D01*
X159719882Y-79074882D01*
X159728884Y-79061410D01*
X159861478Y-78862969D01*
X159911200Y-78613000D01*
X159911200Y-76859163D01*
X160186855Y-76674976D01*
X160471608Y-76248814D01*
X160528000Y-75965313D01*
X160584392Y-76248814D01*
G36*
X151440392Y-76248814D02*
X151725145Y-76674976D01*
X152051600Y-76893107D01*
X152051600Y-78613000D01*
X152097455Y-78843529D01*
X152228039Y-79038961D01*
X152940600Y-79751522D01*
X152940600Y-80227112D01*
X152751354Y-80100662D01*
X152273000Y-80005511D01*
X151794646Y-80100662D01*
X151389117Y-80371628D01*
X151118151Y-80777157D01*
X151023000Y-81255511D01*
X151023000Y-81304489D01*
X151118151Y-81782843D01*
X151389117Y-82188372D01*
X151794646Y-82459338D01*
X152273000Y-82554489D01*
X152751354Y-82459338D01*
X152940600Y-82332888D01*
X152940600Y-87847112D01*
X152751354Y-87720662D01*
X152273000Y-87625511D01*
X151794646Y-87720662D01*
X151389117Y-87991628D01*
X151118151Y-88397157D01*
X151023000Y-88875511D01*
X151023000Y-88924489D01*
X151118151Y-89402843D01*
X151389117Y-89808372D01*
X151794646Y-90079338D01*
X152273000Y-90174489D01*
X152751354Y-90079338D01*
X152940600Y-89952888D01*
X152940600Y-91022112D01*
X152751354Y-90895662D01*
X152273000Y-90800511D01*
X151794646Y-90895662D01*
X151389117Y-91166628D01*
X151118151Y-91572157D01*
X151048762Y-91920998D01*
X150980566Y-91920998D01*
X151091243Y-91703956D01*
X150845861Y-91212423D01*
X150431056Y-90852209D01*
X150104042Y-90716769D01*
X149887000Y-90828477D01*
X149887000Y-91921000D01*
X149907000Y-91921000D01*
X149907000Y-92229000D01*
X149887000Y-92229000D01*
X149887000Y-92249000D01*
X149579000Y-92249000D01*
X149579000Y-92229000D01*
X149559000Y-92229000D01*
X149559000Y-91921000D01*
X149579000Y-91921000D01*
X149579000Y-90828477D01*
X149361958Y-90716769D01*
X149065400Y-90839595D01*
X149065400Y-89952888D01*
X149254646Y-90079338D01*
X149733000Y-90174489D01*
X150211354Y-90079338D01*
X150616883Y-89808372D01*
X150887849Y-89402843D01*
X150983000Y-88924489D01*
X150983000Y-88875511D01*
X150887849Y-88397157D01*
X150616883Y-87991628D01*
X150211354Y-87720662D01*
X149733000Y-87625511D01*
X149254646Y-87720662D01*
X149065400Y-87847112D01*
X149065400Y-82550000D01*
X149019545Y-82319472D01*
X148998754Y-82288357D01*
X149254646Y-82459338D01*
X149733000Y-82554489D01*
X150211354Y-82459338D01*
X150616883Y-82188372D01*
X150887849Y-81782843D01*
X150983000Y-81304489D01*
X150983000Y-81255511D01*
X150887849Y-80777157D01*
X150616883Y-80371628D01*
X150211354Y-80100662D01*
X149733000Y-80005511D01*
X149254646Y-80100662D01*
X148849117Y-80371628D01*
X148578151Y-80777157D01*
X148483000Y-81255511D01*
X148483000Y-81304489D01*
X148578151Y-81782843D01*
X148639338Y-81874416D01*
X148381017Y-81616095D01*
X148443000Y-81304489D01*
X148443000Y-81255511D01*
X148347849Y-80777157D01*
X148076883Y-80371628D01*
X147671354Y-80100662D01*
X147193000Y-80005511D01*
X146993784Y-80045138D01*
X150001566Y-77037356D01*
X150114000Y-77059721D01*
X150616693Y-76959729D01*
X151042855Y-76674976D01*
X151327608Y-76248814D01*
X151384000Y-75965313D01*
X151440392Y-76248814D01*
X151440392Y-76248814D01*
G37*
X151440392Y-76248814D02*
X151725145Y-76674976D01*
X152051600Y-76893107D01*
X152051600Y-78613000D01*
X152097455Y-78843529D01*
X152228039Y-79038961D01*
X152940600Y-79751522D01*
X152940600Y-80227112D01*
X152751354Y-80100662D01*
X152273000Y-80005511D01*
X151794646Y-80100662D01*
X151389117Y-80371628D01*
X151118151Y-80777157D01*
X151023000Y-81255511D01*
X151023000Y-81304489D01*
X151118151Y-81782843D01*
X151389117Y-82188372D01*
X151794646Y-82459338D01*
X152273000Y-82554489D01*
X152751354Y-82459338D01*
X152940600Y-82332888D01*
X152940600Y-87847112D01*
X152751354Y-87720662D01*
X152273000Y-87625511D01*
X151794646Y-87720662D01*
X151389117Y-87991628D01*
X151118151Y-88397157D01*
X151023000Y-88875511D01*
X151023000Y-88924489D01*
X151118151Y-89402843D01*
X151389117Y-89808372D01*
X151794646Y-90079338D01*
X152273000Y-90174489D01*
X152751354Y-90079338D01*
X152940600Y-89952888D01*
X152940600Y-91022112D01*
X152751354Y-90895662D01*
X152273000Y-90800511D01*
X151794646Y-90895662D01*
X151389117Y-91166628D01*
X151118151Y-91572157D01*
X151048762Y-91920998D01*
X150980566Y-91920998D01*
X151091243Y-91703956D01*
X150845861Y-91212423D01*
X150431056Y-90852209D01*
X150104042Y-90716769D01*
X149887000Y-90828477D01*
X149887000Y-91921000D01*
X149907000Y-91921000D01*
X149907000Y-92229000D01*
X149887000Y-92229000D01*
X149887000Y-92249000D01*
X149579000Y-92249000D01*
X149579000Y-92229000D01*
X149559000Y-92229000D01*
X149559000Y-91921000D01*
X149579000Y-91921000D01*
X149579000Y-90828477D01*
X149361958Y-90716769D01*
X149065400Y-90839595D01*
X149065400Y-89952888D01*
X149254646Y-90079338D01*
X149733000Y-90174489D01*
X150211354Y-90079338D01*
X150616883Y-89808372D01*
X150887849Y-89402843D01*
X150983000Y-88924489D01*
X150983000Y-88875511D01*
X150887849Y-88397157D01*
X150616883Y-87991628D01*
X150211354Y-87720662D01*
X149733000Y-87625511D01*
X149254646Y-87720662D01*
X149065400Y-87847112D01*
X149065400Y-82550000D01*
X149019545Y-82319472D01*
X148998754Y-82288357D01*
X149254646Y-82459338D01*
X149733000Y-82554489D01*
X150211354Y-82459338D01*
X150616883Y-82188372D01*
X150887849Y-81782843D01*
X150983000Y-81304489D01*
X150983000Y-81255511D01*
X150887849Y-80777157D01*
X150616883Y-80371628D01*
X150211354Y-80100662D01*
X149733000Y-80005511D01*
X149254646Y-80100662D01*
X148849117Y-80371628D01*
X148578151Y-80777157D01*
X148483000Y-81255511D01*
X148483000Y-81304489D01*
X148578151Y-81782843D01*
X148639338Y-81874416D01*
X148381017Y-81616095D01*
X148443000Y-81304489D01*
X148443000Y-81255511D01*
X148347849Y-80777157D01*
X148076883Y-80371628D01*
X147671354Y-80100662D01*
X147193000Y-80005511D01*
X146993784Y-80045138D01*
X150001566Y-77037356D01*
X150114000Y-77059721D01*
X150616693Y-76959729D01*
X151042855Y-76674976D01*
X151327608Y-76248814D01*
X151384000Y-75965313D01*
X151440392Y-76248814D01*
G36*
X158044392Y-76248814D02*
X158329145Y-76674976D01*
X158604800Y-76859163D01*
X158604800Y-78342436D01*
X158161118Y-78786118D01*
X158019522Y-78998031D01*
X157969800Y-79248000D01*
X157969800Y-80023555D01*
X157724042Y-79921769D01*
X157507000Y-80033477D01*
X157507000Y-81126000D01*
X157527000Y-81126000D01*
X157527000Y-81434000D01*
X157507000Y-81434000D01*
X157507000Y-82526523D01*
X157724042Y-82638231D01*
X157969800Y-82536445D01*
X157969800Y-83820000D01*
X158019522Y-84069969D01*
X158161118Y-84281882D01*
X160509800Y-86630564D01*
X160509800Y-87643555D01*
X160264042Y-87541769D01*
X160047000Y-87653477D01*
X160047000Y-88746000D01*
X160067000Y-88746000D01*
X160067000Y-89054000D01*
X160047000Y-89054000D01*
X160047000Y-90146523D01*
X160264042Y-90258231D01*
X160509800Y-90156445D01*
X160509800Y-90988169D01*
X160371354Y-90895662D01*
X159893000Y-90800511D01*
X159414646Y-90895662D01*
X159009117Y-91166628D01*
X158738151Y-91572157D01*
X158668762Y-91920998D01*
X158600566Y-91920998D01*
X158711243Y-91703956D01*
X158465861Y-91212423D01*
X158131116Y-90921732D01*
X158237969Y-90900478D01*
X158449882Y-90758882D01*
X159084882Y-90123882D01*
X159085693Y-90122668D01*
X159125757Y-90062709D01*
X159194944Y-90122791D01*
X159521958Y-90258231D01*
X159739000Y-90146523D01*
X159739000Y-89054000D01*
X159719000Y-89054000D01*
X159719000Y-88746000D01*
X159739000Y-88746000D01*
X159739000Y-87653477D01*
X159521958Y-87541769D01*
X159276200Y-87643555D01*
X159276200Y-86614000D01*
X159226478Y-86364031D01*
X159084882Y-86152118D01*
X156736200Y-83803436D01*
X156736200Y-82536445D01*
X156981958Y-82638231D01*
X157199000Y-82526523D01*
X157199000Y-81434000D01*
X157179000Y-81434000D01*
X157179000Y-81126000D01*
X157199000Y-81126000D01*
X157199000Y-80033477D01*
X156981958Y-79921769D01*
X156741336Y-80021428D01*
X157179882Y-79582882D01*
X157231232Y-79506031D01*
X157321478Y-79370969D01*
X157371200Y-79121000D01*
X157371200Y-76859163D01*
X157646855Y-76674976D01*
X157931608Y-76248814D01*
X157988000Y-75965313D01*
X158044392Y-76248814D01*
X158044392Y-76248814D01*
G37*
X158044392Y-76248814D02*
X158329145Y-76674976D01*
X158604800Y-76859163D01*
X158604800Y-78342436D01*
X158161118Y-78786118D01*
X158019522Y-78998031D01*
X157969800Y-79248000D01*
X157969800Y-80023555D01*
X157724042Y-79921769D01*
X157507000Y-80033477D01*
X157507000Y-81126000D01*
X157527000Y-81126000D01*
X157527000Y-81434000D01*
X157507000Y-81434000D01*
X157507000Y-82526523D01*
X157724042Y-82638231D01*
X157969800Y-82536445D01*
X157969800Y-83820000D01*
X158019522Y-84069969D01*
X158161118Y-84281882D01*
X160509800Y-86630564D01*
X160509800Y-87643555D01*
X160264042Y-87541769D01*
X160047000Y-87653477D01*
X160047000Y-88746000D01*
X160067000Y-88746000D01*
X160067000Y-89054000D01*
X160047000Y-89054000D01*
X160047000Y-90146523D01*
X160264042Y-90258231D01*
X160509800Y-90156445D01*
X160509800Y-90988169D01*
X160371354Y-90895662D01*
X159893000Y-90800511D01*
X159414646Y-90895662D01*
X159009117Y-91166628D01*
X158738151Y-91572157D01*
X158668762Y-91920998D01*
X158600566Y-91920998D01*
X158711243Y-91703956D01*
X158465861Y-91212423D01*
X158131116Y-90921732D01*
X158237969Y-90900478D01*
X158449882Y-90758882D01*
X159084882Y-90123882D01*
X159085693Y-90122668D01*
X159125757Y-90062709D01*
X159194944Y-90122791D01*
X159521958Y-90258231D01*
X159739000Y-90146523D01*
X159739000Y-89054000D01*
X159719000Y-89054000D01*
X159719000Y-88746000D01*
X159739000Y-88746000D01*
X159739000Y-87653477D01*
X159521958Y-87541769D01*
X159276200Y-87643555D01*
X159276200Y-86614000D01*
X159226478Y-86364031D01*
X159084882Y-86152118D01*
X156736200Y-83803436D01*
X156736200Y-82536445D01*
X156981958Y-82638231D01*
X157199000Y-82526523D01*
X157199000Y-81434000D01*
X157179000Y-81434000D01*
X157179000Y-81126000D01*
X157199000Y-81126000D01*
X157199000Y-80033477D01*
X156981958Y-79921769D01*
X156741336Y-80021428D01*
X157179882Y-79582882D01*
X157231232Y-79506031D01*
X157321478Y-79370969D01*
X157371200Y-79121000D01*
X157371200Y-76859163D01*
X157646855Y-76674976D01*
X157931608Y-76248814D01*
X157988000Y-75965313D01*
X158044392Y-76248814D01*
G36*
X137568000Y-75411000D02*
X137588000Y-75411000D01*
X137588000Y-75719000D01*
X137568000Y-75719000D01*
X137568000Y-75739000D01*
X137260000Y-75739000D01*
X137260000Y-75719000D01*
X137240000Y-75719000D01*
X137240000Y-75411000D01*
X137260000Y-75411000D01*
X137260000Y-75391000D01*
X137568000Y-75391000D01*
X137568000Y-75411000D01*
X137568000Y-75411000D01*
G37*
X137568000Y-75411000D02*
X137588000Y-75411000D01*
X137588000Y-75719000D01*
X137568000Y-75719000D01*
X137568000Y-75739000D01*
X137260000Y-75739000D01*
X137260000Y-75719000D01*
X137240000Y-75719000D01*
X137240000Y-75411000D01*
X137260000Y-75411000D01*
X137260000Y-75391000D01*
X137568000Y-75391000D01*
X137568000Y-75411000D01*
M02*
