G04 #@! TF.FileFunction,Copper,L1,Top,Signal*
%FSLAX46Y46*%
G04 Gerber Fmt 4.6, Leading zero omitted, Abs format (unit mm)*
G04 Created by KiCad (PCBNEW 4.0.6) date 08/25/20 17:01:17*
%MOMM*%
%LPD*%
G01*
G04 APERTURE LIST*
%ADD10C,0.100000*%
%ADD11C,1.750000*%
%ADD12R,1.700000X1.700000*%
%ADD13R,2.200000X2.200000*%
%ADD14O,2.200000X2.200000*%
%ADD15C,1.600000*%
%ADD16O,1.700000X1.700000*%
%ADD17C,1.520000*%
%ADD18C,2.700000*%
%ADD19R,3.500000X3.500000*%
%ADD20O,1.727200X2.032000*%
%ADD21C,4.064000*%
%ADD22C,2.000000*%
%ADD23R,1.800000X1.800000*%
%ADD24O,1.800000X1.800000*%
%ADD25R,1.600000X1.600000*%
%ADD26O,1.600000X1.600000*%
%ADD27C,1.700000*%
%ADD28C,1.800000*%
%ADD29R,1.750000X1.750000*%
%ADD30C,1.400000*%
%ADD31O,1.400000X1.400000*%
%ADD32C,0.600000*%
%ADD33C,0.609600*%
%ADD34C,0.406400*%
%ADD35C,0.304800*%
%ADD36C,0.254000*%
%ADD37C,0.200000*%
G04 APERTURE END LIST*
D10*
D11*
X144018000Y-98425000D03*
X144018000Y-95885000D03*
D12*
X144018000Y-93345000D03*
D13*
X135763000Y-118110000D03*
D14*
X125603000Y-118110000D03*
D15*
X138938000Y-90170000D03*
X143938000Y-90170000D03*
X170688000Y-99060000D03*
X170688000Y-94060000D03*
X139573000Y-98425000D03*
X139573000Y-93425000D03*
D12*
X174498000Y-95885000D03*
D16*
X177038000Y-95885000D03*
X174498000Y-98425000D03*
X177038000Y-98425000D03*
X174498000Y-100965000D03*
X177038000Y-100965000D03*
D15*
X140843000Y-102870000D03*
X145843000Y-102870000D03*
D17*
X118618000Y-86995000D03*
X118618000Y-89535000D03*
X116618000Y-89535000D03*
X116618000Y-86995000D03*
D18*
X113918000Y-82265000D03*
X113918000Y-94265000D03*
D19*
X121158000Y-118745000D03*
X115158000Y-118745000D03*
X118158000Y-123445000D03*
D12*
X119253000Y-99060000D03*
D16*
X116713000Y-99060000D03*
X114173000Y-99060000D03*
D20*
X138938000Y-123825000D03*
X141478000Y-123825000D03*
X144018000Y-123825000D03*
X146558000Y-123825000D03*
X149098000Y-123825000D03*
X151638000Y-123825000D03*
X154178000Y-123825000D03*
X156718000Y-123825000D03*
X161798000Y-123825000D03*
X164338000Y-123825000D03*
X166878000Y-123825000D03*
X169418000Y-123825000D03*
X171958000Y-123825000D03*
X174498000Y-123825000D03*
X129794000Y-75565000D03*
X132334000Y-75565000D03*
X134874000Y-75565000D03*
X137414000Y-75565000D03*
X139954000Y-75565000D03*
X142494000Y-75565000D03*
X145034000Y-75565000D03*
X147574000Y-75565000D03*
X150114000Y-75565000D03*
X152654000Y-75565000D03*
X156718000Y-75565000D03*
X159258000Y-75565000D03*
X161798000Y-75565000D03*
X164338000Y-75565000D03*
X166878000Y-75565000D03*
X169418000Y-75565000D03*
X171958000Y-75565000D03*
X174498000Y-75565000D03*
D21*
X124968000Y-123825000D03*
X177038000Y-118745000D03*
X126238000Y-75565000D03*
X177038000Y-90805000D03*
D22*
X119888000Y-74875000D03*
X119888000Y-79375000D03*
X113388000Y-74875000D03*
X113388000Y-79375000D03*
D23*
X131318000Y-109601000D03*
D24*
X131318000Y-107061000D03*
X131318000Y-104521000D03*
D25*
X147193000Y-88900000D03*
D26*
X170053000Y-81280000D03*
X149733000Y-88900000D03*
X167513000Y-81280000D03*
X152273000Y-88900000D03*
X164973000Y-81280000D03*
X154813000Y-88900000D03*
X162433000Y-81280000D03*
X157353000Y-88900000D03*
X159893000Y-81280000D03*
X159893000Y-88900000D03*
X157353000Y-81280000D03*
X162433000Y-88900000D03*
X154813000Y-81280000D03*
X164973000Y-88900000D03*
X152273000Y-81280000D03*
X167513000Y-88900000D03*
X149733000Y-81280000D03*
X170053000Y-88900000D03*
X147193000Y-81280000D03*
D25*
X164973000Y-92075000D03*
D26*
X149733000Y-99695000D03*
X162433000Y-92075000D03*
X152273000Y-99695000D03*
X159893000Y-92075000D03*
X154813000Y-99695000D03*
X157353000Y-92075000D03*
X157353000Y-99695000D03*
X154813000Y-92075000D03*
X159893000Y-99695000D03*
X152273000Y-92075000D03*
X162433000Y-99695000D03*
X149733000Y-92075000D03*
X164973000Y-99695000D03*
D25*
X175133000Y-106680000D03*
D26*
X142113000Y-114300000D03*
X172593000Y-106680000D03*
X144653000Y-114300000D03*
X170053000Y-106680000D03*
X147193000Y-114300000D03*
X167513000Y-106680000D03*
X149733000Y-114300000D03*
X164973000Y-106680000D03*
X152273000Y-114300000D03*
X162433000Y-106680000D03*
X154813000Y-114300000D03*
X159893000Y-106680000D03*
X157353000Y-114300000D03*
X157353000Y-106680000D03*
X159893000Y-114300000D03*
X154813000Y-106680000D03*
X162433000Y-114300000D03*
X152273000Y-106680000D03*
X164973000Y-114300000D03*
X149733000Y-106680000D03*
X167513000Y-114300000D03*
X147193000Y-106680000D03*
X170053000Y-114300000D03*
X144653000Y-106680000D03*
X172593000Y-114300000D03*
X142113000Y-106680000D03*
X175133000Y-114300000D03*
D27*
X149733000Y-103505000D03*
X152233000Y-103505000D03*
X154733000Y-103505000D03*
D23*
X136398000Y-98425000D03*
D28*
X133858000Y-98425000D03*
D23*
X136398000Y-83185000D03*
D28*
X133858000Y-83185000D03*
D23*
X136398000Y-88265000D03*
D28*
X133858000Y-88265000D03*
D23*
X136398000Y-93345000D03*
D28*
X133858000Y-93345000D03*
D15*
X160528000Y-103505000D03*
X158028000Y-103505000D03*
X137668000Y-114300000D03*
X135168000Y-114300000D03*
X140843000Y-81915000D03*
X143343000Y-81915000D03*
X143256000Y-85725000D03*
X140756000Y-85725000D03*
D29*
X132969000Y-123317000D03*
D11*
X130469000Y-123317000D03*
D30*
X122813000Y-97155000D03*
D31*
X131063000Y-97155000D03*
D30*
X168248000Y-100365000D03*
D31*
X168248000Y-92115000D03*
D30*
X171319000Y-103505000D03*
D31*
X163069000Y-103505000D03*
D30*
X122813000Y-92075000D03*
D31*
X131063000Y-92075000D03*
D30*
X130933000Y-89535000D03*
D31*
X122683000Y-89535000D03*
D30*
X130933000Y-86995000D03*
D31*
X122683000Y-86995000D03*
D30*
X122813000Y-99695000D03*
D31*
X131063000Y-99695000D03*
D30*
X122813000Y-94615000D03*
D31*
X131063000Y-94615000D03*
D30*
X130933000Y-84455000D03*
D31*
X122683000Y-84455000D03*
D30*
X130933000Y-81915000D03*
D31*
X122683000Y-81915000D03*
D32*
X134239000Y-120777000D03*
X121158000Y-111125000D03*
X118618000Y-106045000D03*
X118618000Y-108585000D03*
X116078000Y-111125000D03*
X113538000Y-111125000D03*
X118618000Y-111125000D03*
X121158000Y-108585000D03*
X123698000Y-108585000D03*
X126238000Y-108585000D03*
X126238000Y-111125000D03*
X123698000Y-111125000D03*
X118618000Y-103505000D03*
X121158000Y-103505000D03*
X121158000Y-106045000D03*
X123698000Y-106045000D03*
X126238000Y-106045000D03*
X116078000Y-103505000D03*
X113538000Y-103505000D03*
X139827000Y-119888000D03*
X175260000Y-77724000D03*
X175133000Y-93853000D03*
X178181000Y-94234000D03*
X153543000Y-111252000D03*
X154686000Y-110617000D03*
X160655000Y-96393000D03*
X147574000Y-96393000D03*
X149352000Y-94361000D03*
X165100000Y-94869000D03*
X152019000Y-95631000D03*
X165354000Y-95758000D03*
X151003000Y-109601000D03*
X170942000Y-110109000D03*
X160020000Y-108712000D03*
X138176000Y-86487000D03*
X154940000Y-84963000D03*
X161925000Y-96774000D03*
X149479000Y-96774000D03*
X177800000Y-103251000D03*
X153670000Y-112522000D03*
X158750000Y-112522000D03*
D33*
X113388000Y-74875000D02*
X119888000Y-74875000D01*
D34*
X171958000Y-99060000D02*
X170688000Y-99060000D01*
X174498000Y-100965000D02*
X173863000Y-100965000D01*
X173863000Y-100965000D02*
X171958000Y-99060000D01*
X144018000Y-123825000D02*
X144018000Y-122555000D01*
X144018000Y-122555000D02*
X145415000Y-121158000D01*
X144018000Y-122809000D02*
X144018000Y-123825000D01*
X142240000Y-121031000D02*
X144018000Y-122809000D01*
X134493000Y-121031000D02*
X142240000Y-121031000D01*
X134239000Y-120777000D02*
X134493000Y-121031000D01*
X175133000Y-112014000D02*
X175133000Y-106680000D01*
X173863000Y-113284000D02*
X175133000Y-112014000D01*
X173863000Y-119507000D02*
X173863000Y-113284000D01*
X172212000Y-121158000D02*
X173863000Y-119507000D01*
X145415000Y-121158000D02*
X172212000Y-121158000D01*
X167640000Y-100965000D02*
X167648000Y-100965000D01*
X155956000Y-100965000D02*
X167640000Y-100965000D01*
X154813000Y-99822000D02*
X155956000Y-100965000D01*
X167648000Y-100965000D02*
X168248000Y-100365000D01*
D33*
X131318000Y-93345000D02*
X131826000Y-93345000D01*
X131191000Y-93345000D02*
X131318000Y-93345000D01*
X124333000Y-93345000D02*
X131191000Y-93345000D01*
X123063000Y-92075000D02*
X124333000Y-93345000D01*
X131826000Y-93345000D02*
X133477000Y-91694000D01*
D35*
X154813000Y-99695000D02*
X154813000Y-100203000D01*
X154813000Y-100203000D02*
X152233000Y-102783000D01*
X152233000Y-102783000D02*
X152233000Y-103505000D01*
X118618000Y-106045000D02*
X118618000Y-108585000D01*
X116078000Y-111125000D02*
X113538000Y-111125000D01*
X118618000Y-111125000D02*
X121158000Y-111125000D01*
X126238000Y-108585000D02*
X123698000Y-108585000D01*
X123698000Y-111125000D02*
X126238000Y-111125000D01*
X131318000Y-107061000D02*
X127254000Y-107061000D01*
X121158000Y-103505000D02*
X118618000Y-103505000D01*
X123698000Y-106045000D02*
X121158000Y-106045000D01*
X127254000Y-107061000D02*
X126238000Y-106045000D01*
X116078000Y-103505000D02*
X113538000Y-103505000D01*
D33*
X137414000Y-75565000D02*
X137414000Y-75692000D01*
X137414000Y-75692000D02*
X135890000Y-77216000D01*
X126238000Y-79375000D02*
X119888000Y-79375000D01*
X128397000Y-77216000D02*
X126238000Y-79375000D01*
X135890000Y-77216000D02*
X128397000Y-77216000D01*
X152233000Y-103505000D02*
X152233000Y-102783000D01*
X152233000Y-102783000D02*
X153035000Y-101981000D01*
X158028000Y-102529000D02*
X158028000Y-103505000D01*
X157480000Y-101981000D02*
X158028000Y-102529000D01*
X153035000Y-101981000D02*
X157480000Y-101981000D01*
X113918000Y-94265000D02*
X113918000Y-95886000D01*
X111760000Y-115347000D02*
X115158000Y-118745000D01*
X111760000Y-98044000D02*
X111760000Y-115347000D01*
X113918000Y-95886000D02*
X111760000Y-98044000D01*
X136398000Y-92329000D02*
X136398000Y-93345000D01*
X133477000Y-91694000D02*
X133985000Y-91694000D01*
X133985000Y-91694000D02*
X135763000Y-91694000D01*
X135763000Y-91694000D02*
X136398000Y-92329000D01*
X152233000Y-103505000D02*
X152233000Y-103037000D01*
X158028000Y-102910000D02*
X158028000Y-103505000D01*
D34*
X177038000Y-100965000D02*
X175768000Y-99695000D01*
X168148000Y-96520000D02*
X164973000Y-93345000D01*
X170688000Y-96520000D02*
X168148000Y-96520000D01*
X173863000Y-99695000D02*
X170688000Y-96520000D01*
X175768000Y-99695000D02*
X173863000Y-99695000D01*
X164973000Y-93345000D02*
X164973000Y-92075000D01*
D33*
X157353000Y-92075000D02*
X157353000Y-92710000D01*
X157353000Y-92710000D02*
X158623000Y-93980000D01*
X164973000Y-93345000D02*
X164973000Y-92075000D01*
X164338000Y-93980000D02*
X164973000Y-93345000D01*
X158623000Y-93980000D02*
X164338000Y-93980000D01*
X149733000Y-92075000D02*
X149733000Y-92710000D01*
X149733000Y-92710000D02*
X151003000Y-93980000D01*
X151003000Y-93980000D02*
X156083000Y-93980000D01*
X156083000Y-93980000D02*
X157353000Y-92710000D01*
X116618000Y-89535000D02*
X116618000Y-88995000D01*
X116618000Y-88995000D02*
X117348000Y-88265000D01*
X119253000Y-88265000D02*
X123063000Y-92075000D01*
X117348000Y-88265000D02*
X119253000Y-88265000D01*
X144018000Y-93345000D02*
X148463000Y-93345000D01*
X148463000Y-93345000D02*
X149733000Y-92075000D01*
X139573000Y-93425000D02*
X143938000Y-93425000D01*
X143938000Y-93425000D02*
X144018000Y-93345000D01*
X136398000Y-93345000D02*
X139493000Y-93345000D01*
X139493000Y-93345000D02*
X139573000Y-93425000D01*
X113388000Y-79375000D02*
X119888000Y-79375000D01*
D34*
X154813000Y-99695000D02*
X154813000Y-99822000D01*
D33*
X156718000Y-123825000D02*
X156718000Y-124460000D01*
X156718000Y-124460000D02*
X155448000Y-125730000D01*
X155448000Y-125730000D02*
X134493000Y-125730000D01*
X134493000Y-125730000D02*
X132969000Y-124206000D01*
X132969000Y-124206000D02*
X132969000Y-123317000D01*
D34*
X155321000Y-119888000D02*
X157353000Y-117856000D01*
X157353000Y-114300000D02*
X157353000Y-117856000D01*
X139827000Y-119888000D02*
X155321000Y-119888000D01*
X175260000Y-87915418D02*
X175260000Y-77724000D01*
X173891598Y-89283820D02*
X175260000Y-87915418D01*
X173891598Y-92611598D02*
X173891598Y-89283820D01*
X175133000Y-93853000D02*
X173891598Y-92611598D01*
X130810000Y-73787000D02*
X129794000Y-74803000D01*
X174879000Y-73787000D02*
X130810000Y-73787000D01*
X176022000Y-74930000D02*
X174879000Y-73787000D01*
X176022000Y-88011000D02*
X176022000Y-74930000D01*
X174498000Y-89535000D02*
X176022000Y-88011000D01*
X174498000Y-92075000D02*
X174498000Y-89535000D01*
X176403000Y-93980000D02*
X174498000Y-92075000D01*
X177927000Y-93980000D02*
X176403000Y-93980000D01*
X178181000Y-94234000D02*
X177927000Y-93980000D01*
X129794000Y-74803000D02*
X129794000Y-75565000D01*
X153543000Y-111252000D02*
X145796000Y-111252000D01*
X142113000Y-107569000D02*
X142113000Y-106680000D01*
X145796000Y-111252000D02*
X142113000Y-107569000D01*
D35*
X153416000Y-111125000D02*
X153543000Y-111252000D01*
D34*
X144653000Y-107823000D02*
X144653000Y-106680000D01*
X147320000Y-110490000D02*
X144653000Y-107823000D01*
X154559000Y-110490000D02*
X147320000Y-110490000D01*
X154686000Y-110617000D02*
X154559000Y-110490000D01*
X151384000Y-96393000D02*
X150749000Y-95758000D01*
X160655000Y-96393000D02*
X151384000Y-96393000D01*
X148209000Y-95758000D02*
X147574000Y-96393000D01*
X150749000Y-95758000D02*
X148209000Y-95758000D01*
X149733000Y-94742000D02*
X149352000Y-94361000D01*
X164973000Y-94742000D02*
X149733000Y-94742000D01*
X165100000Y-94869000D02*
X164973000Y-94742000D01*
X169418000Y-95885000D02*
X169418000Y-95785000D01*
X174498000Y-98425000D02*
X173450582Y-98425000D01*
X173450582Y-98425000D02*
X170910582Y-95885000D01*
X170910582Y-95885000D02*
X169418000Y-95885000D01*
X168248000Y-94615000D02*
X168248000Y-92115000D01*
X169418000Y-95785000D02*
X168248000Y-94615000D01*
D36*
X151003000Y-101473000D02*
X151003000Y-109601000D01*
X152273000Y-100203000D02*
X151003000Y-101473000D01*
X152273000Y-99695000D02*
X152273000Y-100203000D01*
D34*
X165227000Y-95631000D02*
X152019000Y-95631000D01*
X165354000Y-95758000D02*
X165227000Y-95631000D01*
X145796000Y-91440000D02*
X147066000Y-90170000D01*
X147066000Y-90170000D02*
X151003000Y-90170000D01*
X152273000Y-88900000D02*
X151003000Y-90170000D01*
X140208000Y-91440000D02*
X138938000Y-90170000D01*
X145796000Y-91440000D02*
X140208000Y-91440000D01*
D33*
X139382500Y-90170000D02*
X143256000Y-86296500D01*
X138938000Y-90170000D02*
X139382500Y-90170000D01*
X143256000Y-86296500D02*
X143256000Y-85725000D01*
D34*
X152273000Y-88900000D02*
X152273000Y-88773000D01*
X152273000Y-88773000D02*
X155067000Y-85979000D01*
X162433000Y-84582000D02*
X162433000Y-81280000D01*
X161036000Y-85979000D02*
X162433000Y-84582000D01*
X155067000Y-85979000D02*
X161036000Y-85979000D01*
X138938000Y-90170000D02*
X139065000Y-90170000D01*
X133858000Y-88265000D02*
X133858000Y-89027000D01*
X133858000Y-89027000D02*
X135001000Y-90170000D01*
X135001000Y-90170000D02*
X138938000Y-90170000D01*
X170942000Y-110109000D02*
X160147000Y-110109000D01*
X160147000Y-110109000D02*
X157734000Y-110109000D01*
X157734000Y-110109000D02*
X156083000Y-111760000D01*
X156083000Y-111760000D02*
X156083000Y-115697000D01*
X156083000Y-115697000D02*
X155321000Y-116459000D01*
X155321000Y-116459000D02*
X150495000Y-116459000D01*
X150495000Y-116459000D02*
X149733000Y-115697000D01*
X149733000Y-115697000D02*
X149733000Y-114300000D01*
X164973000Y-81280000D02*
X164973000Y-79727402D01*
X140843000Y-80645000D02*
X140843000Y-81915000D01*
X143030598Y-78457402D02*
X140843000Y-80645000D01*
X163703000Y-78457402D02*
X143030598Y-78457402D01*
X164973000Y-79727402D02*
X163703000Y-78457402D01*
D33*
X118743050Y-99060000D02*
X122394254Y-102711204D01*
X122394254Y-102711204D02*
X129508204Y-102711204D01*
X129508204Y-102711204D02*
X131318000Y-104521000D01*
X144018000Y-95885000D02*
X144653000Y-95885000D01*
X144653000Y-95885000D02*
X145843000Y-97075000D01*
X145843000Y-97075000D02*
X145843000Y-102870000D01*
D34*
X171958000Y-100965000D02*
X170307000Y-100965000D01*
X171958000Y-100965000D02*
X173228000Y-102235000D01*
X173228000Y-102235000D02*
X178308000Y-102235000D01*
X178308000Y-102235000D02*
X178943000Y-101600000D01*
X178943000Y-101600000D02*
X178943000Y-97155000D01*
X177673000Y-95885000D02*
X178943000Y-97155000D01*
X166243000Y-98425000D02*
X164973000Y-99695000D01*
X168529000Y-98425000D02*
X166243000Y-98425000D01*
X169418000Y-99314000D02*
X168529000Y-98425000D01*
X169418000Y-100076000D02*
X169418000Y-99314000D01*
X170307000Y-100965000D02*
X169418000Y-100076000D01*
D33*
X154813000Y-114300000D02*
X154813000Y-111760000D01*
X154813000Y-111760000D02*
X159893000Y-106680000D01*
X123063000Y-99695000D02*
X122999500Y-99631500D01*
X139573000Y-99441000D02*
X139573000Y-98425000D01*
X137922000Y-101092000D02*
X139573000Y-99441000D01*
X124396500Y-101028500D02*
X137922000Y-101092000D01*
X122999500Y-99631500D02*
X124396500Y-101028500D01*
D34*
X177673000Y-95885000D02*
X177038000Y-95885000D01*
D33*
X164973000Y-99695000D02*
X164973000Y-99060000D01*
X164973000Y-99060000D02*
X163703000Y-97917000D01*
X145843000Y-101045000D02*
X145843000Y-102870000D01*
X149098000Y-97917000D02*
X145843000Y-101045000D01*
X163703000Y-97917000D02*
X149098000Y-97917000D01*
D34*
X152273000Y-92075000D02*
X152273000Y-91821000D01*
X152273000Y-91821000D02*
X153289000Y-90805000D01*
X153289000Y-90805000D02*
X168529000Y-90805000D01*
X168529000Y-90805000D02*
X170688000Y-92964000D01*
X170688000Y-92964000D02*
X170688000Y-94060000D01*
X130683000Y-99695000D02*
X132588000Y-99695000D01*
X132588000Y-99695000D02*
X133858000Y-98425000D01*
X130683000Y-86995000D02*
X131191000Y-86995000D01*
X131191000Y-86995000D02*
X132461000Y-85725000D01*
X132461000Y-85725000D02*
X135509000Y-85725000D01*
X135509000Y-85725000D02*
X136398000Y-84836000D01*
X136398000Y-84836000D02*
X136398000Y-83185000D01*
X130683000Y-89535000D02*
X131064000Y-89535000D01*
X131064000Y-89535000D02*
X132207000Y-88392000D01*
X132207000Y-88392000D02*
X132207000Y-87249000D01*
X132207000Y-87249000D02*
X132842000Y-86614000D01*
X132842000Y-86614000D02*
X135763000Y-86614000D01*
X135763000Y-86614000D02*
X136398000Y-87249000D01*
X136398000Y-87249000D02*
X136398000Y-88265000D01*
D33*
X114173000Y-99060000D02*
X114173000Y-98425000D01*
X114173000Y-98425000D02*
X116252602Y-96345398D01*
X121332602Y-96345398D02*
X123063000Y-94615000D01*
X116252602Y-96345398D02*
X121332602Y-96345398D01*
D34*
X154813000Y-88900000D02*
X155067000Y-88900000D01*
X155067000Y-88900000D02*
X157226000Y-86741000D01*
X157226000Y-86741000D02*
X169164000Y-86741000D01*
X169164000Y-86741000D02*
X171958000Y-83947000D01*
X171958000Y-83947000D02*
X171958000Y-75565000D01*
X172593000Y-108458000D02*
X172593000Y-106680000D01*
X172085000Y-108966000D02*
X172593000Y-108458000D01*
X160274000Y-108966000D02*
X172085000Y-108966000D01*
X160020000Y-108712000D02*
X160274000Y-108966000D01*
X149733000Y-81280000D02*
X149733000Y-80391000D01*
X138176000Y-85725000D02*
X138176000Y-86487000D01*
X139573000Y-84328000D02*
X138176000Y-85725000D01*
X143891000Y-84328000D02*
X139573000Y-84328000D01*
X145415000Y-82804000D02*
X143891000Y-84328000D01*
X145415000Y-80772000D02*
X145415000Y-82804000D01*
X146304000Y-79883000D02*
X145415000Y-80772000D01*
X149225000Y-79883000D02*
X146304000Y-79883000D01*
X149733000Y-80391000D02*
X149225000Y-79883000D01*
D35*
X154813000Y-81280000D02*
X154813000Y-80264000D01*
X132334000Y-84709000D02*
X131318000Y-85725000D01*
X134620000Y-84709000D02*
X132334000Y-84709000D01*
X135128000Y-84201000D02*
X134620000Y-84709000D01*
X135128000Y-81915000D02*
X135128000Y-84201000D01*
X135636000Y-81407000D02*
X135128000Y-81915000D01*
X137668000Y-81407000D02*
X135636000Y-81407000D01*
X139700000Y-83439000D02*
X137668000Y-81407000D01*
X143764000Y-83439000D02*
X139700000Y-83439000D01*
X144780000Y-82423000D02*
X143764000Y-83439000D01*
X144780000Y-80391000D02*
X144780000Y-82423000D01*
X146050000Y-79121000D02*
X144780000Y-80391000D01*
X153670000Y-79121000D02*
X146050000Y-79121000D01*
X154813000Y-80264000D02*
X153670000Y-79121000D01*
X131318000Y-85725000D02*
X124714000Y-85725000D01*
X124714000Y-85725000D02*
X123444000Y-86995000D01*
X123444000Y-86995000D02*
X122683000Y-86995000D01*
D34*
X170053000Y-88900000D02*
X170053000Y-89789000D01*
X146177000Y-92075000D02*
X147447000Y-90805000D01*
X138557000Y-92075000D02*
X146177000Y-92075000D01*
X137287000Y-90805000D02*
X138557000Y-92075000D01*
X124841000Y-90805000D02*
X137287000Y-90805000D01*
X124841000Y-90805000D02*
X123571000Y-89535000D01*
X147475598Y-90776402D02*
X147447000Y-90805000D01*
X151666598Y-90776402D02*
X147475598Y-90776402D01*
X152244402Y-90198598D02*
X151666598Y-90776402D01*
X169643402Y-90198598D02*
X152244402Y-90198598D01*
X170053000Y-89789000D02*
X169643402Y-90198598D01*
X123063000Y-89535000D02*
X123571000Y-89535000D01*
X137541000Y-77216000D02*
X137033000Y-77216000D01*
X170053000Y-79121000D02*
X168148000Y-77216000D01*
X168148000Y-77216000D02*
X137541000Y-77216000D01*
X170053000Y-81280000D02*
X170053000Y-79121000D01*
X130683000Y-78867000D02*
X130683000Y-81915000D01*
X131572000Y-77978000D02*
X130683000Y-78867000D01*
X136271000Y-77978000D02*
X131572000Y-77978000D01*
X137033000Y-77216000D02*
X136271000Y-77978000D01*
X130933000Y-84455000D02*
X131318000Y-84455000D01*
X131318000Y-84455000D02*
X132334000Y-83439000D01*
X132334000Y-83439000D02*
X132334000Y-79854402D01*
X132334000Y-79854402D02*
X133575402Y-78613000D01*
X133575402Y-78613000D02*
X133575402Y-78584402D01*
X133575402Y-78584402D02*
X133575402Y-78613000D01*
X138303000Y-77851000D02*
X137414000Y-77851000D01*
X167513000Y-78740000D02*
X166624000Y-77851000D01*
X166624000Y-77851000D02*
X138303000Y-77851000D01*
X167513000Y-81280000D02*
X167513000Y-78740000D01*
X136652000Y-78613000D02*
X133575402Y-78613000D01*
X137414000Y-77851000D02*
X136652000Y-78613000D01*
X131191000Y-98425000D02*
X131699000Y-98425000D01*
X123317000Y-97155000D02*
X124587000Y-98425000D01*
X124587000Y-98425000D02*
X131191000Y-98425000D01*
X133604000Y-96520000D02*
X133350000Y-96520000D01*
X131699000Y-98425000D02*
X133604000Y-96520000D01*
X144399000Y-103505000D02*
X141986000Y-101092000D01*
X141986000Y-101092000D02*
X141986000Y-97917000D01*
X141986000Y-97917000D02*
X140589000Y-96520000D01*
X140589000Y-96520000D02*
X133350000Y-96520000D01*
X144399000Y-103505000D02*
X145288000Y-104394000D01*
X145288000Y-104394000D02*
X146685000Y-104394000D01*
X146685000Y-104394000D02*
X147701000Y-103378000D01*
X147701000Y-103378000D02*
X147701000Y-101727000D01*
X149733000Y-99695000D02*
X147701000Y-101727000D01*
X123063000Y-97155000D02*
X123317000Y-97155000D01*
X154940000Y-84963000D02*
X154813000Y-84836000D01*
X154813000Y-84836000D02*
X149098000Y-84836000D01*
X149098000Y-84836000D02*
X147193000Y-86741000D01*
X147193000Y-86741000D02*
X147193000Y-88900000D01*
X161925000Y-96774000D02*
X161490002Y-97208998D01*
X161490002Y-97208998D02*
X149913998Y-97208998D01*
X149913998Y-97208998D02*
X149479000Y-96774000D01*
D33*
X116713000Y-99060000D02*
X116713000Y-98171000D01*
X122729602Y-101901602D02*
X139874602Y-101901602D01*
X139874602Y-101901602D02*
X140843000Y-102870000D01*
X121285000Y-100457000D02*
X122729602Y-101901602D01*
X121285000Y-98171000D02*
X121285000Y-100457000D01*
X120396000Y-97282000D02*
X121285000Y-98171000D01*
X117602000Y-97282000D02*
X120396000Y-97282000D01*
X116713000Y-98171000D02*
X117602000Y-97282000D01*
D34*
X118618000Y-86995000D02*
X118618000Y-85725000D01*
X119888000Y-84455000D02*
X123063000Y-84455000D01*
X118618000Y-85725000D02*
X119888000Y-84455000D01*
X116618000Y-86995000D02*
X116618000Y-84550000D01*
X119253000Y-81915000D02*
X123063000Y-81915000D01*
X116618000Y-84550000D02*
X119253000Y-81915000D01*
X174752000Y-104267000D02*
X176784000Y-104267000D01*
X176784000Y-104267000D02*
X177800000Y-103251000D01*
X173863000Y-109855000D02*
X173863000Y-105156000D01*
X173863000Y-105156000D02*
X174752000Y-104267000D01*
X147193000Y-114300000D02*
X147193000Y-113284000D01*
X171196000Y-112522000D02*
X173863000Y-109855000D01*
X158750000Y-112522000D02*
X166370000Y-112522000D01*
X166370000Y-112522000D02*
X169799000Y-112522000D01*
X169799000Y-112522000D02*
X170815000Y-112522000D01*
X170815000Y-112522000D02*
X171196000Y-112522000D01*
X147955000Y-112522000D02*
X153670000Y-112522000D01*
X147193000Y-113284000D02*
X147955000Y-112522000D01*
X147193000Y-114300000D02*
X147193000Y-113792000D01*
D37*
G36*
X179053000Y-117250375D02*
X178445776Y-116642090D01*
X177533866Y-116263432D01*
X176546466Y-116262570D01*
X175633897Y-116639636D01*
X174935090Y-117337224D01*
X174556432Y-118249134D01*
X174555570Y-119236534D01*
X174932636Y-120149103D01*
X175630224Y-120847910D01*
X176542134Y-121226568D01*
X177529534Y-121227430D01*
X178442103Y-120850364D01*
X179053000Y-120240533D01*
X179053000Y-121067538D01*
X176666769Y-123453769D01*
X176552963Y-123624091D01*
X176513000Y-123825000D01*
X176513000Y-125840000D01*
X156405448Y-125840000D01*
X156977306Y-125268142D01*
X157220693Y-125219729D01*
X157646855Y-124934976D01*
X157931608Y-124508814D01*
X158031600Y-124006121D01*
X158031600Y-123643879D01*
X160484400Y-123643879D01*
X160484400Y-124006121D01*
X160584392Y-124508814D01*
X160869145Y-124934976D01*
X161295307Y-125219729D01*
X161798000Y-125319721D01*
X162300693Y-125219729D01*
X162726855Y-124934976D01*
X163011608Y-124508814D01*
X163068000Y-124225313D01*
X163124392Y-124508814D01*
X163409145Y-124934976D01*
X163835307Y-125219729D01*
X164338000Y-125319721D01*
X164840693Y-125219729D01*
X165266855Y-124934976D01*
X165551608Y-124508814D01*
X165608000Y-124225313D01*
X165664392Y-124508814D01*
X165949145Y-124934976D01*
X166375307Y-125219729D01*
X166878000Y-125319721D01*
X167380693Y-125219729D01*
X167806855Y-124934976D01*
X168091608Y-124508814D01*
X168148000Y-124225313D01*
X168204392Y-124508814D01*
X168489145Y-124934976D01*
X168915307Y-125219729D01*
X169418000Y-125319721D01*
X169920693Y-125219729D01*
X170346855Y-124934976D01*
X170631608Y-124508814D01*
X170688000Y-124225313D01*
X170744392Y-124508814D01*
X171029145Y-124934976D01*
X171455307Y-125219729D01*
X171958000Y-125319721D01*
X172460693Y-125219729D01*
X172886855Y-124934976D01*
X173171608Y-124508814D01*
X173228000Y-124225313D01*
X173284392Y-124508814D01*
X173569145Y-124934976D01*
X173995307Y-125219729D01*
X174498000Y-125319721D01*
X175000693Y-125219729D01*
X175426855Y-124934976D01*
X175711608Y-124508814D01*
X175811600Y-124006121D01*
X175811600Y-123643879D01*
X175711608Y-123141186D01*
X175426855Y-122715024D01*
X175000693Y-122430271D01*
X174498000Y-122330279D01*
X173995307Y-122430271D01*
X173569145Y-122715024D01*
X173284392Y-123141186D01*
X173228000Y-123424687D01*
X173171608Y-123141186D01*
X172886855Y-122715024D01*
X172460693Y-122430271D01*
X171958000Y-122330279D01*
X171455307Y-122430271D01*
X171029145Y-122715024D01*
X170744392Y-123141186D01*
X170688000Y-123424687D01*
X170631608Y-123141186D01*
X170346855Y-122715024D01*
X169920693Y-122430271D01*
X169418000Y-122330279D01*
X168915307Y-122430271D01*
X168489145Y-122715024D01*
X168204392Y-123141186D01*
X168148000Y-123424687D01*
X168091608Y-123141186D01*
X167806855Y-122715024D01*
X167380693Y-122430271D01*
X166878000Y-122330279D01*
X166375307Y-122430271D01*
X165949145Y-122715024D01*
X165664392Y-123141186D01*
X165608000Y-123424687D01*
X165551608Y-123141186D01*
X165266855Y-122715024D01*
X164840693Y-122430271D01*
X164338000Y-122330279D01*
X163835307Y-122430271D01*
X163409145Y-122715024D01*
X163124392Y-123141186D01*
X163068000Y-123424687D01*
X163011608Y-123141186D01*
X162726855Y-122715024D01*
X162300693Y-122430271D01*
X161798000Y-122330279D01*
X161295307Y-122430271D01*
X160869145Y-122715024D01*
X160584392Y-123141186D01*
X160484400Y-123643879D01*
X158031600Y-123643879D01*
X157931608Y-123141186D01*
X157646855Y-122715024D01*
X157220693Y-122430271D01*
X156718000Y-122330279D01*
X156215307Y-122430271D01*
X155789145Y-122715024D01*
X155514588Y-123125926D01*
X155431838Y-122902371D01*
X155041641Y-122481178D01*
X154559049Y-122251189D01*
X154332000Y-122362017D01*
X154332000Y-123671000D01*
X154352000Y-123671000D01*
X154352000Y-123979000D01*
X154332000Y-123979000D01*
X154332000Y-123999000D01*
X154024000Y-123999000D01*
X154024000Y-123979000D01*
X151792000Y-123979000D01*
X151792000Y-123999000D01*
X151484000Y-123999000D01*
X151484000Y-123979000D01*
X151464000Y-123979000D01*
X151464000Y-123671000D01*
X151484000Y-123671000D01*
X151484000Y-122362017D01*
X151792000Y-122362017D01*
X151792000Y-123671000D01*
X154024000Y-123671000D01*
X154024000Y-122362017D01*
X153796951Y-122251189D01*
X153314359Y-122481178D01*
X152924162Y-122902371D01*
X152908000Y-122946034D01*
X152891838Y-122902371D01*
X152501641Y-122481178D01*
X152019049Y-122251189D01*
X151792000Y-122362017D01*
X151484000Y-122362017D01*
X151256951Y-122251189D01*
X150774359Y-122481178D01*
X150384162Y-122902371D01*
X150301412Y-123125926D01*
X150026855Y-122715024D01*
X149600693Y-122430271D01*
X149098000Y-122330279D01*
X148595307Y-122430271D01*
X148169145Y-122715024D01*
X147884392Y-123141186D01*
X147828000Y-123424687D01*
X147771608Y-123141186D01*
X147486855Y-122715024D01*
X147060693Y-122430271D01*
X146558000Y-122330279D01*
X146055307Y-122430271D01*
X145629145Y-122715024D01*
X145344392Y-123141186D01*
X145288000Y-123424687D01*
X145231608Y-123141186D01*
X144946855Y-122715024D01*
X144847876Y-122648888D01*
X145685564Y-121811200D01*
X172212000Y-121811200D01*
X172461969Y-121761478D01*
X172673882Y-121619882D01*
X174324882Y-119968882D01*
X174466478Y-119756969D01*
X174516200Y-119507000D01*
X174516200Y-115386831D01*
X174654646Y-115479338D01*
X175133000Y-115574489D01*
X175611354Y-115479338D01*
X176016883Y-115208372D01*
X176287849Y-114802843D01*
X176383000Y-114324489D01*
X176383000Y-114275511D01*
X176287849Y-113797157D01*
X176016883Y-113391628D01*
X175611354Y-113120662D01*
X175133000Y-113025511D01*
X175023465Y-113047299D01*
X175594882Y-112475882D01*
X175736478Y-112263969D01*
X175786200Y-112014000D01*
X175786200Y-107938816D01*
X175933000Y-107938816D01*
X176099760Y-107907438D01*
X176252919Y-107808883D01*
X176355668Y-107658505D01*
X176391816Y-107480000D01*
X176391816Y-105880000D01*
X176360438Y-105713240D01*
X176261883Y-105560081D01*
X176111505Y-105457332D01*
X175933000Y-105421184D01*
X174521580Y-105421184D01*
X175022564Y-104920200D01*
X176784000Y-104920200D01*
X177033969Y-104870478D01*
X177245882Y-104728882D01*
X177991311Y-103983453D01*
X178224286Y-103887189D01*
X178435448Y-103676395D01*
X178549869Y-103400839D01*
X178550130Y-103102470D01*
X178449930Y-102859968D01*
X178557969Y-102838478D01*
X178769882Y-102696882D01*
X179053000Y-102413764D01*
X179053000Y-117250375D01*
X179053000Y-117250375D01*
G37*
X179053000Y-117250375D02*
X178445776Y-116642090D01*
X177533866Y-116263432D01*
X176546466Y-116262570D01*
X175633897Y-116639636D01*
X174935090Y-117337224D01*
X174556432Y-118249134D01*
X174555570Y-119236534D01*
X174932636Y-120149103D01*
X175630224Y-120847910D01*
X176542134Y-121226568D01*
X177529534Y-121227430D01*
X178442103Y-120850364D01*
X179053000Y-120240533D01*
X179053000Y-121067538D01*
X176666769Y-123453769D01*
X176552963Y-123624091D01*
X176513000Y-123825000D01*
X176513000Y-125840000D01*
X156405448Y-125840000D01*
X156977306Y-125268142D01*
X157220693Y-125219729D01*
X157646855Y-124934976D01*
X157931608Y-124508814D01*
X158031600Y-124006121D01*
X158031600Y-123643879D01*
X160484400Y-123643879D01*
X160484400Y-124006121D01*
X160584392Y-124508814D01*
X160869145Y-124934976D01*
X161295307Y-125219729D01*
X161798000Y-125319721D01*
X162300693Y-125219729D01*
X162726855Y-124934976D01*
X163011608Y-124508814D01*
X163068000Y-124225313D01*
X163124392Y-124508814D01*
X163409145Y-124934976D01*
X163835307Y-125219729D01*
X164338000Y-125319721D01*
X164840693Y-125219729D01*
X165266855Y-124934976D01*
X165551608Y-124508814D01*
X165608000Y-124225313D01*
X165664392Y-124508814D01*
X165949145Y-124934976D01*
X166375307Y-125219729D01*
X166878000Y-125319721D01*
X167380693Y-125219729D01*
X167806855Y-124934976D01*
X168091608Y-124508814D01*
X168148000Y-124225313D01*
X168204392Y-124508814D01*
X168489145Y-124934976D01*
X168915307Y-125219729D01*
X169418000Y-125319721D01*
X169920693Y-125219729D01*
X170346855Y-124934976D01*
X170631608Y-124508814D01*
X170688000Y-124225313D01*
X170744392Y-124508814D01*
X171029145Y-124934976D01*
X171455307Y-125219729D01*
X171958000Y-125319721D01*
X172460693Y-125219729D01*
X172886855Y-124934976D01*
X173171608Y-124508814D01*
X173228000Y-124225313D01*
X173284392Y-124508814D01*
X173569145Y-124934976D01*
X173995307Y-125219729D01*
X174498000Y-125319721D01*
X175000693Y-125219729D01*
X175426855Y-124934976D01*
X175711608Y-124508814D01*
X175811600Y-124006121D01*
X175811600Y-123643879D01*
X175711608Y-123141186D01*
X175426855Y-122715024D01*
X175000693Y-122430271D01*
X174498000Y-122330279D01*
X173995307Y-122430271D01*
X173569145Y-122715024D01*
X173284392Y-123141186D01*
X173228000Y-123424687D01*
X173171608Y-123141186D01*
X172886855Y-122715024D01*
X172460693Y-122430271D01*
X171958000Y-122330279D01*
X171455307Y-122430271D01*
X171029145Y-122715024D01*
X170744392Y-123141186D01*
X170688000Y-123424687D01*
X170631608Y-123141186D01*
X170346855Y-122715024D01*
X169920693Y-122430271D01*
X169418000Y-122330279D01*
X168915307Y-122430271D01*
X168489145Y-122715024D01*
X168204392Y-123141186D01*
X168148000Y-123424687D01*
X168091608Y-123141186D01*
X167806855Y-122715024D01*
X167380693Y-122430271D01*
X166878000Y-122330279D01*
X166375307Y-122430271D01*
X165949145Y-122715024D01*
X165664392Y-123141186D01*
X165608000Y-123424687D01*
X165551608Y-123141186D01*
X165266855Y-122715024D01*
X164840693Y-122430271D01*
X164338000Y-122330279D01*
X163835307Y-122430271D01*
X163409145Y-122715024D01*
X163124392Y-123141186D01*
X163068000Y-123424687D01*
X163011608Y-123141186D01*
X162726855Y-122715024D01*
X162300693Y-122430271D01*
X161798000Y-122330279D01*
X161295307Y-122430271D01*
X160869145Y-122715024D01*
X160584392Y-123141186D01*
X160484400Y-123643879D01*
X158031600Y-123643879D01*
X157931608Y-123141186D01*
X157646855Y-122715024D01*
X157220693Y-122430271D01*
X156718000Y-122330279D01*
X156215307Y-122430271D01*
X155789145Y-122715024D01*
X155514588Y-123125926D01*
X155431838Y-122902371D01*
X155041641Y-122481178D01*
X154559049Y-122251189D01*
X154332000Y-122362017D01*
X154332000Y-123671000D01*
X154352000Y-123671000D01*
X154352000Y-123979000D01*
X154332000Y-123979000D01*
X154332000Y-123999000D01*
X154024000Y-123999000D01*
X154024000Y-123979000D01*
X151792000Y-123979000D01*
X151792000Y-123999000D01*
X151484000Y-123999000D01*
X151484000Y-123979000D01*
X151464000Y-123979000D01*
X151464000Y-123671000D01*
X151484000Y-123671000D01*
X151484000Y-122362017D01*
X151792000Y-122362017D01*
X151792000Y-123671000D01*
X154024000Y-123671000D01*
X154024000Y-122362017D01*
X153796951Y-122251189D01*
X153314359Y-122481178D01*
X152924162Y-122902371D01*
X152908000Y-122946034D01*
X152891838Y-122902371D01*
X152501641Y-122481178D01*
X152019049Y-122251189D01*
X151792000Y-122362017D01*
X151484000Y-122362017D01*
X151256951Y-122251189D01*
X150774359Y-122481178D01*
X150384162Y-122902371D01*
X150301412Y-123125926D01*
X150026855Y-122715024D01*
X149600693Y-122430271D01*
X149098000Y-122330279D01*
X148595307Y-122430271D01*
X148169145Y-122715024D01*
X147884392Y-123141186D01*
X147828000Y-123424687D01*
X147771608Y-123141186D01*
X147486855Y-122715024D01*
X147060693Y-122430271D01*
X146558000Y-122330279D01*
X146055307Y-122430271D01*
X145629145Y-122715024D01*
X145344392Y-123141186D01*
X145288000Y-123424687D01*
X145231608Y-123141186D01*
X144946855Y-122715024D01*
X144847876Y-122648888D01*
X145685564Y-121811200D01*
X172212000Y-121811200D01*
X172461969Y-121761478D01*
X172673882Y-121619882D01*
X174324882Y-119968882D01*
X174466478Y-119756969D01*
X174516200Y-119507000D01*
X174516200Y-115386831D01*
X174654646Y-115479338D01*
X175133000Y-115574489D01*
X175611354Y-115479338D01*
X176016883Y-115208372D01*
X176287849Y-114802843D01*
X176383000Y-114324489D01*
X176383000Y-114275511D01*
X176287849Y-113797157D01*
X176016883Y-113391628D01*
X175611354Y-113120662D01*
X175133000Y-113025511D01*
X175023465Y-113047299D01*
X175594882Y-112475882D01*
X175736478Y-112263969D01*
X175786200Y-112014000D01*
X175786200Y-107938816D01*
X175933000Y-107938816D01*
X176099760Y-107907438D01*
X176252919Y-107808883D01*
X176355668Y-107658505D01*
X176391816Y-107480000D01*
X176391816Y-105880000D01*
X176360438Y-105713240D01*
X176261883Y-105560081D01*
X176111505Y-105457332D01*
X175933000Y-105421184D01*
X174521580Y-105421184D01*
X175022564Y-104920200D01*
X176784000Y-104920200D01*
X177033969Y-104870478D01*
X177245882Y-104728882D01*
X177991311Y-103983453D01*
X178224286Y-103887189D01*
X178435448Y-103676395D01*
X178549869Y-103400839D01*
X178550130Y-103102470D01*
X178449930Y-102859968D01*
X178557969Y-102838478D01*
X178769882Y-102696882D01*
X179053000Y-102413764D01*
X179053000Y-117250375D01*
G36*
X112567714Y-73645033D02*
X112159467Y-74052569D01*
X111938252Y-74585312D01*
X111937749Y-75162157D01*
X112158033Y-75695286D01*
X112565569Y-76103533D01*
X113098312Y-76324748D01*
X113675157Y-76325251D01*
X114208286Y-76104967D01*
X114616533Y-75697431D01*
X114644616Y-75629800D01*
X118630975Y-75629800D01*
X118658033Y-75695286D01*
X119065569Y-76103533D01*
X119598312Y-76324748D01*
X120175157Y-76325251D01*
X120708286Y-76104967D01*
X121116533Y-75697431D01*
X121337748Y-75164688D01*
X121338251Y-74587843D01*
X121117967Y-74054714D01*
X120710431Y-73646467D01*
X120478113Y-73550000D01*
X124743375Y-73550000D01*
X124135090Y-74157224D01*
X123756432Y-75069134D01*
X123755570Y-76056534D01*
X124132636Y-76969103D01*
X124830224Y-77667910D01*
X125742134Y-78046568D01*
X126729534Y-78047430D01*
X127642103Y-77670364D01*
X128340910Y-76972776D01*
X128618095Y-76305240D01*
X128865145Y-76674976D01*
X129291307Y-76959729D01*
X129794000Y-77059721D01*
X130296693Y-76959729D01*
X130722855Y-76674976D01*
X131007608Y-76248814D01*
X131064000Y-75965313D01*
X131120392Y-76248814D01*
X131405145Y-76674976D01*
X131831307Y-76959729D01*
X132334000Y-77059721D01*
X132836693Y-76959729D01*
X133262855Y-76674976D01*
X133547608Y-76248814D01*
X133604000Y-75965313D01*
X133660392Y-76248814D01*
X133945145Y-76674976D01*
X134371307Y-76959729D01*
X134874000Y-77059721D01*
X135376693Y-76959729D01*
X135802855Y-76674976D01*
X136077412Y-76264074D01*
X136160162Y-76487629D01*
X136485945Y-76839291D01*
X136000436Y-77324800D01*
X131572000Y-77324800D01*
X131322031Y-77374522D01*
X131110118Y-77516118D01*
X130221118Y-78405118D01*
X130079522Y-78617031D01*
X130029800Y-78867000D01*
X130029800Y-81191697D01*
X129958646Y-81262727D01*
X129783200Y-81685247D01*
X129782801Y-82142746D01*
X129957509Y-82565572D01*
X130280727Y-82889354D01*
X130703247Y-83064800D01*
X131160746Y-83065199D01*
X131583572Y-82890491D01*
X131680800Y-82793432D01*
X131680800Y-83168436D01*
X131432166Y-83417070D01*
X131162753Y-83305200D01*
X130705254Y-83304801D01*
X130282428Y-83479509D01*
X129958646Y-83802727D01*
X129783200Y-84225247D01*
X129782801Y-84682746D01*
X129957509Y-85105572D01*
X129974507Y-85122600D01*
X124714000Y-85122600D01*
X124483472Y-85168455D01*
X124334233Y-85268173D01*
X124288039Y-85299039D01*
X123450693Y-86136385D01*
X123145616Y-85932539D01*
X122705530Y-85845000D01*
X122660470Y-85845000D01*
X122220384Y-85932539D01*
X121847297Y-86181827D01*
X121598009Y-86554914D01*
X121510470Y-86995000D01*
X121598009Y-87435086D01*
X121847297Y-87808173D01*
X122220384Y-88057461D01*
X122660470Y-88145000D01*
X122705530Y-88145000D01*
X123145616Y-88057461D01*
X123518703Y-87808173D01*
X123702796Y-87532658D01*
X123869961Y-87420961D01*
X124963522Y-86327400D01*
X129974000Y-86327400D01*
X129958646Y-86342727D01*
X129783200Y-86765247D01*
X129782801Y-87222746D01*
X129957509Y-87645572D01*
X130280727Y-87969354D01*
X130703247Y-88144800D01*
X131160746Y-88145199D01*
X131553800Y-87982793D01*
X131553800Y-88121436D01*
X131252691Y-88422545D01*
X131162753Y-88385200D01*
X130705254Y-88384801D01*
X130282428Y-88559509D01*
X129958646Y-88882727D01*
X129783200Y-89305247D01*
X129782801Y-89762746D01*
X129943555Y-90151800D01*
X125111564Y-90151800D01*
X124032882Y-89073118D01*
X123820969Y-88931522D01*
X123633961Y-88894324D01*
X123518703Y-88721827D01*
X123145616Y-88472539D01*
X122705530Y-88385000D01*
X122660470Y-88385000D01*
X122220384Y-88472539D01*
X121847297Y-88721827D01*
X121598009Y-89094914D01*
X121510470Y-89535000D01*
X121598009Y-89975086D01*
X121847297Y-90348173D01*
X122220384Y-90597461D01*
X122660470Y-90685000D01*
X122705530Y-90685000D01*
X123145616Y-90597461D01*
X123483758Y-90371522D01*
X124379118Y-91266882D01*
X124591031Y-91408478D01*
X124841000Y-91458200D01*
X130096085Y-91458200D01*
X129978009Y-91634914D01*
X129890470Y-92075000D01*
X129978009Y-92515086D01*
X130227297Y-92888173D01*
X130600384Y-93137461D01*
X131040470Y-93225000D01*
X131085530Y-93225000D01*
X131525616Y-93137461D01*
X131898703Y-92888173D01*
X132147991Y-92515086D01*
X132235530Y-92075000D01*
X132147991Y-91634914D01*
X132029915Y-91458200D01*
X137016436Y-91458200D01*
X137395236Y-91837000D01*
X136704000Y-91837000D01*
X136552000Y-91989000D01*
X136552000Y-93191000D01*
X137754000Y-93191000D01*
X137906000Y-93039000D01*
X137906000Y-92347764D01*
X138095118Y-92536882D01*
X138307031Y-92678478D01*
X138380705Y-92693133D01*
X138327771Y-92710643D01*
X138149185Y-93241548D01*
X138187363Y-93800382D01*
X138327771Y-94139357D01*
X138563031Y-94217180D01*
X139355211Y-93425000D01*
X139341069Y-93410858D01*
X139558858Y-93193069D01*
X139573000Y-93207211D01*
X139587142Y-93193069D01*
X139804931Y-93410858D01*
X139790789Y-93425000D01*
X140582969Y-94217180D01*
X140818229Y-94139357D01*
X140996815Y-93608452D01*
X140958637Y-93049618D01*
X140825501Y-92728200D01*
X142560000Y-92728200D01*
X142560000Y-93039000D01*
X142712000Y-93191000D01*
X143864000Y-93191000D01*
X143864000Y-93171000D01*
X144172000Y-93171000D01*
X144172000Y-93191000D01*
X145324000Y-93191000D01*
X145476000Y-93039000D01*
X145476000Y-92728200D01*
X146177000Y-92728200D01*
X146426969Y-92678478D01*
X146638882Y-92536882D01*
X146729720Y-92446044D01*
X148374757Y-92446044D01*
X148620139Y-92937577D01*
X149034944Y-93297791D01*
X149361958Y-93433231D01*
X149579000Y-93321523D01*
X149579000Y-92229000D01*
X148485435Y-92229000D01*
X148374757Y-92446044D01*
X146729720Y-92446044D01*
X147746162Y-91429602D01*
X148511719Y-91429602D01*
X148374757Y-91703956D01*
X148485435Y-91921000D01*
X149579000Y-91921000D01*
X149579000Y-91901000D01*
X149887000Y-91901000D01*
X149887000Y-91921000D01*
X149907000Y-91921000D01*
X149907000Y-92229000D01*
X149887000Y-92229000D01*
X149887000Y-93321523D01*
X150104042Y-93433231D01*
X150431056Y-93297791D01*
X150845861Y-92937577D01*
X151091243Y-92446044D01*
X150980566Y-92229002D01*
X151048762Y-92229002D01*
X151118151Y-92577843D01*
X151389117Y-92983372D01*
X151794646Y-93254338D01*
X152273000Y-93349489D01*
X152751354Y-93254338D01*
X153156883Y-92983372D01*
X153427849Y-92577843D01*
X153523000Y-92099489D01*
X153523000Y-92050511D01*
X153430795Y-91586969D01*
X153559564Y-91458200D01*
X153734295Y-91458200D01*
X153658151Y-91572157D01*
X153563000Y-92050511D01*
X153563000Y-92099489D01*
X153658151Y-92577843D01*
X153929117Y-92983372D01*
X154334646Y-93254338D01*
X154813000Y-93349489D01*
X155291354Y-93254338D01*
X155696883Y-92983372D01*
X155967849Y-92577843D01*
X156037238Y-92229002D01*
X156105434Y-92229002D01*
X155994757Y-92446044D01*
X156240139Y-92937577D01*
X156654944Y-93297791D01*
X156981958Y-93433231D01*
X157199000Y-93321523D01*
X157199000Y-92229000D01*
X157179000Y-92229000D01*
X157179000Y-91921000D01*
X157199000Y-91921000D01*
X157199000Y-91901000D01*
X157507000Y-91901000D01*
X157507000Y-91921000D01*
X157527000Y-91921000D01*
X157527000Y-92229000D01*
X157507000Y-92229000D01*
X157507000Y-93321523D01*
X157724042Y-93433231D01*
X158051056Y-93297791D01*
X158465861Y-92937577D01*
X158711243Y-92446044D01*
X158600566Y-92229002D01*
X158668762Y-92229002D01*
X158738151Y-92577843D01*
X159009117Y-92983372D01*
X159414646Y-93254338D01*
X159893000Y-93349489D01*
X160371354Y-93254338D01*
X160776883Y-92983372D01*
X161047849Y-92577843D01*
X161143000Y-92099489D01*
X161143000Y-92050511D01*
X161047849Y-91572157D01*
X160971705Y-91458200D01*
X161354295Y-91458200D01*
X161278151Y-91572157D01*
X161183000Y-92050511D01*
X161183000Y-92099489D01*
X161278151Y-92577843D01*
X161549117Y-92983372D01*
X161954646Y-93254338D01*
X162433000Y-93349489D01*
X162911354Y-93254338D01*
X163316883Y-92983372D01*
X163565000Y-92612039D01*
X163565000Y-92995939D01*
X163657563Y-93219405D01*
X163828596Y-93390438D01*
X164052062Y-93483000D01*
X164667000Y-93483000D01*
X164819000Y-93331000D01*
X164819000Y-92229000D01*
X165127000Y-92229000D01*
X165127000Y-93331000D01*
X165279000Y-93483000D01*
X165893938Y-93483000D01*
X166117404Y-93390438D01*
X166288437Y-93219405D01*
X166381000Y-92995939D01*
X166381000Y-92381000D01*
X166229000Y-92229000D01*
X165127000Y-92229000D01*
X164819000Y-92229000D01*
X164799000Y-92229000D01*
X164799000Y-91921000D01*
X164819000Y-91921000D01*
X164819000Y-91901000D01*
X165127000Y-91901000D01*
X165127000Y-91921000D01*
X166229000Y-91921000D01*
X166381000Y-91769000D01*
X166381000Y-91458200D01*
X167315288Y-91458200D01*
X167185539Y-91652384D01*
X167098000Y-92092470D01*
X167098000Y-92137530D01*
X167185539Y-92577616D01*
X167434827Y-92950703D01*
X167594800Y-93057593D01*
X167594800Y-94615000D01*
X167644522Y-94864969D01*
X167786118Y-95076882D01*
X168807152Y-96097916D01*
X168814522Y-96134969D01*
X168956118Y-96346882D01*
X169168031Y-96488478D01*
X169418000Y-96538200D01*
X170640018Y-96538200D01*
X172988700Y-98886882D01*
X173200613Y-99028478D01*
X173364027Y-99060983D01*
X173553292Y-99344239D01*
X173975043Y-99626043D01*
X174321712Y-99695000D01*
X173975043Y-99763957D01*
X173741661Y-99919897D01*
X172419882Y-98598118D01*
X172207969Y-98456522D01*
X171958000Y-98406800D01*
X171770605Y-98406800D01*
X171748316Y-98352857D01*
X171396993Y-98000919D01*
X170937731Y-97810217D01*
X170440450Y-97809783D01*
X169980857Y-97999684D01*
X169628919Y-98351007D01*
X169555525Y-98527761D01*
X168990882Y-97963118D01*
X168778969Y-97821522D01*
X168529000Y-97771800D01*
X166243000Y-97771800D01*
X165993031Y-97821522D01*
X165781118Y-97963118D01*
X165355482Y-98388754D01*
X164207935Y-97355962D01*
X164098093Y-97290646D01*
X163991849Y-97219656D01*
X163972105Y-97215729D01*
X163954799Y-97205438D01*
X163828333Y-97187130D01*
X163703000Y-97162200D01*
X162575893Y-97162200D01*
X162674869Y-96923839D01*
X162675130Y-96625470D01*
X162561189Y-96349714D01*
X162495789Y-96284200D01*
X164819547Y-96284200D01*
X164928605Y-96393448D01*
X165204161Y-96507869D01*
X165502530Y-96508130D01*
X165778286Y-96394189D01*
X165989448Y-96183395D01*
X166103869Y-95907839D01*
X166104130Y-95609470D01*
X165990189Y-95333714D01*
X165798752Y-95141943D01*
X165849869Y-95018839D01*
X165850130Y-94720470D01*
X165736189Y-94444714D01*
X165525395Y-94233552D01*
X165249839Y-94119131D01*
X165124935Y-94119022D01*
X164973000Y-94088800D01*
X150051030Y-94088800D01*
X149988189Y-93936714D01*
X149777395Y-93725552D01*
X149501839Y-93611131D01*
X149203470Y-93610870D01*
X148927714Y-93724811D01*
X148716552Y-93935605D01*
X148602131Y-94211161D01*
X148601870Y-94509530D01*
X148715811Y-94785286D01*
X148926605Y-94996448D01*
X149161023Y-95093787D01*
X149172036Y-95104800D01*
X148209000Y-95104800D01*
X147959031Y-95154522D01*
X147751356Y-95293286D01*
X147747118Y-95296118D01*
X147382689Y-95660547D01*
X147149714Y-95756811D01*
X146938552Y-95967605D01*
X146824131Y-96243161D01*
X146823870Y-96541530D01*
X146937811Y-96817286D01*
X147148605Y-97028448D01*
X147424161Y-97142869D01*
X147722530Y-97143130D01*
X147998286Y-97029189D01*
X148209448Y-96818395D01*
X148306787Y-96583977D01*
X148479564Y-96411200D01*
X148817560Y-96411200D01*
X148729131Y-96624161D01*
X148728870Y-96922530D01*
X148842811Y-97198286D01*
X148853187Y-97208680D01*
X148823080Y-97214048D01*
X148816644Y-97218166D01*
X148809151Y-97219656D01*
X148692844Y-97297369D01*
X148574999Y-97372764D01*
X146597800Y-99272819D01*
X146597800Y-97075000D01*
X146566372Y-96917000D01*
X146540344Y-96786150D01*
X146376724Y-96541276D01*
X145262383Y-95426935D01*
X145141935Y-95135428D01*
X144810086Y-94803000D01*
X144988939Y-94803000D01*
X145212405Y-94710437D01*
X145383438Y-94539404D01*
X145476000Y-94315938D01*
X145476000Y-93651000D01*
X145324000Y-93499000D01*
X144172000Y-93499000D01*
X144172000Y-93519000D01*
X143864000Y-93519000D01*
X143864000Y-93499000D01*
X142712000Y-93499000D01*
X142560000Y-93651000D01*
X142560000Y-94315938D01*
X142652562Y-94539404D01*
X142823595Y-94710437D01*
X143047061Y-94803000D01*
X143226420Y-94803000D01*
X142895375Y-95133468D01*
X142693231Y-95620285D01*
X142692771Y-96147402D01*
X142894065Y-96634572D01*
X143266468Y-97007625D01*
X143621659Y-97155113D01*
X143268428Y-97301065D01*
X142895375Y-97673468D01*
X142693231Y-98160285D01*
X142692771Y-98687402D01*
X142894065Y-99174572D01*
X143266468Y-99547625D01*
X143753285Y-99749769D01*
X144280402Y-99750229D01*
X144767572Y-99548935D01*
X145088200Y-99228866D01*
X145088200Y-101857258D01*
X144783919Y-102161007D01*
X144593217Y-102620269D01*
X144593082Y-102775318D01*
X142639200Y-100821436D01*
X142639200Y-97917000D01*
X142589478Y-97667031D01*
X142447882Y-97455118D01*
X141050882Y-96058118D01*
X140838969Y-95916522D01*
X140589000Y-95866800D01*
X133350000Y-95866800D01*
X133100031Y-95916522D01*
X132888118Y-96058118D01*
X132746522Y-96270031D01*
X132700913Y-96499323D01*
X132203958Y-96996278D01*
X132147991Y-96714914D01*
X131898703Y-96341827D01*
X131525616Y-96092539D01*
X131085530Y-96005000D01*
X131040470Y-96005000D01*
X130600384Y-96092539D01*
X130227297Y-96341827D01*
X129978009Y-96714914D01*
X129890470Y-97155000D01*
X129978009Y-97595086D01*
X130096085Y-97771800D01*
X124857564Y-97771800D01*
X123928120Y-96842356D01*
X123788491Y-96504428D01*
X123465273Y-96180646D01*
X123042753Y-96005200D01*
X122740512Y-96004936D01*
X122980302Y-95765146D01*
X123040746Y-95765199D01*
X123463572Y-95590491D01*
X123787354Y-95267273D01*
X123962800Y-94844753D01*
X123963000Y-94615000D01*
X129890470Y-94615000D01*
X129978009Y-95055086D01*
X130227297Y-95428173D01*
X130600384Y-95677461D01*
X131040470Y-95765000D01*
X131085530Y-95765000D01*
X131525616Y-95677461D01*
X131898703Y-95428173D01*
X132147991Y-95055086D01*
X132235530Y-94615000D01*
X132147991Y-94174914D01*
X131898703Y-93801827D01*
X131615135Y-93612353D01*
X132507766Y-93612353D01*
X132712858Y-94108715D01*
X133092288Y-94488807D01*
X133588290Y-94694765D01*
X134125353Y-94695234D01*
X134621715Y-94490142D01*
X134890000Y-94222324D01*
X134890000Y-94365938D01*
X134982562Y-94589404D01*
X135153595Y-94760437D01*
X135377061Y-94853000D01*
X136092000Y-94853000D01*
X136244000Y-94701000D01*
X136244000Y-93499000D01*
X136552000Y-93499000D01*
X136552000Y-94701000D01*
X136704000Y-94853000D01*
X137418939Y-94853000D01*
X137642405Y-94760437D01*
X137813438Y-94589404D01*
X137877406Y-94434969D01*
X138780820Y-94434969D01*
X138858643Y-94670229D01*
X139389548Y-94848815D01*
X139948382Y-94810637D01*
X140287357Y-94670229D01*
X140365180Y-94434969D01*
X139573000Y-93642789D01*
X138780820Y-94434969D01*
X137877406Y-94434969D01*
X137906000Y-94365938D01*
X137906000Y-93651000D01*
X137754000Y-93499000D01*
X136552000Y-93499000D01*
X136244000Y-93499000D01*
X136224000Y-93499000D01*
X136224000Y-93191000D01*
X136244000Y-93191000D01*
X136244000Y-91989000D01*
X136092000Y-91837000D01*
X135377061Y-91837000D01*
X135153595Y-91929563D01*
X134982562Y-92100596D01*
X134890000Y-92324062D01*
X134890000Y-92467946D01*
X134623712Y-92201193D01*
X134127710Y-91995235D01*
X133590647Y-91994766D01*
X133094285Y-92199858D01*
X132714193Y-92579288D01*
X132508235Y-93075290D01*
X132507766Y-93612353D01*
X131615135Y-93612353D01*
X131525616Y-93552539D01*
X131085530Y-93465000D01*
X131040470Y-93465000D01*
X130600384Y-93552539D01*
X130227297Y-93801827D01*
X129978009Y-94174914D01*
X129890470Y-94615000D01*
X123963000Y-94615000D01*
X123963199Y-94387254D01*
X123788491Y-93964428D01*
X123465273Y-93640646D01*
X123042753Y-93465200D01*
X122585254Y-93464801D01*
X122162428Y-93639509D01*
X121838646Y-93962727D01*
X121663200Y-94385247D01*
X121662801Y-94842746D01*
X121693503Y-94917049D01*
X121019954Y-95590598D01*
X116252602Y-95590598D01*
X116049489Y-95631000D01*
X115963752Y-95648054D01*
X115718878Y-95811674D01*
X113702415Y-97828137D01*
X113675512Y-97833488D01*
X113253761Y-98115292D01*
X112971957Y-98537043D01*
X112873000Y-99034531D01*
X112873000Y-99085469D01*
X112971957Y-99582957D01*
X113253761Y-100004708D01*
X113675512Y-100286512D01*
X114173000Y-100385469D01*
X114670488Y-100286512D01*
X115092239Y-100004708D01*
X115374043Y-99582957D01*
X115443000Y-99236288D01*
X115511957Y-99582957D01*
X115793761Y-100004708D01*
X116215512Y-100286512D01*
X116713000Y-100385469D01*
X117210488Y-100286512D01*
X117632239Y-100004708D01*
X117914043Y-99582957D01*
X117944184Y-99431429D01*
X117944184Y-99910000D01*
X117975562Y-100076760D01*
X118074117Y-100229919D01*
X118224495Y-100332668D01*
X118403000Y-100368816D01*
X118984418Y-100368816D01*
X121860530Y-103244928D01*
X122105404Y-103408548D01*
X122394254Y-103466004D01*
X129195556Y-103466004D01*
X130010490Y-104280938D01*
X129968000Y-104494552D01*
X129968000Y-104547448D01*
X130070763Y-105064071D01*
X130363406Y-105502042D01*
X130674376Y-105709826D01*
X130560836Y-105756852D01*
X130119396Y-106145878D01*
X129860432Y-106674224D01*
X129969872Y-106907000D01*
X131164000Y-106907000D01*
X131164000Y-106887000D01*
X131472000Y-106887000D01*
X131472000Y-106907000D01*
X132666128Y-106907000D01*
X132775568Y-106674224D01*
X132516604Y-106145878D01*
X132075164Y-105756852D01*
X131961624Y-105709826D01*
X132272594Y-105502042D01*
X132565237Y-105064071D01*
X132668000Y-104547448D01*
X132668000Y-104494552D01*
X132565237Y-103977929D01*
X132272594Y-103539958D01*
X131834623Y-103247315D01*
X131318000Y-103144552D01*
X131060267Y-103195819D01*
X130520850Y-102656402D01*
X139561954Y-102656402D01*
X139593158Y-102687606D01*
X139592783Y-103117550D01*
X139782684Y-103577143D01*
X140134007Y-103929081D01*
X140593269Y-104119783D01*
X141090550Y-104120217D01*
X141550143Y-103930316D01*
X141902081Y-103578993D01*
X142092783Y-103119731D01*
X142093217Y-102622450D01*
X141903316Y-102162857D01*
X141551993Y-101810919D01*
X141092731Y-101620217D01*
X140660288Y-101619840D01*
X140408326Y-101367878D01*
X140163452Y-101204258D01*
X139874602Y-101146802D01*
X138934646Y-101146802D01*
X140106724Y-99974724D01*
X140270344Y-99729849D01*
X140327800Y-99441000D01*
X140327800Y-99437742D01*
X140632081Y-99133993D01*
X140822783Y-98674731D01*
X140823217Y-98177450D01*
X140633316Y-97717857D01*
X140281993Y-97365919D01*
X139822731Y-97175217D01*
X139325450Y-97174783D01*
X138865857Y-97364684D01*
X138513919Y-97716007D01*
X138323217Y-98175269D01*
X138322783Y-98672550D01*
X138512684Y-99132143D01*
X138663415Y-99283137D01*
X137610822Y-100335730D01*
X132765061Y-100312980D01*
X132837969Y-100298478D01*
X133049882Y-100156882D01*
X133477855Y-99728909D01*
X133588290Y-99774765D01*
X134125353Y-99775234D01*
X134621715Y-99570142D01*
X134890000Y-99302324D01*
X134890000Y-99445938D01*
X134982562Y-99669404D01*
X135153595Y-99840437D01*
X135377061Y-99933000D01*
X136092000Y-99933000D01*
X136244000Y-99781000D01*
X136244000Y-98579000D01*
X136552000Y-98579000D01*
X136552000Y-99781000D01*
X136704000Y-99933000D01*
X137418939Y-99933000D01*
X137642405Y-99840437D01*
X137813438Y-99669404D01*
X137906000Y-99445938D01*
X137906000Y-98731000D01*
X137754000Y-98579000D01*
X136552000Y-98579000D01*
X136244000Y-98579000D01*
X136224000Y-98579000D01*
X136224000Y-98271000D01*
X136244000Y-98271000D01*
X136244000Y-98251000D01*
X136552000Y-98251000D01*
X136552000Y-98271000D01*
X137754000Y-98271000D01*
X137906000Y-98119000D01*
X137906000Y-97404062D01*
X137813438Y-97180596D01*
X137806042Y-97173200D01*
X140318436Y-97173200D01*
X141332800Y-98187564D01*
X141332800Y-101092000D01*
X141382522Y-101341969D01*
X141524118Y-101553882D01*
X144826118Y-104855882D01*
X145038031Y-104997478D01*
X145288000Y-105047200D01*
X146685000Y-105047200D01*
X146934969Y-104997478D01*
X147146882Y-104855882D01*
X148162882Y-103839882D01*
X148304478Y-103627969D01*
X148354200Y-103378000D01*
X148354200Y-101997564D01*
X149440464Y-100911300D01*
X149733000Y-100969489D01*
X150211354Y-100874338D01*
X150616883Y-100603372D01*
X150887849Y-100197843D01*
X150983000Y-99719489D01*
X150983000Y-99670511D01*
X150887849Y-99192157D01*
X150616883Y-98786628D01*
X150445031Y-98671800D01*
X151560969Y-98671800D01*
X151389117Y-98786628D01*
X151118151Y-99192157D01*
X151023000Y-99670511D01*
X151023000Y-99719489D01*
X151118151Y-100197843D01*
X151255940Y-100404059D01*
X150594999Y-101064999D01*
X150469922Y-101252192D01*
X150425999Y-101473000D01*
X150426000Y-101473005D01*
X150426000Y-102385139D01*
X149992721Y-102205226D01*
X149475548Y-102204774D01*
X148997571Y-102402271D01*
X148631556Y-102767647D01*
X148433226Y-103245279D01*
X148432774Y-103762452D01*
X148630271Y-104240429D01*
X148995647Y-104606444D01*
X149473279Y-104804774D01*
X149990452Y-104805226D01*
X150426000Y-104625260D01*
X150426000Y-105644084D01*
X150211354Y-105500662D01*
X149733000Y-105405511D01*
X149254646Y-105500662D01*
X148849117Y-105771628D01*
X148578151Y-106177157D01*
X148483000Y-106655511D01*
X148483000Y-106704489D01*
X148578151Y-107182843D01*
X148849117Y-107588372D01*
X149254646Y-107859338D01*
X149733000Y-107954489D01*
X150211354Y-107859338D01*
X150426000Y-107715916D01*
X150426000Y-109117259D01*
X150367552Y-109175605D01*
X150253131Y-109451161D01*
X150252870Y-109749530D01*
X150288930Y-109836800D01*
X147590564Y-109836800D01*
X145420141Y-107666377D01*
X145536883Y-107588372D01*
X145807849Y-107182843D01*
X145903000Y-106704489D01*
X145903000Y-106655511D01*
X145943000Y-106655511D01*
X145943000Y-106704489D01*
X146038151Y-107182843D01*
X146309117Y-107588372D01*
X146714646Y-107859338D01*
X147193000Y-107954489D01*
X147671354Y-107859338D01*
X148076883Y-107588372D01*
X148347849Y-107182843D01*
X148443000Y-106704489D01*
X148443000Y-106655511D01*
X148347849Y-106177157D01*
X148076883Y-105771628D01*
X147671354Y-105500662D01*
X147193000Y-105405511D01*
X146714646Y-105500662D01*
X146309117Y-105771628D01*
X146038151Y-106177157D01*
X145943000Y-106655511D01*
X145903000Y-106655511D01*
X145807849Y-106177157D01*
X145536883Y-105771628D01*
X145131354Y-105500662D01*
X144653000Y-105405511D01*
X144174646Y-105500662D01*
X143769117Y-105771628D01*
X143498151Y-106177157D01*
X143403000Y-106655511D01*
X143403000Y-106704489D01*
X143498151Y-107182843D01*
X143769117Y-107588372D01*
X143999800Y-107742510D01*
X143999800Y-107823000D01*
X144049522Y-108072969D01*
X144191118Y-108284882D01*
X146505036Y-110598800D01*
X146066564Y-110598800D01*
X143020616Y-107552852D01*
X143267849Y-107182843D01*
X143363000Y-106704489D01*
X143363000Y-106655511D01*
X143267849Y-106177157D01*
X142996883Y-105771628D01*
X142591354Y-105500662D01*
X142113000Y-105405511D01*
X141634646Y-105500662D01*
X141229117Y-105771628D01*
X140958151Y-106177157D01*
X140863000Y-106655511D01*
X140863000Y-106704489D01*
X140958151Y-107182843D01*
X141229117Y-107588372D01*
X141499604Y-107769105D01*
X141509522Y-107818969D01*
X141651118Y-108030882D01*
X145334118Y-111713882D01*
X145546031Y-111855478D01*
X145796000Y-111905200D01*
X147772005Y-111905200D01*
X147705031Y-111918522D01*
X147509982Y-112048850D01*
X147493118Y-112060118D01*
X146731118Y-112822118D01*
X146589522Y-113034031D01*
X146550469Y-113230361D01*
X146309117Y-113391628D01*
X146038151Y-113797157D01*
X145943000Y-114275511D01*
X145943000Y-114324489D01*
X146038151Y-114802843D01*
X146309117Y-115208372D01*
X146714646Y-115479338D01*
X147193000Y-115574489D01*
X147671354Y-115479338D01*
X148076883Y-115208372D01*
X148347849Y-114802843D01*
X148443000Y-114324489D01*
X148443000Y-114275511D01*
X148347849Y-113797157D01*
X148076883Y-113391628D01*
X148036272Y-113364492D01*
X148225564Y-113175200D01*
X149173024Y-113175200D01*
X148849117Y-113391628D01*
X148578151Y-113797157D01*
X148483000Y-114275511D01*
X148483000Y-114324489D01*
X148578151Y-114802843D01*
X148849117Y-115208372D01*
X149079800Y-115362510D01*
X149079800Y-115697000D01*
X149129522Y-115946969D01*
X149271118Y-116158882D01*
X150033118Y-116920882D01*
X150245031Y-117062478D01*
X150495000Y-117112200D01*
X155321000Y-117112200D01*
X155570969Y-117062478D01*
X155782882Y-116920882D01*
X156544882Y-116158882D01*
X156652969Y-115997118D01*
X156686478Y-115946969D01*
X156699800Y-115879995D01*
X156699800Y-117585436D01*
X155050436Y-119234800D01*
X140209643Y-119234800D01*
X139976839Y-119138131D01*
X139678470Y-119137870D01*
X139402714Y-119251811D01*
X139191552Y-119462605D01*
X139077131Y-119738161D01*
X139076870Y-120036530D01*
X139190811Y-120312286D01*
X139256211Y-120377800D01*
X134885554Y-120377800D01*
X134875189Y-120352714D01*
X134664395Y-120141552D01*
X134388839Y-120027131D01*
X134090470Y-120026870D01*
X133814714Y-120140811D01*
X133603552Y-120351605D01*
X133489131Y-120627161D01*
X133488870Y-120925530D01*
X133602811Y-121201286D01*
X133813605Y-121412448D01*
X134070200Y-121518996D01*
X134243031Y-121634478D01*
X134493000Y-121684200D01*
X141969436Y-121684200D01*
X143053543Y-122768307D01*
X142804392Y-123141186D01*
X142748000Y-123424687D01*
X142691608Y-123141186D01*
X142406855Y-122715024D01*
X141980693Y-122430271D01*
X141478000Y-122330279D01*
X140975307Y-122430271D01*
X140549145Y-122715024D01*
X140264392Y-123141186D01*
X140208000Y-123424687D01*
X140151608Y-123141186D01*
X139866855Y-122715024D01*
X139440693Y-122430271D01*
X138938000Y-122330279D01*
X138435307Y-122430271D01*
X138009145Y-122715024D01*
X137724392Y-123141186D01*
X137624400Y-123643879D01*
X137624400Y-124006121D01*
X137724392Y-124508814D01*
X138009145Y-124934976D01*
X138069344Y-124975200D01*
X134805649Y-124975200D01*
X134239993Y-124409545D01*
X134266668Y-124370505D01*
X134302816Y-124192000D01*
X134302816Y-122442000D01*
X134271438Y-122275240D01*
X134172883Y-122122081D01*
X134022505Y-122019332D01*
X133844000Y-121983184D01*
X132094000Y-121983184D01*
X131927240Y-122014562D01*
X131774081Y-122113117D01*
X131671332Y-122263495D01*
X131635184Y-122442000D01*
X131635184Y-122506839D01*
X131533413Y-122470376D01*
X130686789Y-123317000D01*
X131533413Y-124163624D01*
X131635184Y-124127161D01*
X131635184Y-124192000D01*
X131666562Y-124358760D01*
X131765117Y-124511919D01*
X131915495Y-124614668D01*
X132094000Y-124650816D01*
X132375869Y-124650816D01*
X132435276Y-124739724D01*
X133535551Y-125840000D01*
X126462625Y-125840000D01*
X127070910Y-125232776D01*
X127424426Y-124381413D01*
X129622376Y-124381413D01*
X129709447Y-124624435D01*
X130267598Y-124815581D01*
X130856411Y-124778581D01*
X131228553Y-124624435D01*
X131315624Y-124381413D01*
X130469000Y-123534789D01*
X129622376Y-124381413D01*
X127424426Y-124381413D01*
X127449568Y-124320866D01*
X127450430Y-123333466D01*
X127360409Y-123115598D01*
X128970419Y-123115598D01*
X129007419Y-123704411D01*
X129161565Y-124076553D01*
X129404587Y-124163624D01*
X130251211Y-123317000D01*
X129404587Y-122470376D01*
X129161565Y-122557447D01*
X128970419Y-123115598D01*
X127360409Y-123115598D01*
X127073364Y-122420897D01*
X126905348Y-122252587D01*
X129622376Y-122252587D01*
X130469000Y-123099211D01*
X131315624Y-122252587D01*
X131228553Y-122009565D01*
X130670402Y-121818419D01*
X130081589Y-121855419D01*
X129709447Y-122009565D01*
X129622376Y-122252587D01*
X126905348Y-122252587D01*
X126375776Y-121722090D01*
X125463866Y-121343432D01*
X124476466Y-121342570D01*
X123563897Y-121719636D01*
X122865090Y-122417224D01*
X122486432Y-123329134D01*
X122485570Y-124316534D01*
X122862636Y-125229103D01*
X123472467Y-125840000D01*
X111523000Y-125840000D01*
X111523000Y-123751000D01*
X115800000Y-123751000D01*
X115800000Y-125315938D01*
X115892562Y-125539404D01*
X116063595Y-125710437D01*
X116287061Y-125803000D01*
X117852000Y-125803000D01*
X118004000Y-125651000D01*
X118004000Y-123599000D01*
X118312000Y-123599000D01*
X118312000Y-125651000D01*
X118464000Y-125803000D01*
X120028939Y-125803000D01*
X120252405Y-125710437D01*
X120423438Y-125539404D01*
X120516000Y-125315938D01*
X120516000Y-123751000D01*
X120364000Y-123599000D01*
X118312000Y-123599000D01*
X118004000Y-123599000D01*
X115952000Y-123599000D01*
X115800000Y-123751000D01*
X111523000Y-123751000D01*
X111523000Y-119051000D01*
X112800000Y-119051000D01*
X112800000Y-120615938D01*
X112892562Y-120839404D01*
X113063595Y-121010437D01*
X113287061Y-121103000D01*
X114852000Y-121103000D01*
X115004000Y-120951000D01*
X115004000Y-118899000D01*
X115312000Y-118899000D01*
X115312000Y-120951000D01*
X115464000Y-121103000D01*
X116248434Y-121103000D01*
X116063595Y-121179563D01*
X115892562Y-121350596D01*
X115800000Y-121574062D01*
X115800000Y-123139000D01*
X115952000Y-123291000D01*
X118004000Y-123291000D01*
X118004000Y-121239000D01*
X118312000Y-121239000D01*
X118312000Y-123291000D01*
X120364000Y-123291000D01*
X120516000Y-123139000D01*
X120516000Y-121574062D01*
X120423438Y-121350596D01*
X120252405Y-121179563D01*
X120028939Y-121087000D01*
X118464000Y-121087000D01*
X118312000Y-121239000D01*
X118004000Y-121239000D01*
X117852000Y-121087000D01*
X117067566Y-121087000D01*
X117252405Y-121010437D01*
X117423438Y-120839404D01*
X117516000Y-120615938D01*
X117516000Y-119051000D01*
X117364000Y-118899000D01*
X115312000Y-118899000D01*
X115004000Y-118899000D01*
X112952000Y-118899000D01*
X112800000Y-119051000D01*
X111523000Y-119051000D01*
X111523000Y-116874062D01*
X112800000Y-116874062D01*
X112800000Y-118439000D01*
X112952000Y-118591000D01*
X115004000Y-118591000D01*
X115004000Y-116539000D01*
X115312000Y-116539000D01*
X115312000Y-118591000D01*
X117364000Y-118591000D01*
X117516000Y-118439000D01*
X117516000Y-116995000D01*
X118949184Y-116995000D01*
X118949184Y-120495000D01*
X118980562Y-120661760D01*
X119079117Y-120814919D01*
X119229495Y-120917668D01*
X119408000Y-120953816D01*
X122908000Y-120953816D01*
X123074760Y-120922438D01*
X123227919Y-120823883D01*
X123330668Y-120673505D01*
X123366816Y-120495000D01*
X123366816Y-118110000D01*
X124022634Y-118110000D01*
X124140621Y-118703159D01*
X124476618Y-119206016D01*
X124979475Y-119542013D01*
X125572634Y-119660000D01*
X125633366Y-119660000D01*
X126226525Y-119542013D01*
X126729382Y-119206016D01*
X127065379Y-118703159D01*
X127183366Y-118110000D01*
X127065379Y-117516841D01*
X126729382Y-117013984D01*
X126723420Y-117010000D01*
X134204184Y-117010000D01*
X134204184Y-119210000D01*
X134235562Y-119376760D01*
X134334117Y-119529919D01*
X134484495Y-119632668D01*
X134663000Y-119668816D01*
X136863000Y-119668816D01*
X137029760Y-119637438D01*
X137182919Y-119538883D01*
X137285668Y-119388505D01*
X137321816Y-119210000D01*
X137321816Y-117010000D01*
X137290438Y-116843240D01*
X137191883Y-116690081D01*
X137041505Y-116587332D01*
X136863000Y-116551184D01*
X134663000Y-116551184D01*
X134496240Y-116582562D01*
X134343081Y-116681117D01*
X134240332Y-116831495D01*
X134204184Y-117010000D01*
X126723420Y-117010000D01*
X126226525Y-116677987D01*
X125633366Y-116560000D01*
X125572634Y-116560000D01*
X124979475Y-116677987D01*
X124476618Y-117013984D01*
X124140621Y-117516841D01*
X124022634Y-118110000D01*
X123366816Y-118110000D01*
X123366816Y-116995000D01*
X123335438Y-116828240D01*
X123236883Y-116675081D01*
X123086505Y-116572332D01*
X122908000Y-116536184D01*
X119408000Y-116536184D01*
X119241240Y-116567562D01*
X119088081Y-116666117D01*
X118985332Y-116816495D01*
X118949184Y-116995000D01*
X117516000Y-116995000D01*
X117516000Y-116874062D01*
X117423438Y-116650596D01*
X117252405Y-116479563D01*
X117028939Y-116387000D01*
X115464000Y-116387000D01*
X115312000Y-116539000D01*
X115004000Y-116539000D01*
X114852000Y-116387000D01*
X113287061Y-116387000D01*
X113063595Y-116479563D01*
X112892562Y-116650596D01*
X112800000Y-116874062D01*
X111523000Y-116874062D01*
X111523000Y-115309969D01*
X134375820Y-115309969D01*
X134453643Y-115545229D01*
X134984548Y-115723815D01*
X135543382Y-115685637D01*
X135882357Y-115545229D01*
X135960180Y-115309969D01*
X135168000Y-114517789D01*
X134375820Y-115309969D01*
X111523000Y-115309969D01*
X111523000Y-114116548D01*
X133744185Y-114116548D01*
X133782363Y-114675382D01*
X133922771Y-115014357D01*
X134158031Y-115092180D01*
X134950211Y-114300000D01*
X135385789Y-114300000D01*
X136177969Y-115092180D01*
X136413229Y-115014357D01*
X136501831Y-114750960D01*
X136607684Y-115007143D01*
X136959007Y-115359081D01*
X137418269Y-115549783D01*
X137915550Y-115550217D01*
X138375143Y-115360316D01*
X138727081Y-115008993D01*
X138917783Y-114549731D01*
X138918022Y-114275511D01*
X140863000Y-114275511D01*
X140863000Y-114324489D01*
X140958151Y-114802843D01*
X141229117Y-115208372D01*
X141634646Y-115479338D01*
X142113000Y-115574489D01*
X142591354Y-115479338D01*
X142996883Y-115208372D01*
X143267849Y-114802843D01*
X143363000Y-114324489D01*
X143363000Y-114275511D01*
X143403000Y-114275511D01*
X143403000Y-114324489D01*
X143498151Y-114802843D01*
X143769117Y-115208372D01*
X144174646Y-115479338D01*
X144653000Y-115574489D01*
X145131354Y-115479338D01*
X145536883Y-115208372D01*
X145807849Y-114802843D01*
X145903000Y-114324489D01*
X145903000Y-114275511D01*
X145807849Y-113797157D01*
X145536883Y-113391628D01*
X145131354Y-113120662D01*
X144653000Y-113025511D01*
X144174646Y-113120662D01*
X143769117Y-113391628D01*
X143498151Y-113797157D01*
X143403000Y-114275511D01*
X143363000Y-114275511D01*
X143267849Y-113797157D01*
X142996883Y-113391628D01*
X142591354Y-113120662D01*
X142113000Y-113025511D01*
X141634646Y-113120662D01*
X141229117Y-113391628D01*
X140958151Y-113797157D01*
X140863000Y-114275511D01*
X138918022Y-114275511D01*
X138918217Y-114052450D01*
X138728316Y-113592857D01*
X138376993Y-113240919D01*
X137917731Y-113050217D01*
X137420450Y-113049783D01*
X136960857Y-113239684D01*
X136608919Y-113591007D01*
X136512066Y-113824256D01*
X136413229Y-113585643D01*
X136177969Y-113507820D01*
X135385789Y-114300000D01*
X134950211Y-114300000D01*
X134158031Y-113507820D01*
X133922771Y-113585643D01*
X133744185Y-114116548D01*
X111523000Y-114116548D01*
X111523000Y-113290031D01*
X134375820Y-113290031D01*
X135168000Y-114082211D01*
X135960180Y-113290031D01*
X135882357Y-113054771D01*
X135351452Y-112876185D01*
X134792618Y-112914363D01*
X134453643Y-113054771D01*
X134375820Y-113290031D01*
X111523000Y-113290031D01*
X111523000Y-107017899D01*
X112458000Y-107017899D01*
X112458000Y-107104101D01*
X112625465Y-107946005D01*
X113102365Y-108659736D01*
X113816096Y-109136636D01*
X114658000Y-109304101D01*
X115499904Y-109136636D01*
X116213635Y-108659736D01*
X116690535Y-107946005D01*
X116789638Y-107447776D01*
X129860432Y-107447776D01*
X130119396Y-107976122D01*
X130421305Y-108242184D01*
X130418000Y-108242184D01*
X130251240Y-108273562D01*
X130098081Y-108372117D01*
X129995332Y-108522495D01*
X129959184Y-108701000D01*
X129959184Y-110501000D01*
X129990562Y-110667760D01*
X130089117Y-110820919D01*
X130239495Y-110923668D01*
X130418000Y-110959816D01*
X132218000Y-110959816D01*
X132384760Y-110928438D01*
X132537919Y-110829883D01*
X132640668Y-110679505D01*
X132676816Y-110501000D01*
X132676816Y-108701000D01*
X132645438Y-108534240D01*
X132546883Y-108381081D01*
X132396505Y-108278332D01*
X132218000Y-108242184D01*
X132214695Y-108242184D01*
X132516604Y-107976122D01*
X132775568Y-107447776D01*
X132666128Y-107215000D01*
X131472000Y-107215000D01*
X131472000Y-107235000D01*
X131164000Y-107235000D01*
X131164000Y-107215000D01*
X129969872Y-107215000D01*
X129860432Y-107447776D01*
X116789638Y-107447776D01*
X116858000Y-107104101D01*
X116858000Y-107017899D01*
X116690535Y-106175995D01*
X116213635Y-105462264D01*
X115499904Y-104985364D01*
X114658000Y-104817899D01*
X113816096Y-104985364D01*
X113102365Y-105462264D01*
X112625465Y-106175995D01*
X112458000Y-107017899D01*
X111523000Y-107017899D01*
X111523000Y-95673499D01*
X112727290Y-95673499D01*
X112872655Y-95965795D01*
X113603093Y-96236366D01*
X114381473Y-96206814D01*
X114963345Y-95965795D01*
X115108710Y-95673499D01*
X113918000Y-94482789D01*
X112727290Y-95673499D01*
X111523000Y-95673499D01*
X111523000Y-93950093D01*
X111946634Y-93950093D01*
X111976186Y-94728473D01*
X112217205Y-95310345D01*
X112509501Y-95455710D01*
X113700211Y-94265000D01*
X114135789Y-94265000D01*
X115326499Y-95455710D01*
X115618795Y-95310345D01*
X115889366Y-94579907D01*
X115859814Y-93801527D01*
X115618795Y-93219655D01*
X115326499Y-93074290D01*
X114135789Y-94265000D01*
X113700211Y-94265000D01*
X112509501Y-93074290D01*
X112217205Y-93219655D01*
X111946634Y-93950093D01*
X111523000Y-93950093D01*
X111523000Y-92856501D01*
X112727290Y-92856501D01*
X113918000Y-94047211D01*
X114952908Y-93012303D01*
X122093486Y-93012303D01*
X122158947Y-93237227D01*
X122653499Y-93399052D01*
X123172333Y-93359303D01*
X123467053Y-93237227D01*
X123532514Y-93012303D01*
X122813000Y-92292789D01*
X122093486Y-93012303D01*
X114952908Y-93012303D01*
X115108710Y-92856501D01*
X114963345Y-92564205D01*
X114232907Y-92293634D01*
X113454527Y-92323186D01*
X112872655Y-92564205D01*
X112727290Y-92856501D01*
X111523000Y-92856501D01*
X111523000Y-91915499D01*
X121488948Y-91915499D01*
X121528697Y-92434333D01*
X121650773Y-92729053D01*
X121875697Y-92794514D01*
X122595211Y-92075000D01*
X123030789Y-92075000D01*
X123750303Y-92794514D01*
X123975227Y-92729053D01*
X124137052Y-92234501D01*
X124097303Y-91715667D01*
X123975227Y-91420947D01*
X123750303Y-91355486D01*
X123030789Y-92075000D01*
X122595211Y-92075000D01*
X121875697Y-91355486D01*
X121650773Y-91420947D01*
X121488948Y-91915499D01*
X111523000Y-91915499D01*
X111523000Y-91137697D01*
X122093486Y-91137697D01*
X122813000Y-91857211D01*
X123532514Y-91137697D01*
X123467053Y-90912773D01*
X122972501Y-90750948D01*
X122453667Y-90790697D01*
X122158947Y-90912773D01*
X122093486Y-91137697D01*
X111523000Y-91137697D01*
X111523000Y-90515915D01*
X115854874Y-90515915D01*
X115927758Y-90747038D01*
X116444126Y-90918920D01*
X116986965Y-90880114D01*
X117308242Y-90747038D01*
X117381126Y-90515915D01*
X116618000Y-89752789D01*
X115854874Y-90515915D01*
X111523000Y-90515915D01*
X111523000Y-89361126D01*
X115234080Y-89361126D01*
X115272886Y-89903965D01*
X115405962Y-90225242D01*
X115637085Y-90298126D01*
X116400211Y-89535000D01*
X116835789Y-89535000D01*
X117598915Y-90298126D01*
X117653048Y-90281055D01*
X117931695Y-90560190D01*
X118376260Y-90744789D01*
X118857628Y-90745209D01*
X119302514Y-90561386D01*
X119643190Y-90221305D01*
X119827789Y-89776740D01*
X119828209Y-89295372D01*
X119644386Y-88850486D01*
X119304305Y-88509810D01*
X118859740Y-88325211D01*
X118378372Y-88324791D01*
X117933486Y-88508614D01*
X117652757Y-88788853D01*
X117598915Y-88771874D01*
X116835789Y-89535000D01*
X116400211Y-89535000D01*
X115637085Y-88771874D01*
X115405962Y-88844758D01*
X115234080Y-89361126D01*
X111523000Y-89361126D01*
X111523000Y-87234628D01*
X115407791Y-87234628D01*
X115591614Y-87679514D01*
X115931695Y-88020190D01*
X116326955Y-88184316D01*
X116249035Y-88189886D01*
X115927758Y-88322962D01*
X115854874Y-88554085D01*
X116618000Y-89317211D01*
X117381126Y-88554085D01*
X117308242Y-88322962D01*
X116900844Y-88187353D01*
X117302514Y-88021386D01*
X117618252Y-87706199D01*
X117931695Y-88020190D01*
X118376260Y-88204789D01*
X118857628Y-88205209D01*
X119302514Y-88021386D01*
X119643190Y-87681305D01*
X119827789Y-87236740D01*
X119828209Y-86755372D01*
X119644386Y-86310486D01*
X119304305Y-85969810D01*
X119299111Y-85967653D01*
X120158564Y-85108200D01*
X121740407Y-85108200D01*
X121847297Y-85268173D01*
X122220384Y-85517461D01*
X122660470Y-85605000D01*
X122705530Y-85605000D01*
X123145616Y-85517461D01*
X123518703Y-85268173D01*
X123767991Y-84895086D01*
X123855530Y-84455000D01*
X123767991Y-84014914D01*
X123518703Y-83641827D01*
X123145616Y-83392539D01*
X122705530Y-83305000D01*
X122660470Y-83305000D01*
X122220384Y-83392539D01*
X121847297Y-83641827D01*
X121740407Y-83801800D01*
X119888000Y-83801800D01*
X119638031Y-83851522D01*
X119426118Y-83993118D01*
X118156118Y-85263118D01*
X118014522Y-85475031D01*
X117964800Y-85725000D01*
X117964800Y-85955675D01*
X117933486Y-85968614D01*
X117617748Y-86283801D01*
X117304305Y-85969810D01*
X117271200Y-85956064D01*
X117271200Y-84820564D01*
X119523564Y-82568200D01*
X121740407Y-82568200D01*
X121847297Y-82728173D01*
X122220384Y-82977461D01*
X122660470Y-83065000D01*
X122705530Y-83065000D01*
X123145616Y-82977461D01*
X123518703Y-82728173D01*
X123767991Y-82355086D01*
X123855530Y-81915000D01*
X123767991Y-81474914D01*
X123518703Y-81101827D01*
X123145616Y-80852539D01*
X122705530Y-80765000D01*
X122660470Y-80765000D01*
X122220384Y-80852539D01*
X121847297Y-81101827D01*
X121740407Y-81261800D01*
X119253000Y-81261800D01*
X119003031Y-81311522D01*
X118832900Y-81425200D01*
X118791118Y-81453118D01*
X116156118Y-84088118D01*
X116014522Y-84300031D01*
X115964800Y-84550000D01*
X115964800Y-85955675D01*
X115933486Y-85968614D01*
X115592810Y-86308695D01*
X115408211Y-86753260D01*
X115407791Y-87234628D01*
X111523000Y-87234628D01*
X111523000Y-83673499D01*
X112727290Y-83673499D01*
X112872655Y-83965795D01*
X113603093Y-84236366D01*
X114381473Y-84206814D01*
X114963345Y-83965795D01*
X115108710Y-83673499D01*
X113918000Y-82482789D01*
X112727290Y-83673499D01*
X111523000Y-83673499D01*
X111523000Y-81950093D01*
X111946634Y-81950093D01*
X111976186Y-82728473D01*
X112217205Y-83310345D01*
X112509501Y-83455710D01*
X113700211Y-82265000D01*
X114135789Y-82265000D01*
X115326499Y-83455710D01*
X115618795Y-83310345D01*
X115889366Y-82579907D01*
X115859814Y-81801527D01*
X115618795Y-81219655D01*
X115326499Y-81074290D01*
X114135789Y-82265000D01*
X113700211Y-82265000D01*
X112509501Y-81074290D01*
X112217205Y-81219655D01*
X111946634Y-81950093D01*
X111523000Y-81950093D01*
X111523000Y-80530066D01*
X112450723Y-80530066D01*
X112553174Y-80786040D01*
X112731219Y-80848601D01*
X112727290Y-80856501D01*
X113918000Y-82047211D01*
X115108710Y-80856501D01*
X114963345Y-80564205D01*
X114871184Y-80530066D01*
X118950723Y-80530066D01*
X119053174Y-80786040D01*
X119656703Y-80998105D01*
X120295445Y-80963067D01*
X120722826Y-80786040D01*
X120825277Y-80530066D01*
X119888000Y-79592789D01*
X118950723Y-80530066D01*
X114871184Y-80530066D01*
X114635918Y-80442918D01*
X114654814Y-80424022D01*
X114543068Y-80312276D01*
X114799040Y-80209826D01*
X115011105Y-79606297D01*
X114985730Y-79143703D01*
X118264895Y-79143703D01*
X118299933Y-79782445D01*
X118476960Y-80209826D01*
X118732934Y-80312277D01*
X119670211Y-79375000D01*
X120105789Y-79375000D01*
X121043066Y-80312277D01*
X121299040Y-80209826D01*
X121511105Y-79606297D01*
X121476067Y-78967555D01*
X121299040Y-78540174D01*
X121043066Y-78437723D01*
X120105789Y-79375000D01*
X119670211Y-79375000D01*
X118732934Y-78437723D01*
X118476960Y-78540174D01*
X118264895Y-79143703D01*
X114985730Y-79143703D01*
X114976067Y-78967555D01*
X114799040Y-78540174D01*
X114543066Y-78437723D01*
X113605789Y-79375000D01*
X113619931Y-79389142D01*
X113402142Y-79606931D01*
X113388000Y-79592789D01*
X112450723Y-80530066D01*
X111523000Y-80530066D01*
X111523000Y-79143703D01*
X111764895Y-79143703D01*
X111799933Y-79782445D01*
X111976960Y-80209826D01*
X112232934Y-80312277D01*
X113170211Y-79375000D01*
X112232934Y-78437723D01*
X111976960Y-78540174D01*
X111764895Y-79143703D01*
X111523000Y-79143703D01*
X111523000Y-78219934D01*
X112450723Y-78219934D01*
X113388000Y-79157211D01*
X114325277Y-78219934D01*
X118950723Y-78219934D01*
X119888000Y-79157211D01*
X120825277Y-78219934D01*
X120722826Y-77963960D01*
X120119297Y-77751895D01*
X119480555Y-77786933D01*
X119053174Y-77963960D01*
X118950723Y-78219934D01*
X114325277Y-78219934D01*
X114222826Y-77963960D01*
X113619297Y-77751895D01*
X112980555Y-77786933D01*
X112553174Y-77963960D01*
X112450723Y-78219934D01*
X111523000Y-78219934D01*
X111523000Y-73550000D01*
X112797712Y-73550000D01*
X112567714Y-73645033D01*
X112567714Y-73645033D01*
G37*
X112567714Y-73645033D02*
X112159467Y-74052569D01*
X111938252Y-74585312D01*
X111937749Y-75162157D01*
X112158033Y-75695286D01*
X112565569Y-76103533D01*
X113098312Y-76324748D01*
X113675157Y-76325251D01*
X114208286Y-76104967D01*
X114616533Y-75697431D01*
X114644616Y-75629800D01*
X118630975Y-75629800D01*
X118658033Y-75695286D01*
X119065569Y-76103533D01*
X119598312Y-76324748D01*
X120175157Y-76325251D01*
X120708286Y-76104967D01*
X121116533Y-75697431D01*
X121337748Y-75164688D01*
X121338251Y-74587843D01*
X121117967Y-74054714D01*
X120710431Y-73646467D01*
X120478113Y-73550000D01*
X124743375Y-73550000D01*
X124135090Y-74157224D01*
X123756432Y-75069134D01*
X123755570Y-76056534D01*
X124132636Y-76969103D01*
X124830224Y-77667910D01*
X125742134Y-78046568D01*
X126729534Y-78047430D01*
X127642103Y-77670364D01*
X128340910Y-76972776D01*
X128618095Y-76305240D01*
X128865145Y-76674976D01*
X129291307Y-76959729D01*
X129794000Y-77059721D01*
X130296693Y-76959729D01*
X130722855Y-76674976D01*
X131007608Y-76248814D01*
X131064000Y-75965313D01*
X131120392Y-76248814D01*
X131405145Y-76674976D01*
X131831307Y-76959729D01*
X132334000Y-77059721D01*
X132836693Y-76959729D01*
X133262855Y-76674976D01*
X133547608Y-76248814D01*
X133604000Y-75965313D01*
X133660392Y-76248814D01*
X133945145Y-76674976D01*
X134371307Y-76959729D01*
X134874000Y-77059721D01*
X135376693Y-76959729D01*
X135802855Y-76674976D01*
X136077412Y-76264074D01*
X136160162Y-76487629D01*
X136485945Y-76839291D01*
X136000436Y-77324800D01*
X131572000Y-77324800D01*
X131322031Y-77374522D01*
X131110118Y-77516118D01*
X130221118Y-78405118D01*
X130079522Y-78617031D01*
X130029800Y-78867000D01*
X130029800Y-81191697D01*
X129958646Y-81262727D01*
X129783200Y-81685247D01*
X129782801Y-82142746D01*
X129957509Y-82565572D01*
X130280727Y-82889354D01*
X130703247Y-83064800D01*
X131160746Y-83065199D01*
X131583572Y-82890491D01*
X131680800Y-82793432D01*
X131680800Y-83168436D01*
X131432166Y-83417070D01*
X131162753Y-83305200D01*
X130705254Y-83304801D01*
X130282428Y-83479509D01*
X129958646Y-83802727D01*
X129783200Y-84225247D01*
X129782801Y-84682746D01*
X129957509Y-85105572D01*
X129974507Y-85122600D01*
X124714000Y-85122600D01*
X124483472Y-85168455D01*
X124334233Y-85268173D01*
X124288039Y-85299039D01*
X123450693Y-86136385D01*
X123145616Y-85932539D01*
X122705530Y-85845000D01*
X122660470Y-85845000D01*
X122220384Y-85932539D01*
X121847297Y-86181827D01*
X121598009Y-86554914D01*
X121510470Y-86995000D01*
X121598009Y-87435086D01*
X121847297Y-87808173D01*
X122220384Y-88057461D01*
X122660470Y-88145000D01*
X122705530Y-88145000D01*
X123145616Y-88057461D01*
X123518703Y-87808173D01*
X123702796Y-87532658D01*
X123869961Y-87420961D01*
X124963522Y-86327400D01*
X129974000Y-86327400D01*
X129958646Y-86342727D01*
X129783200Y-86765247D01*
X129782801Y-87222746D01*
X129957509Y-87645572D01*
X130280727Y-87969354D01*
X130703247Y-88144800D01*
X131160746Y-88145199D01*
X131553800Y-87982793D01*
X131553800Y-88121436D01*
X131252691Y-88422545D01*
X131162753Y-88385200D01*
X130705254Y-88384801D01*
X130282428Y-88559509D01*
X129958646Y-88882727D01*
X129783200Y-89305247D01*
X129782801Y-89762746D01*
X129943555Y-90151800D01*
X125111564Y-90151800D01*
X124032882Y-89073118D01*
X123820969Y-88931522D01*
X123633961Y-88894324D01*
X123518703Y-88721827D01*
X123145616Y-88472539D01*
X122705530Y-88385000D01*
X122660470Y-88385000D01*
X122220384Y-88472539D01*
X121847297Y-88721827D01*
X121598009Y-89094914D01*
X121510470Y-89535000D01*
X121598009Y-89975086D01*
X121847297Y-90348173D01*
X122220384Y-90597461D01*
X122660470Y-90685000D01*
X122705530Y-90685000D01*
X123145616Y-90597461D01*
X123483758Y-90371522D01*
X124379118Y-91266882D01*
X124591031Y-91408478D01*
X124841000Y-91458200D01*
X130096085Y-91458200D01*
X129978009Y-91634914D01*
X129890470Y-92075000D01*
X129978009Y-92515086D01*
X130227297Y-92888173D01*
X130600384Y-93137461D01*
X131040470Y-93225000D01*
X131085530Y-93225000D01*
X131525616Y-93137461D01*
X131898703Y-92888173D01*
X132147991Y-92515086D01*
X132235530Y-92075000D01*
X132147991Y-91634914D01*
X132029915Y-91458200D01*
X137016436Y-91458200D01*
X137395236Y-91837000D01*
X136704000Y-91837000D01*
X136552000Y-91989000D01*
X136552000Y-93191000D01*
X137754000Y-93191000D01*
X137906000Y-93039000D01*
X137906000Y-92347764D01*
X138095118Y-92536882D01*
X138307031Y-92678478D01*
X138380705Y-92693133D01*
X138327771Y-92710643D01*
X138149185Y-93241548D01*
X138187363Y-93800382D01*
X138327771Y-94139357D01*
X138563031Y-94217180D01*
X139355211Y-93425000D01*
X139341069Y-93410858D01*
X139558858Y-93193069D01*
X139573000Y-93207211D01*
X139587142Y-93193069D01*
X139804931Y-93410858D01*
X139790789Y-93425000D01*
X140582969Y-94217180D01*
X140818229Y-94139357D01*
X140996815Y-93608452D01*
X140958637Y-93049618D01*
X140825501Y-92728200D01*
X142560000Y-92728200D01*
X142560000Y-93039000D01*
X142712000Y-93191000D01*
X143864000Y-93191000D01*
X143864000Y-93171000D01*
X144172000Y-93171000D01*
X144172000Y-93191000D01*
X145324000Y-93191000D01*
X145476000Y-93039000D01*
X145476000Y-92728200D01*
X146177000Y-92728200D01*
X146426969Y-92678478D01*
X146638882Y-92536882D01*
X146729720Y-92446044D01*
X148374757Y-92446044D01*
X148620139Y-92937577D01*
X149034944Y-93297791D01*
X149361958Y-93433231D01*
X149579000Y-93321523D01*
X149579000Y-92229000D01*
X148485435Y-92229000D01*
X148374757Y-92446044D01*
X146729720Y-92446044D01*
X147746162Y-91429602D01*
X148511719Y-91429602D01*
X148374757Y-91703956D01*
X148485435Y-91921000D01*
X149579000Y-91921000D01*
X149579000Y-91901000D01*
X149887000Y-91901000D01*
X149887000Y-91921000D01*
X149907000Y-91921000D01*
X149907000Y-92229000D01*
X149887000Y-92229000D01*
X149887000Y-93321523D01*
X150104042Y-93433231D01*
X150431056Y-93297791D01*
X150845861Y-92937577D01*
X151091243Y-92446044D01*
X150980566Y-92229002D01*
X151048762Y-92229002D01*
X151118151Y-92577843D01*
X151389117Y-92983372D01*
X151794646Y-93254338D01*
X152273000Y-93349489D01*
X152751354Y-93254338D01*
X153156883Y-92983372D01*
X153427849Y-92577843D01*
X153523000Y-92099489D01*
X153523000Y-92050511D01*
X153430795Y-91586969D01*
X153559564Y-91458200D01*
X153734295Y-91458200D01*
X153658151Y-91572157D01*
X153563000Y-92050511D01*
X153563000Y-92099489D01*
X153658151Y-92577843D01*
X153929117Y-92983372D01*
X154334646Y-93254338D01*
X154813000Y-93349489D01*
X155291354Y-93254338D01*
X155696883Y-92983372D01*
X155967849Y-92577843D01*
X156037238Y-92229002D01*
X156105434Y-92229002D01*
X155994757Y-92446044D01*
X156240139Y-92937577D01*
X156654944Y-93297791D01*
X156981958Y-93433231D01*
X157199000Y-93321523D01*
X157199000Y-92229000D01*
X157179000Y-92229000D01*
X157179000Y-91921000D01*
X157199000Y-91921000D01*
X157199000Y-91901000D01*
X157507000Y-91901000D01*
X157507000Y-91921000D01*
X157527000Y-91921000D01*
X157527000Y-92229000D01*
X157507000Y-92229000D01*
X157507000Y-93321523D01*
X157724042Y-93433231D01*
X158051056Y-93297791D01*
X158465861Y-92937577D01*
X158711243Y-92446044D01*
X158600566Y-92229002D01*
X158668762Y-92229002D01*
X158738151Y-92577843D01*
X159009117Y-92983372D01*
X159414646Y-93254338D01*
X159893000Y-93349489D01*
X160371354Y-93254338D01*
X160776883Y-92983372D01*
X161047849Y-92577843D01*
X161143000Y-92099489D01*
X161143000Y-92050511D01*
X161047849Y-91572157D01*
X160971705Y-91458200D01*
X161354295Y-91458200D01*
X161278151Y-91572157D01*
X161183000Y-92050511D01*
X161183000Y-92099489D01*
X161278151Y-92577843D01*
X161549117Y-92983372D01*
X161954646Y-93254338D01*
X162433000Y-93349489D01*
X162911354Y-93254338D01*
X163316883Y-92983372D01*
X163565000Y-92612039D01*
X163565000Y-92995939D01*
X163657563Y-93219405D01*
X163828596Y-93390438D01*
X164052062Y-93483000D01*
X164667000Y-93483000D01*
X164819000Y-93331000D01*
X164819000Y-92229000D01*
X165127000Y-92229000D01*
X165127000Y-93331000D01*
X165279000Y-93483000D01*
X165893938Y-93483000D01*
X166117404Y-93390438D01*
X166288437Y-93219405D01*
X166381000Y-92995939D01*
X166381000Y-92381000D01*
X166229000Y-92229000D01*
X165127000Y-92229000D01*
X164819000Y-92229000D01*
X164799000Y-92229000D01*
X164799000Y-91921000D01*
X164819000Y-91921000D01*
X164819000Y-91901000D01*
X165127000Y-91901000D01*
X165127000Y-91921000D01*
X166229000Y-91921000D01*
X166381000Y-91769000D01*
X166381000Y-91458200D01*
X167315288Y-91458200D01*
X167185539Y-91652384D01*
X167098000Y-92092470D01*
X167098000Y-92137530D01*
X167185539Y-92577616D01*
X167434827Y-92950703D01*
X167594800Y-93057593D01*
X167594800Y-94615000D01*
X167644522Y-94864969D01*
X167786118Y-95076882D01*
X168807152Y-96097916D01*
X168814522Y-96134969D01*
X168956118Y-96346882D01*
X169168031Y-96488478D01*
X169418000Y-96538200D01*
X170640018Y-96538200D01*
X172988700Y-98886882D01*
X173200613Y-99028478D01*
X173364027Y-99060983D01*
X173553292Y-99344239D01*
X173975043Y-99626043D01*
X174321712Y-99695000D01*
X173975043Y-99763957D01*
X173741661Y-99919897D01*
X172419882Y-98598118D01*
X172207969Y-98456522D01*
X171958000Y-98406800D01*
X171770605Y-98406800D01*
X171748316Y-98352857D01*
X171396993Y-98000919D01*
X170937731Y-97810217D01*
X170440450Y-97809783D01*
X169980857Y-97999684D01*
X169628919Y-98351007D01*
X169555525Y-98527761D01*
X168990882Y-97963118D01*
X168778969Y-97821522D01*
X168529000Y-97771800D01*
X166243000Y-97771800D01*
X165993031Y-97821522D01*
X165781118Y-97963118D01*
X165355482Y-98388754D01*
X164207935Y-97355962D01*
X164098093Y-97290646D01*
X163991849Y-97219656D01*
X163972105Y-97215729D01*
X163954799Y-97205438D01*
X163828333Y-97187130D01*
X163703000Y-97162200D01*
X162575893Y-97162200D01*
X162674869Y-96923839D01*
X162675130Y-96625470D01*
X162561189Y-96349714D01*
X162495789Y-96284200D01*
X164819547Y-96284200D01*
X164928605Y-96393448D01*
X165204161Y-96507869D01*
X165502530Y-96508130D01*
X165778286Y-96394189D01*
X165989448Y-96183395D01*
X166103869Y-95907839D01*
X166104130Y-95609470D01*
X165990189Y-95333714D01*
X165798752Y-95141943D01*
X165849869Y-95018839D01*
X165850130Y-94720470D01*
X165736189Y-94444714D01*
X165525395Y-94233552D01*
X165249839Y-94119131D01*
X165124935Y-94119022D01*
X164973000Y-94088800D01*
X150051030Y-94088800D01*
X149988189Y-93936714D01*
X149777395Y-93725552D01*
X149501839Y-93611131D01*
X149203470Y-93610870D01*
X148927714Y-93724811D01*
X148716552Y-93935605D01*
X148602131Y-94211161D01*
X148601870Y-94509530D01*
X148715811Y-94785286D01*
X148926605Y-94996448D01*
X149161023Y-95093787D01*
X149172036Y-95104800D01*
X148209000Y-95104800D01*
X147959031Y-95154522D01*
X147751356Y-95293286D01*
X147747118Y-95296118D01*
X147382689Y-95660547D01*
X147149714Y-95756811D01*
X146938552Y-95967605D01*
X146824131Y-96243161D01*
X146823870Y-96541530D01*
X146937811Y-96817286D01*
X147148605Y-97028448D01*
X147424161Y-97142869D01*
X147722530Y-97143130D01*
X147998286Y-97029189D01*
X148209448Y-96818395D01*
X148306787Y-96583977D01*
X148479564Y-96411200D01*
X148817560Y-96411200D01*
X148729131Y-96624161D01*
X148728870Y-96922530D01*
X148842811Y-97198286D01*
X148853187Y-97208680D01*
X148823080Y-97214048D01*
X148816644Y-97218166D01*
X148809151Y-97219656D01*
X148692844Y-97297369D01*
X148574999Y-97372764D01*
X146597800Y-99272819D01*
X146597800Y-97075000D01*
X146566372Y-96917000D01*
X146540344Y-96786150D01*
X146376724Y-96541276D01*
X145262383Y-95426935D01*
X145141935Y-95135428D01*
X144810086Y-94803000D01*
X144988939Y-94803000D01*
X145212405Y-94710437D01*
X145383438Y-94539404D01*
X145476000Y-94315938D01*
X145476000Y-93651000D01*
X145324000Y-93499000D01*
X144172000Y-93499000D01*
X144172000Y-93519000D01*
X143864000Y-93519000D01*
X143864000Y-93499000D01*
X142712000Y-93499000D01*
X142560000Y-93651000D01*
X142560000Y-94315938D01*
X142652562Y-94539404D01*
X142823595Y-94710437D01*
X143047061Y-94803000D01*
X143226420Y-94803000D01*
X142895375Y-95133468D01*
X142693231Y-95620285D01*
X142692771Y-96147402D01*
X142894065Y-96634572D01*
X143266468Y-97007625D01*
X143621659Y-97155113D01*
X143268428Y-97301065D01*
X142895375Y-97673468D01*
X142693231Y-98160285D01*
X142692771Y-98687402D01*
X142894065Y-99174572D01*
X143266468Y-99547625D01*
X143753285Y-99749769D01*
X144280402Y-99750229D01*
X144767572Y-99548935D01*
X145088200Y-99228866D01*
X145088200Y-101857258D01*
X144783919Y-102161007D01*
X144593217Y-102620269D01*
X144593082Y-102775318D01*
X142639200Y-100821436D01*
X142639200Y-97917000D01*
X142589478Y-97667031D01*
X142447882Y-97455118D01*
X141050882Y-96058118D01*
X140838969Y-95916522D01*
X140589000Y-95866800D01*
X133350000Y-95866800D01*
X133100031Y-95916522D01*
X132888118Y-96058118D01*
X132746522Y-96270031D01*
X132700913Y-96499323D01*
X132203958Y-96996278D01*
X132147991Y-96714914D01*
X131898703Y-96341827D01*
X131525616Y-96092539D01*
X131085530Y-96005000D01*
X131040470Y-96005000D01*
X130600384Y-96092539D01*
X130227297Y-96341827D01*
X129978009Y-96714914D01*
X129890470Y-97155000D01*
X129978009Y-97595086D01*
X130096085Y-97771800D01*
X124857564Y-97771800D01*
X123928120Y-96842356D01*
X123788491Y-96504428D01*
X123465273Y-96180646D01*
X123042753Y-96005200D01*
X122740512Y-96004936D01*
X122980302Y-95765146D01*
X123040746Y-95765199D01*
X123463572Y-95590491D01*
X123787354Y-95267273D01*
X123962800Y-94844753D01*
X123963000Y-94615000D01*
X129890470Y-94615000D01*
X129978009Y-95055086D01*
X130227297Y-95428173D01*
X130600384Y-95677461D01*
X131040470Y-95765000D01*
X131085530Y-95765000D01*
X131525616Y-95677461D01*
X131898703Y-95428173D01*
X132147991Y-95055086D01*
X132235530Y-94615000D01*
X132147991Y-94174914D01*
X131898703Y-93801827D01*
X131615135Y-93612353D01*
X132507766Y-93612353D01*
X132712858Y-94108715D01*
X133092288Y-94488807D01*
X133588290Y-94694765D01*
X134125353Y-94695234D01*
X134621715Y-94490142D01*
X134890000Y-94222324D01*
X134890000Y-94365938D01*
X134982562Y-94589404D01*
X135153595Y-94760437D01*
X135377061Y-94853000D01*
X136092000Y-94853000D01*
X136244000Y-94701000D01*
X136244000Y-93499000D01*
X136552000Y-93499000D01*
X136552000Y-94701000D01*
X136704000Y-94853000D01*
X137418939Y-94853000D01*
X137642405Y-94760437D01*
X137813438Y-94589404D01*
X137877406Y-94434969D01*
X138780820Y-94434969D01*
X138858643Y-94670229D01*
X139389548Y-94848815D01*
X139948382Y-94810637D01*
X140287357Y-94670229D01*
X140365180Y-94434969D01*
X139573000Y-93642789D01*
X138780820Y-94434969D01*
X137877406Y-94434969D01*
X137906000Y-94365938D01*
X137906000Y-93651000D01*
X137754000Y-93499000D01*
X136552000Y-93499000D01*
X136244000Y-93499000D01*
X136224000Y-93499000D01*
X136224000Y-93191000D01*
X136244000Y-93191000D01*
X136244000Y-91989000D01*
X136092000Y-91837000D01*
X135377061Y-91837000D01*
X135153595Y-91929563D01*
X134982562Y-92100596D01*
X134890000Y-92324062D01*
X134890000Y-92467946D01*
X134623712Y-92201193D01*
X134127710Y-91995235D01*
X133590647Y-91994766D01*
X133094285Y-92199858D01*
X132714193Y-92579288D01*
X132508235Y-93075290D01*
X132507766Y-93612353D01*
X131615135Y-93612353D01*
X131525616Y-93552539D01*
X131085530Y-93465000D01*
X131040470Y-93465000D01*
X130600384Y-93552539D01*
X130227297Y-93801827D01*
X129978009Y-94174914D01*
X129890470Y-94615000D01*
X123963000Y-94615000D01*
X123963199Y-94387254D01*
X123788491Y-93964428D01*
X123465273Y-93640646D01*
X123042753Y-93465200D01*
X122585254Y-93464801D01*
X122162428Y-93639509D01*
X121838646Y-93962727D01*
X121663200Y-94385247D01*
X121662801Y-94842746D01*
X121693503Y-94917049D01*
X121019954Y-95590598D01*
X116252602Y-95590598D01*
X116049489Y-95631000D01*
X115963752Y-95648054D01*
X115718878Y-95811674D01*
X113702415Y-97828137D01*
X113675512Y-97833488D01*
X113253761Y-98115292D01*
X112971957Y-98537043D01*
X112873000Y-99034531D01*
X112873000Y-99085469D01*
X112971957Y-99582957D01*
X113253761Y-100004708D01*
X113675512Y-100286512D01*
X114173000Y-100385469D01*
X114670488Y-100286512D01*
X115092239Y-100004708D01*
X115374043Y-99582957D01*
X115443000Y-99236288D01*
X115511957Y-99582957D01*
X115793761Y-100004708D01*
X116215512Y-100286512D01*
X116713000Y-100385469D01*
X117210488Y-100286512D01*
X117632239Y-100004708D01*
X117914043Y-99582957D01*
X117944184Y-99431429D01*
X117944184Y-99910000D01*
X117975562Y-100076760D01*
X118074117Y-100229919D01*
X118224495Y-100332668D01*
X118403000Y-100368816D01*
X118984418Y-100368816D01*
X121860530Y-103244928D01*
X122105404Y-103408548D01*
X122394254Y-103466004D01*
X129195556Y-103466004D01*
X130010490Y-104280938D01*
X129968000Y-104494552D01*
X129968000Y-104547448D01*
X130070763Y-105064071D01*
X130363406Y-105502042D01*
X130674376Y-105709826D01*
X130560836Y-105756852D01*
X130119396Y-106145878D01*
X129860432Y-106674224D01*
X129969872Y-106907000D01*
X131164000Y-106907000D01*
X131164000Y-106887000D01*
X131472000Y-106887000D01*
X131472000Y-106907000D01*
X132666128Y-106907000D01*
X132775568Y-106674224D01*
X132516604Y-106145878D01*
X132075164Y-105756852D01*
X131961624Y-105709826D01*
X132272594Y-105502042D01*
X132565237Y-105064071D01*
X132668000Y-104547448D01*
X132668000Y-104494552D01*
X132565237Y-103977929D01*
X132272594Y-103539958D01*
X131834623Y-103247315D01*
X131318000Y-103144552D01*
X131060267Y-103195819D01*
X130520850Y-102656402D01*
X139561954Y-102656402D01*
X139593158Y-102687606D01*
X139592783Y-103117550D01*
X139782684Y-103577143D01*
X140134007Y-103929081D01*
X140593269Y-104119783D01*
X141090550Y-104120217D01*
X141550143Y-103930316D01*
X141902081Y-103578993D01*
X142092783Y-103119731D01*
X142093217Y-102622450D01*
X141903316Y-102162857D01*
X141551993Y-101810919D01*
X141092731Y-101620217D01*
X140660288Y-101619840D01*
X140408326Y-101367878D01*
X140163452Y-101204258D01*
X139874602Y-101146802D01*
X138934646Y-101146802D01*
X140106724Y-99974724D01*
X140270344Y-99729849D01*
X140327800Y-99441000D01*
X140327800Y-99437742D01*
X140632081Y-99133993D01*
X140822783Y-98674731D01*
X140823217Y-98177450D01*
X140633316Y-97717857D01*
X140281993Y-97365919D01*
X139822731Y-97175217D01*
X139325450Y-97174783D01*
X138865857Y-97364684D01*
X138513919Y-97716007D01*
X138323217Y-98175269D01*
X138322783Y-98672550D01*
X138512684Y-99132143D01*
X138663415Y-99283137D01*
X137610822Y-100335730D01*
X132765061Y-100312980D01*
X132837969Y-100298478D01*
X133049882Y-100156882D01*
X133477855Y-99728909D01*
X133588290Y-99774765D01*
X134125353Y-99775234D01*
X134621715Y-99570142D01*
X134890000Y-99302324D01*
X134890000Y-99445938D01*
X134982562Y-99669404D01*
X135153595Y-99840437D01*
X135377061Y-99933000D01*
X136092000Y-99933000D01*
X136244000Y-99781000D01*
X136244000Y-98579000D01*
X136552000Y-98579000D01*
X136552000Y-99781000D01*
X136704000Y-99933000D01*
X137418939Y-99933000D01*
X137642405Y-99840437D01*
X137813438Y-99669404D01*
X137906000Y-99445938D01*
X137906000Y-98731000D01*
X137754000Y-98579000D01*
X136552000Y-98579000D01*
X136244000Y-98579000D01*
X136224000Y-98579000D01*
X136224000Y-98271000D01*
X136244000Y-98271000D01*
X136244000Y-98251000D01*
X136552000Y-98251000D01*
X136552000Y-98271000D01*
X137754000Y-98271000D01*
X137906000Y-98119000D01*
X137906000Y-97404062D01*
X137813438Y-97180596D01*
X137806042Y-97173200D01*
X140318436Y-97173200D01*
X141332800Y-98187564D01*
X141332800Y-101092000D01*
X141382522Y-101341969D01*
X141524118Y-101553882D01*
X144826118Y-104855882D01*
X145038031Y-104997478D01*
X145288000Y-105047200D01*
X146685000Y-105047200D01*
X146934969Y-104997478D01*
X147146882Y-104855882D01*
X148162882Y-103839882D01*
X148304478Y-103627969D01*
X148354200Y-103378000D01*
X148354200Y-101997564D01*
X149440464Y-100911300D01*
X149733000Y-100969489D01*
X150211354Y-100874338D01*
X150616883Y-100603372D01*
X150887849Y-100197843D01*
X150983000Y-99719489D01*
X150983000Y-99670511D01*
X150887849Y-99192157D01*
X150616883Y-98786628D01*
X150445031Y-98671800D01*
X151560969Y-98671800D01*
X151389117Y-98786628D01*
X151118151Y-99192157D01*
X151023000Y-99670511D01*
X151023000Y-99719489D01*
X151118151Y-100197843D01*
X151255940Y-100404059D01*
X150594999Y-101064999D01*
X150469922Y-101252192D01*
X150425999Y-101473000D01*
X150426000Y-101473005D01*
X150426000Y-102385139D01*
X149992721Y-102205226D01*
X149475548Y-102204774D01*
X148997571Y-102402271D01*
X148631556Y-102767647D01*
X148433226Y-103245279D01*
X148432774Y-103762452D01*
X148630271Y-104240429D01*
X148995647Y-104606444D01*
X149473279Y-104804774D01*
X149990452Y-104805226D01*
X150426000Y-104625260D01*
X150426000Y-105644084D01*
X150211354Y-105500662D01*
X149733000Y-105405511D01*
X149254646Y-105500662D01*
X148849117Y-105771628D01*
X148578151Y-106177157D01*
X148483000Y-106655511D01*
X148483000Y-106704489D01*
X148578151Y-107182843D01*
X148849117Y-107588372D01*
X149254646Y-107859338D01*
X149733000Y-107954489D01*
X150211354Y-107859338D01*
X150426000Y-107715916D01*
X150426000Y-109117259D01*
X150367552Y-109175605D01*
X150253131Y-109451161D01*
X150252870Y-109749530D01*
X150288930Y-109836800D01*
X147590564Y-109836800D01*
X145420141Y-107666377D01*
X145536883Y-107588372D01*
X145807849Y-107182843D01*
X145903000Y-106704489D01*
X145903000Y-106655511D01*
X145943000Y-106655511D01*
X145943000Y-106704489D01*
X146038151Y-107182843D01*
X146309117Y-107588372D01*
X146714646Y-107859338D01*
X147193000Y-107954489D01*
X147671354Y-107859338D01*
X148076883Y-107588372D01*
X148347849Y-107182843D01*
X148443000Y-106704489D01*
X148443000Y-106655511D01*
X148347849Y-106177157D01*
X148076883Y-105771628D01*
X147671354Y-105500662D01*
X147193000Y-105405511D01*
X146714646Y-105500662D01*
X146309117Y-105771628D01*
X146038151Y-106177157D01*
X145943000Y-106655511D01*
X145903000Y-106655511D01*
X145807849Y-106177157D01*
X145536883Y-105771628D01*
X145131354Y-105500662D01*
X144653000Y-105405511D01*
X144174646Y-105500662D01*
X143769117Y-105771628D01*
X143498151Y-106177157D01*
X143403000Y-106655511D01*
X143403000Y-106704489D01*
X143498151Y-107182843D01*
X143769117Y-107588372D01*
X143999800Y-107742510D01*
X143999800Y-107823000D01*
X144049522Y-108072969D01*
X144191118Y-108284882D01*
X146505036Y-110598800D01*
X146066564Y-110598800D01*
X143020616Y-107552852D01*
X143267849Y-107182843D01*
X143363000Y-106704489D01*
X143363000Y-106655511D01*
X143267849Y-106177157D01*
X142996883Y-105771628D01*
X142591354Y-105500662D01*
X142113000Y-105405511D01*
X141634646Y-105500662D01*
X141229117Y-105771628D01*
X140958151Y-106177157D01*
X140863000Y-106655511D01*
X140863000Y-106704489D01*
X140958151Y-107182843D01*
X141229117Y-107588372D01*
X141499604Y-107769105D01*
X141509522Y-107818969D01*
X141651118Y-108030882D01*
X145334118Y-111713882D01*
X145546031Y-111855478D01*
X145796000Y-111905200D01*
X147772005Y-111905200D01*
X147705031Y-111918522D01*
X147509982Y-112048850D01*
X147493118Y-112060118D01*
X146731118Y-112822118D01*
X146589522Y-113034031D01*
X146550469Y-113230361D01*
X146309117Y-113391628D01*
X146038151Y-113797157D01*
X145943000Y-114275511D01*
X145943000Y-114324489D01*
X146038151Y-114802843D01*
X146309117Y-115208372D01*
X146714646Y-115479338D01*
X147193000Y-115574489D01*
X147671354Y-115479338D01*
X148076883Y-115208372D01*
X148347849Y-114802843D01*
X148443000Y-114324489D01*
X148443000Y-114275511D01*
X148347849Y-113797157D01*
X148076883Y-113391628D01*
X148036272Y-113364492D01*
X148225564Y-113175200D01*
X149173024Y-113175200D01*
X148849117Y-113391628D01*
X148578151Y-113797157D01*
X148483000Y-114275511D01*
X148483000Y-114324489D01*
X148578151Y-114802843D01*
X148849117Y-115208372D01*
X149079800Y-115362510D01*
X149079800Y-115697000D01*
X149129522Y-115946969D01*
X149271118Y-116158882D01*
X150033118Y-116920882D01*
X150245031Y-117062478D01*
X150495000Y-117112200D01*
X155321000Y-117112200D01*
X155570969Y-117062478D01*
X155782882Y-116920882D01*
X156544882Y-116158882D01*
X156652969Y-115997118D01*
X156686478Y-115946969D01*
X156699800Y-115879995D01*
X156699800Y-117585436D01*
X155050436Y-119234800D01*
X140209643Y-119234800D01*
X139976839Y-119138131D01*
X139678470Y-119137870D01*
X139402714Y-119251811D01*
X139191552Y-119462605D01*
X139077131Y-119738161D01*
X139076870Y-120036530D01*
X139190811Y-120312286D01*
X139256211Y-120377800D01*
X134885554Y-120377800D01*
X134875189Y-120352714D01*
X134664395Y-120141552D01*
X134388839Y-120027131D01*
X134090470Y-120026870D01*
X133814714Y-120140811D01*
X133603552Y-120351605D01*
X133489131Y-120627161D01*
X133488870Y-120925530D01*
X133602811Y-121201286D01*
X133813605Y-121412448D01*
X134070200Y-121518996D01*
X134243031Y-121634478D01*
X134493000Y-121684200D01*
X141969436Y-121684200D01*
X143053543Y-122768307D01*
X142804392Y-123141186D01*
X142748000Y-123424687D01*
X142691608Y-123141186D01*
X142406855Y-122715024D01*
X141980693Y-122430271D01*
X141478000Y-122330279D01*
X140975307Y-122430271D01*
X140549145Y-122715024D01*
X140264392Y-123141186D01*
X140208000Y-123424687D01*
X140151608Y-123141186D01*
X139866855Y-122715024D01*
X139440693Y-122430271D01*
X138938000Y-122330279D01*
X138435307Y-122430271D01*
X138009145Y-122715024D01*
X137724392Y-123141186D01*
X137624400Y-123643879D01*
X137624400Y-124006121D01*
X137724392Y-124508814D01*
X138009145Y-124934976D01*
X138069344Y-124975200D01*
X134805649Y-124975200D01*
X134239993Y-124409545D01*
X134266668Y-124370505D01*
X134302816Y-124192000D01*
X134302816Y-122442000D01*
X134271438Y-122275240D01*
X134172883Y-122122081D01*
X134022505Y-122019332D01*
X133844000Y-121983184D01*
X132094000Y-121983184D01*
X131927240Y-122014562D01*
X131774081Y-122113117D01*
X131671332Y-122263495D01*
X131635184Y-122442000D01*
X131635184Y-122506839D01*
X131533413Y-122470376D01*
X130686789Y-123317000D01*
X131533413Y-124163624D01*
X131635184Y-124127161D01*
X131635184Y-124192000D01*
X131666562Y-124358760D01*
X131765117Y-124511919D01*
X131915495Y-124614668D01*
X132094000Y-124650816D01*
X132375869Y-124650816D01*
X132435276Y-124739724D01*
X133535551Y-125840000D01*
X126462625Y-125840000D01*
X127070910Y-125232776D01*
X127424426Y-124381413D01*
X129622376Y-124381413D01*
X129709447Y-124624435D01*
X130267598Y-124815581D01*
X130856411Y-124778581D01*
X131228553Y-124624435D01*
X131315624Y-124381413D01*
X130469000Y-123534789D01*
X129622376Y-124381413D01*
X127424426Y-124381413D01*
X127449568Y-124320866D01*
X127450430Y-123333466D01*
X127360409Y-123115598D01*
X128970419Y-123115598D01*
X129007419Y-123704411D01*
X129161565Y-124076553D01*
X129404587Y-124163624D01*
X130251211Y-123317000D01*
X129404587Y-122470376D01*
X129161565Y-122557447D01*
X128970419Y-123115598D01*
X127360409Y-123115598D01*
X127073364Y-122420897D01*
X126905348Y-122252587D01*
X129622376Y-122252587D01*
X130469000Y-123099211D01*
X131315624Y-122252587D01*
X131228553Y-122009565D01*
X130670402Y-121818419D01*
X130081589Y-121855419D01*
X129709447Y-122009565D01*
X129622376Y-122252587D01*
X126905348Y-122252587D01*
X126375776Y-121722090D01*
X125463866Y-121343432D01*
X124476466Y-121342570D01*
X123563897Y-121719636D01*
X122865090Y-122417224D01*
X122486432Y-123329134D01*
X122485570Y-124316534D01*
X122862636Y-125229103D01*
X123472467Y-125840000D01*
X111523000Y-125840000D01*
X111523000Y-123751000D01*
X115800000Y-123751000D01*
X115800000Y-125315938D01*
X115892562Y-125539404D01*
X116063595Y-125710437D01*
X116287061Y-125803000D01*
X117852000Y-125803000D01*
X118004000Y-125651000D01*
X118004000Y-123599000D01*
X118312000Y-123599000D01*
X118312000Y-125651000D01*
X118464000Y-125803000D01*
X120028939Y-125803000D01*
X120252405Y-125710437D01*
X120423438Y-125539404D01*
X120516000Y-125315938D01*
X120516000Y-123751000D01*
X120364000Y-123599000D01*
X118312000Y-123599000D01*
X118004000Y-123599000D01*
X115952000Y-123599000D01*
X115800000Y-123751000D01*
X111523000Y-123751000D01*
X111523000Y-119051000D01*
X112800000Y-119051000D01*
X112800000Y-120615938D01*
X112892562Y-120839404D01*
X113063595Y-121010437D01*
X113287061Y-121103000D01*
X114852000Y-121103000D01*
X115004000Y-120951000D01*
X115004000Y-118899000D01*
X115312000Y-118899000D01*
X115312000Y-120951000D01*
X115464000Y-121103000D01*
X116248434Y-121103000D01*
X116063595Y-121179563D01*
X115892562Y-121350596D01*
X115800000Y-121574062D01*
X115800000Y-123139000D01*
X115952000Y-123291000D01*
X118004000Y-123291000D01*
X118004000Y-121239000D01*
X118312000Y-121239000D01*
X118312000Y-123291000D01*
X120364000Y-123291000D01*
X120516000Y-123139000D01*
X120516000Y-121574062D01*
X120423438Y-121350596D01*
X120252405Y-121179563D01*
X120028939Y-121087000D01*
X118464000Y-121087000D01*
X118312000Y-121239000D01*
X118004000Y-121239000D01*
X117852000Y-121087000D01*
X117067566Y-121087000D01*
X117252405Y-121010437D01*
X117423438Y-120839404D01*
X117516000Y-120615938D01*
X117516000Y-119051000D01*
X117364000Y-118899000D01*
X115312000Y-118899000D01*
X115004000Y-118899000D01*
X112952000Y-118899000D01*
X112800000Y-119051000D01*
X111523000Y-119051000D01*
X111523000Y-116874062D01*
X112800000Y-116874062D01*
X112800000Y-118439000D01*
X112952000Y-118591000D01*
X115004000Y-118591000D01*
X115004000Y-116539000D01*
X115312000Y-116539000D01*
X115312000Y-118591000D01*
X117364000Y-118591000D01*
X117516000Y-118439000D01*
X117516000Y-116995000D01*
X118949184Y-116995000D01*
X118949184Y-120495000D01*
X118980562Y-120661760D01*
X119079117Y-120814919D01*
X119229495Y-120917668D01*
X119408000Y-120953816D01*
X122908000Y-120953816D01*
X123074760Y-120922438D01*
X123227919Y-120823883D01*
X123330668Y-120673505D01*
X123366816Y-120495000D01*
X123366816Y-118110000D01*
X124022634Y-118110000D01*
X124140621Y-118703159D01*
X124476618Y-119206016D01*
X124979475Y-119542013D01*
X125572634Y-119660000D01*
X125633366Y-119660000D01*
X126226525Y-119542013D01*
X126729382Y-119206016D01*
X127065379Y-118703159D01*
X127183366Y-118110000D01*
X127065379Y-117516841D01*
X126729382Y-117013984D01*
X126723420Y-117010000D01*
X134204184Y-117010000D01*
X134204184Y-119210000D01*
X134235562Y-119376760D01*
X134334117Y-119529919D01*
X134484495Y-119632668D01*
X134663000Y-119668816D01*
X136863000Y-119668816D01*
X137029760Y-119637438D01*
X137182919Y-119538883D01*
X137285668Y-119388505D01*
X137321816Y-119210000D01*
X137321816Y-117010000D01*
X137290438Y-116843240D01*
X137191883Y-116690081D01*
X137041505Y-116587332D01*
X136863000Y-116551184D01*
X134663000Y-116551184D01*
X134496240Y-116582562D01*
X134343081Y-116681117D01*
X134240332Y-116831495D01*
X134204184Y-117010000D01*
X126723420Y-117010000D01*
X126226525Y-116677987D01*
X125633366Y-116560000D01*
X125572634Y-116560000D01*
X124979475Y-116677987D01*
X124476618Y-117013984D01*
X124140621Y-117516841D01*
X124022634Y-118110000D01*
X123366816Y-118110000D01*
X123366816Y-116995000D01*
X123335438Y-116828240D01*
X123236883Y-116675081D01*
X123086505Y-116572332D01*
X122908000Y-116536184D01*
X119408000Y-116536184D01*
X119241240Y-116567562D01*
X119088081Y-116666117D01*
X118985332Y-116816495D01*
X118949184Y-116995000D01*
X117516000Y-116995000D01*
X117516000Y-116874062D01*
X117423438Y-116650596D01*
X117252405Y-116479563D01*
X117028939Y-116387000D01*
X115464000Y-116387000D01*
X115312000Y-116539000D01*
X115004000Y-116539000D01*
X114852000Y-116387000D01*
X113287061Y-116387000D01*
X113063595Y-116479563D01*
X112892562Y-116650596D01*
X112800000Y-116874062D01*
X111523000Y-116874062D01*
X111523000Y-115309969D01*
X134375820Y-115309969D01*
X134453643Y-115545229D01*
X134984548Y-115723815D01*
X135543382Y-115685637D01*
X135882357Y-115545229D01*
X135960180Y-115309969D01*
X135168000Y-114517789D01*
X134375820Y-115309969D01*
X111523000Y-115309969D01*
X111523000Y-114116548D01*
X133744185Y-114116548D01*
X133782363Y-114675382D01*
X133922771Y-115014357D01*
X134158031Y-115092180D01*
X134950211Y-114300000D01*
X135385789Y-114300000D01*
X136177969Y-115092180D01*
X136413229Y-115014357D01*
X136501831Y-114750960D01*
X136607684Y-115007143D01*
X136959007Y-115359081D01*
X137418269Y-115549783D01*
X137915550Y-115550217D01*
X138375143Y-115360316D01*
X138727081Y-115008993D01*
X138917783Y-114549731D01*
X138918022Y-114275511D01*
X140863000Y-114275511D01*
X140863000Y-114324489D01*
X140958151Y-114802843D01*
X141229117Y-115208372D01*
X141634646Y-115479338D01*
X142113000Y-115574489D01*
X142591354Y-115479338D01*
X142996883Y-115208372D01*
X143267849Y-114802843D01*
X143363000Y-114324489D01*
X143363000Y-114275511D01*
X143403000Y-114275511D01*
X143403000Y-114324489D01*
X143498151Y-114802843D01*
X143769117Y-115208372D01*
X144174646Y-115479338D01*
X144653000Y-115574489D01*
X145131354Y-115479338D01*
X145536883Y-115208372D01*
X145807849Y-114802843D01*
X145903000Y-114324489D01*
X145903000Y-114275511D01*
X145807849Y-113797157D01*
X145536883Y-113391628D01*
X145131354Y-113120662D01*
X144653000Y-113025511D01*
X144174646Y-113120662D01*
X143769117Y-113391628D01*
X143498151Y-113797157D01*
X143403000Y-114275511D01*
X143363000Y-114275511D01*
X143267849Y-113797157D01*
X142996883Y-113391628D01*
X142591354Y-113120662D01*
X142113000Y-113025511D01*
X141634646Y-113120662D01*
X141229117Y-113391628D01*
X140958151Y-113797157D01*
X140863000Y-114275511D01*
X138918022Y-114275511D01*
X138918217Y-114052450D01*
X138728316Y-113592857D01*
X138376993Y-113240919D01*
X137917731Y-113050217D01*
X137420450Y-113049783D01*
X136960857Y-113239684D01*
X136608919Y-113591007D01*
X136512066Y-113824256D01*
X136413229Y-113585643D01*
X136177969Y-113507820D01*
X135385789Y-114300000D01*
X134950211Y-114300000D01*
X134158031Y-113507820D01*
X133922771Y-113585643D01*
X133744185Y-114116548D01*
X111523000Y-114116548D01*
X111523000Y-113290031D01*
X134375820Y-113290031D01*
X135168000Y-114082211D01*
X135960180Y-113290031D01*
X135882357Y-113054771D01*
X135351452Y-112876185D01*
X134792618Y-112914363D01*
X134453643Y-113054771D01*
X134375820Y-113290031D01*
X111523000Y-113290031D01*
X111523000Y-107017899D01*
X112458000Y-107017899D01*
X112458000Y-107104101D01*
X112625465Y-107946005D01*
X113102365Y-108659736D01*
X113816096Y-109136636D01*
X114658000Y-109304101D01*
X115499904Y-109136636D01*
X116213635Y-108659736D01*
X116690535Y-107946005D01*
X116789638Y-107447776D01*
X129860432Y-107447776D01*
X130119396Y-107976122D01*
X130421305Y-108242184D01*
X130418000Y-108242184D01*
X130251240Y-108273562D01*
X130098081Y-108372117D01*
X129995332Y-108522495D01*
X129959184Y-108701000D01*
X129959184Y-110501000D01*
X129990562Y-110667760D01*
X130089117Y-110820919D01*
X130239495Y-110923668D01*
X130418000Y-110959816D01*
X132218000Y-110959816D01*
X132384760Y-110928438D01*
X132537919Y-110829883D01*
X132640668Y-110679505D01*
X132676816Y-110501000D01*
X132676816Y-108701000D01*
X132645438Y-108534240D01*
X132546883Y-108381081D01*
X132396505Y-108278332D01*
X132218000Y-108242184D01*
X132214695Y-108242184D01*
X132516604Y-107976122D01*
X132775568Y-107447776D01*
X132666128Y-107215000D01*
X131472000Y-107215000D01*
X131472000Y-107235000D01*
X131164000Y-107235000D01*
X131164000Y-107215000D01*
X129969872Y-107215000D01*
X129860432Y-107447776D01*
X116789638Y-107447776D01*
X116858000Y-107104101D01*
X116858000Y-107017899D01*
X116690535Y-106175995D01*
X116213635Y-105462264D01*
X115499904Y-104985364D01*
X114658000Y-104817899D01*
X113816096Y-104985364D01*
X113102365Y-105462264D01*
X112625465Y-106175995D01*
X112458000Y-107017899D01*
X111523000Y-107017899D01*
X111523000Y-95673499D01*
X112727290Y-95673499D01*
X112872655Y-95965795D01*
X113603093Y-96236366D01*
X114381473Y-96206814D01*
X114963345Y-95965795D01*
X115108710Y-95673499D01*
X113918000Y-94482789D01*
X112727290Y-95673499D01*
X111523000Y-95673499D01*
X111523000Y-93950093D01*
X111946634Y-93950093D01*
X111976186Y-94728473D01*
X112217205Y-95310345D01*
X112509501Y-95455710D01*
X113700211Y-94265000D01*
X114135789Y-94265000D01*
X115326499Y-95455710D01*
X115618795Y-95310345D01*
X115889366Y-94579907D01*
X115859814Y-93801527D01*
X115618795Y-93219655D01*
X115326499Y-93074290D01*
X114135789Y-94265000D01*
X113700211Y-94265000D01*
X112509501Y-93074290D01*
X112217205Y-93219655D01*
X111946634Y-93950093D01*
X111523000Y-93950093D01*
X111523000Y-92856501D01*
X112727290Y-92856501D01*
X113918000Y-94047211D01*
X114952908Y-93012303D01*
X122093486Y-93012303D01*
X122158947Y-93237227D01*
X122653499Y-93399052D01*
X123172333Y-93359303D01*
X123467053Y-93237227D01*
X123532514Y-93012303D01*
X122813000Y-92292789D01*
X122093486Y-93012303D01*
X114952908Y-93012303D01*
X115108710Y-92856501D01*
X114963345Y-92564205D01*
X114232907Y-92293634D01*
X113454527Y-92323186D01*
X112872655Y-92564205D01*
X112727290Y-92856501D01*
X111523000Y-92856501D01*
X111523000Y-91915499D01*
X121488948Y-91915499D01*
X121528697Y-92434333D01*
X121650773Y-92729053D01*
X121875697Y-92794514D01*
X122595211Y-92075000D01*
X123030789Y-92075000D01*
X123750303Y-92794514D01*
X123975227Y-92729053D01*
X124137052Y-92234501D01*
X124097303Y-91715667D01*
X123975227Y-91420947D01*
X123750303Y-91355486D01*
X123030789Y-92075000D01*
X122595211Y-92075000D01*
X121875697Y-91355486D01*
X121650773Y-91420947D01*
X121488948Y-91915499D01*
X111523000Y-91915499D01*
X111523000Y-91137697D01*
X122093486Y-91137697D01*
X122813000Y-91857211D01*
X123532514Y-91137697D01*
X123467053Y-90912773D01*
X122972501Y-90750948D01*
X122453667Y-90790697D01*
X122158947Y-90912773D01*
X122093486Y-91137697D01*
X111523000Y-91137697D01*
X111523000Y-90515915D01*
X115854874Y-90515915D01*
X115927758Y-90747038D01*
X116444126Y-90918920D01*
X116986965Y-90880114D01*
X117308242Y-90747038D01*
X117381126Y-90515915D01*
X116618000Y-89752789D01*
X115854874Y-90515915D01*
X111523000Y-90515915D01*
X111523000Y-89361126D01*
X115234080Y-89361126D01*
X115272886Y-89903965D01*
X115405962Y-90225242D01*
X115637085Y-90298126D01*
X116400211Y-89535000D01*
X116835789Y-89535000D01*
X117598915Y-90298126D01*
X117653048Y-90281055D01*
X117931695Y-90560190D01*
X118376260Y-90744789D01*
X118857628Y-90745209D01*
X119302514Y-90561386D01*
X119643190Y-90221305D01*
X119827789Y-89776740D01*
X119828209Y-89295372D01*
X119644386Y-88850486D01*
X119304305Y-88509810D01*
X118859740Y-88325211D01*
X118378372Y-88324791D01*
X117933486Y-88508614D01*
X117652757Y-88788853D01*
X117598915Y-88771874D01*
X116835789Y-89535000D01*
X116400211Y-89535000D01*
X115637085Y-88771874D01*
X115405962Y-88844758D01*
X115234080Y-89361126D01*
X111523000Y-89361126D01*
X111523000Y-87234628D01*
X115407791Y-87234628D01*
X115591614Y-87679514D01*
X115931695Y-88020190D01*
X116326955Y-88184316D01*
X116249035Y-88189886D01*
X115927758Y-88322962D01*
X115854874Y-88554085D01*
X116618000Y-89317211D01*
X117381126Y-88554085D01*
X117308242Y-88322962D01*
X116900844Y-88187353D01*
X117302514Y-88021386D01*
X117618252Y-87706199D01*
X117931695Y-88020190D01*
X118376260Y-88204789D01*
X118857628Y-88205209D01*
X119302514Y-88021386D01*
X119643190Y-87681305D01*
X119827789Y-87236740D01*
X119828209Y-86755372D01*
X119644386Y-86310486D01*
X119304305Y-85969810D01*
X119299111Y-85967653D01*
X120158564Y-85108200D01*
X121740407Y-85108200D01*
X121847297Y-85268173D01*
X122220384Y-85517461D01*
X122660470Y-85605000D01*
X122705530Y-85605000D01*
X123145616Y-85517461D01*
X123518703Y-85268173D01*
X123767991Y-84895086D01*
X123855530Y-84455000D01*
X123767991Y-84014914D01*
X123518703Y-83641827D01*
X123145616Y-83392539D01*
X122705530Y-83305000D01*
X122660470Y-83305000D01*
X122220384Y-83392539D01*
X121847297Y-83641827D01*
X121740407Y-83801800D01*
X119888000Y-83801800D01*
X119638031Y-83851522D01*
X119426118Y-83993118D01*
X118156118Y-85263118D01*
X118014522Y-85475031D01*
X117964800Y-85725000D01*
X117964800Y-85955675D01*
X117933486Y-85968614D01*
X117617748Y-86283801D01*
X117304305Y-85969810D01*
X117271200Y-85956064D01*
X117271200Y-84820564D01*
X119523564Y-82568200D01*
X121740407Y-82568200D01*
X121847297Y-82728173D01*
X122220384Y-82977461D01*
X122660470Y-83065000D01*
X122705530Y-83065000D01*
X123145616Y-82977461D01*
X123518703Y-82728173D01*
X123767991Y-82355086D01*
X123855530Y-81915000D01*
X123767991Y-81474914D01*
X123518703Y-81101827D01*
X123145616Y-80852539D01*
X122705530Y-80765000D01*
X122660470Y-80765000D01*
X122220384Y-80852539D01*
X121847297Y-81101827D01*
X121740407Y-81261800D01*
X119253000Y-81261800D01*
X119003031Y-81311522D01*
X118832900Y-81425200D01*
X118791118Y-81453118D01*
X116156118Y-84088118D01*
X116014522Y-84300031D01*
X115964800Y-84550000D01*
X115964800Y-85955675D01*
X115933486Y-85968614D01*
X115592810Y-86308695D01*
X115408211Y-86753260D01*
X115407791Y-87234628D01*
X111523000Y-87234628D01*
X111523000Y-83673499D01*
X112727290Y-83673499D01*
X112872655Y-83965795D01*
X113603093Y-84236366D01*
X114381473Y-84206814D01*
X114963345Y-83965795D01*
X115108710Y-83673499D01*
X113918000Y-82482789D01*
X112727290Y-83673499D01*
X111523000Y-83673499D01*
X111523000Y-81950093D01*
X111946634Y-81950093D01*
X111976186Y-82728473D01*
X112217205Y-83310345D01*
X112509501Y-83455710D01*
X113700211Y-82265000D01*
X114135789Y-82265000D01*
X115326499Y-83455710D01*
X115618795Y-83310345D01*
X115889366Y-82579907D01*
X115859814Y-81801527D01*
X115618795Y-81219655D01*
X115326499Y-81074290D01*
X114135789Y-82265000D01*
X113700211Y-82265000D01*
X112509501Y-81074290D01*
X112217205Y-81219655D01*
X111946634Y-81950093D01*
X111523000Y-81950093D01*
X111523000Y-80530066D01*
X112450723Y-80530066D01*
X112553174Y-80786040D01*
X112731219Y-80848601D01*
X112727290Y-80856501D01*
X113918000Y-82047211D01*
X115108710Y-80856501D01*
X114963345Y-80564205D01*
X114871184Y-80530066D01*
X118950723Y-80530066D01*
X119053174Y-80786040D01*
X119656703Y-80998105D01*
X120295445Y-80963067D01*
X120722826Y-80786040D01*
X120825277Y-80530066D01*
X119888000Y-79592789D01*
X118950723Y-80530066D01*
X114871184Y-80530066D01*
X114635918Y-80442918D01*
X114654814Y-80424022D01*
X114543068Y-80312276D01*
X114799040Y-80209826D01*
X115011105Y-79606297D01*
X114985730Y-79143703D01*
X118264895Y-79143703D01*
X118299933Y-79782445D01*
X118476960Y-80209826D01*
X118732934Y-80312277D01*
X119670211Y-79375000D01*
X120105789Y-79375000D01*
X121043066Y-80312277D01*
X121299040Y-80209826D01*
X121511105Y-79606297D01*
X121476067Y-78967555D01*
X121299040Y-78540174D01*
X121043066Y-78437723D01*
X120105789Y-79375000D01*
X119670211Y-79375000D01*
X118732934Y-78437723D01*
X118476960Y-78540174D01*
X118264895Y-79143703D01*
X114985730Y-79143703D01*
X114976067Y-78967555D01*
X114799040Y-78540174D01*
X114543066Y-78437723D01*
X113605789Y-79375000D01*
X113619931Y-79389142D01*
X113402142Y-79606931D01*
X113388000Y-79592789D01*
X112450723Y-80530066D01*
X111523000Y-80530066D01*
X111523000Y-79143703D01*
X111764895Y-79143703D01*
X111799933Y-79782445D01*
X111976960Y-80209826D01*
X112232934Y-80312277D01*
X113170211Y-79375000D01*
X112232934Y-78437723D01*
X111976960Y-78540174D01*
X111764895Y-79143703D01*
X111523000Y-79143703D01*
X111523000Y-78219934D01*
X112450723Y-78219934D01*
X113388000Y-79157211D01*
X114325277Y-78219934D01*
X118950723Y-78219934D01*
X119888000Y-79157211D01*
X120825277Y-78219934D01*
X120722826Y-77963960D01*
X120119297Y-77751895D01*
X119480555Y-77786933D01*
X119053174Y-77963960D01*
X118950723Y-78219934D01*
X114325277Y-78219934D01*
X114222826Y-77963960D01*
X113619297Y-77751895D01*
X112980555Y-77786933D01*
X112553174Y-77963960D01*
X112450723Y-78219934D01*
X111523000Y-78219934D01*
X111523000Y-73550000D01*
X112797712Y-73550000D01*
X112567714Y-73645033D01*
G36*
X174479800Y-111743436D02*
X173401118Y-112822118D01*
X173259522Y-113034031D01*
X173222236Y-113221478D01*
X173071354Y-113120662D01*
X172593000Y-113025511D01*
X172114646Y-113120662D01*
X171709117Y-113391628D01*
X171438151Y-113797157D01*
X171343000Y-114275511D01*
X171343000Y-114324489D01*
X171438151Y-114802843D01*
X171709117Y-115208372D01*
X172114646Y-115479338D01*
X172593000Y-115574489D01*
X173071354Y-115479338D01*
X173209800Y-115386831D01*
X173209800Y-119236436D01*
X171941436Y-120504800D01*
X155503995Y-120504800D01*
X155570969Y-120491478D01*
X155782882Y-120349882D01*
X157814882Y-118317882D01*
X157956478Y-118105969D01*
X158006200Y-117856000D01*
X158006200Y-115362510D01*
X158236883Y-115208372D01*
X158507849Y-114802843D01*
X158577238Y-114454002D01*
X158645434Y-114454002D01*
X158534757Y-114671044D01*
X158780139Y-115162577D01*
X159194944Y-115522791D01*
X159521958Y-115658231D01*
X159739000Y-115546523D01*
X159739000Y-114454000D01*
X159719000Y-114454000D01*
X159719000Y-114146000D01*
X159739000Y-114146000D01*
X159739000Y-114126000D01*
X160047000Y-114126000D01*
X160047000Y-114146000D01*
X160067000Y-114146000D01*
X160067000Y-114454000D01*
X160047000Y-114454000D01*
X160047000Y-115546523D01*
X160264042Y-115658231D01*
X160591056Y-115522791D01*
X161005861Y-115162577D01*
X161251243Y-114671044D01*
X161140566Y-114454002D01*
X161208762Y-114454002D01*
X161278151Y-114802843D01*
X161549117Y-115208372D01*
X161954646Y-115479338D01*
X162433000Y-115574489D01*
X162911354Y-115479338D01*
X163316883Y-115208372D01*
X163587849Y-114802843D01*
X163683000Y-114324489D01*
X163683000Y-114275511D01*
X163587849Y-113797157D01*
X163316883Y-113391628D01*
X162992976Y-113175200D01*
X164413024Y-113175200D01*
X164089117Y-113391628D01*
X163818151Y-113797157D01*
X163723000Y-114275511D01*
X163723000Y-114324489D01*
X163818151Y-114802843D01*
X164089117Y-115208372D01*
X164494646Y-115479338D01*
X164973000Y-115574489D01*
X165451354Y-115479338D01*
X165856883Y-115208372D01*
X166127849Y-114802843D01*
X166223000Y-114324489D01*
X166223000Y-114275511D01*
X166127849Y-113797157D01*
X165856883Y-113391628D01*
X165532976Y-113175200D01*
X166953024Y-113175200D01*
X166629117Y-113391628D01*
X166358151Y-113797157D01*
X166263000Y-114275511D01*
X166263000Y-114324489D01*
X166358151Y-114802843D01*
X166629117Y-115208372D01*
X167034646Y-115479338D01*
X167513000Y-115574489D01*
X167991354Y-115479338D01*
X168396883Y-115208372D01*
X168667849Y-114802843D01*
X168763000Y-114324489D01*
X168763000Y-114275511D01*
X168667849Y-113797157D01*
X168396883Y-113391628D01*
X168072976Y-113175200D01*
X169493024Y-113175200D01*
X169169117Y-113391628D01*
X168898151Y-113797157D01*
X168803000Y-114275511D01*
X168803000Y-114324489D01*
X168898151Y-114802843D01*
X169169117Y-115208372D01*
X169574646Y-115479338D01*
X170053000Y-115574489D01*
X170531354Y-115479338D01*
X170936883Y-115208372D01*
X171207849Y-114802843D01*
X171303000Y-114324489D01*
X171303000Y-114275511D01*
X171207849Y-113797157D01*
X170936883Y-113391628D01*
X170612976Y-113175200D01*
X171196000Y-113175200D01*
X171445969Y-113125478D01*
X171657882Y-112983882D01*
X174324882Y-110316882D01*
X174364540Y-110257530D01*
X174466478Y-110104969D01*
X174479800Y-110037995D01*
X174479800Y-111743436D01*
X174479800Y-111743436D01*
G37*
X174479800Y-111743436D02*
X173401118Y-112822118D01*
X173259522Y-113034031D01*
X173222236Y-113221478D01*
X173071354Y-113120662D01*
X172593000Y-113025511D01*
X172114646Y-113120662D01*
X171709117Y-113391628D01*
X171438151Y-113797157D01*
X171343000Y-114275511D01*
X171343000Y-114324489D01*
X171438151Y-114802843D01*
X171709117Y-115208372D01*
X172114646Y-115479338D01*
X172593000Y-115574489D01*
X173071354Y-115479338D01*
X173209800Y-115386831D01*
X173209800Y-119236436D01*
X171941436Y-120504800D01*
X155503995Y-120504800D01*
X155570969Y-120491478D01*
X155782882Y-120349882D01*
X157814882Y-118317882D01*
X157956478Y-118105969D01*
X158006200Y-117856000D01*
X158006200Y-115362510D01*
X158236883Y-115208372D01*
X158507849Y-114802843D01*
X158577238Y-114454002D01*
X158645434Y-114454002D01*
X158534757Y-114671044D01*
X158780139Y-115162577D01*
X159194944Y-115522791D01*
X159521958Y-115658231D01*
X159739000Y-115546523D01*
X159739000Y-114454000D01*
X159719000Y-114454000D01*
X159719000Y-114146000D01*
X159739000Y-114146000D01*
X159739000Y-114126000D01*
X160047000Y-114126000D01*
X160047000Y-114146000D01*
X160067000Y-114146000D01*
X160067000Y-114454000D01*
X160047000Y-114454000D01*
X160047000Y-115546523D01*
X160264042Y-115658231D01*
X160591056Y-115522791D01*
X161005861Y-115162577D01*
X161251243Y-114671044D01*
X161140566Y-114454002D01*
X161208762Y-114454002D01*
X161278151Y-114802843D01*
X161549117Y-115208372D01*
X161954646Y-115479338D01*
X162433000Y-115574489D01*
X162911354Y-115479338D01*
X163316883Y-115208372D01*
X163587849Y-114802843D01*
X163683000Y-114324489D01*
X163683000Y-114275511D01*
X163587849Y-113797157D01*
X163316883Y-113391628D01*
X162992976Y-113175200D01*
X164413024Y-113175200D01*
X164089117Y-113391628D01*
X163818151Y-113797157D01*
X163723000Y-114275511D01*
X163723000Y-114324489D01*
X163818151Y-114802843D01*
X164089117Y-115208372D01*
X164494646Y-115479338D01*
X164973000Y-115574489D01*
X165451354Y-115479338D01*
X165856883Y-115208372D01*
X166127849Y-114802843D01*
X166223000Y-114324489D01*
X166223000Y-114275511D01*
X166127849Y-113797157D01*
X165856883Y-113391628D01*
X165532976Y-113175200D01*
X166953024Y-113175200D01*
X166629117Y-113391628D01*
X166358151Y-113797157D01*
X166263000Y-114275511D01*
X166263000Y-114324489D01*
X166358151Y-114802843D01*
X166629117Y-115208372D01*
X167034646Y-115479338D01*
X167513000Y-115574489D01*
X167991354Y-115479338D01*
X168396883Y-115208372D01*
X168667849Y-114802843D01*
X168763000Y-114324489D01*
X168763000Y-114275511D01*
X168667849Y-113797157D01*
X168396883Y-113391628D01*
X168072976Y-113175200D01*
X169493024Y-113175200D01*
X169169117Y-113391628D01*
X168898151Y-113797157D01*
X168803000Y-114275511D01*
X168803000Y-114324489D01*
X168898151Y-114802843D01*
X169169117Y-115208372D01*
X169574646Y-115479338D01*
X170053000Y-115574489D01*
X170531354Y-115479338D01*
X170936883Y-115208372D01*
X171207849Y-114802843D01*
X171303000Y-114324489D01*
X171303000Y-114275511D01*
X171207849Y-113797157D01*
X170936883Y-113391628D01*
X170612976Y-113175200D01*
X171196000Y-113175200D01*
X171445969Y-113125478D01*
X171657882Y-112983882D01*
X174324882Y-110316882D01*
X174364540Y-110257530D01*
X174466478Y-110104969D01*
X174479800Y-110037995D01*
X174479800Y-111743436D01*
G36*
X159009117Y-98786628D02*
X158738151Y-99192157D01*
X158643000Y-99670511D01*
X158643000Y-99719489D01*
X158738151Y-100197843D01*
X159009117Y-100603372D01*
X159414646Y-100874338D01*
X159893000Y-100969489D01*
X160371354Y-100874338D01*
X160776883Y-100603372D01*
X161047849Y-100197843D01*
X161143000Y-99719489D01*
X161143000Y-99670511D01*
X161047849Y-99192157D01*
X160776883Y-98786628D01*
X160605031Y-98671800D01*
X161720969Y-98671800D01*
X161549117Y-98786628D01*
X161278151Y-99192157D01*
X161183000Y-99670511D01*
X161183000Y-99719489D01*
X161278151Y-100197843D01*
X161549117Y-100603372D01*
X161954646Y-100874338D01*
X162433000Y-100969489D01*
X162911354Y-100874338D01*
X163316883Y-100603372D01*
X163587849Y-100197843D01*
X163683000Y-99719489D01*
X163683000Y-99670511D01*
X163587849Y-99192157D01*
X163316883Y-98786628D01*
X163145031Y-98671800D01*
X163413356Y-98671800D01*
X163883260Y-99094714D01*
X163818151Y-99192157D01*
X163723000Y-99670511D01*
X163723000Y-99719489D01*
X163818151Y-100197843D01*
X164089117Y-100603372D01*
X164494646Y-100874338D01*
X164973000Y-100969489D01*
X165451354Y-100874338D01*
X165856883Y-100603372D01*
X166122733Y-100205499D01*
X166923948Y-100205499D01*
X166963697Y-100724333D01*
X167085773Y-101019053D01*
X167310697Y-101084514D01*
X168030211Y-100365000D01*
X167310697Y-99645486D01*
X167085773Y-99710947D01*
X166923948Y-100205499D01*
X166122733Y-100205499D01*
X166127849Y-100197843D01*
X166223000Y-99719489D01*
X166223000Y-99670511D01*
X166172937Y-99418827D01*
X166513564Y-99078200D01*
X167921260Y-99078200D01*
X167888667Y-99080697D01*
X167593947Y-99202773D01*
X167528486Y-99427697D01*
X168248000Y-100147211D01*
X168262142Y-100133069D01*
X168479931Y-100350858D01*
X168465789Y-100365000D01*
X169185303Y-101084514D01*
X169410227Y-101019053D01*
X169416899Y-100998663D01*
X169845118Y-101426882D01*
X170057031Y-101568478D01*
X170307000Y-101618200D01*
X171687436Y-101618200D01*
X172766118Y-102696882D01*
X172978031Y-102838478D01*
X173228000Y-102888200D01*
X177138560Y-102888200D01*
X177067213Y-103060023D01*
X176513436Y-103613800D01*
X174752000Y-103613800D01*
X174502031Y-103663522D01*
X174290118Y-103805118D01*
X173401118Y-104694118D01*
X173259522Y-104906031D01*
X173209800Y-105156000D01*
X173209800Y-105593169D01*
X173071354Y-105500662D01*
X172593000Y-105405511D01*
X172114646Y-105500662D01*
X171709117Y-105771628D01*
X171438151Y-106177157D01*
X171343000Y-106655511D01*
X171343000Y-106704489D01*
X171438151Y-107182843D01*
X171709117Y-107588372D01*
X171939800Y-107742510D01*
X171939800Y-108187436D01*
X171814436Y-108312800D01*
X160666554Y-108312800D01*
X160656189Y-108287714D01*
X160445395Y-108076552D01*
X160169839Y-107962131D01*
X159871470Y-107961870D01*
X159595714Y-108075811D01*
X159384552Y-108286605D01*
X159270131Y-108562161D01*
X159269870Y-108860530D01*
X159383811Y-109136286D01*
X159594605Y-109347448D01*
X159851200Y-109453996D01*
X159853900Y-109455800D01*
X158184648Y-109455800D01*
X159720309Y-107920139D01*
X159893000Y-107954489D01*
X160371354Y-107859338D01*
X160776883Y-107588372D01*
X161047849Y-107182843D01*
X161143000Y-106704489D01*
X161143000Y-106655511D01*
X161183000Y-106655511D01*
X161183000Y-106704489D01*
X161278151Y-107182843D01*
X161549117Y-107588372D01*
X161954646Y-107859338D01*
X162433000Y-107954489D01*
X162911354Y-107859338D01*
X163316883Y-107588372D01*
X163587849Y-107182843D01*
X163683000Y-106704489D01*
X163683000Y-106655511D01*
X163723000Y-106655511D01*
X163723000Y-106704489D01*
X163818151Y-107182843D01*
X164089117Y-107588372D01*
X164494646Y-107859338D01*
X164973000Y-107954489D01*
X165451354Y-107859338D01*
X165856883Y-107588372D01*
X166127849Y-107182843D01*
X166223000Y-106704489D01*
X166223000Y-106655511D01*
X166263000Y-106655511D01*
X166263000Y-106704489D01*
X166358151Y-107182843D01*
X166629117Y-107588372D01*
X167034646Y-107859338D01*
X167513000Y-107954489D01*
X167991354Y-107859338D01*
X168396883Y-107588372D01*
X168667849Y-107182843D01*
X168763000Y-106704489D01*
X168763000Y-106655511D01*
X168803000Y-106655511D01*
X168803000Y-106704489D01*
X168898151Y-107182843D01*
X169169117Y-107588372D01*
X169574646Y-107859338D01*
X170053000Y-107954489D01*
X170531354Y-107859338D01*
X170936883Y-107588372D01*
X171207849Y-107182843D01*
X171303000Y-106704489D01*
X171303000Y-106655511D01*
X171207849Y-106177157D01*
X170936883Y-105771628D01*
X170531354Y-105500662D01*
X170053000Y-105405511D01*
X169574646Y-105500662D01*
X169169117Y-105771628D01*
X168898151Y-106177157D01*
X168803000Y-106655511D01*
X168763000Y-106655511D01*
X168667849Y-106177157D01*
X168396883Y-105771628D01*
X167991354Y-105500662D01*
X167513000Y-105405511D01*
X167034646Y-105500662D01*
X166629117Y-105771628D01*
X166358151Y-106177157D01*
X166263000Y-106655511D01*
X166223000Y-106655511D01*
X166127849Y-106177157D01*
X165856883Y-105771628D01*
X165451354Y-105500662D01*
X164973000Y-105405511D01*
X164494646Y-105500662D01*
X164089117Y-105771628D01*
X163818151Y-106177157D01*
X163723000Y-106655511D01*
X163683000Y-106655511D01*
X163587849Y-106177157D01*
X163316883Y-105771628D01*
X162911354Y-105500662D01*
X162433000Y-105405511D01*
X161954646Y-105500662D01*
X161549117Y-105771628D01*
X161278151Y-106177157D01*
X161183000Y-106655511D01*
X161143000Y-106655511D01*
X161047849Y-106177157D01*
X160776883Y-105771628D01*
X160371354Y-105500662D01*
X159893000Y-105405511D01*
X159414646Y-105500662D01*
X159009117Y-105771628D01*
X158738151Y-106177157D01*
X158668762Y-106525998D01*
X158600566Y-106525998D01*
X158711243Y-106308956D01*
X158465861Y-105817423D01*
X158051056Y-105457209D01*
X157724042Y-105321769D01*
X157507000Y-105433477D01*
X157507000Y-106526000D01*
X157527000Y-106526000D01*
X157527000Y-106834000D01*
X157507000Y-106834000D01*
X157507000Y-107926523D01*
X157554554Y-107950998D01*
X155317518Y-110188034D01*
X155111395Y-109981552D01*
X154835839Y-109867131D01*
X154710935Y-109867022D01*
X154559000Y-109836800D01*
X151717175Y-109836800D01*
X151752869Y-109750839D01*
X151753130Y-109452470D01*
X151639189Y-109176714D01*
X151580000Y-109117422D01*
X151580000Y-107715916D01*
X151794646Y-107859338D01*
X152273000Y-107954489D01*
X152751354Y-107859338D01*
X153156883Y-107588372D01*
X153427849Y-107182843D01*
X153523000Y-106704489D01*
X153523000Y-106655511D01*
X153563000Y-106655511D01*
X153563000Y-106704489D01*
X153658151Y-107182843D01*
X153929117Y-107588372D01*
X154334646Y-107859338D01*
X154813000Y-107954489D01*
X155291354Y-107859338D01*
X155696883Y-107588372D01*
X155967849Y-107182843D01*
X156037238Y-106834002D01*
X156105434Y-106834002D01*
X155994757Y-107051044D01*
X156240139Y-107542577D01*
X156654944Y-107902791D01*
X156981958Y-108038231D01*
X157199000Y-107926523D01*
X157199000Y-106834000D01*
X157179000Y-106834000D01*
X157179000Y-106526000D01*
X157199000Y-106526000D01*
X157199000Y-105433477D01*
X156981958Y-105321769D01*
X156654944Y-105457209D01*
X156240139Y-105817423D01*
X155994757Y-106308956D01*
X156105434Y-106525998D01*
X156037238Y-106525998D01*
X155967849Y-106177157D01*
X155696883Y-105771628D01*
X155291354Y-105500662D01*
X154813000Y-105405511D01*
X154334646Y-105500662D01*
X153929117Y-105771628D01*
X153658151Y-106177157D01*
X153563000Y-106655511D01*
X153523000Y-106655511D01*
X153427849Y-106177157D01*
X153156883Y-105771628D01*
X152751354Y-105500662D01*
X152273000Y-105405511D01*
X151794646Y-105500662D01*
X151580000Y-105644084D01*
X151580000Y-104822856D01*
X152037581Y-104978663D01*
X152616402Y-104941270D01*
X152977490Y-104791704D01*
X153061481Y-104551270D01*
X152233000Y-103722789D01*
X152218858Y-103736931D01*
X152001069Y-103519142D01*
X152015211Y-103505000D01*
X152450789Y-103505000D01*
X153279270Y-104333481D01*
X153519704Y-104249490D01*
X153571347Y-104097822D01*
X153630271Y-104240429D01*
X153995647Y-104606444D01*
X154473279Y-104804774D01*
X154990452Y-104805226D01*
X155468429Y-104607729D01*
X155561351Y-104514969D01*
X157235820Y-104514969D01*
X157313643Y-104750229D01*
X157844548Y-104928815D01*
X158403382Y-104890637D01*
X158742357Y-104750229D01*
X158820180Y-104514969D01*
X158028000Y-103722789D01*
X157235820Y-104514969D01*
X155561351Y-104514969D01*
X155834444Y-104242353D01*
X156032774Y-103764721D01*
X156033161Y-103321548D01*
X156604185Y-103321548D01*
X156642363Y-103880382D01*
X156782771Y-104219357D01*
X157018031Y-104297180D01*
X157810211Y-103505000D01*
X158245789Y-103505000D01*
X159037969Y-104297180D01*
X159273229Y-104219357D01*
X159361831Y-103955960D01*
X159467684Y-104212143D01*
X159819007Y-104564081D01*
X160278269Y-104754783D01*
X160775550Y-104755217D01*
X161235143Y-104565316D01*
X161587081Y-104213993D01*
X161777783Y-103754731D01*
X161778000Y-103505000D01*
X161896470Y-103505000D01*
X161984009Y-103945086D01*
X162233297Y-104318173D01*
X162606384Y-104567461D01*
X163046470Y-104655000D01*
X163091530Y-104655000D01*
X163531616Y-104567461D01*
X163904703Y-104318173D01*
X164153991Y-103945086D01*
X164196228Y-103732746D01*
X170168801Y-103732746D01*
X170343509Y-104155572D01*
X170666727Y-104479354D01*
X171089247Y-104654800D01*
X171546746Y-104655199D01*
X171969572Y-104480491D01*
X172293354Y-104157273D01*
X172468800Y-103734753D01*
X172469199Y-103277254D01*
X172294491Y-102854428D01*
X171971273Y-102530646D01*
X171548753Y-102355200D01*
X171091254Y-102354801D01*
X170668428Y-102529509D01*
X170344646Y-102852727D01*
X170169200Y-103275247D01*
X170168801Y-103732746D01*
X164196228Y-103732746D01*
X164241530Y-103505000D01*
X164153991Y-103064914D01*
X163904703Y-102691827D01*
X163531616Y-102442539D01*
X163091530Y-102355000D01*
X163046470Y-102355000D01*
X162606384Y-102442539D01*
X162233297Y-102691827D01*
X161984009Y-103064914D01*
X161896470Y-103505000D01*
X161778000Y-103505000D01*
X161778217Y-103257450D01*
X161588316Y-102797857D01*
X161236993Y-102445919D01*
X160777731Y-102255217D01*
X160280450Y-102254783D01*
X159820857Y-102444684D01*
X159468919Y-102796007D01*
X159372066Y-103029256D01*
X159273229Y-102790643D01*
X159037969Y-102712820D01*
X158245789Y-103505000D01*
X157810211Y-103505000D01*
X157018031Y-102712820D01*
X156782771Y-102790643D01*
X156604185Y-103321548D01*
X156033161Y-103321548D01*
X156033226Y-103247548D01*
X155835729Y-102769571D01*
X155561669Y-102495031D01*
X157235820Y-102495031D01*
X158028000Y-103287211D01*
X158820180Y-102495031D01*
X158742357Y-102259771D01*
X158211452Y-102081185D01*
X157652618Y-102119363D01*
X157313643Y-102259771D01*
X157235820Y-102495031D01*
X155561669Y-102495031D01*
X155470353Y-102403556D01*
X154992721Y-102205226D01*
X154475548Y-102204774D01*
X153997571Y-102402271D01*
X153631556Y-102767647D01*
X153577041Y-102898934D01*
X153519704Y-102760510D01*
X153279270Y-102676519D01*
X152450789Y-103505000D01*
X152015211Y-103505000D01*
X152001069Y-103490858D01*
X152218858Y-103273069D01*
X152233000Y-103287211D01*
X153061481Y-102458730D01*
X152977490Y-102218296D01*
X152428419Y-102031337D01*
X151849598Y-102068730D01*
X151580000Y-102180400D01*
X151580000Y-101712002D01*
X151989698Y-101302303D01*
X167528486Y-101302303D01*
X167593947Y-101527227D01*
X168088499Y-101689052D01*
X168607333Y-101649303D01*
X168902053Y-101527227D01*
X168967514Y-101302303D01*
X168248000Y-100582789D01*
X167528486Y-101302303D01*
X151989698Y-101302303D01*
X152334806Y-100957195D01*
X152751354Y-100874338D01*
X153156883Y-100603372D01*
X153427849Y-100197843D01*
X153497238Y-99849002D01*
X153565434Y-99849002D01*
X153454757Y-100066044D01*
X153700139Y-100557577D01*
X154114944Y-100917791D01*
X154441958Y-101053231D01*
X154659000Y-100941523D01*
X154659000Y-99849000D01*
X154639000Y-99849000D01*
X154639000Y-99541000D01*
X154659000Y-99541000D01*
X154659000Y-99521000D01*
X154967000Y-99521000D01*
X154967000Y-99541000D01*
X154987000Y-99541000D01*
X154987000Y-99849000D01*
X154967000Y-99849000D01*
X154967000Y-100941523D01*
X155184042Y-101053231D01*
X155511056Y-100917791D01*
X155925861Y-100557577D01*
X156171243Y-100066044D01*
X156060566Y-99849002D01*
X156128762Y-99849002D01*
X156198151Y-100197843D01*
X156469117Y-100603372D01*
X156874646Y-100874338D01*
X157353000Y-100969489D01*
X157831354Y-100874338D01*
X158236883Y-100603372D01*
X158507849Y-100197843D01*
X158603000Y-99719489D01*
X158603000Y-99670511D01*
X158507849Y-99192157D01*
X158236883Y-98786628D01*
X158065031Y-98671800D01*
X159180969Y-98671800D01*
X159009117Y-98786628D01*
X159009117Y-98786628D01*
G37*
X159009117Y-98786628D02*
X158738151Y-99192157D01*
X158643000Y-99670511D01*
X158643000Y-99719489D01*
X158738151Y-100197843D01*
X159009117Y-100603372D01*
X159414646Y-100874338D01*
X159893000Y-100969489D01*
X160371354Y-100874338D01*
X160776883Y-100603372D01*
X161047849Y-100197843D01*
X161143000Y-99719489D01*
X161143000Y-99670511D01*
X161047849Y-99192157D01*
X160776883Y-98786628D01*
X160605031Y-98671800D01*
X161720969Y-98671800D01*
X161549117Y-98786628D01*
X161278151Y-99192157D01*
X161183000Y-99670511D01*
X161183000Y-99719489D01*
X161278151Y-100197843D01*
X161549117Y-100603372D01*
X161954646Y-100874338D01*
X162433000Y-100969489D01*
X162911354Y-100874338D01*
X163316883Y-100603372D01*
X163587849Y-100197843D01*
X163683000Y-99719489D01*
X163683000Y-99670511D01*
X163587849Y-99192157D01*
X163316883Y-98786628D01*
X163145031Y-98671800D01*
X163413356Y-98671800D01*
X163883260Y-99094714D01*
X163818151Y-99192157D01*
X163723000Y-99670511D01*
X163723000Y-99719489D01*
X163818151Y-100197843D01*
X164089117Y-100603372D01*
X164494646Y-100874338D01*
X164973000Y-100969489D01*
X165451354Y-100874338D01*
X165856883Y-100603372D01*
X166122733Y-100205499D01*
X166923948Y-100205499D01*
X166963697Y-100724333D01*
X167085773Y-101019053D01*
X167310697Y-101084514D01*
X168030211Y-100365000D01*
X167310697Y-99645486D01*
X167085773Y-99710947D01*
X166923948Y-100205499D01*
X166122733Y-100205499D01*
X166127849Y-100197843D01*
X166223000Y-99719489D01*
X166223000Y-99670511D01*
X166172937Y-99418827D01*
X166513564Y-99078200D01*
X167921260Y-99078200D01*
X167888667Y-99080697D01*
X167593947Y-99202773D01*
X167528486Y-99427697D01*
X168248000Y-100147211D01*
X168262142Y-100133069D01*
X168479931Y-100350858D01*
X168465789Y-100365000D01*
X169185303Y-101084514D01*
X169410227Y-101019053D01*
X169416899Y-100998663D01*
X169845118Y-101426882D01*
X170057031Y-101568478D01*
X170307000Y-101618200D01*
X171687436Y-101618200D01*
X172766118Y-102696882D01*
X172978031Y-102838478D01*
X173228000Y-102888200D01*
X177138560Y-102888200D01*
X177067213Y-103060023D01*
X176513436Y-103613800D01*
X174752000Y-103613800D01*
X174502031Y-103663522D01*
X174290118Y-103805118D01*
X173401118Y-104694118D01*
X173259522Y-104906031D01*
X173209800Y-105156000D01*
X173209800Y-105593169D01*
X173071354Y-105500662D01*
X172593000Y-105405511D01*
X172114646Y-105500662D01*
X171709117Y-105771628D01*
X171438151Y-106177157D01*
X171343000Y-106655511D01*
X171343000Y-106704489D01*
X171438151Y-107182843D01*
X171709117Y-107588372D01*
X171939800Y-107742510D01*
X171939800Y-108187436D01*
X171814436Y-108312800D01*
X160666554Y-108312800D01*
X160656189Y-108287714D01*
X160445395Y-108076552D01*
X160169839Y-107962131D01*
X159871470Y-107961870D01*
X159595714Y-108075811D01*
X159384552Y-108286605D01*
X159270131Y-108562161D01*
X159269870Y-108860530D01*
X159383811Y-109136286D01*
X159594605Y-109347448D01*
X159851200Y-109453996D01*
X159853900Y-109455800D01*
X158184648Y-109455800D01*
X159720309Y-107920139D01*
X159893000Y-107954489D01*
X160371354Y-107859338D01*
X160776883Y-107588372D01*
X161047849Y-107182843D01*
X161143000Y-106704489D01*
X161143000Y-106655511D01*
X161183000Y-106655511D01*
X161183000Y-106704489D01*
X161278151Y-107182843D01*
X161549117Y-107588372D01*
X161954646Y-107859338D01*
X162433000Y-107954489D01*
X162911354Y-107859338D01*
X163316883Y-107588372D01*
X163587849Y-107182843D01*
X163683000Y-106704489D01*
X163683000Y-106655511D01*
X163723000Y-106655511D01*
X163723000Y-106704489D01*
X163818151Y-107182843D01*
X164089117Y-107588372D01*
X164494646Y-107859338D01*
X164973000Y-107954489D01*
X165451354Y-107859338D01*
X165856883Y-107588372D01*
X166127849Y-107182843D01*
X166223000Y-106704489D01*
X166223000Y-106655511D01*
X166263000Y-106655511D01*
X166263000Y-106704489D01*
X166358151Y-107182843D01*
X166629117Y-107588372D01*
X167034646Y-107859338D01*
X167513000Y-107954489D01*
X167991354Y-107859338D01*
X168396883Y-107588372D01*
X168667849Y-107182843D01*
X168763000Y-106704489D01*
X168763000Y-106655511D01*
X168803000Y-106655511D01*
X168803000Y-106704489D01*
X168898151Y-107182843D01*
X169169117Y-107588372D01*
X169574646Y-107859338D01*
X170053000Y-107954489D01*
X170531354Y-107859338D01*
X170936883Y-107588372D01*
X171207849Y-107182843D01*
X171303000Y-106704489D01*
X171303000Y-106655511D01*
X171207849Y-106177157D01*
X170936883Y-105771628D01*
X170531354Y-105500662D01*
X170053000Y-105405511D01*
X169574646Y-105500662D01*
X169169117Y-105771628D01*
X168898151Y-106177157D01*
X168803000Y-106655511D01*
X168763000Y-106655511D01*
X168667849Y-106177157D01*
X168396883Y-105771628D01*
X167991354Y-105500662D01*
X167513000Y-105405511D01*
X167034646Y-105500662D01*
X166629117Y-105771628D01*
X166358151Y-106177157D01*
X166263000Y-106655511D01*
X166223000Y-106655511D01*
X166127849Y-106177157D01*
X165856883Y-105771628D01*
X165451354Y-105500662D01*
X164973000Y-105405511D01*
X164494646Y-105500662D01*
X164089117Y-105771628D01*
X163818151Y-106177157D01*
X163723000Y-106655511D01*
X163683000Y-106655511D01*
X163587849Y-106177157D01*
X163316883Y-105771628D01*
X162911354Y-105500662D01*
X162433000Y-105405511D01*
X161954646Y-105500662D01*
X161549117Y-105771628D01*
X161278151Y-106177157D01*
X161183000Y-106655511D01*
X161143000Y-106655511D01*
X161047849Y-106177157D01*
X160776883Y-105771628D01*
X160371354Y-105500662D01*
X159893000Y-105405511D01*
X159414646Y-105500662D01*
X159009117Y-105771628D01*
X158738151Y-106177157D01*
X158668762Y-106525998D01*
X158600566Y-106525998D01*
X158711243Y-106308956D01*
X158465861Y-105817423D01*
X158051056Y-105457209D01*
X157724042Y-105321769D01*
X157507000Y-105433477D01*
X157507000Y-106526000D01*
X157527000Y-106526000D01*
X157527000Y-106834000D01*
X157507000Y-106834000D01*
X157507000Y-107926523D01*
X157554554Y-107950998D01*
X155317518Y-110188034D01*
X155111395Y-109981552D01*
X154835839Y-109867131D01*
X154710935Y-109867022D01*
X154559000Y-109836800D01*
X151717175Y-109836800D01*
X151752869Y-109750839D01*
X151753130Y-109452470D01*
X151639189Y-109176714D01*
X151580000Y-109117422D01*
X151580000Y-107715916D01*
X151794646Y-107859338D01*
X152273000Y-107954489D01*
X152751354Y-107859338D01*
X153156883Y-107588372D01*
X153427849Y-107182843D01*
X153523000Y-106704489D01*
X153523000Y-106655511D01*
X153563000Y-106655511D01*
X153563000Y-106704489D01*
X153658151Y-107182843D01*
X153929117Y-107588372D01*
X154334646Y-107859338D01*
X154813000Y-107954489D01*
X155291354Y-107859338D01*
X155696883Y-107588372D01*
X155967849Y-107182843D01*
X156037238Y-106834002D01*
X156105434Y-106834002D01*
X155994757Y-107051044D01*
X156240139Y-107542577D01*
X156654944Y-107902791D01*
X156981958Y-108038231D01*
X157199000Y-107926523D01*
X157199000Y-106834000D01*
X157179000Y-106834000D01*
X157179000Y-106526000D01*
X157199000Y-106526000D01*
X157199000Y-105433477D01*
X156981958Y-105321769D01*
X156654944Y-105457209D01*
X156240139Y-105817423D01*
X155994757Y-106308956D01*
X156105434Y-106525998D01*
X156037238Y-106525998D01*
X155967849Y-106177157D01*
X155696883Y-105771628D01*
X155291354Y-105500662D01*
X154813000Y-105405511D01*
X154334646Y-105500662D01*
X153929117Y-105771628D01*
X153658151Y-106177157D01*
X153563000Y-106655511D01*
X153523000Y-106655511D01*
X153427849Y-106177157D01*
X153156883Y-105771628D01*
X152751354Y-105500662D01*
X152273000Y-105405511D01*
X151794646Y-105500662D01*
X151580000Y-105644084D01*
X151580000Y-104822856D01*
X152037581Y-104978663D01*
X152616402Y-104941270D01*
X152977490Y-104791704D01*
X153061481Y-104551270D01*
X152233000Y-103722789D01*
X152218858Y-103736931D01*
X152001069Y-103519142D01*
X152015211Y-103505000D01*
X152450789Y-103505000D01*
X153279270Y-104333481D01*
X153519704Y-104249490D01*
X153571347Y-104097822D01*
X153630271Y-104240429D01*
X153995647Y-104606444D01*
X154473279Y-104804774D01*
X154990452Y-104805226D01*
X155468429Y-104607729D01*
X155561351Y-104514969D01*
X157235820Y-104514969D01*
X157313643Y-104750229D01*
X157844548Y-104928815D01*
X158403382Y-104890637D01*
X158742357Y-104750229D01*
X158820180Y-104514969D01*
X158028000Y-103722789D01*
X157235820Y-104514969D01*
X155561351Y-104514969D01*
X155834444Y-104242353D01*
X156032774Y-103764721D01*
X156033161Y-103321548D01*
X156604185Y-103321548D01*
X156642363Y-103880382D01*
X156782771Y-104219357D01*
X157018031Y-104297180D01*
X157810211Y-103505000D01*
X158245789Y-103505000D01*
X159037969Y-104297180D01*
X159273229Y-104219357D01*
X159361831Y-103955960D01*
X159467684Y-104212143D01*
X159819007Y-104564081D01*
X160278269Y-104754783D01*
X160775550Y-104755217D01*
X161235143Y-104565316D01*
X161587081Y-104213993D01*
X161777783Y-103754731D01*
X161778000Y-103505000D01*
X161896470Y-103505000D01*
X161984009Y-103945086D01*
X162233297Y-104318173D01*
X162606384Y-104567461D01*
X163046470Y-104655000D01*
X163091530Y-104655000D01*
X163531616Y-104567461D01*
X163904703Y-104318173D01*
X164153991Y-103945086D01*
X164196228Y-103732746D01*
X170168801Y-103732746D01*
X170343509Y-104155572D01*
X170666727Y-104479354D01*
X171089247Y-104654800D01*
X171546746Y-104655199D01*
X171969572Y-104480491D01*
X172293354Y-104157273D01*
X172468800Y-103734753D01*
X172469199Y-103277254D01*
X172294491Y-102854428D01*
X171971273Y-102530646D01*
X171548753Y-102355200D01*
X171091254Y-102354801D01*
X170668428Y-102529509D01*
X170344646Y-102852727D01*
X170169200Y-103275247D01*
X170168801Y-103732746D01*
X164196228Y-103732746D01*
X164241530Y-103505000D01*
X164153991Y-103064914D01*
X163904703Y-102691827D01*
X163531616Y-102442539D01*
X163091530Y-102355000D01*
X163046470Y-102355000D01*
X162606384Y-102442539D01*
X162233297Y-102691827D01*
X161984009Y-103064914D01*
X161896470Y-103505000D01*
X161778000Y-103505000D01*
X161778217Y-103257450D01*
X161588316Y-102797857D01*
X161236993Y-102445919D01*
X160777731Y-102255217D01*
X160280450Y-102254783D01*
X159820857Y-102444684D01*
X159468919Y-102796007D01*
X159372066Y-103029256D01*
X159273229Y-102790643D01*
X159037969Y-102712820D01*
X158245789Y-103505000D01*
X157810211Y-103505000D01*
X157018031Y-102712820D01*
X156782771Y-102790643D01*
X156604185Y-103321548D01*
X156033161Y-103321548D01*
X156033226Y-103247548D01*
X155835729Y-102769571D01*
X155561669Y-102495031D01*
X157235820Y-102495031D01*
X158028000Y-103287211D01*
X158820180Y-102495031D01*
X158742357Y-102259771D01*
X158211452Y-102081185D01*
X157652618Y-102119363D01*
X157313643Y-102259771D01*
X157235820Y-102495031D01*
X155561669Y-102495031D01*
X155470353Y-102403556D01*
X154992721Y-102205226D01*
X154475548Y-102204774D01*
X153997571Y-102402271D01*
X153631556Y-102767647D01*
X153577041Y-102898934D01*
X153519704Y-102760510D01*
X153279270Y-102676519D01*
X152450789Y-103505000D01*
X152015211Y-103505000D01*
X152001069Y-103490858D01*
X152218858Y-103273069D01*
X152233000Y-103287211D01*
X153061481Y-102458730D01*
X152977490Y-102218296D01*
X152428419Y-102031337D01*
X151849598Y-102068730D01*
X151580000Y-102180400D01*
X151580000Y-101712002D01*
X151989698Y-101302303D01*
X167528486Y-101302303D01*
X167593947Y-101527227D01*
X168088499Y-101689052D01*
X168607333Y-101649303D01*
X168902053Y-101527227D01*
X168967514Y-101302303D01*
X168248000Y-100582789D01*
X167528486Y-101302303D01*
X151989698Y-101302303D01*
X152334806Y-100957195D01*
X152751354Y-100874338D01*
X153156883Y-100603372D01*
X153427849Y-100197843D01*
X153497238Y-99849002D01*
X153565434Y-99849002D01*
X153454757Y-100066044D01*
X153700139Y-100557577D01*
X154114944Y-100917791D01*
X154441958Y-101053231D01*
X154659000Y-100941523D01*
X154659000Y-99849000D01*
X154639000Y-99849000D01*
X154639000Y-99541000D01*
X154659000Y-99541000D01*
X154659000Y-99521000D01*
X154967000Y-99521000D01*
X154967000Y-99541000D01*
X154987000Y-99541000D01*
X154987000Y-99849000D01*
X154967000Y-99849000D01*
X154967000Y-100941523D01*
X155184042Y-101053231D01*
X155511056Y-100917791D01*
X155925861Y-100557577D01*
X156171243Y-100066044D01*
X156060566Y-99849002D01*
X156128762Y-99849002D01*
X156198151Y-100197843D01*
X156469117Y-100603372D01*
X156874646Y-100874338D01*
X157353000Y-100969489D01*
X157831354Y-100874338D01*
X158236883Y-100603372D01*
X158507849Y-100197843D01*
X158603000Y-99719489D01*
X158603000Y-99670511D01*
X158507849Y-99192157D01*
X158236883Y-98786628D01*
X158065031Y-98671800D01*
X159180969Y-98671800D01*
X159009117Y-98786628D01*
G36*
X177192000Y-100811000D02*
X177212000Y-100811000D01*
X177212000Y-101119000D01*
X177192000Y-101119000D01*
X177192000Y-101139000D01*
X176884000Y-101139000D01*
X176884000Y-101119000D01*
X176864000Y-101119000D01*
X176864000Y-100811000D01*
X176884000Y-100811000D01*
X176884000Y-100791000D01*
X177192000Y-100791000D01*
X177192000Y-100811000D01*
X177192000Y-100811000D01*
G37*
X177192000Y-100811000D02*
X177212000Y-100811000D01*
X177212000Y-101119000D01*
X177192000Y-101119000D01*
X177192000Y-101139000D01*
X176884000Y-101139000D01*
X176884000Y-101119000D01*
X176864000Y-101119000D01*
X176864000Y-100811000D01*
X176884000Y-100811000D01*
X176884000Y-100791000D01*
X177192000Y-100791000D01*
X177192000Y-100811000D01*
G36*
X175811488Y-98922488D02*
X176093292Y-99344239D01*
X176515043Y-99626043D01*
X176518323Y-99626696D01*
X176149146Y-99809259D01*
X175774523Y-100237384D01*
X175696545Y-100425656D01*
X175442708Y-100045761D01*
X175020957Y-99763957D01*
X174674288Y-99695000D01*
X175020957Y-99626043D01*
X175442708Y-99344239D01*
X175724512Y-98922488D01*
X175768000Y-98703860D01*
X175811488Y-98922488D01*
X175811488Y-98922488D01*
G37*
X175811488Y-98922488D02*
X176093292Y-99344239D01*
X176515043Y-99626043D01*
X176518323Y-99626696D01*
X176149146Y-99809259D01*
X175774523Y-100237384D01*
X175696545Y-100425656D01*
X175442708Y-100045761D01*
X175020957Y-99763957D01*
X174674288Y-99695000D01*
X175020957Y-99626043D01*
X175442708Y-99344239D01*
X175724512Y-98922488D01*
X175768000Y-98703860D01*
X175811488Y-98922488D01*
G36*
X173284392Y-76248814D02*
X173569145Y-76674976D01*
X173995307Y-76959729D01*
X174498000Y-77059721D01*
X175000693Y-76959729D01*
X175368800Y-76713767D01*
X175368800Y-76974095D01*
X175111470Y-76973870D01*
X174835714Y-77087811D01*
X174624552Y-77298605D01*
X174510131Y-77574161D01*
X174509870Y-77872530D01*
X174606800Y-78107117D01*
X174606800Y-87644854D01*
X173429716Y-88821938D01*
X173288120Y-89033851D01*
X173238398Y-89283820D01*
X173238398Y-92611598D01*
X173288120Y-92861567D01*
X173429716Y-93073480D01*
X174400547Y-94044311D01*
X174496811Y-94277286D01*
X174707605Y-94488448D01*
X174918896Y-94576184D01*
X173648000Y-94576184D01*
X173481240Y-94607562D01*
X173328081Y-94706117D01*
X173225332Y-94856495D01*
X173189184Y-95035000D01*
X173189184Y-96735000D01*
X173220562Y-96901760D01*
X173319117Y-97054919D01*
X173469495Y-97157668D01*
X173648000Y-97193816D01*
X174126571Y-97193816D01*
X173975043Y-97223957D01*
X173553292Y-97505761D01*
X173513965Y-97564619D01*
X171372464Y-95423118D01*
X171160551Y-95281522D01*
X171055546Y-95260635D01*
X171395143Y-95120316D01*
X171747081Y-94768993D01*
X171937783Y-94309731D01*
X171938217Y-93812450D01*
X171748316Y-93352857D01*
X171396993Y-93000919D01*
X171341200Y-92977752D01*
X171341200Y-92964000D01*
X171291478Y-92714031D01*
X171149882Y-92502118D01*
X169499562Y-90851798D01*
X169643402Y-90851798D01*
X169893371Y-90802076D01*
X170105284Y-90660480D01*
X170514882Y-90250882D01*
X170656478Y-90038969D01*
X170666396Y-89989105D01*
X170936883Y-89808372D01*
X171207849Y-89402843D01*
X171303000Y-88924489D01*
X171303000Y-88875511D01*
X171207849Y-88397157D01*
X170936883Y-87991628D01*
X170531354Y-87720662D01*
X170053000Y-87625511D01*
X169574646Y-87720662D01*
X169169117Y-87991628D01*
X168898151Y-88397157D01*
X168803000Y-88875511D01*
X168803000Y-88924489D01*
X168898151Y-89402843D01*
X168993403Y-89545398D01*
X168572597Y-89545398D01*
X168667849Y-89402843D01*
X168763000Y-88924489D01*
X168763000Y-88875511D01*
X168667849Y-88397157D01*
X168396883Y-87991628D01*
X167991354Y-87720662D01*
X167513000Y-87625511D01*
X167034646Y-87720662D01*
X166629117Y-87991628D01*
X166358151Y-88397157D01*
X166263000Y-88875511D01*
X166263000Y-88924489D01*
X166358151Y-89402843D01*
X166453403Y-89545398D01*
X166032597Y-89545398D01*
X166127849Y-89402843D01*
X166223000Y-88924489D01*
X166223000Y-88875511D01*
X166127849Y-88397157D01*
X165856883Y-87991628D01*
X165451354Y-87720662D01*
X164973000Y-87625511D01*
X164494646Y-87720662D01*
X164089117Y-87991628D01*
X163818151Y-88397157D01*
X163723000Y-88875511D01*
X163723000Y-88924489D01*
X163818151Y-89402843D01*
X163913403Y-89545398D01*
X163492597Y-89545398D01*
X163587849Y-89402843D01*
X163683000Y-88924489D01*
X163683000Y-88875511D01*
X163587849Y-88397157D01*
X163316883Y-87991628D01*
X162911354Y-87720662D01*
X162433000Y-87625511D01*
X161954646Y-87720662D01*
X161549117Y-87991628D01*
X161278151Y-88397157D01*
X161208762Y-88745998D01*
X161140566Y-88745998D01*
X161251243Y-88528956D01*
X161005861Y-88037423D01*
X160591056Y-87677209D01*
X160264042Y-87541769D01*
X160047000Y-87653477D01*
X160047000Y-88746000D01*
X160067000Y-88746000D01*
X160067000Y-89054000D01*
X160047000Y-89054000D01*
X160047000Y-89074000D01*
X159739000Y-89074000D01*
X159739000Y-89054000D01*
X159719000Y-89054000D01*
X159719000Y-88746000D01*
X159739000Y-88746000D01*
X159739000Y-87653477D01*
X159521958Y-87541769D01*
X159194944Y-87677209D01*
X158780139Y-88037423D01*
X158534757Y-88528956D01*
X158645434Y-88745998D01*
X158577238Y-88745998D01*
X158507849Y-88397157D01*
X158236883Y-87991628D01*
X157831354Y-87720662D01*
X157353000Y-87625511D01*
X157243465Y-87647299D01*
X157496564Y-87394200D01*
X169164000Y-87394200D01*
X169413969Y-87344478D01*
X169625882Y-87202882D01*
X172419882Y-84408882D01*
X172422530Y-84404919D01*
X172561478Y-84196969D01*
X172611200Y-83947000D01*
X172611200Y-76859163D01*
X172886855Y-76674976D01*
X173171608Y-76248814D01*
X173228000Y-75965313D01*
X173284392Y-76248814D01*
X173284392Y-76248814D01*
G37*
X173284392Y-76248814D02*
X173569145Y-76674976D01*
X173995307Y-76959729D01*
X174498000Y-77059721D01*
X175000693Y-76959729D01*
X175368800Y-76713767D01*
X175368800Y-76974095D01*
X175111470Y-76973870D01*
X174835714Y-77087811D01*
X174624552Y-77298605D01*
X174510131Y-77574161D01*
X174509870Y-77872530D01*
X174606800Y-78107117D01*
X174606800Y-87644854D01*
X173429716Y-88821938D01*
X173288120Y-89033851D01*
X173238398Y-89283820D01*
X173238398Y-92611598D01*
X173288120Y-92861567D01*
X173429716Y-93073480D01*
X174400547Y-94044311D01*
X174496811Y-94277286D01*
X174707605Y-94488448D01*
X174918896Y-94576184D01*
X173648000Y-94576184D01*
X173481240Y-94607562D01*
X173328081Y-94706117D01*
X173225332Y-94856495D01*
X173189184Y-95035000D01*
X173189184Y-96735000D01*
X173220562Y-96901760D01*
X173319117Y-97054919D01*
X173469495Y-97157668D01*
X173648000Y-97193816D01*
X174126571Y-97193816D01*
X173975043Y-97223957D01*
X173553292Y-97505761D01*
X173513965Y-97564619D01*
X171372464Y-95423118D01*
X171160551Y-95281522D01*
X171055546Y-95260635D01*
X171395143Y-95120316D01*
X171747081Y-94768993D01*
X171937783Y-94309731D01*
X171938217Y-93812450D01*
X171748316Y-93352857D01*
X171396993Y-93000919D01*
X171341200Y-92977752D01*
X171341200Y-92964000D01*
X171291478Y-92714031D01*
X171149882Y-92502118D01*
X169499562Y-90851798D01*
X169643402Y-90851798D01*
X169893371Y-90802076D01*
X170105284Y-90660480D01*
X170514882Y-90250882D01*
X170656478Y-90038969D01*
X170666396Y-89989105D01*
X170936883Y-89808372D01*
X171207849Y-89402843D01*
X171303000Y-88924489D01*
X171303000Y-88875511D01*
X171207849Y-88397157D01*
X170936883Y-87991628D01*
X170531354Y-87720662D01*
X170053000Y-87625511D01*
X169574646Y-87720662D01*
X169169117Y-87991628D01*
X168898151Y-88397157D01*
X168803000Y-88875511D01*
X168803000Y-88924489D01*
X168898151Y-89402843D01*
X168993403Y-89545398D01*
X168572597Y-89545398D01*
X168667849Y-89402843D01*
X168763000Y-88924489D01*
X168763000Y-88875511D01*
X168667849Y-88397157D01*
X168396883Y-87991628D01*
X167991354Y-87720662D01*
X167513000Y-87625511D01*
X167034646Y-87720662D01*
X166629117Y-87991628D01*
X166358151Y-88397157D01*
X166263000Y-88875511D01*
X166263000Y-88924489D01*
X166358151Y-89402843D01*
X166453403Y-89545398D01*
X166032597Y-89545398D01*
X166127849Y-89402843D01*
X166223000Y-88924489D01*
X166223000Y-88875511D01*
X166127849Y-88397157D01*
X165856883Y-87991628D01*
X165451354Y-87720662D01*
X164973000Y-87625511D01*
X164494646Y-87720662D01*
X164089117Y-87991628D01*
X163818151Y-88397157D01*
X163723000Y-88875511D01*
X163723000Y-88924489D01*
X163818151Y-89402843D01*
X163913403Y-89545398D01*
X163492597Y-89545398D01*
X163587849Y-89402843D01*
X163683000Y-88924489D01*
X163683000Y-88875511D01*
X163587849Y-88397157D01*
X163316883Y-87991628D01*
X162911354Y-87720662D01*
X162433000Y-87625511D01*
X161954646Y-87720662D01*
X161549117Y-87991628D01*
X161278151Y-88397157D01*
X161208762Y-88745998D01*
X161140566Y-88745998D01*
X161251243Y-88528956D01*
X161005861Y-88037423D01*
X160591056Y-87677209D01*
X160264042Y-87541769D01*
X160047000Y-87653477D01*
X160047000Y-88746000D01*
X160067000Y-88746000D01*
X160067000Y-89054000D01*
X160047000Y-89054000D01*
X160047000Y-89074000D01*
X159739000Y-89074000D01*
X159739000Y-89054000D01*
X159719000Y-89054000D01*
X159719000Y-88746000D01*
X159739000Y-88746000D01*
X159739000Y-87653477D01*
X159521958Y-87541769D01*
X159194944Y-87677209D01*
X158780139Y-88037423D01*
X158534757Y-88528956D01*
X158645434Y-88745998D01*
X158577238Y-88745998D01*
X158507849Y-88397157D01*
X158236883Y-87991628D01*
X157831354Y-87720662D01*
X157353000Y-87625511D01*
X157243465Y-87647299D01*
X157496564Y-87394200D01*
X169164000Y-87394200D01*
X169413969Y-87344478D01*
X169625882Y-87202882D01*
X172419882Y-84408882D01*
X172422530Y-84404919D01*
X172561478Y-84196969D01*
X172611200Y-83947000D01*
X172611200Y-76859163D01*
X172886855Y-76674976D01*
X173171608Y-76248814D01*
X173228000Y-75965313D01*
X173284392Y-76248814D01*
G36*
X170744392Y-76248814D02*
X171029145Y-76674976D01*
X171304800Y-76859163D01*
X171304800Y-83676436D01*
X168893436Y-86087800D01*
X161850964Y-86087800D01*
X162894882Y-85043882D01*
X163036478Y-84831969D01*
X163086200Y-84582000D01*
X163086200Y-82342510D01*
X163316883Y-82188372D01*
X163587849Y-81782843D01*
X163683000Y-81304489D01*
X163683000Y-81255511D01*
X163587849Y-80777157D01*
X163316883Y-80371628D01*
X162911354Y-80100662D01*
X162433000Y-80005511D01*
X161954646Y-80100662D01*
X161549117Y-80371628D01*
X161278151Y-80777157D01*
X161183000Y-81255511D01*
X161183000Y-81304489D01*
X161278151Y-81782843D01*
X161549117Y-82188372D01*
X161779800Y-82342510D01*
X161779800Y-84311436D01*
X160765436Y-85325800D01*
X155601440Y-85325800D01*
X155689869Y-85112839D01*
X155690130Y-84814470D01*
X155576189Y-84538714D01*
X155365395Y-84327552D01*
X155089839Y-84213131D01*
X154964935Y-84213022D01*
X154813000Y-84182800D01*
X149098000Y-84182800D01*
X148848031Y-84232522D01*
X148636118Y-84374118D01*
X146731118Y-86279118D01*
X146589522Y-86491031D01*
X146539800Y-86741000D01*
X146539800Y-87641184D01*
X146393000Y-87641184D01*
X146226240Y-87672562D01*
X146073081Y-87771117D01*
X145970332Y-87921495D01*
X145934184Y-88100000D01*
X145934184Y-89700000D01*
X145965562Y-89866760D01*
X146064117Y-90019919D01*
X146199686Y-90112550D01*
X145525436Y-90786800D01*
X145216045Y-90786800D01*
X145361815Y-90353452D01*
X145323637Y-89794618D01*
X145183229Y-89455643D01*
X144947969Y-89377820D01*
X144155789Y-90170000D01*
X144169931Y-90184142D01*
X143952142Y-90401931D01*
X143938000Y-90387789D01*
X143923858Y-90401931D01*
X143706069Y-90184142D01*
X143720211Y-90170000D01*
X142928031Y-89377820D01*
X142692771Y-89455643D01*
X142514185Y-89986548D01*
X142552363Y-90545382D01*
X142652362Y-90786800D01*
X140478564Y-90786800D01*
X140165400Y-90473636D01*
X140178954Y-90440994D01*
X141459917Y-89160031D01*
X143145820Y-89160031D01*
X143938000Y-89952211D01*
X144730180Y-89160031D01*
X144652357Y-88924771D01*
X144121452Y-88746185D01*
X143562618Y-88784363D01*
X143223643Y-88924771D01*
X143145820Y-89160031D01*
X141459917Y-89160031D01*
X143744142Y-86875806D01*
X143963143Y-86785316D01*
X144315081Y-86433993D01*
X144505783Y-85974731D01*
X144506217Y-85477450D01*
X144316316Y-85017857D01*
X144194429Y-84895757D01*
X144352882Y-84789882D01*
X145876882Y-83265882D01*
X146018478Y-83053969D01*
X146033696Y-82977461D01*
X146068200Y-82804000D01*
X146068200Y-81827814D01*
X146309117Y-82188372D01*
X146714646Y-82459338D01*
X147193000Y-82554489D01*
X147671354Y-82459338D01*
X148076883Y-82188372D01*
X148347849Y-81782843D01*
X148443000Y-81304489D01*
X148443000Y-81255511D01*
X148347849Y-80777157D01*
X148186847Y-80536200D01*
X148739153Y-80536200D01*
X148578151Y-80777157D01*
X148483000Y-81255511D01*
X148483000Y-81304489D01*
X148578151Y-81782843D01*
X148849117Y-82188372D01*
X149254646Y-82459338D01*
X149733000Y-82554489D01*
X150211354Y-82459338D01*
X150616883Y-82188372D01*
X150887849Y-81782843D01*
X150983000Y-81304489D01*
X150983000Y-81255511D01*
X151023000Y-81255511D01*
X151023000Y-81304489D01*
X151118151Y-81782843D01*
X151389117Y-82188372D01*
X151794646Y-82459338D01*
X152273000Y-82554489D01*
X152751354Y-82459338D01*
X153156883Y-82188372D01*
X153427849Y-81782843D01*
X153523000Y-81304489D01*
X153523000Y-81255511D01*
X153427849Y-80777157D01*
X153156883Y-80371628D01*
X152751354Y-80100662D01*
X152273000Y-80005511D01*
X151794646Y-80100662D01*
X151389117Y-80371628D01*
X151118151Y-80777157D01*
X151023000Y-81255511D01*
X150983000Y-81255511D01*
X150887849Y-80777157D01*
X150616883Y-80371628D01*
X150346396Y-80190895D01*
X150336478Y-80141031D01*
X150194882Y-79929118D01*
X149989164Y-79723400D01*
X153420478Y-79723400D01*
X154012794Y-80315716D01*
X153929117Y-80371628D01*
X153658151Y-80777157D01*
X153563000Y-81255511D01*
X153563000Y-81304489D01*
X153658151Y-81782843D01*
X153929117Y-82188372D01*
X154334646Y-82459338D01*
X154813000Y-82554489D01*
X155291354Y-82459338D01*
X155696883Y-82188372D01*
X155967849Y-81782843D01*
X156037238Y-81434002D01*
X156105434Y-81434002D01*
X155994757Y-81651044D01*
X156240139Y-82142577D01*
X156654944Y-82502791D01*
X156981958Y-82638231D01*
X157199000Y-82526523D01*
X157199000Y-81434000D01*
X157179000Y-81434000D01*
X157179000Y-81126000D01*
X157199000Y-81126000D01*
X157199000Y-80033477D01*
X157507000Y-80033477D01*
X157507000Y-81126000D01*
X157527000Y-81126000D01*
X157527000Y-81434000D01*
X157507000Y-81434000D01*
X157507000Y-82526523D01*
X157724042Y-82638231D01*
X158051056Y-82502791D01*
X158465861Y-82142577D01*
X158711243Y-81651044D01*
X158600566Y-81434002D01*
X158668762Y-81434002D01*
X158738151Y-81782843D01*
X159009117Y-82188372D01*
X159414646Y-82459338D01*
X159893000Y-82554489D01*
X160371354Y-82459338D01*
X160776883Y-82188372D01*
X161047849Y-81782843D01*
X161143000Y-81304489D01*
X161143000Y-81255511D01*
X161047849Y-80777157D01*
X160776883Y-80371628D01*
X160371354Y-80100662D01*
X159893000Y-80005511D01*
X159414646Y-80100662D01*
X159009117Y-80371628D01*
X158738151Y-80777157D01*
X158668762Y-81125998D01*
X158600566Y-81125998D01*
X158711243Y-80908956D01*
X158465861Y-80417423D01*
X158051056Y-80057209D01*
X157724042Y-79921769D01*
X157507000Y-80033477D01*
X157199000Y-80033477D01*
X156981958Y-79921769D01*
X156654944Y-80057209D01*
X156240139Y-80417423D01*
X155994757Y-80908956D01*
X156105434Y-81125998D01*
X156037238Y-81125998D01*
X155967849Y-80777157D01*
X155696883Y-80371628D01*
X155396944Y-80171215D01*
X155369545Y-80033472D01*
X155369545Y-80033471D01*
X155238961Y-79838039D01*
X154511524Y-79110602D01*
X163432436Y-79110602D01*
X164319800Y-79997966D01*
X164319800Y-80217490D01*
X164089117Y-80371628D01*
X163818151Y-80777157D01*
X163723000Y-81255511D01*
X163723000Y-81304489D01*
X163818151Y-81782843D01*
X164089117Y-82188372D01*
X164494646Y-82459338D01*
X164973000Y-82554489D01*
X165451354Y-82459338D01*
X165856883Y-82188372D01*
X166127849Y-81782843D01*
X166223000Y-81304489D01*
X166223000Y-81255511D01*
X166127849Y-80777157D01*
X165856883Y-80371628D01*
X165626200Y-80217490D01*
X165626200Y-79727402D01*
X165576478Y-79477433D01*
X165434882Y-79265520D01*
X164673562Y-78504200D01*
X166353436Y-78504200D01*
X166859800Y-79010564D01*
X166859800Y-80217490D01*
X166629117Y-80371628D01*
X166358151Y-80777157D01*
X166263000Y-81255511D01*
X166263000Y-81304489D01*
X166358151Y-81782843D01*
X166629117Y-82188372D01*
X167034646Y-82459338D01*
X167513000Y-82554489D01*
X167991354Y-82459338D01*
X168396883Y-82188372D01*
X168667849Y-81782843D01*
X168763000Y-81304489D01*
X168763000Y-81255511D01*
X168667849Y-80777157D01*
X168396883Y-80371628D01*
X168166200Y-80217490D01*
X168166200Y-78740000D01*
X168116478Y-78490031D01*
X167974882Y-78278118D01*
X167565964Y-77869200D01*
X167877436Y-77869200D01*
X169399800Y-79391564D01*
X169399800Y-80217490D01*
X169169117Y-80371628D01*
X168898151Y-80777157D01*
X168803000Y-81255511D01*
X168803000Y-81304489D01*
X168898151Y-81782843D01*
X169169117Y-82188372D01*
X169574646Y-82459338D01*
X170053000Y-82554489D01*
X170531354Y-82459338D01*
X170936883Y-82188372D01*
X171207849Y-81782843D01*
X171303000Y-81304489D01*
X171303000Y-81255511D01*
X171207849Y-80777157D01*
X170936883Y-80371628D01*
X170706200Y-80217490D01*
X170706200Y-79121000D01*
X170656478Y-78871031D01*
X170514882Y-78659118D01*
X168614499Y-76758735D01*
X168915307Y-76959729D01*
X169418000Y-77059721D01*
X169920693Y-76959729D01*
X170346855Y-76674976D01*
X170631608Y-76248814D01*
X170688000Y-75965313D01*
X170744392Y-76248814D01*
X170744392Y-76248814D01*
G37*
X170744392Y-76248814D02*
X171029145Y-76674976D01*
X171304800Y-76859163D01*
X171304800Y-83676436D01*
X168893436Y-86087800D01*
X161850964Y-86087800D01*
X162894882Y-85043882D01*
X163036478Y-84831969D01*
X163086200Y-84582000D01*
X163086200Y-82342510D01*
X163316883Y-82188372D01*
X163587849Y-81782843D01*
X163683000Y-81304489D01*
X163683000Y-81255511D01*
X163587849Y-80777157D01*
X163316883Y-80371628D01*
X162911354Y-80100662D01*
X162433000Y-80005511D01*
X161954646Y-80100662D01*
X161549117Y-80371628D01*
X161278151Y-80777157D01*
X161183000Y-81255511D01*
X161183000Y-81304489D01*
X161278151Y-81782843D01*
X161549117Y-82188372D01*
X161779800Y-82342510D01*
X161779800Y-84311436D01*
X160765436Y-85325800D01*
X155601440Y-85325800D01*
X155689869Y-85112839D01*
X155690130Y-84814470D01*
X155576189Y-84538714D01*
X155365395Y-84327552D01*
X155089839Y-84213131D01*
X154964935Y-84213022D01*
X154813000Y-84182800D01*
X149098000Y-84182800D01*
X148848031Y-84232522D01*
X148636118Y-84374118D01*
X146731118Y-86279118D01*
X146589522Y-86491031D01*
X146539800Y-86741000D01*
X146539800Y-87641184D01*
X146393000Y-87641184D01*
X146226240Y-87672562D01*
X146073081Y-87771117D01*
X145970332Y-87921495D01*
X145934184Y-88100000D01*
X145934184Y-89700000D01*
X145965562Y-89866760D01*
X146064117Y-90019919D01*
X146199686Y-90112550D01*
X145525436Y-90786800D01*
X145216045Y-90786800D01*
X145361815Y-90353452D01*
X145323637Y-89794618D01*
X145183229Y-89455643D01*
X144947969Y-89377820D01*
X144155789Y-90170000D01*
X144169931Y-90184142D01*
X143952142Y-90401931D01*
X143938000Y-90387789D01*
X143923858Y-90401931D01*
X143706069Y-90184142D01*
X143720211Y-90170000D01*
X142928031Y-89377820D01*
X142692771Y-89455643D01*
X142514185Y-89986548D01*
X142552363Y-90545382D01*
X142652362Y-90786800D01*
X140478564Y-90786800D01*
X140165400Y-90473636D01*
X140178954Y-90440994D01*
X141459917Y-89160031D01*
X143145820Y-89160031D01*
X143938000Y-89952211D01*
X144730180Y-89160031D01*
X144652357Y-88924771D01*
X144121452Y-88746185D01*
X143562618Y-88784363D01*
X143223643Y-88924771D01*
X143145820Y-89160031D01*
X141459917Y-89160031D01*
X143744142Y-86875806D01*
X143963143Y-86785316D01*
X144315081Y-86433993D01*
X144505783Y-85974731D01*
X144506217Y-85477450D01*
X144316316Y-85017857D01*
X144194429Y-84895757D01*
X144352882Y-84789882D01*
X145876882Y-83265882D01*
X146018478Y-83053969D01*
X146033696Y-82977461D01*
X146068200Y-82804000D01*
X146068200Y-81827814D01*
X146309117Y-82188372D01*
X146714646Y-82459338D01*
X147193000Y-82554489D01*
X147671354Y-82459338D01*
X148076883Y-82188372D01*
X148347849Y-81782843D01*
X148443000Y-81304489D01*
X148443000Y-81255511D01*
X148347849Y-80777157D01*
X148186847Y-80536200D01*
X148739153Y-80536200D01*
X148578151Y-80777157D01*
X148483000Y-81255511D01*
X148483000Y-81304489D01*
X148578151Y-81782843D01*
X148849117Y-82188372D01*
X149254646Y-82459338D01*
X149733000Y-82554489D01*
X150211354Y-82459338D01*
X150616883Y-82188372D01*
X150887849Y-81782843D01*
X150983000Y-81304489D01*
X150983000Y-81255511D01*
X151023000Y-81255511D01*
X151023000Y-81304489D01*
X151118151Y-81782843D01*
X151389117Y-82188372D01*
X151794646Y-82459338D01*
X152273000Y-82554489D01*
X152751354Y-82459338D01*
X153156883Y-82188372D01*
X153427849Y-81782843D01*
X153523000Y-81304489D01*
X153523000Y-81255511D01*
X153427849Y-80777157D01*
X153156883Y-80371628D01*
X152751354Y-80100662D01*
X152273000Y-80005511D01*
X151794646Y-80100662D01*
X151389117Y-80371628D01*
X151118151Y-80777157D01*
X151023000Y-81255511D01*
X150983000Y-81255511D01*
X150887849Y-80777157D01*
X150616883Y-80371628D01*
X150346396Y-80190895D01*
X150336478Y-80141031D01*
X150194882Y-79929118D01*
X149989164Y-79723400D01*
X153420478Y-79723400D01*
X154012794Y-80315716D01*
X153929117Y-80371628D01*
X153658151Y-80777157D01*
X153563000Y-81255511D01*
X153563000Y-81304489D01*
X153658151Y-81782843D01*
X153929117Y-82188372D01*
X154334646Y-82459338D01*
X154813000Y-82554489D01*
X155291354Y-82459338D01*
X155696883Y-82188372D01*
X155967849Y-81782843D01*
X156037238Y-81434002D01*
X156105434Y-81434002D01*
X155994757Y-81651044D01*
X156240139Y-82142577D01*
X156654944Y-82502791D01*
X156981958Y-82638231D01*
X157199000Y-82526523D01*
X157199000Y-81434000D01*
X157179000Y-81434000D01*
X157179000Y-81126000D01*
X157199000Y-81126000D01*
X157199000Y-80033477D01*
X157507000Y-80033477D01*
X157507000Y-81126000D01*
X157527000Y-81126000D01*
X157527000Y-81434000D01*
X157507000Y-81434000D01*
X157507000Y-82526523D01*
X157724042Y-82638231D01*
X158051056Y-82502791D01*
X158465861Y-82142577D01*
X158711243Y-81651044D01*
X158600566Y-81434002D01*
X158668762Y-81434002D01*
X158738151Y-81782843D01*
X159009117Y-82188372D01*
X159414646Y-82459338D01*
X159893000Y-82554489D01*
X160371354Y-82459338D01*
X160776883Y-82188372D01*
X161047849Y-81782843D01*
X161143000Y-81304489D01*
X161143000Y-81255511D01*
X161047849Y-80777157D01*
X160776883Y-80371628D01*
X160371354Y-80100662D01*
X159893000Y-80005511D01*
X159414646Y-80100662D01*
X159009117Y-80371628D01*
X158738151Y-80777157D01*
X158668762Y-81125998D01*
X158600566Y-81125998D01*
X158711243Y-80908956D01*
X158465861Y-80417423D01*
X158051056Y-80057209D01*
X157724042Y-79921769D01*
X157507000Y-80033477D01*
X157199000Y-80033477D01*
X156981958Y-79921769D01*
X156654944Y-80057209D01*
X156240139Y-80417423D01*
X155994757Y-80908956D01*
X156105434Y-81125998D01*
X156037238Y-81125998D01*
X155967849Y-80777157D01*
X155696883Y-80371628D01*
X155396944Y-80171215D01*
X155369545Y-80033472D01*
X155369545Y-80033471D01*
X155238961Y-79838039D01*
X154511524Y-79110602D01*
X163432436Y-79110602D01*
X164319800Y-79997966D01*
X164319800Y-80217490D01*
X164089117Y-80371628D01*
X163818151Y-80777157D01*
X163723000Y-81255511D01*
X163723000Y-81304489D01*
X163818151Y-81782843D01*
X164089117Y-82188372D01*
X164494646Y-82459338D01*
X164973000Y-82554489D01*
X165451354Y-82459338D01*
X165856883Y-82188372D01*
X166127849Y-81782843D01*
X166223000Y-81304489D01*
X166223000Y-81255511D01*
X166127849Y-80777157D01*
X165856883Y-80371628D01*
X165626200Y-80217490D01*
X165626200Y-79727402D01*
X165576478Y-79477433D01*
X165434882Y-79265520D01*
X164673562Y-78504200D01*
X166353436Y-78504200D01*
X166859800Y-79010564D01*
X166859800Y-80217490D01*
X166629117Y-80371628D01*
X166358151Y-80777157D01*
X166263000Y-81255511D01*
X166263000Y-81304489D01*
X166358151Y-81782843D01*
X166629117Y-82188372D01*
X167034646Y-82459338D01*
X167513000Y-82554489D01*
X167991354Y-82459338D01*
X168396883Y-82188372D01*
X168667849Y-81782843D01*
X168763000Y-81304489D01*
X168763000Y-81255511D01*
X168667849Y-80777157D01*
X168396883Y-80371628D01*
X168166200Y-80217490D01*
X168166200Y-78740000D01*
X168116478Y-78490031D01*
X167974882Y-78278118D01*
X167565964Y-77869200D01*
X167877436Y-77869200D01*
X169399800Y-79391564D01*
X169399800Y-80217490D01*
X169169117Y-80371628D01*
X168898151Y-80777157D01*
X168803000Y-81255511D01*
X168803000Y-81304489D01*
X168898151Y-81782843D01*
X169169117Y-82188372D01*
X169574646Y-82459338D01*
X170053000Y-82554489D01*
X170531354Y-82459338D01*
X170936883Y-82188372D01*
X171207849Y-81782843D01*
X171303000Y-81304489D01*
X171303000Y-81255511D01*
X171207849Y-80777157D01*
X170936883Y-80371628D01*
X170706200Y-80217490D01*
X170706200Y-79121000D01*
X170656478Y-78871031D01*
X170514882Y-78659118D01*
X168614499Y-76758735D01*
X168915307Y-76959729D01*
X169418000Y-77059721D01*
X169920693Y-76959729D01*
X170346855Y-76674976D01*
X170631608Y-76248814D01*
X170688000Y-75965313D01*
X170744392Y-76248814D01*
G36*
X139209475Y-83800397D02*
X139111118Y-83866118D01*
X137714118Y-85263118D01*
X137572522Y-85475031D01*
X137522800Y-85725000D01*
X137522800Y-86104357D01*
X137426131Y-86337161D01*
X137425870Y-86635530D01*
X137539811Y-86911286D01*
X137750605Y-87122448D01*
X138026161Y-87236869D01*
X138324530Y-87237130D01*
X138600286Y-87123189D01*
X138811448Y-86912395D01*
X138925869Y-86636839D01*
X138926130Y-86338470D01*
X138829200Y-86103883D01*
X138829200Y-85995564D01*
X139357007Y-85467757D01*
X139332185Y-85541548D01*
X139370363Y-86100382D01*
X139510771Y-86439357D01*
X139746031Y-86517180D01*
X140538211Y-85725000D01*
X140524069Y-85710858D01*
X140741858Y-85493069D01*
X140756000Y-85507211D01*
X140770142Y-85493069D01*
X140987931Y-85710858D01*
X140973789Y-85725000D01*
X140987931Y-85739142D01*
X140770142Y-85956931D01*
X140756000Y-85942789D01*
X139963820Y-86734969D01*
X140041643Y-86970229D01*
X140572548Y-87148815D01*
X141131382Y-87110637D01*
X141470357Y-86970229D01*
X141548179Y-86734971D01*
X141649130Y-86835922D01*
X139454191Y-89030861D01*
X139187731Y-88920217D01*
X138690450Y-88919783D01*
X138230857Y-89109684D01*
X137878919Y-89461007D01*
X137855752Y-89516800D01*
X137582305Y-89516800D01*
X137617919Y-89493883D01*
X137720668Y-89343505D01*
X137756816Y-89165000D01*
X137756816Y-87365000D01*
X137725438Y-87198240D01*
X137626883Y-87045081D01*
X137476505Y-86942332D01*
X137298000Y-86906184D01*
X136939440Y-86906184D01*
X136859882Y-86787118D01*
X136224882Y-86152118D01*
X136093460Y-86064304D01*
X136859882Y-85297882D01*
X137001478Y-85085969D01*
X137051200Y-84836000D01*
X137051200Y-84543816D01*
X137298000Y-84543816D01*
X137464760Y-84512438D01*
X137617919Y-84413883D01*
X137720668Y-84263505D01*
X137756816Y-84085000D01*
X137756816Y-82347738D01*
X139209475Y-83800397D01*
X139209475Y-83800397D01*
G37*
X139209475Y-83800397D02*
X139111118Y-83866118D01*
X137714118Y-85263118D01*
X137572522Y-85475031D01*
X137522800Y-85725000D01*
X137522800Y-86104357D01*
X137426131Y-86337161D01*
X137425870Y-86635530D01*
X137539811Y-86911286D01*
X137750605Y-87122448D01*
X138026161Y-87236869D01*
X138324530Y-87237130D01*
X138600286Y-87123189D01*
X138811448Y-86912395D01*
X138925869Y-86636839D01*
X138926130Y-86338470D01*
X138829200Y-86103883D01*
X138829200Y-85995564D01*
X139357007Y-85467757D01*
X139332185Y-85541548D01*
X139370363Y-86100382D01*
X139510771Y-86439357D01*
X139746031Y-86517180D01*
X140538211Y-85725000D01*
X140524069Y-85710858D01*
X140741858Y-85493069D01*
X140756000Y-85507211D01*
X140770142Y-85493069D01*
X140987931Y-85710858D01*
X140973789Y-85725000D01*
X140987931Y-85739142D01*
X140770142Y-85956931D01*
X140756000Y-85942789D01*
X139963820Y-86734969D01*
X140041643Y-86970229D01*
X140572548Y-87148815D01*
X141131382Y-87110637D01*
X141470357Y-86970229D01*
X141548179Y-86734971D01*
X141649130Y-86835922D01*
X139454191Y-89030861D01*
X139187731Y-88920217D01*
X138690450Y-88919783D01*
X138230857Y-89109684D01*
X137878919Y-89461007D01*
X137855752Y-89516800D01*
X137582305Y-89516800D01*
X137617919Y-89493883D01*
X137720668Y-89343505D01*
X137756816Y-89165000D01*
X137756816Y-87365000D01*
X137725438Y-87198240D01*
X137626883Y-87045081D01*
X137476505Y-86942332D01*
X137298000Y-86906184D01*
X136939440Y-86906184D01*
X136859882Y-86787118D01*
X136224882Y-86152118D01*
X136093460Y-86064304D01*
X136859882Y-85297882D01*
X137001478Y-85085969D01*
X137051200Y-84836000D01*
X137051200Y-84543816D01*
X137298000Y-84543816D01*
X137464760Y-84512438D01*
X137617919Y-84413883D01*
X137720668Y-84263505D01*
X137756816Y-84085000D01*
X137756816Y-82347738D01*
X139209475Y-83800397D01*
G36*
X144354039Y-79965039D02*
X144223455Y-80160471D01*
X144223455Y-80160472D01*
X144177600Y-80391000D01*
X144177600Y-80862608D01*
X144135179Y-80905029D01*
X144057357Y-80669771D01*
X143526452Y-80491185D01*
X142967618Y-80529363D01*
X142628643Y-80669771D01*
X142550820Y-80905031D01*
X143343000Y-81697211D01*
X143357142Y-81683069D01*
X143574931Y-81900858D01*
X143560789Y-81915000D01*
X143574931Y-81929142D01*
X143357142Y-82146931D01*
X143343000Y-82132789D01*
X143328858Y-82146931D01*
X143111069Y-81929142D01*
X143125211Y-81915000D01*
X142333031Y-81122820D01*
X142097771Y-81200643D01*
X142009169Y-81464040D01*
X141903316Y-81207857D01*
X141553917Y-80857847D01*
X143301162Y-79110602D01*
X145208476Y-79110602D01*
X144354039Y-79965039D01*
X144354039Y-79965039D01*
G37*
X144354039Y-79965039D02*
X144223455Y-80160471D01*
X144223455Y-80160472D01*
X144177600Y-80391000D01*
X144177600Y-80862608D01*
X144135179Y-80905029D01*
X144057357Y-80669771D01*
X143526452Y-80491185D01*
X142967618Y-80529363D01*
X142628643Y-80669771D01*
X142550820Y-80905031D01*
X143343000Y-81697211D01*
X143357142Y-81683069D01*
X143574931Y-81900858D01*
X143560789Y-81915000D01*
X143574931Y-81929142D01*
X143357142Y-82146931D01*
X143343000Y-82132789D01*
X143328858Y-82146931D01*
X143111069Y-81929142D01*
X143125211Y-81915000D01*
X142333031Y-81122820D01*
X142097771Y-81200643D01*
X142009169Y-81464040D01*
X141903316Y-81207857D01*
X141553917Y-80857847D01*
X143301162Y-79110602D01*
X145208476Y-79110602D01*
X144354039Y-79965039D01*
G36*
X137568000Y-75411000D02*
X137588000Y-75411000D01*
X137588000Y-75719000D01*
X137568000Y-75719000D01*
X137568000Y-75739000D01*
X137260000Y-75739000D01*
X137260000Y-75719000D01*
X137240000Y-75719000D01*
X137240000Y-75411000D01*
X137260000Y-75411000D01*
X137260000Y-75391000D01*
X137568000Y-75391000D01*
X137568000Y-75411000D01*
X137568000Y-75411000D01*
G37*
X137568000Y-75411000D02*
X137588000Y-75411000D01*
X137588000Y-75719000D01*
X137568000Y-75719000D01*
X137568000Y-75739000D01*
X137260000Y-75739000D01*
X137260000Y-75719000D01*
X137240000Y-75719000D01*
X137240000Y-75411000D01*
X137260000Y-75411000D01*
X137260000Y-75391000D01*
X137568000Y-75391000D01*
X137568000Y-75411000D01*
M02*
