M48
;DRILL file {KiCad 4.0.6} date 08/25/20 17:01:25
;FORMAT={-:-/ absolute / inch / decimal}
FMAT,2
INCH,TZ
T1C0.016
T2C0.028
T3C0.031
T4C0.032
T5C0.035
T6C0.039
T7C0.040
T8C0.043
T9C0.091
T10C0.120
T11C0.138
%
G90
G05
M72
T1
X4.47Y-4.075
X4.47Y-4.375
X4.57Y-4.075
X4.57Y-4.375
X4.67Y-4.075
X4.67Y-4.175
X4.67Y-4.275
X4.67Y-4.375
X4.77Y-4.075
X4.77Y-4.175
X4.77Y-4.275
X4.77Y-4.375
X4.87Y-4.175
X4.87Y-4.275
X4.87Y-4.375
X4.97Y-4.175
X4.97Y-4.275
X4.97Y-4.375
X5.285Y-4.755
X5.44Y-3.405
X5.505Y-4.72
X5.81Y-3.795
X5.88Y-3.715
X5.885Y-3.81
X5.945Y-4.315
X5.985Y-3.765
X6.045Y-4.38
X6.05Y-4.43
X6.09Y-4.355
X6.1Y-3.345
X6.25Y-4.43
X6.3Y-4.28
X6.325Y-3.795
X6.375Y-3.81
X6.5Y-3.735
X6.51Y-3.77
X6.73Y-4.335
X6.895Y-3.695
X6.9Y-3.06
X7.Y-4.065
X7.015Y-3.71
T2
X4.83Y-3.225
X4.83Y-3.325
X4.83Y-3.425
X4.83Y-3.525
X4.8352Y-3.625
X4.8352Y-3.725
X4.8352Y-3.825
X4.8352Y-3.925
X5.1548Y-3.225
X5.1548Y-3.325
X5.1548Y-3.425
X5.1548Y-3.525
X5.16Y-3.625
X5.16Y-3.725
X5.16Y-3.825
X5.16Y-3.925
X6.42Y-4.075
X6.6239Y-3.6266
X6.6239Y-3.9514
X6.7448Y-4.075
T3
X5.1366Y-4.855
X5.235Y-4.855
X5.3216Y-4.5
X5.42Y-4.5
X5.47Y-3.55
X5.495Y-3.6781
X5.495Y-3.875
X5.5416Y-3.375
X5.545Y-3.225
X5.545Y-4.05
X5.595Y-4.2
X5.595Y-4.5
X5.64Y-3.375
X5.6434Y-3.225
X5.6669Y-3.55
X5.67Y-3.675
X5.67Y-3.775
X5.67Y-3.875
X5.695Y-4.2
X5.695Y-4.5
X5.7419Y-4.05
X5.795Y-3.2
X5.795Y-3.5
X5.795Y-4.2
X5.795Y-4.5
X5.895Y-3.2
X5.895Y-3.5
X5.895Y-3.625
X5.895Y-3.925
X5.895Y-4.2
X5.895Y-4.5
X5.995Y-3.2
X5.995Y-3.5
X5.995Y-3.625
X5.995Y-3.925
X5.995Y-4.2
X5.995Y-4.5
X6.095Y-3.2
X6.095Y-3.5
X6.095Y-3.625
X6.095Y-3.925
X6.095Y-4.2
X6.095Y-4.5
X6.195Y-3.2
X6.195Y-3.5
X6.195Y-3.625
X6.195Y-3.925
X6.195Y-4.2
X6.195Y-4.5
X6.2216Y-4.075
X6.295Y-3.2
X6.295Y-3.5
X6.295Y-3.625
X6.295Y-3.925
X6.295Y-4.2
X6.295Y-4.5
X6.32Y-4.075
X6.395Y-3.2
X6.395Y-3.5
X6.395Y-3.625
X6.395Y-3.925
X6.395Y-4.2
X6.395Y-4.5
X6.495Y-3.2
X6.495Y-3.5
X6.495Y-3.625
X6.495Y-3.925
X6.495Y-4.2
X6.495Y-4.5
X6.595Y-3.2
X6.595Y-3.5
X6.595Y-4.2
X6.595Y-4.5
X6.695Y-3.2
X6.695Y-3.5
X6.695Y-4.2
X6.695Y-4.5
X6.72Y-3.7031
X6.72Y-3.9
X6.795Y-4.2
X6.795Y-4.5
X6.895Y-4.2
X6.895Y-4.5
T4
X4.5913Y-3.425
X4.5913Y-3.525
X4.67Y-3.425
X4.67Y-3.525
T5
X5.27Y-3.275
X5.27Y-3.475
X5.27Y-3.675
X5.27Y-3.875
X5.37Y-3.275
X5.37Y-3.475
X5.37Y-3.675
X5.37Y-3.875
T6
X4.495Y-3.9
X4.595Y-3.9
X4.695Y-3.9
X5.17Y-4.115
X5.17Y-4.215
X5.17Y-4.315
X5.895Y-4.075
X5.9934Y-4.075
X6.0919Y-4.075
X6.87Y-3.775
X6.87Y-3.875
X6.87Y-3.975
X6.97Y-3.775
X6.97Y-3.875
X6.97Y-3.975
T7
X5.11Y-2.975
X5.21Y-2.975
X5.31Y-2.975
X5.41Y-2.975
X5.47Y-4.875
X5.51Y-2.975
X5.57Y-4.875
X5.61Y-2.975
X5.67Y-4.875
X5.71Y-2.975
X5.77Y-4.875
X5.81Y-2.975
X5.87Y-4.875
X5.91Y-2.975
X5.97Y-4.875
X6.01Y-2.975
X6.07Y-4.875
X6.17Y-2.975
X6.17Y-4.875
X6.27Y-2.975
X6.37Y-2.975
X6.37Y-4.875
X6.47Y-2.975
X6.47Y-4.875
X6.57Y-2.975
X6.57Y-4.875
X6.67Y-2.975
X6.67Y-4.875
X6.77Y-2.975
X6.77Y-4.875
X6.87Y-2.975
X6.87Y-4.875
T8
X4.4641Y-2.9478
X4.4641Y-3.125
X4.72Y-2.9478
X4.72Y-3.125
X4.945Y-4.65
X5.345Y-4.65
T9
X4.485Y-3.2388
X4.485Y-3.7112
T10
X4.92Y-4.875
X4.97Y-2.975
X6.97Y-3.575
X6.97Y-4.675
T11
X4.5141Y-4.215
T6
X4.5338Y-4.6356G85X4.5338Y-4.7144
G05
X4.6125Y-4.86G85X4.6913Y-4.86
G05
X4.77Y-4.6356G85X4.77Y-4.7144
G05
T0
M30
