G04 #@! TF.FileFunction,Legend,Top*
%FSLAX46Y46*%
G04 Gerber Fmt 4.6, Leading zero omitted, Abs format (unit mm)*
G04 Created by KiCad (PCBNEW 4.0.6) date 02/28/19 14:34:50*
%MOMM*%
%LPD*%
G01*
G04 APERTURE LIST*
%ADD10C,0.100000*%
%ADD11C,0.254000*%
%ADD12C,0.150000*%
G04 APERTURE END LIST*
D10*
D11*
X158925381Y-110610953D02*
X158102905Y-110610953D01*
X158006143Y-110659334D01*
X157957762Y-110707715D01*
X157909381Y-110804477D01*
X157909381Y-110998000D01*
X157957762Y-111094762D01*
X158006143Y-111143143D01*
X158102905Y-111191524D01*
X158925381Y-111191524D01*
X157957762Y-111626953D02*
X157909381Y-111772096D01*
X157909381Y-112014000D01*
X157957762Y-112110762D01*
X158006143Y-112159143D01*
X158102905Y-112207524D01*
X158199667Y-112207524D01*
X158296429Y-112159143D01*
X158344810Y-112110762D01*
X158393190Y-112014000D01*
X158441571Y-111820477D01*
X158489952Y-111723715D01*
X158538333Y-111675334D01*
X158635095Y-111626953D01*
X158731857Y-111626953D01*
X158828619Y-111675334D01*
X158877000Y-111723715D01*
X158925381Y-111820477D01*
X158925381Y-112062381D01*
X158877000Y-112207524D01*
X158441571Y-112981619D02*
X158393190Y-113126762D01*
X158344810Y-113175143D01*
X158248048Y-113223524D01*
X158102905Y-113223524D01*
X158006143Y-113175143D01*
X157957762Y-113126762D01*
X157909381Y-113030000D01*
X157909381Y-112642953D01*
X158925381Y-112642953D01*
X158925381Y-112981619D01*
X158877000Y-113078381D01*
X158828619Y-113126762D01*
X158731857Y-113175143D01*
X158635095Y-113175143D01*
X158538333Y-113126762D01*
X158489952Y-113078381D01*
X158441571Y-112981619D01*
X158441571Y-112642953D01*
X158586714Y-114287905D02*
X158586714Y-114674953D01*
X158925381Y-114433048D02*
X158054524Y-114433048D01*
X157957762Y-114481429D01*
X157909381Y-114578191D01*
X157909381Y-114674953D01*
X157909381Y-115158762D02*
X157957762Y-115062000D01*
X158006143Y-115013619D01*
X158102905Y-114965238D01*
X158393190Y-114965238D01*
X158489952Y-115013619D01*
X158538333Y-115062000D01*
X158586714Y-115158762D01*
X158586714Y-115303904D01*
X158538333Y-115400666D01*
X158489952Y-115449047D01*
X158393190Y-115497428D01*
X158102905Y-115497428D01*
X158006143Y-115449047D01*
X157957762Y-115400666D01*
X157909381Y-115303904D01*
X157909381Y-115158762D01*
X156179762Y-108772477D02*
X156131381Y-108917620D01*
X156131381Y-109159524D01*
X156179762Y-109256286D01*
X156228143Y-109304667D01*
X156324905Y-109353048D01*
X156421667Y-109353048D01*
X156518429Y-109304667D01*
X156566810Y-109256286D01*
X156615190Y-109159524D01*
X156663571Y-108966001D01*
X156711952Y-108869239D01*
X156760333Y-108820858D01*
X156857095Y-108772477D01*
X156953857Y-108772477D01*
X157050619Y-108820858D01*
X157099000Y-108869239D01*
X157147381Y-108966001D01*
X157147381Y-109207905D01*
X157099000Y-109353048D01*
X156179762Y-110175524D02*
X156131381Y-110078762D01*
X156131381Y-109885239D01*
X156179762Y-109788477D01*
X156276524Y-109740096D01*
X156663571Y-109740096D01*
X156760333Y-109788477D01*
X156808714Y-109885239D01*
X156808714Y-110078762D01*
X156760333Y-110175524D01*
X156663571Y-110223905D01*
X156566810Y-110223905D01*
X156470048Y-109740096D01*
X156131381Y-110659334D02*
X156808714Y-110659334D01*
X156615190Y-110659334D02*
X156711952Y-110707715D01*
X156760333Y-110756096D01*
X156808714Y-110852858D01*
X156808714Y-110949619D01*
X156131381Y-111288286D02*
X156808714Y-111288286D01*
X157147381Y-111288286D02*
X157099000Y-111239905D01*
X157050619Y-111288286D01*
X157099000Y-111336667D01*
X157147381Y-111288286D01*
X157050619Y-111288286D01*
X156131381Y-112207524D02*
X156663571Y-112207524D01*
X156760333Y-112159143D01*
X156808714Y-112062381D01*
X156808714Y-111868858D01*
X156760333Y-111772096D01*
X156179762Y-112207524D02*
X156131381Y-112110762D01*
X156131381Y-111868858D01*
X156179762Y-111772096D01*
X156276524Y-111723715D01*
X156373286Y-111723715D01*
X156470048Y-111772096D01*
X156518429Y-111868858D01*
X156518429Y-112110762D01*
X156566810Y-112207524D01*
X156131381Y-112836477D02*
X156179762Y-112739715D01*
X156276524Y-112691334D01*
X157147381Y-112691334D01*
X157147381Y-113997619D02*
X156324905Y-113997619D01*
X156228143Y-114046000D01*
X156179762Y-114094381D01*
X156131381Y-114191143D01*
X156131381Y-114384666D01*
X156179762Y-114481428D01*
X156228143Y-114529809D01*
X156324905Y-114578190D01*
X157147381Y-114578190D01*
X156421667Y-115013619D02*
X156421667Y-115497428D01*
X156131381Y-114916857D02*
X157147381Y-115255524D01*
X156131381Y-115594190D01*
X156131381Y-116513428D02*
X156615190Y-116174762D01*
X156131381Y-115932857D02*
X157147381Y-115932857D01*
X157147381Y-116319904D01*
X157099000Y-116416666D01*
X157050619Y-116465047D01*
X156953857Y-116513428D01*
X156808714Y-116513428D01*
X156711952Y-116465047D01*
X156663571Y-116416666D01*
X156615190Y-116319904D01*
X156615190Y-115932857D01*
X157147381Y-116803714D02*
X157147381Y-117384285D01*
X156131381Y-117094000D02*
X157147381Y-117094000D01*
X157552571Y-96882857D02*
X157552571Y-96544191D01*
X157020381Y-96544191D02*
X158036381Y-96544191D01*
X158036381Y-97028000D01*
X158036381Y-97269905D02*
X158036381Y-97850476D01*
X157020381Y-97560191D02*
X158036381Y-97560191D01*
X157939619Y-98140762D02*
X157988000Y-98189143D01*
X158036381Y-98285905D01*
X158036381Y-98527809D01*
X157988000Y-98624571D01*
X157939619Y-98672952D01*
X157842857Y-98721333D01*
X157746095Y-98721333D01*
X157600952Y-98672952D01*
X157020381Y-98092381D01*
X157020381Y-98721333D01*
X158036381Y-99060000D02*
X158036381Y-99688952D01*
X157649333Y-99350286D01*
X157649333Y-99495428D01*
X157600952Y-99592190D01*
X157552571Y-99640571D01*
X157455810Y-99688952D01*
X157213905Y-99688952D01*
X157117143Y-99640571D01*
X157068762Y-99592190D01*
X157020381Y-99495428D01*
X157020381Y-99205143D01*
X157068762Y-99108381D01*
X157117143Y-99060000D01*
X157020381Y-100656571D02*
X157020381Y-100076000D01*
X157020381Y-100366286D02*
X158036381Y-100366286D01*
X157891238Y-100269524D01*
X157794476Y-100172762D01*
X157746095Y-100076000D01*
X158036381Y-100995238D02*
X157020381Y-101672571D01*
X158036381Y-101672571D02*
X157020381Y-100995238D01*
D12*
X157480000Y-102369441D02*
X158028008Y-102917449D01*
X157480000Y-108450559D02*
X156931992Y-107902551D01*
X160520559Y-105410000D02*
X159972551Y-104861992D01*
X154439441Y-105410000D02*
X154987449Y-104861992D01*
X157480000Y-108450559D02*
X158028008Y-107902551D01*
X160520559Y-105410000D02*
X159972551Y-105958008D01*
X157480000Y-102369441D02*
X156931992Y-102917449D01*
M02*
