G04 #@! TF.FileFunction,Copper,L1,Top,Signal*
%FSLAX46Y46*%
G04 Gerber Fmt 4.6, Leading zero omitted, Abs format (unit mm)*
G04 Created by KiCad (PCBNEW 4.0.6) date 02/28/19 14:34:50*
%MOMM*%
%LPD*%
G01*
G04 APERTURE LIST*
%ADD10C,0.100000*%
%ADD11C,0.600000*%
%ADD12C,0.254000*%
G04 APERTURE END LIST*
D10*
G36*
X155231400Y-106456518D02*
X155019268Y-106244386D01*
X155535456Y-105728198D01*
X155747588Y-105940330D01*
X155231400Y-106456518D01*
X155231400Y-106456518D01*
G37*
G36*
X155584954Y-106810071D02*
X155372822Y-106597939D01*
X155889010Y-106081751D01*
X156101142Y-106293883D01*
X155584954Y-106810071D01*
X155584954Y-106810071D01*
G37*
G36*
X155938507Y-107163625D02*
X155726375Y-106951493D01*
X156242563Y-106435305D01*
X156454695Y-106647437D01*
X155938507Y-107163625D01*
X155938507Y-107163625D01*
G37*
G36*
X156292061Y-107517178D02*
X156079929Y-107305046D01*
X156596117Y-106788858D01*
X156808249Y-107000990D01*
X156292061Y-107517178D01*
X156292061Y-107517178D01*
G37*
G36*
X156645614Y-107870732D02*
X156433482Y-107658600D01*
X156949670Y-107142412D01*
X157161802Y-107354544D01*
X156645614Y-107870732D01*
X156645614Y-107870732D01*
G37*
G36*
X158526518Y-107658600D02*
X158314386Y-107870732D01*
X157798198Y-107354544D01*
X158010330Y-107142412D01*
X158526518Y-107658600D01*
X158526518Y-107658600D01*
G37*
G36*
X158880071Y-107305046D02*
X158667939Y-107517178D01*
X158151751Y-107000990D01*
X158363883Y-106788858D01*
X158880071Y-107305046D01*
X158880071Y-107305046D01*
G37*
G36*
X159233625Y-106951493D02*
X159021493Y-107163625D01*
X158505305Y-106647437D01*
X158717437Y-106435305D01*
X159233625Y-106951493D01*
X159233625Y-106951493D01*
G37*
G36*
X159587178Y-106597939D02*
X159375046Y-106810071D01*
X158858858Y-106293883D01*
X159070990Y-106081751D01*
X159587178Y-106597939D01*
X159587178Y-106597939D01*
G37*
G36*
X159940732Y-106244386D02*
X159728600Y-106456518D01*
X159212412Y-105940330D01*
X159424544Y-105728198D01*
X159940732Y-106244386D01*
X159940732Y-106244386D01*
G37*
G36*
X159424544Y-105091802D02*
X159212412Y-104879670D01*
X159728600Y-104363482D01*
X159940732Y-104575614D01*
X159424544Y-105091802D01*
X159424544Y-105091802D01*
G37*
G36*
X159070990Y-104738249D02*
X158858858Y-104526117D01*
X159375046Y-104009929D01*
X159587178Y-104222061D01*
X159070990Y-104738249D01*
X159070990Y-104738249D01*
G37*
G36*
X158717437Y-104384695D02*
X158505305Y-104172563D01*
X159021493Y-103656375D01*
X159233625Y-103868507D01*
X158717437Y-104384695D01*
X158717437Y-104384695D01*
G37*
G36*
X158363883Y-104031142D02*
X158151751Y-103819010D01*
X158667939Y-103302822D01*
X158880071Y-103514954D01*
X158363883Y-104031142D01*
X158363883Y-104031142D01*
G37*
G36*
X158010330Y-103677588D02*
X157798198Y-103465456D01*
X158314386Y-102949268D01*
X158526518Y-103161400D01*
X158010330Y-103677588D01*
X158010330Y-103677588D01*
G37*
G36*
X157161802Y-103465456D02*
X156949670Y-103677588D01*
X156433482Y-103161400D01*
X156645614Y-102949268D01*
X157161802Y-103465456D01*
X157161802Y-103465456D01*
G37*
G36*
X156808249Y-103819010D02*
X156596117Y-104031142D01*
X156079929Y-103514954D01*
X156292061Y-103302822D01*
X156808249Y-103819010D01*
X156808249Y-103819010D01*
G37*
G36*
X156454695Y-104172563D02*
X156242563Y-104384695D01*
X155726375Y-103868507D01*
X155938507Y-103656375D01*
X156454695Y-104172563D01*
X156454695Y-104172563D01*
G37*
G36*
X156101142Y-104526117D02*
X155889010Y-104738249D01*
X155372822Y-104222061D01*
X155584954Y-104009929D01*
X156101142Y-104526117D01*
X156101142Y-104526117D01*
G37*
G36*
X155747588Y-104879670D02*
X155535456Y-105091802D01*
X155019268Y-104575614D01*
X155231400Y-104363482D01*
X155747588Y-104879670D01*
X155747588Y-104879670D01*
G37*
G36*
X158363883Y-106293883D02*
X157480000Y-105410000D01*
X158363883Y-104526117D01*
X159247766Y-105410000D01*
X158363883Y-106293883D01*
X158363883Y-106293883D01*
G37*
G36*
X157480000Y-105410000D02*
X156596117Y-104526117D01*
X157480000Y-103642234D01*
X158363883Y-104526117D01*
X157480000Y-105410000D01*
X157480000Y-105410000D01*
G37*
G36*
X157480000Y-107177766D02*
X156596117Y-106293883D01*
X157480000Y-105410000D01*
X158363883Y-106293883D01*
X157480000Y-107177766D01*
X157480000Y-107177766D01*
G37*
G36*
X156596117Y-106293883D02*
X155712234Y-105410000D01*
X156596117Y-104526117D01*
X157480000Y-105410000D01*
X156596117Y-106293883D01*
X156596117Y-106293883D01*
G37*
D11*
X154990800Y-105283000D03*
X154990800Y-107213400D03*
X160045400Y-105537000D03*
X160172400Y-103428800D03*
D12*
X155383428Y-106092358D02*
X155383428Y-105675628D01*
X155383428Y-105675628D02*
X154990800Y-105283000D01*
X155736982Y-106445911D02*
X155736982Y-106467218D01*
X155736982Y-106467218D02*
X154990800Y-107213400D01*
X156444089Y-107153018D02*
X156444089Y-107153913D01*
X156444089Y-107153913D02*
X156083000Y-107515002D01*
X156083000Y-107515002D02*
X156083000Y-107823000D01*
X156083000Y-107823000D02*
X154686000Y-109220000D01*
X154686000Y-109220000D02*
X153670000Y-109220000D01*
X156797642Y-107506572D02*
X156797642Y-108632358D01*
X156797642Y-108632358D02*
X153670000Y-111760000D01*
X158162358Y-107506572D02*
X158162358Y-108055042D01*
X155676600Y-112293400D02*
X153670000Y-114300000D01*
X155676600Y-110540800D02*
X155676600Y-112293400D01*
X158162358Y-108055042D02*
X155676600Y-110540800D01*
X158515911Y-107153018D02*
X158515911Y-107157111D01*
X158515911Y-107157111D02*
X158877000Y-107518200D01*
X156130602Y-115217598D02*
X154508200Y-116840000D01*
X154508200Y-116840000D02*
X153670000Y-116840000D01*
X156130602Y-110772598D02*
X156130602Y-115217598D01*
X156130602Y-110728854D02*
X156130602Y-110772598D01*
X158877000Y-107982456D02*
X156130602Y-110728854D01*
X158877000Y-107518200D02*
X158877000Y-107982456D01*
X158515911Y-107153018D02*
X158537218Y-107153018D01*
X158869465Y-106799465D02*
X158869465Y-106824865D01*
X158869465Y-106824865D02*
X159331002Y-107286402D01*
X159331002Y-107286402D02*
X159331002Y-108181798D01*
X159331002Y-108181798D02*
X158546800Y-108966000D01*
X158546800Y-108966000D02*
X158546800Y-115570000D01*
X158546800Y-115570000D02*
X159816800Y-116840000D01*
X159816800Y-116840000D02*
X161290000Y-116840000D01*
X159223018Y-106445911D02*
X159223018Y-106467218D01*
X159223018Y-106467218D02*
X159791400Y-107035600D01*
X160020000Y-114300000D02*
X161290000Y-114300000D01*
X159029400Y-113309400D02*
X160020000Y-114300000D01*
X159029400Y-109143800D02*
X159029400Y-113309400D01*
X159791400Y-108381800D02*
X159029400Y-109143800D01*
X159791400Y-107035600D02*
X159791400Y-108381800D01*
X159223018Y-106445911D02*
X159230309Y-106445911D01*
X159576572Y-106092358D02*
X159635558Y-106092358D01*
X159635558Y-106092358D02*
X160245402Y-106702202D01*
X160245402Y-110715402D02*
X161290000Y-111760000D01*
X160245402Y-106702202D02*
X160245402Y-110715402D01*
X159576572Y-106092358D02*
X159584758Y-106092358D01*
X159576572Y-104727642D02*
X159591642Y-104727642D01*
X159591642Y-104727642D02*
X160045400Y-105181400D01*
X160045400Y-105181400D02*
X160045400Y-105537000D01*
X159223018Y-104374089D02*
X159227111Y-104374089D01*
X159227111Y-104374089D02*
X160172400Y-103428800D01*
X158515911Y-103666982D02*
X158515911Y-103662889D01*
X158515911Y-103662889D02*
X159000802Y-103177998D01*
X159000802Y-103177998D02*
X159000802Y-102339798D01*
X159000802Y-102339798D02*
X159740600Y-101600000D01*
X159740600Y-101600000D02*
X161290000Y-101600000D01*
X158162358Y-103313428D02*
X158179572Y-103313428D01*
X158179572Y-103313428D02*
X158546800Y-102946200D01*
X158546800Y-102946200D02*
X158546800Y-100304600D01*
X158546800Y-100304600D02*
X159791400Y-99060000D01*
X159791400Y-99060000D02*
X161290000Y-99060000D01*
X156797642Y-103313428D02*
X156797642Y-99107358D01*
X159385000Y-96520000D02*
X161290000Y-96520000D01*
X156797642Y-99107358D02*
X159385000Y-96520000D01*
X156444089Y-103666982D02*
X156435482Y-103666982D01*
X156435482Y-103666982D02*
X156083000Y-103314500D01*
X156083000Y-103314500D02*
X156083000Y-97663000D01*
X156083000Y-97663000D02*
X159766000Y-93980000D01*
X159766000Y-93980000D02*
X161290000Y-93980000D01*
X153670000Y-93980000D02*
X153670000Y-94056200D01*
X153670000Y-94056200D02*
X155628998Y-96015198D01*
X155628998Y-96015198D02*
X155628998Y-103558998D01*
X155628998Y-103558998D02*
X156090535Y-104020535D01*
X155736982Y-104374089D02*
X155732889Y-104374089D01*
X155732889Y-104374089D02*
X155174996Y-103816196D01*
X154584400Y-96520000D02*
X153670000Y-96520000D01*
X155174996Y-97110596D02*
X154584400Y-96520000D01*
X155174996Y-103816196D02*
X155174996Y-97110596D01*
X155736982Y-104374089D02*
X155736982Y-104365482D01*
X155383428Y-104727642D02*
X155383428Y-104710428D01*
X155383428Y-104710428D02*
X154720994Y-104047994D01*
X154720994Y-99348994D02*
X154432000Y-99060000D01*
X154720994Y-104047994D02*
X154720994Y-99348994D01*
X154432000Y-99060000D02*
X153670000Y-99060000D01*
X154432000Y-99060000D02*
X153670000Y-99060000D01*
X158363883Y-105410000D02*
X158363883Y-104526117D01*
X158363883Y-104526117D02*
X158869465Y-104020535D01*
X157480000Y-106293883D02*
X156596117Y-106293883D01*
X156596117Y-106293883D02*
X156090535Y-106799465D01*
X156090535Y-106799465D02*
X155625800Y-107264200D01*
X154254200Y-107924600D02*
X153670000Y-107340400D01*
X155295600Y-107924600D02*
X154254200Y-107924600D01*
X155625800Y-107594400D02*
X155295600Y-107924600D01*
X155625800Y-107264200D02*
X155625800Y-107594400D01*
X153670000Y-107340400D02*
X153670000Y-106680000D01*
X158869465Y-104020535D02*
X159435800Y-103454200D01*
X160299400Y-102616000D02*
X161290000Y-103606600D01*
X159772396Y-102616000D02*
X160299400Y-102616000D01*
X159512000Y-102876396D02*
X159772396Y-102616000D01*
X159512000Y-103378000D02*
X159512000Y-102876396D01*
X159435800Y-103454200D02*
X159512000Y-103378000D01*
X161290000Y-103606600D02*
X161290000Y-104140000D01*
G36*
X154460473Y-108005592D02*
X154716476Y-108111894D01*
X154624638Y-108203731D01*
X154612927Y-108186204D01*
X154232752Y-107932180D01*
X154339574Y-107884482D01*
X154460473Y-108005592D01*
X154460473Y-108005592D01*
G37*
X154460473Y-108005592D02*
X154716476Y-108111894D01*
X154624638Y-108203731D01*
X154612927Y-108186204D01*
X154232752Y-107932180D01*
X154339574Y-107884482D01*
X154460473Y-108005592D01*
G36*
X153797000Y-106553000D02*
X153817000Y-106553000D01*
X153817000Y-106807000D01*
X153797000Y-106807000D01*
X153797000Y-106827000D01*
X153543000Y-106827000D01*
X153543000Y-106807000D01*
X153523000Y-106807000D01*
X153523000Y-106553000D01*
X153543000Y-106553000D01*
X153543000Y-106533000D01*
X153797000Y-106533000D01*
X153797000Y-106553000D01*
X153797000Y-106553000D01*
G37*
X153797000Y-106553000D02*
X153817000Y-106553000D01*
X153817000Y-106807000D01*
X153797000Y-106807000D01*
X153797000Y-106827000D01*
X153543000Y-106827000D01*
X153543000Y-106807000D01*
X153523000Y-106807000D01*
X153523000Y-106553000D01*
X153543000Y-106553000D01*
X153543000Y-106533000D01*
X153797000Y-106533000D01*
X153797000Y-106553000D01*
G36*
X157673748Y-104511975D02*
X157659605Y-104526117D01*
X158363883Y-105230395D01*
X158378026Y-105216253D01*
X158557631Y-105395858D01*
X158543488Y-105410000D01*
X158557631Y-105424143D01*
X158378026Y-105603748D01*
X158363883Y-105589605D01*
X157659605Y-106293883D01*
X157673748Y-106308026D01*
X157494143Y-106487631D01*
X157480000Y-106473488D01*
X157465858Y-106487631D01*
X157286253Y-106308026D01*
X157300395Y-106293883D01*
X156596117Y-105589605D01*
X156581975Y-105603748D01*
X156402370Y-105424143D01*
X156416512Y-105410000D01*
X156775722Y-105410000D01*
X156791101Y-105425379D01*
X156791101Y-105619127D01*
X157270873Y-106098899D01*
X157464621Y-106098899D01*
X157480000Y-106114278D01*
X157495379Y-106098899D01*
X157689127Y-106098899D01*
X158168899Y-105619127D01*
X158168899Y-105425379D01*
X158184278Y-105410000D01*
X158168899Y-105394621D01*
X158168899Y-105200873D01*
X157689127Y-104721101D01*
X157495379Y-104721101D01*
X157480000Y-104705722D01*
X157464621Y-104721101D01*
X157270873Y-104721101D01*
X156791101Y-105200873D01*
X156791101Y-105394621D01*
X156775722Y-105410000D01*
X156416512Y-105410000D01*
X156402370Y-105395858D01*
X156581975Y-105216253D01*
X156596117Y-105230395D01*
X157300395Y-104526117D01*
X157286253Y-104511975D01*
X157465858Y-104332370D01*
X157480000Y-104346512D01*
X157494143Y-104332370D01*
X157673748Y-104511975D01*
X157673748Y-104511975D01*
G37*
X157673748Y-104511975D02*
X157659605Y-104526117D01*
X158363883Y-105230395D01*
X158378026Y-105216253D01*
X158557631Y-105395858D01*
X158543488Y-105410000D01*
X158557631Y-105424143D01*
X158378026Y-105603748D01*
X158363883Y-105589605D01*
X157659605Y-106293883D01*
X157673748Y-106308026D01*
X157494143Y-106487631D01*
X157480000Y-106473488D01*
X157465858Y-106487631D01*
X157286253Y-106308026D01*
X157300395Y-106293883D01*
X156596117Y-105589605D01*
X156581975Y-105603748D01*
X156402370Y-105424143D01*
X156416512Y-105410000D01*
X156775722Y-105410000D01*
X156791101Y-105425379D01*
X156791101Y-105619127D01*
X157270873Y-106098899D01*
X157464621Y-106098899D01*
X157480000Y-106114278D01*
X157495379Y-106098899D01*
X157689127Y-106098899D01*
X158168899Y-105619127D01*
X158168899Y-105425379D01*
X158184278Y-105410000D01*
X158168899Y-105394621D01*
X158168899Y-105200873D01*
X157689127Y-104721101D01*
X157495379Y-104721101D01*
X157480000Y-104705722D01*
X157464621Y-104721101D01*
X157270873Y-104721101D01*
X156791101Y-105200873D01*
X156791101Y-105394621D01*
X156775722Y-105410000D01*
X156416512Y-105410000D01*
X156402370Y-105395858D01*
X156581975Y-105216253D01*
X156596117Y-105230395D01*
X157300395Y-104526117D01*
X157286253Y-104511975D01*
X157465858Y-104332370D01*
X157480000Y-104346512D01*
X157494143Y-104332370D01*
X157673748Y-104511975D01*
G36*
X161417000Y-104013000D02*
X161437000Y-104013000D01*
X161437000Y-104267000D01*
X161417000Y-104267000D01*
X161417000Y-104287000D01*
X161163000Y-104287000D01*
X161163000Y-104267000D01*
X161143000Y-104267000D01*
X161143000Y-104013000D01*
X161163000Y-104013000D01*
X161163000Y-103993000D01*
X161417000Y-103993000D01*
X161417000Y-104013000D01*
X161417000Y-104013000D01*
G37*
X161417000Y-104013000D02*
X161437000Y-104013000D01*
X161437000Y-104267000D01*
X161417000Y-104267000D01*
X161417000Y-104287000D01*
X161163000Y-104287000D01*
X161163000Y-104267000D01*
X161143000Y-104267000D01*
X161143000Y-104013000D01*
X161163000Y-104013000D01*
X161163000Y-103993000D01*
X161417000Y-103993000D01*
X161417000Y-104013000D01*
M02*
